%TF.GenerationSoftware,KiCad,Pcbnew,10.0.3*%
%TF.CreationDate,2026-06-14T02:29:51+03:00*%
%TF.ProjectId,sensor_board,73656e73-6f72-45f6-926f-6172642e6b69,rev?*%
%TF.SameCoordinates,Original*%
%TF.FileFunction,Legend,Bot*%
%TF.FilePolarity,Positive*%
%FSLAX46Y46*%
G04 Gerber Fmt 4.6, Leading zero omitted, Abs format (unit mm)*
G04 Created by KiCad (PCBNEW 10.0.3) date 2026-06-14 02:29:51*
%MOMM*%
%LPD*%
G01*
G04 APERTURE LIST*
%ADD10C,0.254000*%
%ADD11C,0.100000*%
%ADD12C,0.076200*%
G04 APERTURE END LIST*
D10*
X130721100Y-90223600D02*
X130721100Y-90858600D01*
X130721100Y-90223600D02*
X131356100Y-90223600D01*
X130721100Y-90223600D02*
X131991100Y-91493600D01*
X130721100Y-125783600D02*
X130721100Y-125148600D01*
X130721100Y-125783600D02*
X131356100Y-125783600D01*
X130721100Y-125783600D02*
X131991100Y-124513600D01*
X141770100Y-85270600D02*
G75*
G02*
X142405100Y-84635600I635000J0D01*
G01*
X141770100Y-91620600D02*
X141770100Y-85270600D01*
X142405100Y-84635600D02*
X154470100Y-84635600D01*
X142405100Y-92255600D02*
G75*
G02*
X141770100Y-91620600I0J635000D01*
G01*
X154470100Y-84635600D02*
G75*
G02*
X155105100Y-85270600I0J-635000D01*
G01*
X154470100Y-92255600D02*
X142405100Y-92255600D01*
X155105100Y-85270600D02*
X155105100Y-91620600D01*
X155105100Y-91620600D02*
G75*
G02*
X154470100Y-92255600I-635000J0D01*
G01*
X166281100Y-90223600D02*
X165011100Y-91493600D01*
X166281100Y-90223600D02*
X165646100Y-90223600D01*
X166281100Y-90223600D02*
X166281100Y-90858600D01*
X166281100Y-125783600D02*
X165011100Y-124513600D01*
X166281100Y-125783600D02*
X165646100Y-125783600D01*
X166281100Y-125783600D02*
X166281100Y-125148600D01*
D11*
X145212782Y-86041800D02*
X145084211Y-86084657D01*
X145084211Y-86084657D02*
X144869925Y-86084657D01*
X144869925Y-86084657D02*
X144784211Y-86041800D01*
X144784211Y-86041800D02*
X144741353Y-85998942D01*
X144741353Y-85998942D02*
X144698496Y-85913228D01*
X144698496Y-85913228D02*
X144698496Y-85827514D01*
X144698496Y-85827514D02*
X144741353Y-85741800D01*
X144741353Y-85741800D02*
X144784211Y-85698942D01*
X144784211Y-85698942D02*
X144869925Y-85656085D01*
X144869925Y-85656085D02*
X145041353Y-85613228D01*
X145041353Y-85613228D02*
X145127068Y-85570371D01*
X145127068Y-85570371D02*
X145169925Y-85527514D01*
X145169925Y-85527514D02*
X145212782Y-85441800D01*
X145212782Y-85441800D02*
X145212782Y-85356085D01*
X145212782Y-85356085D02*
X145169925Y-85270371D01*
X145169925Y-85270371D02*
X145127068Y-85227514D01*
X145127068Y-85227514D02*
X145041353Y-85184657D01*
X145041353Y-85184657D02*
X144827068Y-85184657D01*
X144827068Y-85184657D02*
X144698496Y-85227514D01*
X144312782Y-86084657D02*
X144312782Y-85184657D01*
X144312782Y-85184657D02*
X144098496Y-85184657D01*
X144098496Y-85184657D02*
X143969925Y-85227514D01*
X143969925Y-85227514D02*
X143884210Y-85313228D01*
X143884210Y-85313228D02*
X143841353Y-85398942D01*
X143841353Y-85398942D02*
X143798496Y-85570371D01*
X143798496Y-85570371D02*
X143798496Y-85698942D01*
X143798496Y-85698942D02*
X143841353Y-85870371D01*
X143841353Y-85870371D02*
X143884210Y-85956085D01*
X143884210Y-85956085D02*
X143969925Y-86041800D01*
X143969925Y-86041800D02*
X144098496Y-86084657D01*
X144098496Y-86084657D02*
X144312782Y-86084657D01*
X143455639Y-85827514D02*
X143027068Y-85827514D01*
X143541353Y-86084657D02*
X143241353Y-85184657D01*
X143241353Y-85184657D02*
X142941353Y-86084657D01*
X145212782Y-87946800D02*
X145084211Y-87989657D01*
X145084211Y-87989657D02*
X144869925Y-87989657D01*
X144869925Y-87989657D02*
X144784211Y-87946800D01*
X144784211Y-87946800D02*
X144741353Y-87903942D01*
X144741353Y-87903942D02*
X144698496Y-87818228D01*
X144698496Y-87818228D02*
X144698496Y-87732514D01*
X144698496Y-87732514D02*
X144741353Y-87646800D01*
X144741353Y-87646800D02*
X144784211Y-87603942D01*
X144784211Y-87603942D02*
X144869925Y-87561085D01*
X144869925Y-87561085D02*
X145041353Y-87518228D01*
X145041353Y-87518228D02*
X145127068Y-87475371D01*
X145127068Y-87475371D02*
X145169925Y-87432514D01*
X145169925Y-87432514D02*
X145212782Y-87346800D01*
X145212782Y-87346800D02*
X145212782Y-87261085D01*
X145212782Y-87261085D02*
X145169925Y-87175371D01*
X145169925Y-87175371D02*
X145127068Y-87132514D01*
X145127068Y-87132514D02*
X145041353Y-87089657D01*
X145041353Y-87089657D02*
X144827068Y-87089657D01*
X144827068Y-87089657D02*
X144698496Y-87132514D01*
X143798496Y-87903942D02*
X143841353Y-87946800D01*
X143841353Y-87946800D02*
X143969925Y-87989657D01*
X143969925Y-87989657D02*
X144055639Y-87989657D01*
X144055639Y-87989657D02*
X144184210Y-87946800D01*
X144184210Y-87946800D02*
X144269925Y-87861085D01*
X144269925Y-87861085D02*
X144312782Y-87775371D01*
X144312782Y-87775371D02*
X144355639Y-87603942D01*
X144355639Y-87603942D02*
X144355639Y-87475371D01*
X144355639Y-87475371D02*
X144312782Y-87303942D01*
X144312782Y-87303942D02*
X144269925Y-87218228D01*
X144269925Y-87218228D02*
X144184210Y-87132514D01*
X144184210Y-87132514D02*
X144055639Y-87089657D01*
X144055639Y-87089657D02*
X143969925Y-87089657D01*
X143969925Y-87089657D02*
X143841353Y-87132514D01*
X143841353Y-87132514D02*
X143798496Y-87175371D01*
X142984210Y-87989657D02*
X143412782Y-87989657D01*
X143412782Y-87989657D02*
X143412782Y-87089657D01*
X144698496Y-89037514D02*
X144784211Y-88994657D01*
X144784211Y-88994657D02*
X144912782Y-88994657D01*
X144912782Y-88994657D02*
X145041353Y-89037514D01*
X145041353Y-89037514D02*
X145127068Y-89123228D01*
X145127068Y-89123228D02*
X145169925Y-89208942D01*
X145169925Y-89208942D02*
X145212782Y-89380371D01*
X145212782Y-89380371D02*
X145212782Y-89508942D01*
X145212782Y-89508942D02*
X145169925Y-89680371D01*
X145169925Y-89680371D02*
X145127068Y-89766085D01*
X145127068Y-89766085D02*
X145041353Y-89851800D01*
X145041353Y-89851800D02*
X144912782Y-89894657D01*
X144912782Y-89894657D02*
X144827068Y-89894657D01*
X144827068Y-89894657D02*
X144698496Y-89851800D01*
X144698496Y-89851800D02*
X144655639Y-89808942D01*
X144655639Y-89808942D02*
X144655639Y-89508942D01*
X144655639Y-89508942D02*
X144827068Y-89508942D01*
X144269925Y-89894657D02*
X144269925Y-88994657D01*
X144269925Y-88994657D02*
X143755639Y-89894657D01*
X143755639Y-89894657D02*
X143755639Y-88994657D01*
X143327068Y-89894657D02*
X143327068Y-88994657D01*
X143327068Y-88994657D02*
X143112782Y-88994657D01*
X143112782Y-88994657D02*
X142984211Y-89037514D01*
X142984211Y-89037514D02*
X142898496Y-89123228D01*
X142898496Y-89123228D02*
X142855639Y-89208942D01*
X142855639Y-89208942D02*
X142812782Y-89380371D01*
X142812782Y-89380371D02*
X142812782Y-89508942D01*
X142812782Y-89508942D02*
X142855639Y-89680371D01*
X142855639Y-89680371D02*
X142898496Y-89766085D01*
X142898496Y-89766085D02*
X142984211Y-89851800D01*
X142984211Y-89851800D02*
X143112782Y-89894657D01*
X143112782Y-89894657D02*
X143327068Y-89894657D01*
X145169925Y-91456800D02*
X144484211Y-91456800D01*
X144827068Y-91799657D02*
X144827068Y-91113942D01*
X143627067Y-90899657D02*
X144055639Y-90899657D01*
X144055639Y-90899657D02*
X144098496Y-91328228D01*
X144098496Y-91328228D02*
X144055639Y-91285371D01*
X144055639Y-91285371D02*
X143969925Y-91242514D01*
X143969925Y-91242514D02*
X143755639Y-91242514D01*
X143755639Y-91242514D02*
X143669925Y-91285371D01*
X143669925Y-91285371D02*
X143627067Y-91328228D01*
X143627067Y-91328228D02*
X143584210Y-91413942D01*
X143584210Y-91413942D02*
X143584210Y-91628228D01*
X143584210Y-91628228D02*
X143627067Y-91713942D01*
X143627067Y-91713942D02*
X143669925Y-91756800D01*
X143669925Y-91756800D02*
X143755639Y-91799657D01*
X143755639Y-91799657D02*
X143969925Y-91799657D01*
X143969925Y-91799657D02*
X144055639Y-91756800D01*
X144055639Y-91756800D02*
X144098496Y-91713942D01*
X143327067Y-90899657D02*
X143027067Y-91799657D01*
X143027067Y-91799657D02*
X142727067Y-90899657D01*
X149314925Y-85613228D02*
X149186353Y-85656085D01*
X149186353Y-85656085D02*
X149143496Y-85698942D01*
X149143496Y-85698942D02*
X149100639Y-85784657D01*
X149100639Y-85784657D02*
X149100639Y-85913228D01*
X149100639Y-85913228D02*
X149143496Y-85998942D01*
X149143496Y-85998942D02*
X149186353Y-86041800D01*
X149186353Y-86041800D02*
X149272068Y-86084657D01*
X149272068Y-86084657D02*
X149614925Y-86084657D01*
X149614925Y-86084657D02*
X149614925Y-85184657D01*
X149614925Y-85184657D02*
X149314925Y-85184657D01*
X149314925Y-85184657D02*
X149229211Y-85227514D01*
X149229211Y-85227514D02*
X149186353Y-85270371D01*
X149186353Y-85270371D02*
X149143496Y-85356085D01*
X149143496Y-85356085D02*
X149143496Y-85441800D01*
X149143496Y-85441800D02*
X149186353Y-85527514D01*
X149186353Y-85527514D02*
X149229211Y-85570371D01*
X149229211Y-85570371D02*
X149314925Y-85613228D01*
X149314925Y-85613228D02*
X149614925Y-85613228D01*
X148843496Y-85184657D02*
X148329211Y-85184657D01*
X148586353Y-86084657D02*
X148586353Y-85184657D01*
X148029211Y-86084657D02*
X148029211Y-85184657D01*
X148029211Y-85184657D02*
X147514925Y-86084657D01*
X147514925Y-86084657D02*
X147514925Y-85184657D01*
X147129211Y-85270371D02*
X147086354Y-85227514D01*
X147086354Y-85227514D02*
X147000640Y-85184657D01*
X147000640Y-85184657D02*
X146786354Y-85184657D01*
X146786354Y-85184657D02*
X146700640Y-85227514D01*
X146700640Y-85227514D02*
X146657782Y-85270371D01*
X146657782Y-85270371D02*
X146614925Y-85356085D01*
X146614925Y-85356085D02*
X146614925Y-85441800D01*
X146614925Y-85441800D02*
X146657782Y-85570371D01*
X146657782Y-85570371D02*
X147172068Y-86084657D01*
X147172068Y-86084657D02*
X146614925Y-86084657D01*
X149186353Y-87989657D02*
X149614925Y-87989657D01*
X149614925Y-87989657D02*
X149614925Y-87089657D01*
X148886354Y-87518228D02*
X148586354Y-87518228D01*
X148457782Y-87989657D02*
X148886354Y-87989657D01*
X148886354Y-87989657D02*
X148886354Y-87089657D01*
X148886354Y-87089657D02*
X148457782Y-87089657D01*
X148072068Y-87989657D02*
X148072068Y-87089657D01*
X148072068Y-87089657D02*
X147857782Y-87089657D01*
X147857782Y-87089657D02*
X147729211Y-87132514D01*
X147729211Y-87132514D02*
X147643496Y-87218228D01*
X147643496Y-87218228D02*
X147600639Y-87303942D01*
X147600639Y-87303942D02*
X147557782Y-87475371D01*
X147557782Y-87475371D02*
X147557782Y-87603942D01*
X147557782Y-87603942D02*
X147600639Y-87775371D01*
X147600639Y-87775371D02*
X147643496Y-87861085D01*
X147643496Y-87861085D02*
X147729211Y-87946800D01*
X147729211Y-87946800D02*
X147857782Y-87989657D01*
X147857782Y-87989657D02*
X148072068Y-87989657D01*
X147172068Y-87989657D02*
X147172068Y-87089657D01*
X147172068Y-87089657D02*
X146957782Y-87089657D01*
X146957782Y-87089657D02*
X146829211Y-87132514D01*
X146829211Y-87132514D02*
X146743496Y-87218228D01*
X146743496Y-87218228D02*
X146700639Y-87303942D01*
X146700639Y-87303942D02*
X146657782Y-87475371D01*
X146657782Y-87475371D02*
X146657782Y-87603942D01*
X146657782Y-87603942D02*
X146700639Y-87775371D01*
X146700639Y-87775371D02*
X146743496Y-87861085D01*
X146743496Y-87861085D02*
X146829211Y-87946800D01*
X146829211Y-87946800D02*
X146957782Y-87989657D01*
X146957782Y-87989657D02*
X147172068Y-87989657D01*
X149614925Y-89894657D02*
X149614925Y-88994657D01*
X149614925Y-88994657D02*
X149314925Y-89637514D01*
X149314925Y-89637514D02*
X149014925Y-88994657D01*
X149014925Y-88994657D02*
X149014925Y-89894657D01*
X148629211Y-89637514D02*
X148200640Y-89637514D01*
X148714925Y-89894657D02*
X148414925Y-88994657D01*
X148414925Y-88994657D02*
X148114925Y-89894657D01*
X147343496Y-89037514D02*
X147429211Y-88994657D01*
X147429211Y-88994657D02*
X147557782Y-88994657D01*
X147557782Y-88994657D02*
X147686353Y-89037514D01*
X147686353Y-89037514D02*
X147772068Y-89123228D01*
X147772068Y-89123228D02*
X147814925Y-89208942D01*
X147814925Y-89208942D02*
X147857782Y-89380371D01*
X147857782Y-89380371D02*
X147857782Y-89508942D01*
X147857782Y-89508942D02*
X147814925Y-89680371D01*
X147814925Y-89680371D02*
X147772068Y-89766085D01*
X147772068Y-89766085D02*
X147686353Y-89851800D01*
X147686353Y-89851800D02*
X147557782Y-89894657D01*
X147557782Y-89894657D02*
X147472068Y-89894657D01*
X147472068Y-89894657D02*
X147343496Y-89851800D01*
X147343496Y-89851800D02*
X147300639Y-89808942D01*
X147300639Y-89808942D02*
X147300639Y-89508942D01*
X147300639Y-89508942D02*
X147472068Y-89508942D01*
X146443496Y-89894657D02*
X146957782Y-89894657D01*
X146700639Y-89894657D02*
X146700639Y-88994657D01*
X146700639Y-88994657D02*
X146786353Y-89123228D01*
X146786353Y-89123228D02*
X146872068Y-89208942D01*
X146872068Y-89208942D02*
X146957782Y-89251800D01*
X149614925Y-91456800D02*
X148929211Y-91456800D01*
X149272068Y-91799657D02*
X149272068Y-91113942D01*
X148586353Y-90899657D02*
X148029210Y-90899657D01*
X148029210Y-90899657D02*
X148329210Y-91242514D01*
X148329210Y-91242514D02*
X148200639Y-91242514D01*
X148200639Y-91242514D02*
X148114925Y-91285371D01*
X148114925Y-91285371D02*
X148072067Y-91328228D01*
X148072067Y-91328228D02*
X148029210Y-91413942D01*
X148029210Y-91413942D02*
X148029210Y-91628228D01*
X148029210Y-91628228D02*
X148072067Y-91713942D01*
X148072067Y-91713942D02*
X148114925Y-91756800D01*
X148114925Y-91756800D02*
X148200639Y-91799657D01*
X148200639Y-91799657D02*
X148457782Y-91799657D01*
X148457782Y-91799657D02*
X148543496Y-91756800D01*
X148543496Y-91756800D02*
X148586353Y-91713942D01*
X147772067Y-90899657D02*
X147472067Y-91799657D01*
X147472067Y-91799657D02*
X147172067Y-90899657D01*
X146957781Y-90899657D02*
X146400638Y-90899657D01*
X146400638Y-90899657D02*
X146700638Y-91242514D01*
X146700638Y-91242514D02*
X146572067Y-91242514D01*
X146572067Y-91242514D02*
X146486353Y-91285371D01*
X146486353Y-91285371D02*
X146443495Y-91328228D01*
X146443495Y-91328228D02*
X146400638Y-91413942D01*
X146400638Y-91413942D02*
X146400638Y-91628228D01*
X146400638Y-91628228D02*
X146443495Y-91713942D01*
X146443495Y-91713942D02*
X146486353Y-91756800D01*
X146486353Y-91756800D02*
X146572067Y-91799657D01*
X146572067Y-91799657D02*
X146829210Y-91799657D01*
X146829210Y-91799657D02*
X146914924Y-91756800D01*
X146914924Y-91756800D02*
X146957781Y-91713942D01*
X153759925Y-85613228D02*
X153631353Y-85656085D01*
X153631353Y-85656085D02*
X153588496Y-85698942D01*
X153588496Y-85698942D02*
X153545639Y-85784657D01*
X153545639Y-85784657D02*
X153545639Y-85913228D01*
X153545639Y-85913228D02*
X153588496Y-85998942D01*
X153588496Y-85998942D02*
X153631353Y-86041800D01*
X153631353Y-86041800D02*
X153717068Y-86084657D01*
X153717068Y-86084657D02*
X154059925Y-86084657D01*
X154059925Y-86084657D02*
X154059925Y-85184657D01*
X154059925Y-85184657D02*
X153759925Y-85184657D01*
X153759925Y-85184657D02*
X153674211Y-85227514D01*
X153674211Y-85227514D02*
X153631353Y-85270371D01*
X153631353Y-85270371D02*
X153588496Y-85356085D01*
X153588496Y-85356085D02*
X153588496Y-85441800D01*
X153588496Y-85441800D02*
X153631353Y-85527514D01*
X153631353Y-85527514D02*
X153674211Y-85570371D01*
X153674211Y-85570371D02*
X153759925Y-85613228D01*
X153759925Y-85613228D02*
X154059925Y-85613228D01*
X153288496Y-85184657D02*
X152774211Y-85184657D01*
X153031353Y-86084657D02*
X153031353Y-85184657D01*
X152474211Y-86084657D02*
X152474211Y-85184657D01*
X152474211Y-85184657D02*
X151959925Y-86084657D01*
X151959925Y-86084657D02*
X151959925Y-85184657D01*
X151059925Y-86084657D02*
X151574211Y-86084657D01*
X151317068Y-86084657D02*
X151317068Y-85184657D01*
X151317068Y-85184657D02*
X151402782Y-85313228D01*
X151402782Y-85313228D02*
X151488497Y-85398942D01*
X151488497Y-85398942D02*
X151574211Y-85441800D01*
X153631353Y-87989657D02*
X154059925Y-87989657D01*
X154059925Y-87989657D02*
X154059925Y-87089657D01*
X153331354Y-87518228D02*
X153031354Y-87518228D01*
X152902782Y-87989657D02*
X153331354Y-87989657D01*
X153331354Y-87989657D02*
X153331354Y-87089657D01*
X153331354Y-87089657D02*
X152902782Y-87089657D01*
X152517068Y-87989657D02*
X152517068Y-87089657D01*
X152517068Y-87089657D02*
X152302782Y-87089657D01*
X152302782Y-87089657D02*
X152174211Y-87132514D01*
X152174211Y-87132514D02*
X152088496Y-87218228D01*
X152088496Y-87218228D02*
X152045639Y-87303942D01*
X152045639Y-87303942D02*
X152002782Y-87475371D01*
X152002782Y-87475371D02*
X152002782Y-87603942D01*
X152002782Y-87603942D02*
X152045639Y-87775371D01*
X152045639Y-87775371D02*
X152088496Y-87861085D01*
X152088496Y-87861085D02*
X152174211Y-87946800D01*
X152174211Y-87946800D02*
X152302782Y-87989657D01*
X152302782Y-87989657D02*
X152517068Y-87989657D01*
X151617068Y-87989657D02*
X151617068Y-87089657D01*
X151617068Y-87089657D02*
X151274211Y-87089657D01*
X151274211Y-87089657D02*
X151188496Y-87132514D01*
X151188496Y-87132514D02*
X151145639Y-87175371D01*
X151145639Y-87175371D02*
X151102782Y-87261085D01*
X151102782Y-87261085D02*
X151102782Y-87389657D01*
X151102782Y-87389657D02*
X151145639Y-87475371D01*
X151145639Y-87475371D02*
X151188496Y-87518228D01*
X151188496Y-87518228D02*
X151274211Y-87561085D01*
X151274211Y-87561085D02*
X151617068Y-87561085D01*
X154059925Y-89894657D02*
X154059925Y-88994657D01*
X154059925Y-88994657D02*
X153759925Y-89637514D01*
X153759925Y-89637514D02*
X153459925Y-88994657D01*
X153459925Y-88994657D02*
X153459925Y-89894657D01*
X153074211Y-89637514D02*
X152645640Y-89637514D01*
X153159925Y-89894657D02*
X152859925Y-88994657D01*
X152859925Y-88994657D02*
X152559925Y-89894657D01*
X151788496Y-89037514D02*
X151874211Y-88994657D01*
X151874211Y-88994657D02*
X152002782Y-88994657D01*
X152002782Y-88994657D02*
X152131353Y-89037514D01*
X152131353Y-89037514D02*
X152217068Y-89123228D01*
X152217068Y-89123228D02*
X152259925Y-89208942D01*
X152259925Y-89208942D02*
X152302782Y-89380371D01*
X152302782Y-89380371D02*
X152302782Y-89508942D01*
X152302782Y-89508942D02*
X152259925Y-89680371D01*
X152259925Y-89680371D02*
X152217068Y-89766085D01*
X152217068Y-89766085D02*
X152131353Y-89851800D01*
X152131353Y-89851800D02*
X152002782Y-89894657D01*
X152002782Y-89894657D02*
X151917068Y-89894657D01*
X151917068Y-89894657D02*
X151788496Y-89851800D01*
X151788496Y-89851800D02*
X151745639Y-89808942D01*
X151745639Y-89808942D02*
X151745639Y-89508942D01*
X151745639Y-89508942D02*
X151917068Y-89508942D01*
X151445639Y-88994657D02*
X150888496Y-88994657D01*
X150888496Y-88994657D02*
X151188496Y-89337514D01*
X151188496Y-89337514D02*
X151059925Y-89337514D01*
X151059925Y-89337514D02*
X150974211Y-89380371D01*
X150974211Y-89380371D02*
X150931353Y-89423228D01*
X150931353Y-89423228D02*
X150888496Y-89508942D01*
X150888496Y-89508942D02*
X150888496Y-89723228D01*
X150888496Y-89723228D02*
X150931353Y-89808942D01*
X150931353Y-89808942D02*
X150974211Y-89851800D01*
X150974211Y-89851800D02*
X151059925Y-89894657D01*
X151059925Y-89894657D02*
X151317068Y-89894657D01*
X151317068Y-89894657D02*
X151402782Y-89851800D01*
X151402782Y-89851800D02*
X151445639Y-89808942D01*
X154059925Y-91799657D02*
X154059925Y-90899657D01*
X154059925Y-90899657D02*
X153759925Y-91542514D01*
X153759925Y-91542514D02*
X153459925Y-90899657D01*
X153459925Y-90899657D02*
X153459925Y-91799657D01*
X153074211Y-91542514D02*
X152645640Y-91542514D01*
X153159925Y-91799657D02*
X152859925Y-90899657D01*
X152859925Y-90899657D02*
X152559925Y-91799657D01*
X151788496Y-90942514D02*
X151874211Y-90899657D01*
X151874211Y-90899657D02*
X152002782Y-90899657D01*
X152002782Y-90899657D02*
X152131353Y-90942514D01*
X152131353Y-90942514D02*
X152217068Y-91028228D01*
X152217068Y-91028228D02*
X152259925Y-91113942D01*
X152259925Y-91113942D02*
X152302782Y-91285371D01*
X152302782Y-91285371D02*
X152302782Y-91413942D01*
X152302782Y-91413942D02*
X152259925Y-91585371D01*
X152259925Y-91585371D02*
X152217068Y-91671085D01*
X152217068Y-91671085D02*
X152131353Y-91756800D01*
X152131353Y-91756800D02*
X152002782Y-91799657D01*
X152002782Y-91799657D02*
X151917068Y-91799657D01*
X151917068Y-91799657D02*
X151788496Y-91756800D01*
X151788496Y-91756800D02*
X151745639Y-91713942D01*
X151745639Y-91713942D02*
X151745639Y-91413942D01*
X151745639Y-91413942D02*
X151917068Y-91413942D01*
X151402782Y-90985371D02*
X151359925Y-90942514D01*
X151359925Y-90942514D02*
X151274211Y-90899657D01*
X151274211Y-90899657D02*
X151059925Y-90899657D01*
X151059925Y-90899657D02*
X150974211Y-90942514D01*
X150974211Y-90942514D02*
X150931353Y-90985371D01*
X150931353Y-90985371D02*
X150888496Y-91071085D01*
X150888496Y-91071085D02*
X150888496Y-91156800D01*
X150888496Y-91156800D02*
X150931353Y-91285371D01*
X150931353Y-91285371D02*
X151445639Y-91799657D01*
X151445639Y-91799657D02*
X150888496Y-91799657D01*
X154358243Y-126447180D02*
X154405862Y-126494800D01*
X154405862Y-126494800D02*
X154548719Y-126542419D01*
X154548719Y-126542419D02*
X154643957Y-126542419D01*
X154643957Y-126542419D02*
X154786814Y-126494800D01*
X154786814Y-126494800D02*
X154882052Y-126399561D01*
X154882052Y-126399561D02*
X154929671Y-126304323D01*
X154929671Y-126304323D02*
X154977290Y-126113847D01*
X154977290Y-126113847D02*
X154977290Y-125970990D01*
X154977290Y-125970990D02*
X154929671Y-125780514D01*
X154929671Y-125780514D02*
X154882052Y-125685276D01*
X154882052Y-125685276D02*
X154786814Y-125590038D01*
X154786814Y-125590038D02*
X154643957Y-125542419D01*
X154643957Y-125542419D02*
X154548719Y-125542419D01*
X154548719Y-125542419D02*
X154405862Y-125590038D01*
X154405862Y-125590038D02*
X154358243Y-125637657D01*
X153977290Y-126256704D02*
X153501100Y-126256704D01*
X154072528Y-126542419D02*
X153739195Y-125542419D01*
X153739195Y-125542419D02*
X153405862Y-126542419D01*
X153072528Y-126542419D02*
X153072528Y-125542419D01*
X153072528Y-125542419D02*
X152834433Y-125542419D01*
X152834433Y-125542419D02*
X152691576Y-125590038D01*
X152691576Y-125590038D02*
X152596338Y-125685276D01*
X152596338Y-125685276D02*
X152548719Y-125780514D01*
X152548719Y-125780514D02*
X152501100Y-125970990D01*
X152501100Y-125970990D02*
X152501100Y-126113847D01*
X152501100Y-126113847D02*
X152548719Y-126304323D01*
X152548719Y-126304323D02*
X152596338Y-126399561D01*
X152596338Y-126399561D02*
X152691576Y-126494800D01*
X152691576Y-126494800D02*
X152834433Y-126542419D01*
X152834433Y-126542419D02*
X153072528Y-126542419D01*
X151310623Y-126542419D02*
X151310623Y-125542419D01*
X151310623Y-125542419D02*
X150977290Y-126256704D01*
X150977290Y-126256704D02*
X150643957Y-125542419D01*
X150643957Y-125542419D02*
X150643957Y-126542419D01*
X149977290Y-125542419D02*
X149786814Y-125542419D01*
X149786814Y-125542419D02*
X149691576Y-125590038D01*
X149691576Y-125590038D02*
X149596338Y-125685276D01*
X149596338Y-125685276D02*
X149548719Y-125875752D01*
X149548719Y-125875752D02*
X149548719Y-126209085D01*
X149548719Y-126209085D02*
X149596338Y-126399561D01*
X149596338Y-126399561D02*
X149691576Y-126494800D01*
X149691576Y-126494800D02*
X149786814Y-126542419D01*
X149786814Y-126542419D02*
X149977290Y-126542419D01*
X149977290Y-126542419D02*
X150072528Y-126494800D01*
X150072528Y-126494800D02*
X150167766Y-126399561D01*
X150167766Y-126399561D02*
X150215385Y-126209085D01*
X150215385Y-126209085D02*
X150215385Y-125875752D01*
X150215385Y-125875752D02*
X150167766Y-125685276D01*
X150167766Y-125685276D02*
X150072528Y-125590038D01*
X150072528Y-125590038D02*
X149977290Y-125542419D01*
X149120147Y-125542419D02*
X149120147Y-126351942D01*
X149120147Y-126351942D02*
X149072528Y-126447180D01*
X149072528Y-126447180D02*
X149024909Y-126494800D01*
X149024909Y-126494800D02*
X148929671Y-126542419D01*
X148929671Y-126542419D02*
X148739195Y-126542419D01*
X148739195Y-126542419D02*
X148643957Y-126494800D01*
X148643957Y-126494800D02*
X148596338Y-126447180D01*
X148596338Y-126447180D02*
X148548719Y-126351942D01*
X148548719Y-126351942D02*
X148548719Y-125542419D01*
X148120147Y-126494800D02*
X147977290Y-126542419D01*
X147977290Y-126542419D02*
X147739195Y-126542419D01*
X147739195Y-126542419D02*
X147643957Y-126494800D01*
X147643957Y-126494800D02*
X147596338Y-126447180D01*
X147596338Y-126447180D02*
X147548719Y-126351942D01*
X147548719Y-126351942D02*
X147548719Y-126256704D01*
X147548719Y-126256704D02*
X147596338Y-126161466D01*
X147596338Y-126161466D02*
X147643957Y-126113847D01*
X147643957Y-126113847D02*
X147739195Y-126066228D01*
X147739195Y-126066228D02*
X147929671Y-126018609D01*
X147929671Y-126018609D02*
X148024909Y-125970990D01*
X148024909Y-125970990D02*
X148072528Y-125923371D01*
X148072528Y-125923371D02*
X148120147Y-125828133D01*
X148120147Y-125828133D02*
X148120147Y-125732895D01*
X148120147Y-125732895D02*
X148072528Y-125637657D01*
X148072528Y-125637657D02*
X148024909Y-125590038D01*
X148024909Y-125590038D02*
X147929671Y-125542419D01*
X147929671Y-125542419D02*
X147691576Y-125542419D01*
X147691576Y-125542419D02*
X147548719Y-125590038D01*
X147120147Y-126018609D02*
X146786814Y-126018609D01*
X146643957Y-126542419D02*
X147120147Y-126542419D01*
X147120147Y-126542419D02*
X147120147Y-125542419D01*
X147120147Y-125542419D02*
X146643957Y-125542419D01*
X145453480Y-126542419D02*
X145453480Y-125542419D01*
X145453480Y-125542419D02*
X145120147Y-126256704D01*
X145120147Y-126256704D02*
X144786814Y-125542419D01*
X144786814Y-125542419D02*
X144786814Y-126542419D01*
X144310623Y-126542419D02*
X144310623Y-125542419D01*
X143739195Y-126542419D02*
X144167766Y-125970990D01*
X143739195Y-125542419D02*
X144310623Y-126113847D01*
X143358242Y-125637657D02*
X143310623Y-125590038D01*
X143310623Y-125590038D02*
X143215385Y-125542419D01*
X143215385Y-125542419D02*
X142977290Y-125542419D01*
X142977290Y-125542419D02*
X142882052Y-125590038D01*
X142882052Y-125590038D02*
X142834433Y-125637657D01*
X142834433Y-125637657D02*
X142786814Y-125732895D01*
X142786814Y-125732895D02*
X142786814Y-125828133D01*
X142786814Y-125828133D02*
X142834433Y-125970990D01*
X142834433Y-125970990D02*
X143405861Y-126542419D01*
X143405861Y-126542419D02*
X142786814Y-126542419D01*
X152215385Y-127247601D02*
X152167766Y-127199982D01*
X152167766Y-127199982D02*
X152072528Y-127152363D01*
X152072528Y-127152363D02*
X151834433Y-127152363D01*
X151834433Y-127152363D02*
X151739195Y-127199982D01*
X151739195Y-127199982D02*
X151691576Y-127247601D01*
X151691576Y-127247601D02*
X151643957Y-127342839D01*
X151643957Y-127342839D02*
X151643957Y-127438077D01*
X151643957Y-127438077D02*
X151691576Y-127580934D01*
X151691576Y-127580934D02*
X152263004Y-128152363D01*
X152263004Y-128152363D02*
X151643957Y-128152363D01*
X151024909Y-127152363D02*
X150929671Y-127152363D01*
X150929671Y-127152363D02*
X150834433Y-127199982D01*
X150834433Y-127199982D02*
X150786814Y-127247601D01*
X150786814Y-127247601D02*
X150739195Y-127342839D01*
X150739195Y-127342839D02*
X150691576Y-127533315D01*
X150691576Y-127533315D02*
X150691576Y-127771410D01*
X150691576Y-127771410D02*
X150739195Y-127961886D01*
X150739195Y-127961886D02*
X150786814Y-128057124D01*
X150786814Y-128057124D02*
X150834433Y-128104744D01*
X150834433Y-128104744D02*
X150929671Y-128152363D01*
X150929671Y-128152363D02*
X151024909Y-128152363D01*
X151024909Y-128152363D02*
X151120147Y-128104744D01*
X151120147Y-128104744D02*
X151167766Y-128057124D01*
X151167766Y-128057124D02*
X151215385Y-127961886D01*
X151215385Y-127961886D02*
X151263004Y-127771410D01*
X151263004Y-127771410D02*
X151263004Y-127533315D01*
X151263004Y-127533315D02*
X151215385Y-127342839D01*
X151215385Y-127342839D02*
X151167766Y-127247601D01*
X151167766Y-127247601D02*
X151120147Y-127199982D01*
X151120147Y-127199982D02*
X151024909Y-127152363D01*
X150310623Y-127247601D02*
X150263004Y-127199982D01*
X150263004Y-127199982D02*
X150167766Y-127152363D01*
X150167766Y-127152363D02*
X149929671Y-127152363D01*
X149929671Y-127152363D02*
X149834433Y-127199982D01*
X149834433Y-127199982D02*
X149786814Y-127247601D01*
X149786814Y-127247601D02*
X149739195Y-127342839D01*
X149739195Y-127342839D02*
X149739195Y-127438077D01*
X149739195Y-127438077D02*
X149786814Y-127580934D01*
X149786814Y-127580934D02*
X150358242Y-128152363D01*
X150358242Y-128152363D02*
X149739195Y-128152363D01*
X148882052Y-127152363D02*
X149072528Y-127152363D01*
X149072528Y-127152363D02*
X149167766Y-127199982D01*
X149167766Y-127199982D02*
X149215385Y-127247601D01*
X149215385Y-127247601D02*
X149310623Y-127390458D01*
X149310623Y-127390458D02*
X149358242Y-127580934D01*
X149358242Y-127580934D02*
X149358242Y-127961886D01*
X149358242Y-127961886D02*
X149310623Y-128057124D01*
X149310623Y-128057124D02*
X149263004Y-128104744D01*
X149263004Y-128104744D02*
X149167766Y-128152363D01*
X149167766Y-128152363D02*
X148977290Y-128152363D01*
X148977290Y-128152363D02*
X148882052Y-128104744D01*
X148882052Y-128104744D02*
X148834433Y-128057124D01*
X148834433Y-128057124D02*
X148786814Y-127961886D01*
X148786814Y-127961886D02*
X148786814Y-127723791D01*
X148786814Y-127723791D02*
X148834433Y-127628553D01*
X148834433Y-127628553D02*
X148882052Y-127580934D01*
X148882052Y-127580934D02*
X148977290Y-127533315D01*
X148977290Y-127533315D02*
X149167766Y-127533315D01*
X149167766Y-127533315D02*
X149263004Y-127580934D01*
X149263004Y-127580934D02*
X149310623Y-127628553D01*
X149310623Y-127628553D02*
X149358242Y-127723791D01*
X147739194Y-127152363D02*
X147405861Y-128152363D01*
X147405861Y-128152363D02*
X147072528Y-127152363D01*
X146215385Y-128152363D02*
X146786813Y-128152363D01*
X146501099Y-128152363D02*
X146501099Y-127152363D01*
X146501099Y-127152363D02*
X146596337Y-127295220D01*
X146596337Y-127295220D02*
X146691575Y-127390458D01*
X146691575Y-127390458D02*
X146786813Y-127438077D01*
X145786813Y-128057124D02*
X145739194Y-128104744D01*
X145739194Y-128104744D02*
X145786813Y-128152363D01*
X145786813Y-128152363D02*
X145834432Y-128104744D01*
X145834432Y-128104744D02*
X145786813Y-128057124D01*
X145786813Y-128057124D02*
X145786813Y-128152363D01*
X144786814Y-128152363D02*
X145358242Y-128152363D01*
X145072528Y-128152363D02*
X145072528Y-127152363D01*
X145072528Y-127152363D02*
X145167766Y-127295220D01*
X145167766Y-127295220D02*
X145263004Y-127390458D01*
X145263004Y-127390458D02*
X145358242Y-127438077D01*
X163215385Y-129095640D02*
X163215385Y-129905164D01*
X163215385Y-129905164D02*
X163263004Y-130000402D01*
X163263004Y-130000402D02*
X163310623Y-130048021D01*
X163310623Y-130048021D02*
X163405861Y-130095640D01*
X163405861Y-130095640D02*
X163548718Y-130095640D01*
X163548718Y-130095640D02*
X163643956Y-130048021D01*
X163215385Y-129714688D02*
X163310623Y-129762307D01*
X163310623Y-129762307D02*
X163501099Y-129762307D01*
X163501099Y-129762307D02*
X163596337Y-129714688D01*
X163596337Y-129714688D02*
X163643956Y-129667068D01*
X163643956Y-129667068D02*
X163691575Y-129571830D01*
X163691575Y-129571830D02*
X163691575Y-129286116D01*
X163691575Y-129286116D02*
X163643956Y-129190878D01*
X163643956Y-129190878D02*
X163596337Y-129143259D01*
X163596337Y-129143259D02*
X163501099Y-129095640D01*
X163501099Y-129095640D02*
X163310623Y-129095640D01*
X163310623Y-129095640D02*
X163215385Y-129143259D01*
X162739194Y-129762307D02*
X162739194Y-129095640D01*
X162739194Y-128762307D02*
X162786813Y-128809926D01*
X162786813Y-128809926D02*
X162739194Y-128857545D01*
X162739194Y-128857545D02*
X162691575Y-128809926D01*
X162691575Y-128809926D02*
X162739194Y-128762307D01*
X162739194Y-128762307D02*
X162739194Y-128857545D01*
X162405861Y-129095640D02*
X162024909Y-129095640D01*
X162263004Y-128762307D02*
X162263004Y-129619449D01*
X162263004Y-129619449D02*
X162215385Y-129714688D01*
X162215385Y-129714688D02*
X162120147Y-129762307D01*
X162120147Y-129762307D02*
X162024909Y-129762307D01*
X161691575Y-129762307D02*
X161691575Y-128762307D01*
X161263004Y-129762307D02*
X161263004Y-129238497D01*
X161263004Y-129238497D02*
X161310623Y-129143259D01*
X161310623Y-129143259D02*
X161405861Y-129095640D01*
X161405861Y-129095640D02*
X161548718Y-129095640D01*
X161548718Y-129095640D02*
X161643956Y-129143259D01*
X161643956Y-129143259D02*
X161691575Y-129190878D01*
X160358242Y-129095640D02*
X160358242Y-129762307D01*
X160786813Y-129095640D02*
X160786813Y-129619449D01*
X160786813Y-129619449D02*
X160739194Y-129714688D01*
X160739194Y-129714688D02*
X160643956Y-129762307D01*
X160643956Y-129762307D02*
X160501099Y-129762307D01*
X160501099Y-129762307D02*
X160405861Y-129714688D01*
X160405861Y-129714688D02*
X160358242Y-129667068D01*
X159882051Y-129762307D02*
X159882051Y-128762307D01*
X159882051Y-129143259D02*
X159786813Y-129095640D01*
X159786813Y-129095640D02*
X159596337Y-129095640D01*
X159596337Y-129095640D02*
X159501099Y-129143259D01*
X159501099Y-129143259D02*
X159453480Y-129190878D01*
X159453480Y-129190878D02*
X159405861Y-129286116D01*
X159405861Y-129286116D02*
X159405861Y-129571830D01*
X159405861Y-129571830D02*
X159453480Y-129667068D01*
X159453480Y-129667068D02*
X159501099Y-129714688D01*
X159501099Y-129714688D02*
X159596337Y-129762307D01*
X159596337Y-129762307D02*
X159786813Y-129762307D01*
X159786813Y-129762307D02*
X159882051Y-129714688D01*
X158977289Y-129667068D02*
X158929670Y-129714688D01*
X158929670Y-129714688D02*
X158977289Y-129762307D01*
X158977289Y-129762307D02*
X159024908Y-129714688D01*
X159024908Y-129714688D02*
X158977289Y-129667068D01*
X158977289Y-129667068D02*
X158977289Y-129762307D01*
X158072528Y-129714688D02*
X158167766Y-129762307D01*
X158167766Y-129762307D02*
X158358242Y-129762307D01*
X158358242Y-129762307D02*
X158453480Y-129714688D01*
X158453480Y-129714688D02*
X158501099Y-129667068D01*
X158501099Y-129667068D02*
X158548718Y-129571830D01*
X158548718Y-129571830D02*
X158548718Y-129286116D01*
X158548718Y-129286116D02*
X158501099Y-129190878D01*
X158501099Y-129190878D02*
X158453480Y-129143259D01*
X158453480Y-129143259D02*
X158358242Y-129095640D01*
X158358242Y-129095640D02*
X158167766Y-129095640D01*
X158167766Y-129095640D02*
X158072528Y-129143259D01*
X157501099Y-129762307D02*
X157596337Y-129714688D01*
X157596337Y-129714688D02*
X157643956Y-129667068D01*
X157643956Y-129667068D02*
X157691575Y-129571830D01*
X157691575Y-129571830D02*
X157691575Y-129286116D01*
X157691575Y-129286116D02*
X157643956Y-129190878D01*
X157643956Y-129190878D02*
X157596337Y-129143259D01*
X157596337Y-129143259D02*
X157501099Y-129095640D01*
X157501099Y-129095640D02*
X157358242Y-129095640D01*
X157358242Y-129095640D02*
X157263004Y-129143259D01*
X157263004Y-129143259D02*
X157215385Y-129190878D01*
X157215385Y-129190878D02*
X157167766Y-129286116D01*
X157167766Y-129286116D02*
X157167766Y-129571830D01*
X157167766Y-129571830D02*
X157215385Y-129667068D01*
X157215385Y-129667068D02*
X157263004Y-129714688D01*
X157263004Y-129714688D02*
X157358242Y-129762307D01*
X157358242Y-129762307D02*
X157501099Y-129762307D01*
X156739194Y-129762307D02*
X156739194Y-129095640D01*
X156739194Y-129190878D02*
X156691575Y-129143259D01*
X156691575Y-129143259D02*
X156596337Y-129095640D01*
X156596337Y-129095640D02*
X156453480Y-129095640D01*
X156453480Y-129095640D02*
X156358242Y-129143259D01*
X156358242Y-129143259D02*
X156310623Y-129238497D01*
X156310623Y-129238497D02*
X156310623Y-129762307D01*
X156310623Y-129238497D02*
X156263004Y-129143259D01*
X156263004Y-129143259D02*
X156167766Y-129095640D01*
X156167766Y-129095640D02*
X156024909Y-129095640D01*
X156024909Y-129095640D02*
X155929670Y-129143259D01*
X155929670Y-129143259D02*
X155882051Y-129238497D01*
X155882051Y-129238497D02*
X155882051Y-129762307D01*
X154691576Y-128714688D02*
X155548718Y-130000402D01*
X153929671Y-129762307D02*
X153929671Y-128762307D01*
X153929671Y-129714688D02*
X154024909Y-129762307D01*
X154024909Y-129762307D02*
X154215385Y-129762307D01*
X154215385Y-129762307D02*
X154310623Y-129714688D01*
X154310623Y-129714688D02*
X154358242Y-129667068D01*
X154358242Y-129667068D02*
X154405861Y-129571830D01*
X154405861Y-129571830D02*
X154405861Y-129286116D01*
X154405861Y-129286116D02*
X154358242Y-129190878D01*
X154358242Y-129190878D02*
X154310623Y-129143259D01*
X154310623Y-129143259D02*
X154215385Y-129095640D01*
X154215385Y-129095640D02*
X154024909Y-129095640D01*
X154024909Y-129095640D02*
X153929671Y-129143259D01*
X153310623Y-129762307D02*
X153405861Y-129714688D01*
X153405861Y-129714688D02*
X153453480Y-129667068D01*
X153453480Y-129667068D02*
X153501099Y-129571830D01*
X153501099Y-129571830D02*
X153501099Y-129286116D01*
X153501099Y-129286116D02*
X153453480Y-129190878D01*
X153453480Y-129190878D02*
X153405861Y-129143259D01*
X153405861Y-129143259D02*
X153310623Y-129095640D01*
X153310623Y-129095640D02*
X153167766Y-129095640D01*
X153167766Y-129095640D02*
X153072528Y-129143259D01*
X153072528Y-129143259D02*
X153024909Y-129190878D01*
X153024909Y-129190878D02*
X152977290Y-129286116D01*
X152977290Y-129286116D02*
X152977290Y-129571830D01*
X152977290Y-129571830D02*
X153024909Y-129667068D01*
X153024909Y-129667068D02*
X153072528Y-129714688D01*
X153072528Y-129714688D02*
X153167766Y-129762307D01*
X153167766Y-129762307D02*
X153310623Y-129762307D01*
X152120147Y-129762307D02*
X152120147Y-128762307D01*
X152120147Y-129714688D02*
X152215385Y-129762307D01*
X152215385Y-129762307D02*
X152405861Y-129762307D01*
X152405861Y-129762307D02*
X152501099Y-129714688D01*
X152501099Y-129714688D02*
X152548718Y-129667068D01*
X152548718Y-129667068D02*
X152596337Y-129571830D01*
X152596337Y-129571830D02*
X152596337Y-129286116D01*
X152596337Y-129286116D02*
X152548718Y-129190878D01*
X152548718Y-129190878D02*
X152501099Y-129143259D01*
X152501099Y-129143259D02*
X152405861Y-129095640D01*
X152405861Y-129095640D02*
X152215385Y-129095640D01*
X152215385Y-129095640D02*
X152120147Y-129143259D01*
X151501099Y-129762307D02*
X151596337Y-129714688D01*
X151596337Y-129714688D02*
X151643956Y-129667068D01*
X151643956Y-129667068D02*
X151691575Y-129571830D01*
X151691575Y-129571830D02*
X151691575Y-129286116D01*
X151691575Y-129286116D02*
X151643956Y-129190878D01*
X151643956Y-129190878D02*
X151596337Y-129143259D01*
X151596337Y-129143259D02*
X151501099Y-129095640D01*
X151501099Y-129095640D02*
X151358242Y-129095640D01*
X151358242Y-129095640D02*
X151263004Y-129143259D01*
X151263004Y-129143259D02*
X151215385Y-129190878D01*
X151215385Y-129190878D02*
X151167766Y-129286116D01*
X151167766Y-129286116D02*
X151167766Y-129571830D01*
X151167766Y-129571830D02*
X151215385Y-129667068D01*
X151215385Y-129667068D02*
X151263004Y-129714688D01*
X151263004Y-129714688D02*
X151358242Y-129762307D01*
X151358242Y-129762307D02*
X151501099Y-129762307D01*
X150739194Y-129762307D02*
X150739194Y-129095640D01*
X150739194Y-129190878D02*
X150691575Y-129143259D01*
X150691575Y-129143259D02*
X150596337Y-129095640D01*
X150596337Y-129095640D02*
X150453480Y-129095640D01*
X150453480Y-129095640D02*
X150358242Y-129143259D01*
X150358242Y-129143259D02*
X150310623Y-129238497D01*
X150310623Y-129238497D02*
X150310623Y-129762307D01*
X150310623Y-129238497D02*
X150263004Y-129143259D01*
X150263004Y-129143259D02*
X150167766Y-129095640D01*
X150167766Y-129095640D02*
X150024909Y-129095640D01*
X150024909Y-129095640D02*
X149929670Y-129143259D01*
X149929670Y-129143259D02*
X149882051Y-129238497D01*
X149882051Y-129238497D02*
X149882051Y-129762307D01*
X148977290Y-129762307D02*
X148977290Y-129238497D01*
X148977290Y-129238497D02*
X149024909Y-129143259D01*
X149024909Y-129143259D02*
X149120147Y-129095640D01*
X149120147Y-129095640D02*
X149310623Y-129095640D01*
X149310623Y-129095640D02*
X149405861Y-129143259D01*
X148977290Y-129714688D02*
X149072528Y-129762307D01*
X149072528Y-129762307D02*
X149310623Y-129762307D01*
X149310623Y-129762307D02*
X149405861Y-129714688D01*
X149405861Y-129714688D02*
X149453480Y-129619449D01*
X149453480Y-129619449D02*
X149453480Y-129524211D01*
X149453480Y-129524211D02*
X149405861Y-129428973D01*
X149405861Y-129428973D02*
X149310623Y-129381354D01*
X149310623Y-129381354D02*
X149072528Y-129381354D01*
X149072528Y-129381354D02*
X148977290Y-129333735D01*
X148501099Y-129762307D02*
X148501099Y-129095640D01*
X148501099Y-129286116D02*
X148453480Y-129190878D01*
X148453480Y-129190878D02*
X148405861Y-129143259D01*
X148405861Y-129143259D02*
X148310623Y-129095640D01*
X148310623Y-129095640D02*
X148215385Y-129095640D01*
X147453480Y-129095640D02*
X147453480Y-129905164D01*
X147453480Y-129905164D02*
X147501099Y-130000402D01*
X147501099Y-130000402D02*
X147548718Y-130048021D01*
X147548718Y-130048021D02*
X147643956Y-130095640D01*
X147643956Y-130095640D02*
X147786813Y-130095640D01*
X147786813Y-130095640D02*
X147882051Y-130048021D01*
X147453480Y-129714688D02*
X147548718Y-129762307D01*
X147548718Y-129762307D02*
X147739194Y-129762307D01*
X147739194Y-129762307D02*
X147834432Y-129714688D01*
X147834432Y-129714688D02*
X147882051Y-129667068D01*
X147882051Y-129667068D02*
X147929670Y-129571830D01*
X147929670Y-129571830D02*
X147929670Y-129286116D01*
X147929670Y-129286116D02*
X147882051Y-129190878D01*
X147882051Y-129190878D02*
X147834432Y-129143259D01*
X147834432Y-129143259D02*
X147739194Y-129095640D01*
X147739194Y-129095640D02*
X147548718Y-129095640D01*
X147548718Y-129095640D02*
X147453480Y-129143259D01*
X146263004Y-128714688D02*
X147120146Y-130000402D01*
X145501099Y-129714688D02*
X145596337Y-129762307D01*
X145596337Y-129762307D02*
X145786813Y-129762307D01*
X145786813Y-129762307D02*
X145882051Y-129714688D01*
X145882051Y-129714688D02*
X145929670Y-129667068D01*
X145929670Y-129667068D02*
X145977289Y-129571830D01*
X145977289Y-129571830D02*
X145977289Y-129286116D01*
X145977289Y-129286116D02*
X145929670Y-129190878D01*
X145929670Y-129190878D02*
X145882051Y-129143259D01*
X145882051Y-129143259D02*
X145786813Y-129095640D01*
X145786813Y-129095640D02*
X145596337Y-129095640D01*
X145596337Y-129095640D02*
X145501099Y-129143259D01*
X144643956Y-129762307D02*
X144643956Y-129238497D01*
X144643956Y-129238497D02*
X144691575Y-129143259D01*
X144691575Y-129143259D02*
X144786813Y-129095640D01*
X144786813Y-129095640D02*
X144977289Y-129095640D01*
X144977289Y-129095640D02*
X145072527Y-129143259D01*
X144643956Y-129714688D02*
X144739194Y-129762307D01*
X144739194Y-129762307D02*
X144977289Y-129762307D01*
X144977289Y-129762307D02*
X145072527Y-129714688D01*
X145072527Y-129714688D02*
X145120146Y-129619449D01*
X145120146Y-129619449D02*
X145120146Y-129524211D01*
X145120146Y-129524211D02*
X145072527Y-129428973D01*
X145072527Y-129428973D02*
X144977289Y-129381354D01*
X144977289Y-129381354D02*
X144739194Y-129381354D01*
X144739194Y-129381354D02*
X144643956Y-129333735D01*
X143739194Y-129762307D02*
X143739194Y-128762307D01*
X143739194Y-129714688D02*
X143834432Y-129762307D01*
X143834432Y-129762307D02*
X144024908Y-129762307D01*
X144024908Y-129762307D02*
X144120146Y-129714688D01*
X144120146Y-129714688D02*
X144167765Y-129667068D01*
X144167765Y-129667068D02*
X144215384Y-129571830D01*
X144215384Y-129571830D02*
X144215384Y-129286116D01*
X144215384Y-129286116D02*
X144167765Y-129190878D01*
X144167765Y-129190878D02*
X144120146Y-129143259D01*
X144120146Y-129143259D02*
X144024908Y-129095640D01*
X144024908Y-129095640D02*
X143834432Y-129095640D01*
X143834432Y-129095640D02*
X143739194Y-129143259D01*
X143263003Y-129381354D02*
X142501099Y-129381354D01*
X142024908Y-129762307D02*
X142024908Y-129095640D01*
X142024908Y-129190878D02*
X141977289Y-129143259D01*
X141977289Y-129143259D02*
X141882051Y-129095640D01*
X141882051Y-129095640D02*
X141739194Y-129095640D01*
X141739194Y-129095640D02*
X141643956Y-129143259D01*
X141643956Y-129143259D02*
X141596337Y-129238497D01*
X141596337Y-129238497D02*
X141596337Y-129762307D01*
X141596337Y-129238497D02*
X141548718Y-129143259D01*
X141548718Y-129143259D02*
X141453480Y-129095640D01*
X141453480Y-129095640D02*
X141310623Y-129095640D01*
X141310623Y-129095640D02*
X141215384Y-129143259D01*
X141215384Y-129143259D02*
X141167765Y-129238497D01*
X141167765Y-129238497D02*
X141167765Y-129762307D01*
X140548718Y-129762307D02*
X140643956Y-129714688D01*
X140643956Y-129714688D02*
X140691575Y-129667068D01*
X140691575Y-129667068D02*
X140739194Y-129571830D01*
X140739194Y-129571830D02*
X140739194Y-129286116D01*
X140739194Y-129286116D02*
X140691575Y-129190878D01*
X140691575Y-129190878D02*
X140643956Y-129143259D01*
X140643956Y-129143259D02*
X140548718Y-129095640D01*
X140548718Y-129095640D02*
X140405861Y-129095640D01*
X140405861Y-129095640D02*
X140310623Y-129143259D01*
X140310623Y-129143259D02*
X140263004Y-129190878D01*
X140263004Y-129190878D02*
X140215385Y-129286116D01*
X140215385Y-129286116D02*
X140215385Y-129571830D01*
X140215385Y-129571830D02*
X140263004Y-129667068D01*
X140263004Y-129667068D02*
X140310623Y-129714688D01*
X140310623Y-129714688D02*
X140405861Y-129762307D01*
X140405861Y-129762307D02*
X140548718Y-129762307D01*
X139358242Y-129095640D02*
X139358242Y-129762307D01*
X139786813Y-129095640D02*
X139786813Y-129619449D01*
X139786813Y-129619449D02*
X139739194Y-129714688D01*
X139739194Y-129714688D02*
X139643956Y-129762307D01*
X139643956Y-129762307D02*
X139501099Y-129762307D01*
X139501099Y-129762307D02*
X139405861Y-129714688D01*
X139405861Y-129714688D02*
X139358242Y-129667068D01*
X138929670Y-129714688D02*
X138834432Y-129762307D01*
X138834432Y-129762307D02*
X138643956Y-129762307D01*
X138643956Y-129762307D02*
X138548718Y-129714688D01*
X138548718Y-129714688D02*
X138501099Y-129619449D01*
X138501099Y-129619449D02*
X138501099Y-129571830D01*
X138501099Y-129571830D02*
X138548718Y-129476592D01*
X138548718Y-129476592D02*
X138643956Y-129428973D01*
X138643956Y-129428973D02*
X138786813Y-129428973D01*
X138786813Y-129428973D02*
X138882051Y-129381354D01*
X138882051Y-129381354D02*
X138929670Y-129286116D01*
X138929670Y-129286116D02*
X138929670Y-129238497D01*
X138929670Y-129238497D02*
X138882051Y-129143259D01*
X138882051Y-129143259D02*
X138786813Y-129095640D01*
X138786813Y-129095640D02*
X138643956Y-129095640D01*
X138643956Y-129095640D02*
X138548718Y-129143259D01*
X137691575Y-129714688D02*
X137786813Y-129762307D01*
X137786813Y-129762307D02*
X137977289Y-129762307D01*
X137977289Y-129762307D02*
X138072527Y-129714688D01*
X138072527Y-129714688D02*
X138120146Y-129619449D01*
X138120146Y-129619449D02*
X138120146Y-129238497D01*
X138120146Y-129238497D02*
X138072527Y-129143259D01*
X138072527Y-129143259D02*
X137977289Y-129095640D01*
X137977289Y-129095640D02*
X137786813Y-129095640D01*
X137786813Y-129095640D02*
X137691575Y-129143259D01*
X137691575Y-129143259D02*
X137643956Y-129238497D01*
X137643956Y-129238497D02*
X137643956Y-129333735D01*
X137643956Y-129333735D02*
X138120146Y-129428973D01*
X137215384Y-129381354D02*
X136453480Y-129381354D01*
X135977289Y-129762307D02*
X135977289Y-129095640D01*
X135977289Y-129190878D02*
X135929670Y-129143259D01*
X135929670Y-129143259D02*
X135834432Y-129095640D01*
X135834432Y-129095640D02*
X135691575Y-129095640D01*
X135691575Y-129095640D02*
X135596337Y-129143259D01*
X135596337Y-129143259D02*
X135548718Y-129238497D01*
X135548718Y-129238497D02*
X135548718Y-129762307D01*
X135548718Y-129238497D02*
X135501099Y-129143259D01*
X135501099Y-129143259D02*
X135405861Y-129095640D01*
X135405861Y-129095640D02*
X135263004Y-129095640D01*
X135263004Y-129095640D02*
X135167765Y-129143259D01*
X135167765Y-129143259D02*
X135120146Y-129238497D01*
X135120146Y-129238497D02*
X135120146Y-129762307D01*
X134643956Y-129762307D02*
X134643956Y-128762307D01*
X134548718Y-129381354D02*
X134263004Y-129762307D01*
X134263004Y-129095640D02*
X134643956Y-129476592D01*
X133882051Y-128857545D02*
X133834432Y-128809926D01*
X133834432Y-128809926D02*
X133739194Y-128762307D01*
X133739194Y-128762307D02*
X133501099Y-128762307D01*
X133501099Y-128762307D02*
X133405861Y-128809926D01*
X133405861Y-128809926D02*
X133358242Y-128857545D01*
X133358242Y-128857545D02*
X133310623Y-128952783D01*
X133310623Y-128952783D02*
X133310623Y-129048021D01*
X133310623Y-129048021D02*
X133358242Y-129190878D01*
X133358242Y-129190878D02*
X133929670Y-129762307D01*
X133929670Y-129762307D02*
X133310623Y-129762307D01*
X152401025Y-123216657D02*
X152462930Y-123154752D01*
X152462930Y-123154752D02*
X152586739Y-123092847D01*
X152586739Y-123092847D02*
X152710549Y-123092847D01*
X152710549Y-123092847D02*
X152834358Y-123154752D01*
X152834358Y-123154752D02*
X152896263Y-123216657D01*
X152896263Y-123216657D02*
X152958168Y-123340466D01*
X152958168Y-123340466D02*
X152958168Y-123464276D01*
X152958168Y-123464276D02*
X152896263Y-123588085D01*
X152896263Y-123588085D02*
X152834358Y-123649990D01*
X152834358Y-123649990D02*
X152710549Y-123711895D01*
X152710549Y-123711895D02*
X152586739Y-123711895D01*
X152586739Y-123711895D02*
X152462930Y-123649990D01*
X152462930Y-123649990D02*
X152401025Y-123588085D01*
X152401025Y-123092847D02*
X152401025Y-123588085D01*
X152401025Y-123588085D02*
X152339120Y-123649990D01*
X152339120Y-123649990D02*
X152277215Y-123649990D01*
X152277215Y-123649990D02*
X152153406Y-123588085D01*
X152153406Y-123588085D02*
X152091501Y-123464276D01*
X152091501Y-123464276D02*
X152091501Y-123154752D01*
X152091501Y-123154752D02*
X152215311Y-122969038D01*
X152215311Y-122969038D02*
X152401025Y-122845228D01*
X152401025Y-122845228D02*
X152648644Y-122783323D01*
X152648644Y-122783323D02*
X152896263Y-122845228D01*
X152896263Y-122845228D02*
X153081977Y-122969038D01*
X153081977Y-122969038D02*
X153205787Y-123154752D01*
X153205787Y-123154752D02*
X153267691Y-123402371D01*
X153267691Y-123402371D02*
X153205787Y-123649990D01*
X153205787Y-123649990D02*
X153081977Y-123835704D01*
X153081977Y-123835704D02*
X152896263Y-123959514D01*
X152896263Y-123959514D02*
X152648644Y-124021419D01*
X152648644Y-124021419D02*
X152401025Y-123959514D01*
X152401025Y-123959514D02*
X152215311Y-123835704D01*
X151596262Y-123773800D02*
X151410548Y-123835704D01*
X151410548Y-123835704D02*
X151101024Y-123835704D01*
X151101024Y-123835704D02*
X150977215Y-123773800D01*
X150977215Y-123773800D02*
X150915310Y-123711895D01*
X150915310Y-123711895D02*
X150853405Y-123588085D01*
X150853405Y-123588085D02*
X150853405Y-123464276D01*
X150853405Y-123464276D02*
X150915310Y-123340466D01*
X150915310Y-123340466D02*
X150977215Y-123278561D01*
X150977215Y-123278561D02*
X151101024Y-123216657D01*
X151101024Y-123216657D02*
X151348643Y-123154752D01*
X151348643Y-123154752D02*
X151472453Y-123092847D01*
X151472453Y-123092847D02*
X151534358Y-123030942D01*
X151534358Y-123030942D02*
X151596262Y-122907133D01*
X151596262Y-122907133D02*
X151596262Y-122783323D01*
X151596262Y-122783323D02*
X151534358Y-122659514D01*
X151534358Y-122659514D02*
X151472453Y-122597609D01*
X151472453Y-122597609D02*
X151348643Y-122535704D01*
X151348643Y-122535704D02*
X151039120Y-122535704D01*
X151039120Y-122535704D02*
X150853405Y-122597609D01*
X150358167Y-123464276D02*
X149739120Y-123464276D01*
X150481977Y-123835704D02*
X150048644Y-122535704D01*
X150048644Y-122535704D02*
X149615310Y-123835704D01*
X148562929Y-123835704D02*
X149181977Y-123835704D01*
X149181977Y-123835704D02*
X149181977Y-122535704D01*
X148129596Y-123835704D02*
X148129596Y-122535704D01*
X147510548Y-123835704D02*
X147510548Y-122535704D01*
X147510548Y-122535704D02*
X147077214Y-123464276D01*
X147077214Y-123464276D02*
X146643881Y-122535704D01*
X146643881Y-122535704D02*
X146643881Y-123835704D01*
X145591500Y-123154752D02*
X145405786Y-123216657D01*
X145405786Y-123216657D02*
X145343881Y-123278561D01*
X145343881Y-123278561D02*
X145281977Y-123402371D01*
X145281977Y-123402371D02*
X145281977Y-123588085D01*
X145281977Y-123588085D02*
X145343881Y-123711895D01*
X145343881Y-123711895D02*
X145405786Y-123773800D01*
X145405786Y-123773800D02*
X145529596Y-123835704D01*
X145529596Y-123835704D02*
X146024834Y-123835704D01*
X146024834Y-123835704D02*
X146024834Y-122535704D01*
X146024834Y-122535704D02*
X145591500Y-122535704D01*
X145591500Y-122535704D02*
X145467691Y-122597609D01*
X145467691Y-122597609D02*
X145405786Y-122659514D01*
X145405786Y-122659514D02*
X145343881Y-122783323D01*
X145343881Y-122783323D02*
X145343881Y-122907133D01*
X145343881Y-122907133D02*
X145405786Y-123030942D01*
X145405786Y-123030942D02*
X145467691Y-123092847D01*
X145467691Y-123092847D02*
X145591500Y-123154752D01*
X145591500Y-123154752D02*
X146024834Y-123154752D01*
X144724834Y-123154752D02*
X144291500Y-123154752D01*
X144105786Y-123835704D02*
X144724834Y-123835704D01*
X144724834Y-123835704D02*
X144724834Y-122535704D01*
X144724834Y-122535704D02*
X144105786Y-122535704D01*
X143548644Y-123835704D02*
X143548644Y-122535704D01*
X143548644Y-122535704D02*
X142805787Y-123835704D01*
X142805787Y-123835704D02*
X142805787Y-122535704D01*
X141753405Y-123154752D02*
X141567691Y-123216657D01*
X141567691Y-123216657D02*
X141505786Y-123278561D01*
X141505786Y-123278561D02*
X141443882Y-123402371D01*
X141443882Y-123402371D02*
X141443882Y-123588085D01*
X141443882Y-123588085D02*
X141505786Y-123711895D01*
X141505786Y-123711895D02*
X141567691Y-123773800D01*
X141567691Y-123773800D02*
X141691501Y-123835704D01*
X141691501Y-123835704D02*
X142186739Y-123835704D01*
X142186739Y-123835704D02*
X142186739Y-122535704D01*
X142186739Y-122535704D02*
X141753405Y-122535704D01*
X141753405Y-122535704D02*
X141629596Y-122597609D01*
X141629596Y-122597609D02*
X141567691Y-122659514D01*
X141567691Y-122659514D02*
X141505786Y-122783323D01*
X141505786Y-122783323D02*
X141505786Y-122907133D01*
X141505786Y-122907133D02*
X141567691Y-123030942D01*
X141567691Y-123030942D02*
X141629596Y-123092847D01*
X141629596Y-123092847D02*
X141753405Y-123154752D01*
X141753405Y-123154752D02*
X142186739Y-123154752D01*
X140639120Y-122535704D02*
X140391501Y-122535704D01*
X140391501Y-122535704D02*
X140267691Y-122597609D01*
X140267691Y-122597609D02*
X140143882Y-122721419D01*
X140143882Y-122721419D02*
X140081977Y-122969038D01*
X140081977Y-122969038D02*
X140081977Y-123402371D01*
X140081977Y-123402371D02*
X140143882Y-123649990D01*
X140143882Y-123649990D02*
X140267691Y-123773800D01*
X140267691Y-123773800D02*
X140391501Y-123835704D01*
X140391501Y-123835704D02*
X140639120Y-123835704D01*
X140639120Y-123835704D02*
X140762929Y-123773800D01*
X140762929Y-123773800D02*
X140886739Y-123649990D01*
X140886739Y-123649990D02*
X140948643Y-123402371D01*
X140948643Y-123402371D02*
X140948643Y-122969038D01*
X140948643Y-122969038D02*
X140886739Y-122721419D01*
X140886739Y-122721419D02*
X140762929Y-122597609D01*
X140762929Y-122597609D02*
X140639120Y-122535704D01*
X139524834Y-122535704D02*
X139524834Y-123588085D01*
X139524834Y-123588085D02*
X139462929Y-123711895D01*
X139462929Y-123711895D02*
X139401024Y-123773800D01*
X139401024Y-123773800D02*
X139277215Y-123835704D01*
X139277215Y-123835704D02*
X139029596Y-123835704D01*
X139029596Y-123835704D02*
X138905786Y-123773800D01*
X138905786Y-123773800D02*
X138843881Y-123711895D01*
X138843881Y-123711895D02*
X138781977Y-123588085D01*
X138781977Y-123588085D02*
X138781977Y-122535704D01*
X138286738Y-122535704D02*
X137420072Y-122535704D01*
X137420072Y-122535704D02*
X138286738Y-123835704D01*
X138286738Y-123835704D02*
X137420072Y-123835704D01*
X145072782Y-81264757D02*
X145072782Y-81907614D01*
X145072782Y-81907614D02*
X145115639Y-82036185D01*
X145115639Y-82036185D02*
X145201353Y-82121900D01*
X145201353Y-82121900D02*
X145329925Y-82164757D01*
X145329925Y-82164757D02*
X145415639Y-82164757D01*
X144687068Y-81350471D02*
X144644211Y-81307614D01*
X144644211Y-81307614D02*
X144558497Y-81264757D01*
X144558497Y-81264757D02*
X144344211Y-81264757D01*
X144344211Y-81264757D02*
X144258497Y-81307614D01*
X144258497Y-81307614D02*
X144215639Y-81350471D01*
X144215639Y-81350471D02*
X144172782Y-81436185D01*
X144172782Y-81436185D02*
X144172782Y-81521900D01*
X144172782Y-81521900D02*
X144215639Y-81650471D01*
X144215639Y-81650471D02*
X144729925Y-82164757D01*
X144729925Y-82164757D02*
X144172782Y-82164757D01*
X145072782Y-77014757D02*
X145072782Y-77657614D01*
X145072782Y-77657614D02*
X145115639Y-77786185D01*
X145115639Y-77786185D02*
X145201353Y-77871900D01*
X145201353Y-77871900D02*
X145329925Y-77914757D01*
X145329925Y-77914757D02*
X145415639Y-77914757D01*
X144172782Y-77914757D02*
X144687068Y-77914757D01*
X144429925Y-77914757D02*
X144429925Y-77014757D01*
X144429925Y-77014757D02*
X144515639Y-77143328D01*
X144515639Y-77143328D02*
X144601354Y-77229042D01*
X144601354Y-77229042D02*
X144687068Y-77271900D01*
%TO.C,J2*%
D12*
X144894300Y-79632700D02*
X152107900Y-79632700D01*
X144894300Y-83874500D02*
X144894300Y-79632700D01*
X152107900Y-79632700D02*
X152107900Y-83874500D01*
X152107900Y-83874500D02*
X144894300Y-83874500D01*
%TO.C,J1*%
X144894300Y-75382700D02*
X152107900Y-75382700D01*
X144894300Y-79624500D02*
X144894300Y-75382700D01*
X152107900Y-75382700D02*
X152107900Y-79624500D01*
X152107900Y-79624500D02*
X144894300Y-79624500D01*
%TD*%
G36*
X156593888Y-121945521D02*
G01*
X156593936Y-121945541D01*
X156593937Y-121945522D01*
X156611775Y-121945558D01*
X156611828Y-121945580D01*
X156611829Y-121945559D01*
X156630768Y-121945625D01*
X156630815Y-121945645D01*
X156630816Y-121945626D01*
X156647595Y-121945706D01*
X156647596Y-121945706D01*
X156647823Y-121945707D01*
X156665777Y-121945817D01*
X156665824Y-121945837D01*
X156665825Y-121945818D01*
X156685125Y-121945961D01*
X156685175Y-121945982D01*
X156685176Y-121945962D01*
X156702181Y-121946111D01*
X156702316Y-121946112D01*
X156722325Y-121946316D01*
X156722514Y-121946318D01*
X156758765Y-121946752D01*
X156758856Y-121946791D01*
X156758857Y-121946754D01*
X156797146Y-121947307D01*
X156797232Y-121947344D01*
X156797233Y-121947309D01*
X156835573Y-121947953D01*
X156835572Y-121947953D01*
X156835665Y-121947954D01*
X156874376Y-121948700D01*
X156874375Y-121948700D01*
X156874460Y-121948701D01*
X156914005Y-121949553D01*
X156914092Y-121949555D01*
X156953518Y-121950497D01*
X156953600Y-121950499D01*
X156993005Y-121951528D01*
X156993090Y-121951565D01*
X156993091Y-121951531D01*
X157033096Y-121952668D01*
X157033177Y-121952704D01*
X157033179Y-121952671D01*
X157073686Y-121953913D01*
X157073685Y-121953913D01*
X157073771Y-121953915D01*
X157114793Y-121955267D01*
X157114881Y-121955270D01*
X157155928Y-121956720D01*
X157156010Y-121956723D01*
X157196747Y-121958252D01*
X157196876Y-121958257D01*
X157279085Y-121961630D01*
X157279260Y-121961638D01*
X157361569Y-121965404D01*
X157361744Y-121965486D01*
X157361748Y-121965413D01*
X157444919Y-121969621D01*
X157444918Y-121969624D01*
X157445061Y-121969628D01*
X157485980Y-121971856D01*
X157486070Y-121971899D01*
X157486073Y-121971862D01*
X157526173Y-121974146D01*
X157526274Y-121974152D01*
X157567795Y-121976631D01*
X157567894Y-121976637D01*
X157608447Y-121979167D01*
X157608446Y-121979169D01*
X157608549Y-121979173D01*
X157648786Y-121981795D01*
X157648893Y-121981848D01*
X157648897Y-121981803D01*
X157688870Y-121984528D01*
X157688869Y-121984531D01*
X157688980Y-121984535D01*
X157729214Y-121987398D01*
X157729326Y-121987454D01*
X157729330Y-121987407D01*
X157767999Y-121990280D01*
X157768121Y-121990289D01*
X157807692Y-121993360D01*
X157807691Y-121993364D01*
X157807813Y-121993369D01*
X157846093Y-121996466D01*
X157846190Y-121996474D01*
X157868658Y-121998351D01*
X157868812Y-121998364D01*
X157891227Y-122000331D01*
X157891413Y-122000348D01*
X157913345Y-122002384D01*
X157913542Y-122002403D01*
X157934639Y-122004475D01*
X157934865Y-122004498D01*
X157955985Y-122006703D01*
X157956205Y-122006822D01*
X157956216Y-122006728D01*
X157977189Y-122009050D01*
X157977462Y-122009082D01*
X157997796Y-122011486D01*
X157998075Y-122011520D01*
X158018096Y-122014041D01*
X158018403Y-122014081D01*
X158037911Y-122016703D01*
X158038246Y-122016749D01*
X158057653Y-122019538D01*
X158058014Y-122019592D01*
X158077071Y-122022522D01*
X158077458Y-122022583D01*
X158095838Y-122025608D01*
X158096248Y-122025678D01*
X158114702Y-122028928D01*
X158115136Y-122029007D01*
X158132827Y-122032340D01*
X158133296Y-122032432D01*
X158150985Y-122036001D01*
X158151482Y-122036105D01*
X158168435Y-122039768D01*
X158168965Y-122039886D01*
X158186029Y-122043835D01*
X158186587Y-122043969D01*
X158202927Y-122048018D01*
X158203514Y-122048169D01*
X158219788Y-122052485D01*
X158220400Y-122052653D01*
X158235975Y-122057070D01*
X158236633Y-122057263D01*
X158252028Y-122061938D01*
X158252708Y-122062151D01*
X158267774Y-122067044D01*
X158268500Y-122067288D01*
X158283269Y-122072424D01*
X158283996Y-122072686D01*
X158298290Y-122077993D01*
X158299068Y-122078292D01*
X158313139Y-122083879D01*
X158313948Y-122084211D01*
X158327582Y-122090000D01*
X158328402Y-122090360D01*
X158341726Y-122096401D01*
X158342581Y-122096802D01*
X158355569Y-122103094D01*
X158356447Y-122103534D01*
X158369050Y-122110057D01*
X158369933Y-122110529D01*
X158382287Y-122117352D01*
X158383207Y-122117877D01*
X158395221Y-122124967D01*
X158396139Y-122125527D01*
X158407853Y-122132906D01*
X158408777Y-122133507D01*
X158420102Y-122141120D01*
X158421035Y-122141769D01*
X158432068Y-122149687D01*
X158432992Y-122150371D01*
X158443756Y-122158613D01*
X158444683Y-122159347D01*
X158455161Y-122167913D01*
X158456079Y-122168689D01*
X158466252Y-122177571D01*
X158467142Y-122178374D01*
X158476936Y-122187499D01*
X158477814Y-122188344D01*
X158487487Y-122197969D01*
X158488335Y-122198841D01*
X158497620Y-122208706D01*
X158498443Y-122209610D01*
X158507524Y-122219919D01*
X158508308Y-122220838D01*
X158517108Y-122231509D01*
X158517861Y-122232454D01*
X158526335Y-122243440D01*
X158527047Y-122244393D01*
X158535331Y-122255876D01*
X158536006Y-122256845D01*
X158544023Y-122268738D01*
X158544654Y-122269706D01*
X158552405Y-122282015D01*
X158552995Y-122282985D01*
X158560509Y-122295769D01*
X158561052Y-122296724D01*
X158568300Y-122309936D01*
X158568812Y-122310903D01*
X158575777Y-122324538D01*
X158576239Y-122325475D01*
X158583005Y-122339695D01*
X158583431Y-122340624D01*
X158589967Y-122355396D01*
X158590266Y-122356089D01*
X158593394Y-122363566D01*
X158593575Y-122364008D01*
X158596655Y-122371645D01*
X158596824Y-122372072D01*
X158599849Y-122379849D01*
X158600025Y-122380310D01*
X158602979Y-122388214D01*
X158603135Y-122388637D01*
X158606012Y-122396630D01*
X158606159Y-122397047D01*
X158608985Y-122405202D01*
X158609130Y-122405629D01*
X158611898Y-122413942D01*
X158612031Y-122414351D01*
X158614718Y-122422744D01*
X158614850Y-122423163D01*
X158617646Y-122432266D01*
X158617761Y-122432650D01*
X158620147Y-122440728D01*
X158620264Y-122441131D01*
X158622846Y-122450251D01*
X158622952Y-122450634D01*
X158625372Y-122459545D01*
X158625472Y-122459920D01*
X158627912Y-122469291D01*
X158628008Y-122469668D01*
X158630231Y-122478589D01*
X158630317Y-122478941D01*
X158632600Y-122488499D01*
X158632688Y-122488875D01*
X158634859Y-122498402D01*
X158634934Y-122498741D01*
X158637063Y-122508505D01*
X158637135Y-122508841D01*
X158639168Y-122518597D01*
X158639241Y-122518956D01*
X158641243Y-122529063D01*
X158641300Y-122529358D01*
X158643247Y-122539623D01*
X158643312Y-122539976D01*
X158645127Y-122550077D01*
X158645182Y-122550389D01*
X158647010Y-122561087D01*
X158647061Y-122561394D01*
X158648808Y-122572161D01*
X158648855Y-122572456D01*
X158650415Y-122582586D01*
X158650459Y-122582883D01*
X158652101Y-122594151D01*
X158652142Y-122594437D01*
X158653609Y-122605083D01*
X158653721Y-122605982D01*
X158656046Y-122626562D01*
X158656068Y-122626755D01*
X158658399Y-122648402D01*
X158658416Y-122648567D01*
X158660623Y-122669962D01*
X158660640Y-122670127D01*
X158662836Y-122692389D01*
X158662852Y-122692553D01*
X158664976Y-122715113D01*
X158664989Y-122715262D01*
X158667021Y-122737813D01*
X158667035Y-122737969D01*
X158669121Y-122762271D01*
X158669133Y-122762414D01*
X158671088Y-122786273D01*
X158671099Y-122786410D01*
X158672977Y-122810420D01*
X158672982Y-122810559D01*
X158672988Y-122810559D01*
X158674864Y-122835755D01*
X158674874Y-122835902D01*
X158676627Y-122860777D01*
X158676631Y-122860899D01*
X158676636Y-122860899D01*
X158678322Y-122885995D01*
X158678330Y-122886125D01*
X158679995Y-122912281D01*
X158680003Y-122912410D01*
X158681564Y-122938351D01*
X158681571Y-122938473D01*
X158683051Y-122964506D01*
X158683058Y-122964634D01*
X158684507Y-122991778D01*
X158684513Y-122991897D01*
X158685802Y-123017583D01*
X158685808Y-123017706D01*
X158687119Y-123045692D01*
X158687121Y-123045811D01*
X158687125Y-123045811D01*
X158688324Y-123073281D01*
X158688329Y-123073400D01*
X158689427Y-123100554D01*
X158689431Y-123100671D01*
X158690485Y-123128944D01*
X158690487Y-123129068D01*
X158690490Y-123129068D01*
X158691416Y-123156348D01*
X158691394Y-123156405D01*
X158691419Y-123156462D01*
X158692310Y-123185336D01*
X158692311Y-123185454D01*
X158692314Y-123185454D01*
X158693102Y-123213907D01*
X158693105Y-123214029D01*
X158693802Y-123242596D01*
X158693803Y-123242716D01*
X158693805Y-123242716D01*
X158694416Y-123271549D01*
X158694418Y-123271661D01*
X158694943Y-123300573D01*
X158694945Y-123300696D01*
X158695369Y-123329219D01*
X158695371Y-123329401D01*
X158695953Y-123387968D01*
X158695955Y-123388214D01*
X158696149Y-123446739D01*
X158696149Y-123446987D01*
X158695952Y-123505337D01*
X158695950Y-123505583D01*
X158695373Y-123563300D01*
X158695370Y-123563538D01*
X158694412Y-123621858D01*
X158694409Y-123622038D01*
X158693796Y-123650869D01*
X158693793Y-123650984D01*
X158693102Y-123679321D01*
X158693099Y-123679440D01*
X158692315Y-123707860D01*
X158692311Y-123707978D01*
X158691429Y-123736655D01*
X158691426Y-123736770D01*
X158690478Y-123764750D01*
X158690474Y-123764865D01*
X158689420Y-123793376D01*
X158689415Y-123793500D01*
X158688313Y-123820830D01*
X158688308Y-123820945D01*
X158687097Y-123848819D01*
X158687092Y-123848935D01*
X158685833Y-123875973D01*
X158685827Y-123876100D01*
X158684458Y-123903469D01*
X158684452Y-123903586D01*
X158683023Y-123930457D01*
X158683015Y-123930588D01*
X158681578Y-123955926D01*
X158681571Y-123956046D01*
X158679938Y-123983271D01*
X158679930Y-123983406D01*
X158678318Y-124008738D01*
X158678310Y-124008865D01*
X158676586Y-124034562D01*
X158676576Y-124034701D01*
X158674825Y-124059411D01*
X158674815Y-124059554D01*
X158672932Y-124084753D01*
X158672921Y-124084896D01*
X158671066Y-124108493D01*
X158671054Y-124108640D01*
X158669069Y-124132662D01*
X158669056Y-124132821D01*
X158667033Y-124156087D01*
X158667018Y-124156248D01*
X158664981Y-124178544D01*
X158664966Y-124178708D01*
X158662819Y-124201111D01*
X158662801Y-124201288D01*
X158660629Y-124222864D01*
X158660610Y-124223052D01*
X158658331Y-124244591D01*
X158658317Y-124244725D01*
X158657217Y-124254771D01*
X158657203Y-124254890D01*
X158656001Y-124265551D01*
X158655990Y-124265647D01*
X158654900Y-124275092D01*
X158654888Y-124275197D01*
X158653720Y-124285071D01*
X158653640Y-124285700D01*
X158652095Y-124297089D01*
X158652058Y-124297358D01*
X158650562Y-124307812D01*
X158650516Y-124308120D01*
X158648725Y-124319926D01*
X158648679Y-124320225D01*
X158647054Y-124330379D01*
X158647006Y-124330671D01*
X158645124Y-124341857D01*
X158645068Y-124342181D01*
X158643306Y-124352115D01*
X158643248Y-124352433D01*
X158641285Y-124362967D01*
X158641221Y-124363301D01*
X158639229Y-124373472D01*
X158639164Y-124373797D01*
X158637156Y-124383585D01*
X158637085Y-124383922D01*
X158634935Y-124393929D01*
X158634856Y-124394291D01*
X158632640Y-124404126D01*
X158632560Y-124404473D01*
X158630328Y-124413954D01*
X158630236Y-124414334D01*
X158627897Y-124423820D01*
X158627810Y-124424168D01*
X158625488Y-124433208D01*
X158625386Y-124433596D01*
X158622886Y-124442910D01*
X158622780Y-124443293D01*
X158620347Y-124451984D01*
X158620235Y-124452376D01*
X158617563Y-124461532D01*
X158617443Y-124461935D01*
X158614825Y-124470542D01*
X158614699Y-124470950D01*
X158612051Y-124479309D01*
X158611920Y-124479712D01*
X158609124Y-124488200D01*
X158608979Y-124488634D01*
X158606157Y-124496858D01*
X158606014Y-124497266D01*
X158603100Y-124505447D01*
X158602937Y-124505897D01*
X158599978Y-124513877D01*
X158599816Y-124514304D01*
X158596817Y-124522096D01*
X158596639Y-124522551D01*
X158593518Y-124530352D01*
X158593335Y-124530799D01*
X158590204Y-124538339D01*
X158590010Y-124538799D01*
X158586774Y-124546305D01*
X158586572Y-124546763D01*
X158583365Y-124553934D01*
X158583155Y-124554396D01*
X158579735Y-124561771D01*
X158579510Y-124562248D01*
X158576198Y-124569132D01*
X158575844Y-124569848D01*
X158568799Y-124583718D01*
X158568291Y-124584682D01*
X158561018Y-124598016D01*
X158560470Y-124598987D01*
X158552989Y-124611773D01*
X158552391Y-124612759D01*
X158544622Y-124625138D01*
X158543985Y-124626118D01*
X158535984Y-124638017D01*
X158535303Y-124638995D01*
X158527080Y-124650414D01*
X158526366Y-124651372D01*
X158517812Y-124662478D01*
X158517047Y-124663439D01*
X158508330Y-124674013D01*
X158507528Y-124674954D01*
X158498475Y-124685219D01*
X158497650Y-124686123D01*
X158488282Y-124696064D01*
X158487415Y-124696954D01*
X158477880Y-124706416D01*
X158476988Y-124707272D01*
X158467085Y-124716465D01*
X158466186Y-124717272D01*
X158456067Y-124726070D01*
X158455133Y-124726856D01*
X158444643Y-124735387D01*
X158443706Y-124736125D01*
X158432987Y-124744284D01*
X158432046Y-124744977D01*
X158421059Y-124752806D01*
X158420114Y-124753457D01*
X158408711Y-124761062D01*
X158407779Y-124761664D01*
X158396091Y-124768964D01*
X158395151Y-124769532D01*
X158383279Y-124776467D01*
X158382372Y-124776980D01*
X158369900Y-124783803D01*
X158368992Y-124784283D01*
X158356446Y-124790702D01*
X158355566Y-124791138D01*
X158342605Y-124797342D01*
X158341749Y-124797738D01*
X158328392Y-124803719D01*
X158327569Y-124804076D01*
X158313857Y-124809822D01*
X158313048Y-124810150D01*
X158299095Y-124815615D01*
X158298326Y-124815906D01*
X158283945Y-124821174D01*
X158283206Y-124821436D01*
X158268500Y-124826473D01*
X158267786Y-124826710D01*
X158252775Y-124831514D01*
X158252105Y-124831721D01*
X158236706Y-124836330D01*
X158236055Y-124836518D01*
X158220231Y-124840941D01*
X158219630Y-124841104D01*
X158203477Y-124845328D01*
X158202899Y-124845474D01*
X158186517Y-124849478D01*
X158185964Y-124849609D01*
X158169091Y-124853460D01*
X158168580Y-124853573D01*
X158151389Y-124857242D01*
X158150912Y-124857340D01*
X158133441Y-124860830D01*
X158132984Y-124860919D01*
X158114946Y-124864287D01*
X158114522Y-124864363D01*
X158096416Y-124867527D01*
X158096019Y-124867594D01*
X158077421Y-124870636D01*
X158077061Y-124870693D01*
X158057934Y-124873629D01*
X158057595Y-124873680D01*
X158038394Y-124876446D01*
X158038076Y-124876490D01*
X158018273Y-124879168D01*
X158017988Y-124879206D01*
X157997833Y-124881773D01*
X157997568Y-124881806D01*
X157977526Y-124884212D01*
X157977281Y-124884240D01*
X157956199Y-124886629D01*
X157955983Y-124886653D01*
X157935114Y-124888894D01*
X157934913Y-124888915D01*
X157913011Y-124891146D01*
X157912840Y-124891163D01*
X157891982Y-124893190D01*
X157891818Y-124893206D01*
X157868952Y-124895326D01*
X157868810Y-124895338D01*
X157846898Y-124897284D01*
X157846781Y-124897296D01*
X157846451Y-124897326D01*
X157832363Y-124898548D01*
X157832120Y-124898669D01*
X157808050Y-124900924D01*
X157807845Y-124900943D01*
X157768438Y-124904415D01*
X157768245Y-124904431D01*
X157729174Y-124907668D01*
X157728991Y-124907683D01*
X157689198Y-124910781D01*
X157689027Y-124910794D01*
X157649038Y-124913722D01*
X157648871Y-124913734D01*
X157608459Y-124916510D01*
X157608301Y-124916520D01*
X157568155Y-124919105D01*
X157568005Y-124919115D01*
X157526982Y-124921590D01*
X157526839Y-124921598D01*
X157485705Y-124923920D01*
X157485564Y-124923928D01*
X157444866Y-124926070D01*
X157444739Y-124926076D01*
X157403160Y-124928122D01*
X157403037Y-124928128D01*
X157362399Y-124929992D01*
X157362218Y-124930000D01*
X157279556Y-124933387D01*
X157279391Y-124933393D01*
X157237794Y-124934912D01*
X157237688Y-124934916D01*
X157196995Y-124936286D01*
X157196889Y-124936289D01*
X157155181Y-124937573D01*
X157155087Y-124937576D01*
X157115217Y-124938703D01*
X157115127Y-124938706D01*
X157074399Y-124939758D01*
X157074308Y-124939760D01*
X157034175Y-124940698D01*
X157034089Y-124940700D01*
X156992639Y-124941573D01*
X156992554Y-124941574D01*
X156953437Y-124942308D01*
X156953360Y-124942310D01*
X156913108Y-124942982D01*
X156913030Y-124942983D01*
X156874731Y-124943542D01*
X156874657Y-124943543D01*
X156835120Y-124944041D01*
X156835045Y-124944042D01*
X156796945Y-124944445D01*
X156796885Y-124944446D01*
X156758882Y-124944786D01*
X156758813Y-124944786D01*
X156720918Y-124945055D01*
X156720856Y-124945055D01*
X156685747Y-124945245D01*
X156685703Y-124945246D01*
X156666562Y-124945327D01*
X156666532Y-124945327D01*
X156648704Y-124945388D01*
X156648675Y-124945388D01*
X156628658Y-124945441D01*
X156628624Y-124945441D01*
X156614143Y-124945466D01*
X156614121Y-124945466D01*
X156594804Y-124945488D01*
X156594773Y-124945488D01*
X156577397Y-124945493D01*
X156577293Y-124945493D01*
X156515565Y-124945338D01*
X156515292Y-124945224D01*
X156515292Y-124945226D01*
X156460644Y-124944849D01*
X156434486Y-124933802D01*
X156423800Y-124907750D01*
X156423800Y-123916524D01*
X156434666Y-123890290D01*
X156460900Y-123879424D01*
X156479539Y-123884446D01*
X156491428Y-123891354D01*
X156491431Y-123891356D01*
X156975347Y-124172476D01*
X156976124Y-124172910D01*
X156976922Y-124173457D01*
X156980596Y-124175348D01*
X156981324Y-124175789D01*
X156983003Y-124176583D01*
X156987107Y-124178851D01*
X156987833Y-124179314D01*
X156988703Y-124179689D01*
X156988708Y-124179678D01*
X156991396Y-124180775D01*
X156991538Y-124180833D01*
X156992049Y-124181044D01*
X156992042Y-124181059D01*
X156992862Y-124181380D01*
X156993695Y-124181558D01*
X156998261Y-124182844D01*
X157002702Y-124184407D01*
X157005211Y-124184910D01*
X157012928Y-124187046D01*
X157013801Y-124187088D01*
X157021802Y-124186733D01*
X157029225Y-124187359D01*
X157029359Y-124187388D01*
X157029387Y-124187385D01*
X157037140Y-124187495D01*
X157044856Y-124188671D01*
X157046236Y-124188748D01*
X157046333Y-124188731D01*
X157051082Y-124188192D01*
X157052467Y-124188124D01*
X157052564Y-124188110D01*
X157053948Y-124187770D01*
X157058634Y-124186930D01*
X157059949Y-124186780D01*
X157060105Y-124186747D01*
X157061488Y-124186313D01*
X157066048Y-124185193D01*
X157067263Y-124184974D01*
X157067691Y-124184856D01*
X157068962Y-124184368D01*
X157073419Y-124182969D01*
X157074813Y-124182626D01*
X157076155Y-124182012D01*
X157080483Y-124180350D01*
X157081767Y-124179946D01*
X157082003Y-124179846D01*
X157083231Y-124179190D01*
X157087428Y-124177269D01*
X157088720Y-124176772D01*
X157088783Y-124176741D01*
X157088923Y-124176670D01*
X157090089Y-124175951D01*
X157094161Y-124173772D01*
X157095572Y-124173126D01*
X157096815Y-124172249D01*
X157100721Y-124169838D01*
X157102010Y-124169148D01*
X157103172Y-124168214D01*
X157106941Y-124165550D01*
X157108233Y-124164752D01*
X157108236Y-124164749D01*
X157109337Y-124163745D01*
X157112940Y-124160845D01*
X157114193Y-124159959D01*
X157115216Y-124158901D01*
X157118643Y-124155773D01*
X157119821Y-124154825D01*
X157121390Y-124152976D01*
X157122255Y-124150621D01*
X157133796Y-124134523D01*
X157135400Y-124133229D01*
X157137304Y-124130283D01*
X157137565Y-124129635D01*
X157141116Y-124123276D01*
X157141119Y-124123268D01*
X157144502Y-124116090D01*
X157148531Y-124109791D01*
X157149078Y-124108731D01*
X157151121Y-124100936D01*
X157151919Y-124098589D01*
X157152807Y-124093910D01*
X157153990Y-124089304D01*
X157154259Y-124088480D01*
X157154420Y-124087429D01*
X157154414Y-124087429D01*
X157154842Y-124084314D01*
X157154844Y-124084314D01*
X157154989Y-124083107D01*
X157154955Y-124082299D01*
X157155055Y-124077574D01*
X157155252Y-124075251D01*
X157155221Y-124074317D01*
X157155288Y-124073011D01*
X157155399Y-124066261D01*
X157155353Y-124065719D01*
X157155353Y-122831557D01*
X157155374Y-122831087D01*
X157155282Y-122825572D01*
X157155067Y-122821356D01*
X157155056Y-122821221D01*
X157155052Y-122821063D01*
X157155035Y-122820717D01*
X157155045Y-122820716D01*
X157154955Y-122816464D01*
X157154990Y-122815644D01*
X157154856Y-122814527D01*
X157154851Y-122814528D01*
X157154423Y-122811391D01*
X157154427Y-122811390D01*
X157154244Y-122810213D01*
X157153994Y-122809443D01*
X157152824Y-122804887D01*
X157151941Y-122800245D01*
X157151134Y-122797878D01*
X157149086Y-122790056D01*
X157148708Y-122789322D01*
X157144446Y-122782675D01*
X157141111Y-122775662D01*
X157141060Y-122775504D01*
X157137584Y-122769156D01*
X157134434Y-122761246D01*
X157134304Y-122760994D01*
X157133833Y-122760439D01*
X157130964Y-122756570D01*
X157130215Y-122755410D01*
X157129167Y-122754320D01*
X157126117Y-122750716D01*
X157125292Y-122749604D01*
X157125179Y-122749480D01*
X157124113Y-122748503D01*
X157120874Y-122745135D01*
X157120014Y-122744120D01*
X157119883Y-122743992D01*
X157118777Y-122743099D01*
X157115335Y-122739943D01*
X157114358Y-122738926D01*
X157113102Y-122738036D01*
X157109510Y-122735136D01*
X157108394Y-122734114D01*
X157107103Y-122733314D01*
X157103342Y-122730645D01*
X157102183Y-122729709D01*
X157100868Y-122729002D01*
X157096973Y-122726586D01*
X157095735Y-122725708D01*
X157094379Y-122725085D01*
X157090328Y-122722910D01*
X157089177Y-122722196D01*
X157088938Y-122722076D01*
X157087663Y-122721583D01*
X157083508Y-122719672D01*
X157082139Y-122718937D01*
X157082123Y-122718930D01*
X157080707Y-122718482D01*
X157076397Y-122716817D01*
X157075186Y-122716260D01*
X157074866Y-122716149D01*
X157073638Y-122715844D01*
X157069170Y-122714429D01*
X157067977Y-122713966D01*
X157067510Y-122713836D01*
X157066324Y-122713620D01*
X157061784Y-122712492D01*
X157060368Y-122712043D01*
X157060363Y-122712042D01*
X157058969Y-122711881D01*
X157054288Y-122711031D01*
X157052792Y-122710659D01*
X157052784Y-122710657D01*
X157051374Y-122710586D01*
X157046659Y-122710038D01*
X157045088Y-122710123D01*
X157037588Y-122711261D01*
X157030043Y-122711356D01*
X157029725Y-122711319D01*
X157022280Y-122711943D01*
X157022062Y-122712006D01*
X157014324Y-122713162D01*
X157006287Y-122713315D01*
X157005403Y-122713415D01*
X156998618Y-122715776D01*
X156995839Y-122717314D01*
X156995292Y-122716326D01*
X156986425Y-122719836D01*
X156986770Y-122721059D01*
X156983234Y-122722055D01*
X156979322Y-122724051D01*
X156972587Y-122727782D01*
X156972125Y-122728121D01*
X156518552Y-122989316D01*
X156518550Y-122989318D01*
X156479412Y-123011852D01*
X156451255Y-123015524D01*
X156428748Y-122998212D01*
X156423800Y-122979700D01*
X156423800Y-121983671D01*
X156434666Y-121957437D01*
X156460473Y-121946573D01*
X156514977Y-121945945D01*
X156515121Y-121945883D01*
X156515504Y-121945879D01*
X156576482Y-121945510D01*
X156576733Y-121945509D01*
X156593888Y-121945521D01*
G37*
G36*
X156565175Y-121956446D02*
G01*
X156576199Y-121982613D01*
X156576200Y-121982837D01*
X156576200Y-122934672D01*
X156565334Y-122960906D01*
X156557614Y-122966822D01*
X156518552Y-122989316D01*
X156518550Y-122989317D01*
X155904781Y-123342715D01*
X155903993Y-123343187D01*
X155903140Y-123343593D01*
X155901643Y-123344559D01*
X155900666Y-123345017D01*
X155897224Y-123347418D01*
X155894910Y-123349731D01*
X155894037Y-123348857D01*
X155886411Y-123354823D01*
X155887007Y-123355819D01*
X155884287Y-123357445D01*
X155878787Y-123362171D01*
X155878205Y-123362953D01*
X155874210Y-123369532D01*
X155869338Y-123375648D01*
X155869320Y-123375685D01*
X155864924Y-123382059D01*
X155864907Y-123382076D01*
X155864817Y-123382286D01*
X155861148Y-123388388D01*
X155855643Y-123395306D01*
X155855383Y-123395709D01*
X155855269Y-123396027D01*
X155853350Y-123400443D01*
X155852706Y-123401694D01*
X155852703Y-123401701D01*
X155852273Y-123403182D01*
X155850676Y-123407604D01*
X155850097Y-123408936D01*
X155850092Y-123408949D01*
X155849758Y-123410449D01*
X155848454Y-123414937D01*
X155847978Y-123416257D01*
X155847972Y-123416279D01*
X155847735Y-123417775D01*
X155846725Y-123422294D01*
X155846356Y-123423563D01*
X155846322Y-123423746D01*
X155846304Y-123423835D01*
X155846172Y-123425232D01*
X155845449Y-123429801D01*
X155845129Y-123431231D01*
X155845129Y-123431239D01*
X155845081Y-123432695D01*
X155844646Y-123437262D01*
X155844409Y-123438759D01*
X155844408Y-123438769D01*
X155844454Y-123440310D01*
X155844302Y-123444932D01*
X155844160Y-123446415D01*
X155844293Y-123447879D01*
X155844425Y-123452460D01*
X155844374Y-123453977D01*
X155844607Y-123455482D01*
X155845026Y-123460068D01*
X155845069Y-123461564D01*
X155845381Y-123462994D01*
X155846079Y-123467528D01*
X155846221Y-123469090D01*
X155846221Y-123469091D01*
X155846626Y-123470509D01*
X155847611Y-123475005D01*
X155847841Y-123476490D01*
X155847864Y-123476582D01*
X155848330Y-123477891D01*
X155849623Y-123482415D01*
X155849875Y-123483570D01*
X155849951Y-123483807D01*
X155850044Y-123484103D01*
X155850507Y-123485178D01*
X155852095Y-123489636D01*
X155852508Y-123491083D01*
X155852512Y-123491094D01*
X155853149Y-123492343D01*
X155855044Y-123496746D01*
X155855120Y-123496961D01*
X155855764Y-123497959D01*
X155860561Y-123503996D01*
X155864374Y-123510367D01*
X155864553Y-123510779D01*
X155868833Y-123516987D01*
X155868886Y-123517038D01*
X155873924Y-123523390D01*
X155877809Y-123529856D01*
X155878512Y-123530810D01*
X155883890Y-123535463D01*
X155886617Y-123537106D01*
X155886044Y-123538055D01*
X155893894Y-123544397D01*
X155894889Y-123543398D01*
X155897602Y-123546096D01*
X155902098Y-123549022D01*
X155902949Y-123549454D01*
X155904294Y-123550266D01*
X156491425Y-123891351D01*
X156491431Y-123891357D01*
X156557735Y-123929873D01*
X156574961Y-123952446D01*
X156576200Y-123961953D01*
X156576200Y-124908296D01*
X156565334Y-124934530D01*
X156539100Y-124945396D01*
X156539008Y-124945396D01*
X156515566Y-124945338D01*
X156515292Y-124945223D01*
X156515292Y-124945226D01*
X156396002Y-124944404D01*
X156395975Y-124944392D01*
X156395948Y-124944404D01*
X156361284Y-124944113D01*
X156361284Y-124944112D01*
X156361214Y-124944112D01*
X156326637Y-124943758D01*
X156326637Y-124943757D01*
X156326577Y-124943757D01*
X156290033Y-124943325D01*
X156290033Y-124943324D01*
X156289959Y-124943324D01*
X156253455Y-124942820D01*
X156253424Y-124942806D01*
X156253392Y-124942820D01*
X156218042Y-124942271D01*
X156218042Y-124942269D01*
X156217965Y-124942269D01*
X156179539Y-124941594D01*
X156179502Y-124941578D01*
X156179466Y-124941593D01*
X156144040Y-124940900D01*
X156144040Y-124940898D01*
X156143955Y-124940898D01*
X156105467Y-124940058D01*
X156105467Y-124940056D01*
X156105389Y-124940056D01*
X156069045Y-124939187D01*
X156069002Y-124939168D01*
X156068960Y-124939185D01*
X156030151Y-124938167D01*
X156030107Y-124938147D01*
X156030063Y-124938165D01*
X155992016Y-124937075D01*
X155992016Y-124937073D01*
X155991924Y-124937072D01*
X155954626Y-124935912D01*
X155954531Y-124935909D01*
X155916590Y-124934632D01*
X155916440Y-124934627D01*
X155839696Y-124931734D01*
X155839482Y-124931725D01*
X155762495Y-124928376D01*
X155762266Y-124928365D01*
X155685704Y-124924562D01*
X155685611Y-124924518D01*
X155685521Y-124924553D01*
X155647588Y-124922479D01*
X155647588Y-124922474D01*
X155647457Y-124922471D01*
X155608805Y-124920222D01*
X155608669Y-124920214D01*
X155570744Y-124917868D01*
X155570607Y-124917859D01*
X155533152Y-124915402D01*
X155533079Y-124915366D01*
X155533008Y-124915393D01*
X155495027Y-124912753D01*
X155494873Y-124912742D01*
X155456663Y-124909926D01*
X155456505Y-124909914D01*
X155419824Y-124907053D01*
X155419824Y-124907045D01*
X155419658Y-124907039D01*
X155382489Y-124903973D01*
X155382402Y-124903928D01*
X155382319Y-124903959D01*
X155345077Y-124900713D01*
X155344897Y-124900697D01*
X155309861Y-124897472D01*
X155309861Y-124897471D01*
X155308682Y-124897367D01*
X155308628Y-124897339D01*
X155308577Y-124897358D01*
X155307412Y-124897251D01*
X155307412Y-124897250D01*
X155285843Y-124895330D01*
X155285775Y-124895294D01*
X155285710Y-124895318D01*
X155262664Y-124893181D01*
X155262495Y-124893165D01*
X155241051Y-124891078D01*
X155240873Y-124891060D01*
X155219618Y-124888888D01*
X155219422Y-124888867D01*
X155198420Y-124886608D01*
X155198193Y-124886583D01*
X155177401Y-124884217D01*
X155177163Y-124884189D01*
X155156997Y-124881762D01*
X155156727Y-124881729D01*
X155136701Y-124879170D01*
X155136406Y-124879131D01*
X155116664Y-124876447D01*
X155116345Y-124876402D01*
X155097230Y-124873634D01*
X155096884Y-124873582D01*
X155077933Y-124870655D01*
X155077569Y-124870597D01*
X155059226Y-124867577D01*
X155058815Y-124867507D01*
X155040534Y-124864286D01*
X155040122Y-124864211D01*
X155022531Y-124860906D01*
X155022061Y-124860815D01*
X155004706Y-124857322D01*
X155004220Y-124857221D01*
X154987009Y-124853517D01*
X154986484Y-124853399D01*
X154970042Y-124849610D01*
X154969500Y-124849481D01*
X154953008Y-124845419D01*
X154952408Y-124845266D01*
X154936599Y-124841091D01*
X154935981Y-124840922D01*
X154920273Y-124836482D01*
X154919630Y-124836294D01*
X154904484Y-124831716D01*
X154903790Y-124831499D01*
X154888891Y-124826675D01*
X154888170Y-124826434D01*
X154873610Y-124821388D01*
X154872857Y-124821117D01*
X154858795Y-124815901D01*
X154858015Y-124815602D01*
X154844200Y-124810121D01*
X154843396Y-124809791D01*
X154829848Y-124804045D01*
X154828992Y-124803669D01*
X154815944Y-124797743D01*
X154815075Y-124797335D01*
X154802296Y-124791127D01*
X154801415Y-124790684D01*
X154788964Y-124784221D01*
X154788050Y-124783730D01*
X154775885Y-124776977D01*
X154774958Y-124776445D01*
X154763270Y-124769509D01*
X154762329Y-124768932D01*
X154750844Y-124761646D01*
X154749904Y-124761029D01*
X154738748Y-124753468D01*
X154737790Y-124752797D01*
X154726926Y-124744923D01*
X154725980Y-124744214D01*
X154715451Y-124736059D01*
X154714516Y-124735310D01*
X154704293Y-124726850D01*
X154703364Y-124726055D01*
X154693418Y-124717256D01*
X154692506Y-124716422D01*
X154682829Y-124707269D01*
X154681950Y-124706410D01*
X154672522Y-124696881D01*
X154671667Y-124695987D01*
X154662556Y-124686143D01*
X154661724Y-124685213D01*
X154652842Y-124674944D01*
X154652054Y-124674002D01*
X154643474Y-124663392D01*
X154642730Y-124662440D01*
X154634370Y-124651384D01*
X154633652Y-124650402D01*
X154625546Y-124638918D01*
X154624880Y-124637943D01*
X154617062Y-124626083D01*
X154616438Y-124625103D01*
X154608802Y-124612690D01*
X154608220Y-124611710D01*
X154600876Y-124598906D01*
X154600341Y-124597940D01*
X154593242Y-124584663D01*
X154592748Y-124583705D01*
X154585844Y-124569838D01*
X154585495Y-124569118D01*
X154582242Y-124562215D01*
X154582041Y-124561781D01*
X154578718Y-124554487D01*
X154578502Y-124554004D01*
X154575317Y-124546740D01*
X154575122Y-124546288D01*
X154571929Y-124538735D01*
X154571743Y-124538286D01*
X154568681Y-124530770D01*
X154568508Y-124530339D01*
X154565486Y-124522647D01*
X154565312Y-124522194D01*
X154562355Y-124514368D01*
X154562191Y-124513926D01*
X154559258Y-124505855D01*
X154559114Y-124505453D01*
X154556254Y-124497291D01*
X154556108Y-124496866D01*
X154553315Y-124488575D01*
X154553175Y-124488151D01*
X154550437Y-124479688D01*
X154550310Y-124479287D01*
X154547699Y-124470893D01*
X154547578Y-124470496D01*
X154544987Y-124461825D01*
X154544876Y-124461446D01*
X154542286Y-124452430D01*
X154542171Y-124452020D01*
X154539719Y-124443099D01*
X154539627Y-124442758D01*
X154537266Y-124433837D01*
X154537164Y-124433443D01*
X154534734Y-124423836D01*
X154534646Y-124423480D01*
X154532355Y-124414031D01*
X154532270Y-124413674D01*
X154530129Y-124404446D01*
X154530052Y-124404105D01*
X154527882Y-124394335D01*
X154527808Y-124393998D01*
X154525701Y-124384077D01*
X154525632Y-124383741D01*
X154523541Y-124373427D01*
X154523479Y-124373116D01*
X154521557Y-124363200D01*
X154521492Y-124362858D01*
X154519603Y-124352599D01*
X154519549Y-124352299D01*
X154517713Y-124341845D01*
X154517662Y-124341546D01*
X154515875Y-124330860D01*
X154515826Y-124330558D01*
X154514171Y-124320134D01*
X154514126Y-124319846D01*
X154512378Y-124308247D01*
X154512339Y-124307978D01*
X154510150Y-124292693D01*
X154510177Y-124292118D01*
X154508214Y-124278750D01*
X154508079Y-124278367D01*
X154506068Y-124265216D01*
X154506042Y-124265042D01*
X154504549Y-124254958D01*
X154504530Y-124254828D01*
X154503060Y-124244651D01*
X154503025Y-124244404D01*
X154500089Y-124223066D01*
X154500052Y-124222786D01*
X154497284Y-124201469D01*
X154497248Y-124201188D01*
X154494518Y-124178826D01*
X154494489Y-124178579D01*
X154491909Y-124156201D01*
X154491881Y-124155952D01*
X154489337Y-124132493D01*
X154489313Y-124132265D01*
X154486907Y-124108726D01*
X154486886Y-124108515D01*
X154484535Y-124084133D01*
X154484515Y-124083916D01*
X154482311Y-124059563D01*
X154482294Y-124059369D01*
X154480194Y-124034726D01*
X154480178Y-124034533D01*
X154478108Y-124008640D01*
X154478094Y-124008455D01*
X154476223Y-123983484D01*
X154476210Y-123983308D01*
X154474338Y-123956621D01*
X154474327Y-123956457D01*
X154472622Y-123930508D01*
X154472611Y-123930336D01*
X154470979Y-123903592D01*
X154470970Y-123903436D01*
X154469404Y-123875864D01*
X154469395Y-123875712D01*
X154467972Y-123848698D01*
X154468030Y-123848694D01*
X154467963Y-123848542D01*
X154466657Y-123821592D01*
X154466651Y-123821449D01*
X154465388Y-123793131D01*
X154465382Y-123792982D01*
X154464247Y-123765011D01*
X154464241Y-123764873D01*
X154463213Y-123736963D01*
X154463209Y-123736831D01*
X154462245Y-123707871D01*
X154462240Y-123707727D01*
X154461417Y-123679736D01*
X154461413Y-123679607D01*
X154460653Y-123650279D01*
X154460650Y-123650150D01*
X154460023Y-123622187D01*
X154460019Y-123621987D01*
X154459020Y-123563365D01*
X154459017Y-123563114D01*
X154458424Y-123505435D01*
X154458422Y-123505180D01*
X154458225Y-123447122D01*
X154458225Y-123446871D01*
X154458422Y-123388236D01*
X154458424Y-123387981D01*
X154459017Y-123330112D01*
X154459019Y-123329923D01*
X154459480Y-123299852D01*
X154459482Y-123299718D01*
X154460002Y-123272259D01*
X154460004Y-123272129D01*
X154460663Y-123242737D01*
X154460664Y-123242737D01*
X154460666Y-123242600D01*
X154461426Y-123213485D01*
X154461429Y-123213355D01*
X154462260Y-123185299D01*
X154462261Y-123185299D01*
X154462264Y-123185161D01*
X154463208Y-123156816D01*
X154463213Y-123156671D01*
X154464241Y-123129053D01*
X154464246Y-123128916D01*
X154465398Y-123100771D01*
X154465404Y-123100625D01*
X154466642Y-123073034D01*
X154466644Y-123073034D01*
X154466648Y-123072889D01*
X154467970Y-123045786D01*
X154467978Y-123045634D01*
X154469410Y-123018553D01*
X154469418Y-123018394D01*
X154470964Y-122991353D01*
X154470968Y-122991353D01*
X154470973Y-122991195D01*
X154472638Y-122964099D01*
X154472648Y-122963936D01*
X154474370Y-122937792D01*
X154474374Y-122937792D01*
X154474381Y-122937622D01*
X154476155Y-122912438D01*
X154476167Y-122912265D01*
X154478141Y-122885993D01*
X154478147Y-122885993D01*
X154478154Y-122885819D01*
X154480198Y-122860225D01*
X154480214Y-122860032D01*
X154482297Y-122835554D01*
X154482313Y-122835365D01*
X154484536Y-122810732D01*
X154484555Y-122810528D01*
X154486886Y-122786204D01*
X154486906Y-122786004D01*
X154489316Y-122762212D01*
X154489339Y-122761988D01*
X154491887Y-122738270D01*
X154491911Y-122738052D01*
X154494494Y-122715276D01*
X154494522Y-122715040D01*
X154497245Y-122692331D01*
X154497276Y-122692079D01*
X154500050Y-122670213D01*
X154500083Y-122669960D01*
X154503008Y-122648109D01*
X154503047Y-122647828D01*
X154506048Y-122626640D01*
X154506089Y-122626357D01*
X154509195Y-122605576D01*
X154509216Y-122605430D01*
X154509246Y-122605220D01*
X154509683Y-122602164D01*
X154509719Y-122601413D01*
X154512354Y-122583214D01*
X154512399Y-122582908D01*
X154514039Y-122572210D01*
X154514084Y-122571927D01*
X154515831Y-122561091D01*
X154515882Y-122560784D01*
X154517612Y-122550597D01*
X154517665Y-122550294D01*
X154519565Y-122539643D01*
X154519622Y-122539326D01*
X154521487Y-122529371D01*
X154521550Y-122529046D01*
X154523552Y-122518863D01*
X154523614Y-122518552D01*
X154525599Y-122508893D01*
X154525673Y-122508545D01*
X154527750Y-122498908D01*
X154527820Y-122498587D01*
X154530029Y-122488761D01*
X154530112Y-122488403D01*
X154532282Y-122479178D01*
X154532370Y-122478812D01*
X154534694Y-122469363D01*
X154534781Y-122469015D01*
X154537115Y-122459906D01*
X154537214Y-122459527D01*
X154539617Y-122450545D01*
X154539714Y-122450190D01*
X154542191Y-122441286D01*
X154542306Y-122440881D01*
X154544812Y-122432253D01*
X154544927Y-122431865D01*
X154547506Y-122423334D01*
X154547630Y-122422933D01*
X154550350Y-122414290D01*
X154550472Y-122413908D01*
X154553196Y-122405568D01*
X154553342Y-122405132D01*
X154556133Y-122396933D01*
X154556278Y-122396514D01*
X154559076Y-122388605D01*
X154559221Y-122388205D01*
X154562122Y-122380295D01*
X154562285Y-122379857D01*
X154565311Y-122371917D01*
X154565486Y-122371467D01*
X154568428Y-122364039D01*
X154568601Y-122363611D01*
X154571754Y-122355931D01*
X154572040Y-122355253D01*
X154578409Y-122340575D01*
X154578825Y-122339652D01*
X154585427Y-122325507D01*
X154585874Y-122324582D01*
X154592747Y-122310861D01*
X154593243Y-122309905D01*
X154600346Y-122296697D01*
X154600875Y-122295747D01*
X154608261Y-122282928D01*
X154608837Y-122281963D01*
X154616435Y-122269654D01*
X154617057Y-122268681D01*
X154624911Y-122256801D01*
X154625572Y-122255835D01*
X154633648Y-122244419D01*
X154634343Y-122243468D01*
X154642688Y-122232432D01*
X154643433Y-122231479D01*
X154652077Y-122220791D01*
X154652859Y-122219856D01*
X154661735Y-122209590D01*
X154662549Y-122208679D01*
X154671672Y-122198804D01*
X154672515Y-122197922D01*
X154681956Y-122188354D01*
X154682831Y-122187496D01*
X154692468Y-122178354D01*
X154693364Y-122177531D01*
X154703351Y-122168661D01*
X154704257Y-122167882D01*
X154714552Y-122159315D01*
X154715482Y-122158566D01*
X154726046Y-122150336D01*
X154726977Y-122149635D01*
X154737805Y-122141733D01*
X154738739Y-122141073D01*
X154749815Y-122133502D01*
X154750754Y-122132880D01*
X154762301Y-122125491D01*
X154763238Y-122124911D01*
X154775043Y-122117842D01*
X154775948Y-122117318D01*
X154788013Y-122110548D01*
X154788920Y-122110055D01*
X154801365Y-122103520D01*
X154802255Y-122103068D01*
X154815169Y-122096724D01*
X154816035Y-122096312D01*
X154828978Y-122090364D01*
X154829815Y-122089992D01*
X154843332Y-122084180D01*
X154844140Y-122083844D01*
X154858003Y-122078267D01*
X154858790Y-122077961D01*
X154872912Y-122072650D01*
X154873666Y-122072376D01*
X154888159Y-122067280D01*
X154888895Y-122067029D01*
X154903684Y-122062175D01*
X154904362Y-122061960D01*
X154919705Y-122057248D01*
X154920367Y-122057051D01*
X154935866Y-122052605D01*
X154936498Y-122052430D01*
X154952483Y-122048149D01*
X154953089Y-122047992D01*
X154969448Y-122043905D01*
X154970014Y-122043769D01*
X154986398Y-122039948D01*
X154986925Y-122039829D01*
X155004257Y-122036052D01*
X155004762Y-122035945D01*
X155021917Y-122032456D01*
X155022396Y-122032362D01*
X155040338Y-122028958D01*
X155040783Y-122028876D01*
X155058739Y-122025696D01*
X155059143Y-122025627D01*
X155077654Y-122022559D01*
X155078056Y-122022495D01*
X155096875Y-122019588D01*
X155097229Y-122019535D01*
X155116419Y-122016760D01*
X155116771Y-122016711D01*
X155136379Y-122014067D01*
X155136676Y-122014028D01*
X155156504Y-122011517D01*
X155156802Y-122011480D01*
X155177060Y-122009081D01*
X155177325Y-122009051D01*
X155198337Y-122006716D01*
X155198573Y-122006691D01*
X155219174Y-122004535D01*
X155219404Y-122004511D01*
X155241067Y-122002380D01*
X155241270Y-122002361D01*
X155262966Y-122000347D01*
X155263156Y-122000405D01*
X155263150Y-122000331D01*
X155285235Y-121998391D01*
X155285240Y-121998448D01*
X155285394Y-121998377D01*
X155307614Y-121996522D01*
X155307762Y-121996569D01*
X155307758Y-121996511D01*
X155345315Y-121993522D01*
X155345428Y-121993513D01*
X155382656Y-121990665D01*
X155382765Y-121990700D01*
X155382762Y-121990658D01*
X155419379Y-121987961D01*
X155419381Y-121987997D01*
X155419479Y-121987953D01*
X155457014Y-121985292D01*
X155457016Y-121985329D01*
X155457116Y-121985284D01*
X155494649Y-121982728D01*
X155494750Y-121982762D01*
X155494748Y-121982722D01*
X155532900Y-121980225D01*
X155532902Y-121980259D01*
X155532995Y-121980218D01*
X155570694Y-121977849D01*
X155570788Y-121977881D01*
X155570786Y-121977844D01*
X155609727Y-121975493D01*
X155609864Y-121975485D01*
X155685286Y-121971212D01*
X155685289Y-121971278D01*
X155685461Y-121971202D01*
X155762607Y-121967198D01*
X155762780Y-121967259D01*
X155762777Y-121967190D01*
X155840033Y-121963533D01*
X155840035Y-121963596D01*
X155840198Y-121963525D01*
X155916063Y-121960274D01*
X155916186Y-121960269D01*
X155953924Y-121958778D01*
X155953997Y-121958804D01*
X155953996Y-121958776D01*
X155992352Y-121957334D01*
X155992353Y-121957366D01*
X155992438Y-121957330D01*
X156031250Y-121955962D01*
X156031330Y-121955991D01*
X156031329Y-121955960D01*
X156067885Y-121954748D01*
X156067885Y-121954777D01*
X156067961Y-121954745D01*
X156105869Y-121953567D01*
X156105950Y-121953598D01*
X156105950Y-121953565D01*
X156144174Y-121952460D01*
X156144174Y-121952490D01*
X156144253Y-121952457D01*
X156180326Y-121951492D01*
X156180402Y-121951490D01*
X156217404Y-121950576D01*
X156217485Y-121950574D01*
X156252917Y-121949776D01*
X156252917Y-121949807D01*
X156252996Y-121949774D01*
X156290419Y-121949012D01*
X156290497Y-121949042D01*
X156290497Y-121949011D01*
X156326048Y-121948361D01*
X156326048Y-121948395D01*
X156326135Y-121948359D01*
X156361558Y-121947796D01*
X156361558Y-121947826D01*
X156361635Y-121947794D01*
X156396236Y-121947316D01*
X156396321Y-121947349D01*
X156396321Y-121947315D01*
X156514977Y-121945945D01*
X156515121Y-121945883D01*
X156515505Y-121945879D01*
X156538876Y-121945738D01*
X156565175Y-121956446D01*
G37*
M02*
