%TF.GenerationSoftware,KiCad,Pcbnew,10.0.3*%
%TF.CreationDate,2026-06-14T02:29:51+03:00*%
%TF.ProjectId,sensor_board,73656e73-6f72-45f6-926f-6172642e6b69,rev?*%
%TF.SameCoordinates,Original*%
%TF.FileFunction,Copper,L2,Bot*%
%TF.FilePolarity,Positive*%
%FSLAX46Y46*%
G04 Gerber Fmt 4.6, Leading zero omitted, Abs format (unit mm)*
G04 Created by KiCad (PCBNEW 10.0.3) date 2026-06-14 02:29:51*
%MOMM*%
%LPD*%
G01*
G04 APERTURE LIST*
%TA.AperFunction,ComponentPad*%
%ADD10C,1.346200*%
%TD*%
%TA.AperFunction,ViaPad*%
%ADD11C,0.600000*%
%TD*%
%TA.AperFunction,ViaPad*%
%ADD12C,0.550000*%
%TD*%
%TA.AperFunction,Conductor*%
%ADD13C,0.508000*%
%TD*%
%TA.AperFunction,Conductor*%
%ADD14C,0.203200*%
%TD*%
%TA.AperFunction,Conductor*%
%ADD15C,0.406400*%
%TD*%
G04 APERTURE END LIST*
D10*
%TO.P,J2,1,1_1*%
%TO.N,/~{EN_MAG2}*%
X150501100Y-82753600D03*
%TO.P,J2,2,2_2*%
%TO.N,/~{EN_MAG3}*%
X150501100Y-80753600D03*
%TO.P,J2,3,3_3*%
%TO.N,3V3*%
X148501100Y-82753600D03*
%TO.P,J2,4,4_4*%
%TO.N,/~{EN_MAG1}*%
X148501100Y-80753600D03*
%TO.P,J2,5,5_5*%
%TO.N,5V*%
X146501100Y-82753600D03*
%TO.P,J2,6,6_6*%
%TO.N,GND*%
X146501100Y-80753600D03*
%TD*%
%TO.P,J1,1,1_1*%
%TO.N,/SDA*%
X146501100Y-76503600D03*
%TO.P,J1,2,2_2*%
%TO.N,/SCL*%
X146501100Y-78503600D03*
%TO.P,J1,3,3_3*%
%TO.N,/BTN_2*%
X148501100Y-76503600D03*
%TO.P,J1,4,4_4*%
%TO.N,/MCU_LED_DATA*%
X148501100Y-78503600D03*
%TO.P,J1,5,5_5*%
%TO.N,/BTN_1*%
X150501100Y-76503600D03*
%TO.P,J1,6,6_6*%
%TO.N,/~{EN_LEDS}*%
X150501100Y-78503600D03*
%TD*%
D11*
%TO.N,GND*%
X125050000Y-95030000D03*
X171000000Y-107000000D03*
X160000000Y-87000000D03*
X130000000Y-94000000D03*
X135000000Y-92000000D03*
X131500000Y-122000000D03*
X131000000Y-96500000D03*
X169500000Y-125000000D03*
X135630000Y-130600000D03*
D12*
X133769100Y-104828600D03*
D11*
X171470000Y-121000000D03*
X134220000Y-99760000D03*
X127500000Y-91000000D03*
X142500000Y-127500000D03*
X130000000Y-110500000D03*
X166000000Y-122000000D03*
D12*
X168821100Y-103812600D03*
D11*
X157000000Y-120500000D03*
X141660000Y-82600000D03*
X168500000Y-113500000D03*
X134000000Y-108500000D03*
X170000000Y-90500000D03*
X150500000Y-86000000D03*
X156000000Y-89500000D03*
X131500000Y-129500000D03*
X138000000Y-88000000D03*
D12*
X135928100Y-102669600D03*
D11*
X150420000Y-126690000D03*
D12*
X161250000Y-84190000D03*
D11*
X134500000Y-126000000D03*
X163500000Y-110000000D03*
X146000000Y-85500000D03*
X120560000Y-112150000D03*
X162500000Y-125500000D03*
X127500000Y-125000000D03*
X134500000Y-115000000D03*
X129500000Y-103000000D03*
X139000000Y-119500000D03*
D12*
X153073100Y-83111600D03*
D11*
X160500000Y-103500000D03*
X166000000Y-86500000D03*
X165500000Y-129000000D03*
X176490000Y-102630000D03*
X164500000Y-91000000D03*
D12*
X154089100Y-83111600D03*
X171107100Y-103812600D03*
D11*
X158610000Y-100620000D03*
X152000000Y-76000000D03*
X162500000Y-121000000D03*
X140000000Y-91500000D03*
X154500000Y-127500000D03*
X141500000Y-96000000D03*
X131500000Y-87000000D03*
D12*
%TO.N,/G_5V*%
X169075100Y-96192600D03*
X148501100Y-132345443D03*
X139103100Y-130355600D03*
X171784112Y-97945697D03*
X150406100Y-88318600D03*
X158000000Y-83559663D03*
X128244600Y-122672100D03*
X158470600Y-130419100D03*
X137706100Y-128958600D03*
X168757600Y-122672100D03*
X128752600Y-93462100D03*
X163741100Y-87683600D03*
X171996100Y-106733600D03*
X139611100Y-85820600D03*
X126600538Y-117585162D03*
X171127350Y-117127350D03*
X133896100Y-88318600D03*
X163106100Y-128323600D03*
X126276100Y-98859600D03*
%TO.N,Net-(D1-DOUT)*%
X140352675Y-85291600D03*
X123365600Y-101008100D03*
%TO.N,5V*%
X168821100Y-102288600D03*
%TO.N,Net-(D2-DOUT)*%
X128435100Y-119179600D03*
X127313100Y-97843600D03*
%TO.N,Net-(D4-DOUT)*%
X137710000Y-132220000D03*
X159423100Y-132133600D03*
%TO.N,Net-(D6-DOUT)*%
X169710000Y-117710000D03*
X170345100Y-98478600D03*
%TO.N,3V3*%
X125641100Y-102288600D03*
X153073100Y-86032600D03*
X143548100Y-89969600D03*
X125641100Y-113718600D03*
X125641100Y-111559600D03*
X175785100Y-111813600D03*
%TO.N,/SDA*%
X146596100Y-123243600D03*
X133261100Y-97208600D03*
X145326100Y-92763600D03*
X161836100Y-97208600D03*
%TO.N,/SCL*%
X151676100Y-92742600D03*
X144549700Y-88445600D03*
%TO.N,/BTN_2*%
X119926100Y-104701600D03*
%TO.N,/BTN_1*%
X177500000Y-107500000D03*
%TO.N,/~{EN_LEDS}*%
X168821100Y-105336600D03*
X149263100Y-90388000D03*
X156629100Y-95176600D03*
%TO.N,/~{EN_MAG2}*%
X146977100Y-90388000D03*
%TO.N,/~{EN_MAG1}*%
X147776963Y-90388000D03*
%TO.N,/~{EN_MAG3}*%
X166662100Y-108511600D03*
X155359100Y-95197600D03*
X148501100Y-90388000D03*
%TD*%
%TO.N,/G_5V*%
D13*
X123468563Y-114423487D02*
X126615388Y-117570312D01*
X171936015Y-98097600D02*
X171996100Y-98097600D01*
X150406100Y-87653900D02*
X150406100Y-88318600D01*
X175560000Y-113560000D02*
X176822100Y-112297900D01*
X171127350Y-117127350D02*
X174694700Y-113560000D01*
X148501100Y-132345443D02*
X148501100Y-132366443D01*
X158222500Y-85340000D02*
X161397500Y-85340000D01*
X126276100Y-99061250D02*
X123468563Y-101868788D01*
X170726100Y-117528600D02*
X170726100Y-120703600D01*
X161397500Y-85340000D02*
X163741100Y-87683600D01*
X154186400Y-83873600D02*
X150406100Y-87653900D01*
X176822100Y-112297900D02*
X176822100Y-108384600D01*
X136817100Y-86921600D02*
X137918100Y-85820600D01*
X170091100Y-94033600D02*
X163741100Y-87683600D01*
X156756100Y-83873600D02*
X158222500Y-85340000D01*
X126276100Y-98859600D02*
X126276100Y-99061250D01*
X133896100Y-88318600D02*
X135293100Y-86921600D01*
X156756100Y-83873600D02*
X157137100Y-83873600D01*
X157137100Y-83873600D02*
X157451037Y-83559663D01*
X148501100Y-132366443D02*
X141113944Y-132366443D01*
X171996100Y-98097600D02*
X170091100Y-96192600D01*
X157451037Y-83559663D02*
X157599037Y-83559663D01*
X126615388Y-117570312D02*
X126600538Y-117585162D01*
X175171100Y-106733600D02*
X171996100Y-106733600D01*
X170091100Y-96192600D02*
X170091100Y-94033600D01*
X137918100Y-85820600D02*
X139611100Y-85820600D01*
X128752600Y-93462100D02*
X133896100Y-88318600D01*
X134531100Y-128958600D02*
X128244600Y-122672100D01*
X128244600Y-122672100D02*
X127546100Y-121973600D01*
X174694700Y-113560000D02*
X175560000Y-113560000D01*
X127546100Y-118501025D02*
X126615388Y-117570312D01*
X126631700Y-98250000D02*
X126276100Y-98605600D01*
X126276100Y-98605600D02*
X126276100Y-98859600D01*
X156756100Y-83873600D02*
X154186400Y-83873600D01*
X171127350Y-117127350D02*
X170726100Y-117528600D01*
X158470600Y-130419100D02*
X156523256Y-132366443D01*
X123468563Y-101868788D02*
X123468563Y-114423487D01*
X176822100Y-108384600D02*
X175171100Y-106733600D01*
X169075100Y-96192600D02*
X170091100Y-96192600D01*
X127546100Y-121973600D02*
X127546100Y-118501025D01*
X168757600Y-122672100D02*
X163106100Y-128323600D01*
X141113944Y-132366443D02*
X139103100Y-130355600D01*
X128752600Y-93462100D02*
X126631700Y-95583000D01*
X171996100Y-106733600D02*
X171996100Y-98097600D01*
X170726100Y-120703600D02*
X168757600Y-122672100D01*
X171784112Y-97945697D02*
X171936015Y-98097600D01*
X135293100Y-86921600D02*
X136817100Y-86921600D01*
X137706100Y-128958600D02*
X134531100Y-128958600D01*
X156523256Y-132366443D02*
X148501100Y-132366443D01*
X139103100Y-130355600D02*
X137706100Y-128958600D01*
X126631700Y-95583000D02*
X126631700Y-98250000D01*
X163106100Y-128323600D02*
X160566100Y-128323600D01*
X160566100Y-128323600D02*
X158470600Y-130419100D01*
%TO.N,Net-(D1-DOUT)*%
D14*
X137982675Y-85037600D02*
X136632075Y-86388200D01*
X135039988Y-86388200D02*
X126123700Y-95304488D01*
X136632075Y-86388200D02*
X135039988Y-86388200D01*
X125768100Y-98395175D02*
X125768100Y-98605600D01*
X126123700Y-95304488D02*
X126123700Y-98039575D01*
X125768100Y-98605600D02*
X123365600Y-101008100D01*
X140098675Y-85037600D02*
X137982675Y-85037600D01*
X126123700Y-98039575D02*
X125768100Y-98395175D01*
X140352675Y-85291600D02*
X140098675Y-85037600D01*
%TO.N,5V*%
D13*
X146501100Y-82753600D02*
X145231100Y-84023600D01*
X145231100Y-84023600D02*
X145231100Y-90494650D01*
X145231100Y-90494650D02*
X146611050Y-91874600D01*
X146611050Y-91874600D02*
X158407100Y-91874600D01*
X158407100Y-91874600D02*
X168821100Y-102288600D01*
%TO.N,Net-(D2-DOUT)*%
D14*
X123976563Y-102079213D02*
X127139700Y-98916075D01*
X127139700Y-98017000D02*
X127313100Y-97843600D01*
X127139700Y-98916075D02*
X127139700Y-98017000D01*
X123976563Y-114213062D02*
X123976563Y-102079213D01*
X128435100Y-118671599D02*
X123976563Y-114213062D01*
X128435100Y-119179600D02*
X128435100Y-118671599D01*
%TO.N,Net-(D4-DOUT)*%
X157518106Y-132133600D02*
X159423100Y-132133600D01*
X156777259Y-132874446D02*
X157518106Y-132133600D01*
X140205501Y-132220000D02*
X140859947Y-132874446D01*
X140859947Y-132874446D02*
X156777259Y-132874446D01*
X137710000Y-132220000D02*
X140205501Y-132220000D01*
%TO.N,Net-(D6-DOUT)*%
X175340000Y-113040000D02*
X176314100Y-112065900D01*
X176314100Y-112065900D02*
X176314100Y-111414100D01*
X174380000Y-113040000D02*
X175340000Y-113040000D01*
X169710000Y-117710000D02*
X174380000Y-113040000D01*
X176314100Y-111414100D02*
X176140000Y-111240000D01*
X172740000Y-111240000D02*
X170345100Y-108845100D01*
X170345100Y-108845100D02*
X170345100Y-98478600D01*
X176140000Y-111240000D02*
X172740000Y-111240000D01*
%TO.N,3V3*%
D15*
X125641100Y-111559600D02*
X125641100Y-113718600D01*
X128689100Y-99240600D02*
X125641100Y-102288600D01*
X143548100Y-89969600D02*
X135420100Y-89969600D01*
X169640000Y-99710250D02*
X169640000Y-108949500D01*
X155962350Y-86032600D02*
X169640000Y-99710250D01*
X125641100Y-102288600D02*
X125641100Y-111559600D01*
X128689100Y-96700600D02*
X128689100Y-99240600D01*
X169640000Y-108949500D02*
X172504100Y-111813600D01*
X172504100Y-111813600D02*
X175785100Y-111813600D01*
X135420100Y-89969600D02*
X128689100Y-96700600D01*
X153073100Y-86032600D02*
X155962350Y-86032600D01*
%TO.N,/SDA*%
D14*
X137706100Y-92763600D02*
X133261100Y-97208600D01*
X145170000Y-81593375D02*
X145170000Y-77834700D01*
X144367500Y-82395875D02*
X145170000Y-81593375D01*
X145170000Y-77834700D02*
X146501100Y-76503600D01*
X151067200Y-93292600D02*
X150538200Y-92763600D01*
X145326100Y-92763600D02*
X137706100Y-92763600D01*
X144367500Y-87753200D02*
X144367500Y-82395875D01*
X145326100Y-91825925D02*
X144367500Y-90867325D01*
X144367500Y-90867325D02*
X144367500Y-89011525D01*
X144020700Y-88664725D02*
X144020700Y-88100000D01*
X150538200Y-92763600D02*
X145326100Y-92763600D01*
X131991100Y-98478600D02*
X131991100Y-118036600D01*
X161836100Y-97208600D02*
X157920100Y-93292600D01*
X137198100Y-123243600D02*
X146596100Y-123243600D01*
X157920100Y-93292600D02*
X151067200Y-93292600D01*
X145326100Y-92763600D02*
X145326100Y-91825925D01*
X144020700Y-88100000D02*
X144367500Y-87753200D01*
X133261100Y-97208600D02*
X131991100Y-98478600D01*
X144367500Y-89011525D02*
X144020700Y-88664725D01*
X131991100Y-118036600D02*
X137198100Y-123243600D01*
%TO.N,/SCL*%
X150685500Y-92408000D02*
X151020100Y-92742600D01*
X146501100Y-78503600D02*
X145540000Y-79464700D01*
X145540000Y-79464700D02*
X145540000Y-81726275D01*
X146411075Y-92408000D02*
X150685500Y-92408000D01*
X145540000Y-81726275D02*
X144723100Y-82543175D01*
X151020100Y-92742600D02*
X151676100Y-92742600D01*
X144723100Y-82543175D02*
X144723100Y-88445600D01*
X144723100Y-88445600D02*
X144723100Y-90720025D01*
X144723100Y-88445600D02*
X144549700Y-88445600D01*
X144723100Y-90720025D02*
X146411075Y-92408000D01*
%TO.N,/BTN_2*%
X134892688Y-86032600D02*
X136484775Y-86032600D01*
X122836600Y-103315100D02*
X122836600Y-100788975D01*
X146128400Y-75491600D02*
X147993100Y-75491600D01*
X137835375Y-84682000D02*
X141578475Y-84682000D01*
X136484775Y-86032600D02*
X137835375Y-84682000D01*
X122836600Y-100788975D02*
X125768100Y-97857475D01*
X148501100Y-75999600D02*
X148501100Y-76503600D01*
X141578475Y-84682000D02*
X144810000Y-81450475D01*
X147993100Y-75491600D02*
X148501100Y-75999600D01*
X119926100Y-104701600D02*
X121450100Y-104701600D01*
X144810000Y-81450475D02*
X144810000Y-76810000D01*
X144810000Y-76810000D02*
X146128400Y-75491600D01*
X125768100Y-95157188D02*
X134892688Y-86032600D01*
X121450100Y-104701600D02*
X122836600Y-103315100D01*
X125768100Y-97857475D02*
X125768100Y-95157188D01*
%TO.N,/BTN_1*%
X152015300Y-79818782D02*
X152015300Y-77763800D01*
X160320000Y-84820000D02*
X158510000Y-83010000D01*
X150755100Y-76503600D02*
X150501100Y-76503600D01*
X177000000Y-107000000D02*
X177000000Y-104117500D01*
X152015300Y-77763800D02*
X150755100Y-76503600D01*
X155206518Y-83010000D02*
X152015300Y-79818782D01*
X170599100Y-95169100D02*
X170599100Y-93652600D01*
X173139100Y-97709100D02*
X170599100Y-95169100D01*
X161766500Y-84820000D02*
X160320000Y-84820000D01*
X177500000Y-107500000D02*
X177000000Y-107000000D01*
X173139100Y-100256600D02*
X173139100Y-97709100D01*
X170599100Y-93652600D02*
X161766500Y-84820000D01*
X158510000Y-83010000D02*
X155206518Y-83010000D01*
X177000000Y-104117500D02*
X173139100Y-100256600D01*
%TO.N,/~{EN_LEDS}*%
X150014800Y-84747500D02*
X148882100Y-85880200D01*
X148882100Y-85880200D02*
X148882100Y-88953600D01*
X150501100Y-79269600D02*
X152241000Y-81009500D01*
X166662100Y-105336600D02*
X156629100Y-95303600D01*
X168821100Y-105336600D02*
X166662100Y-105336600D01*
X152241000Y-83833519D02*
X151327018Y-84747500D01*
X149263100Y-89334600D02*
X149263100Y-90388000D01*
X151327018Y-84747500D02*
X150014800Y-84747500D01*
X150501100Y-78503600D02*
X150501100Y-79269600D01*
X148882100Y-88953600D02*
X149263100Y-89334600D01*
X152241000Y-81009500D02*
X152241000Y-83833519D01*
X156629100Y-95303600D02*
X156629100Y-95176600D01*
%TO.N,/~{EN_MAG2}*%
X150500000Y-82753600D02*
X147815300Y-85438300D01*
X147815300Y-88914800D02*
X146977100Y-89753000D01*
X146977100Y-89753000D02*
X146977100Y-90388000D01*
X147815300Y-85438300D02*
X147815300Y-88914800D01*
X150501100Y-82753600D02*
X150500000Y-82753600D01*
%TO.N,/~{EN_MAG1}*%
X149720200Y-84036300D02*
X148170900Y-85585600D01*
X151529800Y-83538919D02*
X151032418Y-84036300D01*
X151032418Y-84036300D02*
X149720200Y-84036300D01*
X148170900Y-89062100D02*
X147776963Y-89456038D01*
X151027700Y-81750000D02*
X151529800Y-82252100D01*
X147776963Y-89456038D02*
X147776963Y-90388000D01*
X149497500Y-81750000D02*
X151027700Y-81750000D01*
X151529800Y-82252100D02*
X151529800Y-83538919D01*
X148170900Y-85585600D02*
X148170900Y-89062100D01*
X148501100Y-80753600D02*
X149497500Y-81750000D01*
%TO.N,/~{EN_MAG3}*%
X166662100Y-106500600D02*
X155359100Y-95197600D01*
X151885400Y-81669900D02*
X151885400Y-83686219D01*
X149867500Y-84391900D02*
X148526500Y-85732900D01*
X148501100Y-90261000D02*
X148501100Y-90388000D01*
X150969100Y-80753600D02*
X151885400Y-81669900D01*
X150501100Y-80753600D02*
X150969100Y-80753600D01*
X148526500Y-90235600D02*
X148501100Y-90261000D01*
X151885400Y-83686219D02*
X151179718Y-84391900D01*
X166662100Y-108511600D02*
X166662100Y-106500600D01*
X151179718Y-84391900D02*
X149867500Y-84391900D01*
X148526500Y-85732900D02*
X148526500Y-90235600D01*
%TD*%
%TA.AperFunction,Conductor*%
%TO.N,GND*%
G36*
X151005143Y-74704365D02*
G01*
X151227890Y-74718964D01*
X151243948Y-74721079D01*
X151458881Y-74763831D01*
X151474534Y-74768026D01*
X151682041Y-74838465D01*
X151697025Y-74844671D01*
X151893564Y-74941594D01*
X151907610Y-74949704D01*
X152089805Y-75071442D01*
X152102674Y-75081316D01*
X152267428Y-75225802D01*
X152278897Y-75237271D01*
X152423383Y-75402025D01*
X152433257Y-75414894D01*
X152554995Y-75597089D01*
X152563105Y-75611135D01*
X152660028Y-75807674D01*
X152666235Y-75822660D01*
X152736671Y-76030158D01*
X152740869Y-76045825D01*
X152783618Y-76260740D01*
X152785736Y-76276821D01*
X152800335Y-76499556D01*
X152800600Y-76507666D01*
X152800600Y-77723342D01*
X152800606Y-77723413D01*
X152800626Y-77866880D01*
X152800626Y-77866889D01*
X152800627Y-77866896D01*
X152811191Y-77980544D01*
X152836682Y-78254805D01*
X152836683Y-78254812D01*
X152836684Y-78254817D01*
X152895493Y-78568438D01*
X152908487Y-78637730D01*
X152908488Y-78637736D01*
X153015424Y-79012366D01*
X153156567Y-79375478D01*
X153156570Y-79375483D01*
X153156573Y-79375491D01*
X153330724Y-79723994D01*
X153536381Y-80054883D01*
X153771780Y-80365319D01*
X153771785Y-80365325D01*
X153864069Y-80466095D01*
X154034900Y-80652635D01*
X154034902Y-80652637D01*
X154034904Y-80652639D01*
X154323467Y-80914355D01*
X154323470Y-80914357D01*
X154323481Y-80914367D01*
X154635048Y-81148266D01*
X154966925Y-81352326D01*
X155316263Y-81524795D01*
X155439669Y-81572080D01*
X155680059Y-81664190D01*
X155680061Y-81664190D01*
X155680065Y-81664192D01*
X155829213Y-81706011D01*
X155829225Y-81706020D01*
X155861857Y-81715164D01*
X155866713Y-81716525D01*
X155868686Y-81717097D01*
X156796104Y-81994882D01*
X156800246Y-81996204D01*
X157298069Y-82164835D01*
X157716166Y-82306460D01*
X157720319Y-82307950D01*
X158010615Y-82417945D01*
X158066331Y-82460106D01*
X158090407Y-82525696D01*
X158075201Y-82593891D01*
X158025540Y-82643039D01*
X157966679Y-82657900D01*
X155403724Y-82657900D01*
X155336685Y-82638215D01*
X155316043Y-82621581D01*
X152403719Y-79709257D01*
X152370234Y-79647934D01*
X152367400Y-79621576D01*
X152367400Y-77717445D01*
X152362403Y-77698795D01*
X152343405Y-77627894D01*
X152343403Y-77627891D01*
X152343403Y-77627889D01*
X152343402Y-77627888D01*
X152315753Y-77580000D01*
X152297050Y-77547606D01*
X151458179Y-76708735D01*
X151424694Y-76647412D01*
X151424279Y-76600651D01*
X151424103Y-76600634D01*
X151424264Y-76598988D01*
X151424246Y-76596849D01*
X151424700Y-76594567D01*
X151424700Y-76412633D01*
X151389207Y-76234196D01*
X151386539Y-76227755D01*
X151319587Y-76066117D01*
X151319580Y-76066104D01*
X151218507Y-75914839D01*
X151218504Y-75914835D01*
X151089864Y-75786195D01*
X151089860Y-75786192D01*
X150938595Y-75685119D01*
X150938582Y-75685112D01*
X150770508Y-75615494D01*
X150770496Y-75615491D01*
X150592071Y-75580000D01*
X150592067Y-75580000D01*
X150410133Y-75580000D01*
X150410128Y-75580000D01*
X150231703Y-75615491D01*
X150231691Y-75615494D01*
X150063617Y-75685112D01*
X150063604Y-75685119D01*
X149912339Y-75786192D01*
X149912335Y-75786195D01*
X149783695Y-75914835D01*
X149783692Y-75914839D01*
X149682619Y-76066104D01*
X149682614Y-76066113D01*
X149615661Y-76227755D01*
X149571820Y-76282158D01*
X149505526Y-76304223D01*
X149437827Y-76286944D01*
X149390216Y-76235807D01*
X149386539Y-76227755D01*
X149319585Y-76066113D01*
X149319580Y-76066104D01*
X149218507Y-75914839D01*
X149218504Y-75914835D01*
X149089864Y-75786195D01*
X149089860Y-75786192D01*
X148938595Y-75685119D01*
X148938582Y-75685112D01*
X148770508Y-75615494D01*
X148770496Y-75615491D01*
X148613202Y-75584203D01*
X148551291Y-75551818D01*
X148549712Y-75550267D01*
X148209296Y-75209852D01*
X148209294Y-75209850D01*
X148205697Y-75207773D01*
X148129011Y-75163497D01*
X148129008Y-75163496D01*
X148129007Y-75163495D01*
X148129006Y-75163495D01*
X148039455Y-75139500D01*
X146082045Y-75139500D01*
X146082043Y-75139500D01*
X146011416Y-75158424D01*
X146011415Y-75158423D01*
X145992499Y-75163492D01*
X145992496Y-75163493D01*
X145912209Y-75209848D01*
X145912203Y-75209852D01*
X144528252Y-76593803D01*
X144528250Y-76593806D01*
X144481894Y-76674095D01*
X144481894Y-76674098D01*
X144457900Y-76763645D01*
X144457900Y-81253268D01*
X144438215Y-81320307D01*
X144421581Y-81340949D01*
X141468950Y-84293581D01*
X141407627Y-84327066D01*
X141381269Y-84329900D01*
X137881730Y-84329900D01*
X137789020Y-84329900D01*
X137699469Y-84353895D01*
X137699468Y-84353895D01*
X137699466Y-84353896D01*
X137699463Y-84353897D01*
X137619187Y-84400246D01*
X137619178Y-84400252D01*
X136375250Y-85644181D01*
X136313927Y-85677666D01*
X136287569Y-85680500D01*
X134939043Y-85680500D01*
X134846333Y-85680500D01*
X134756782Y-85704495D01*
X134756781Y-85704495D01*
X134756779Y-85704496D01*
X134756776Y-85704497D01*
X134676500Y-85750846D01*
X134676491Y-85750852D01*
X125486352Y-94940991D01*
X125486346Y-94941000D01*
X125439998Y-95021274D01*
X125439994Y-95021283D01*
X125429166Y-95061692D01*
X125429167Y-95061693D01*
X125416000Y-95110832D01*
X125416000Y-97660269D01*
X125396315Y-97727308D01*
X125379681Y-97747950D01*
X122554852Y-100572778D01*
X122554846Y-100572787D01*
X122508494Y-100653067D01*
X122499823Y-100685433D01*
X122499823Y-100685434D01*
X122484500Y-100742619D01*
X122484500Y-103117894D01*
X122464815Y-103184933D01*
X122448181Y-103205575D01*
X121340575Y-104313181D01*
X121279252Y-104346666D01*
X121252894Y-104349500D01*
X120368532Y-104349500D01*
X120301493Y-104329815D01*
X120280851Y-104313181D01*
X120248766Y-104281096D01*
X120248761Y-104281092D01*
X120128938Y-104211913D01*
X120128937Y-104211912D01*
X120128936Y-104211912D01*
X119995283Y-104176100D01*
X119856917Y-104176100D01*
X119723264Y-104211912D01*
X119723261Y-104211913D01*
X119603438Y-104281092D01*
X119603433Y-104281096D01*
X119505596Y-104378933D01*
X119505592Y-104378938D01*
X119436413Y-104498761D01*
X119436412Y-104498764D01*
X119400600Y-104632417D01*
X119400600Y-104770783D01*
X119407319Y-104795856D01*
X119436412Y-104904435D01*
X119436413Y-104904438D01*
X119505592Y-105024261D01*
X119505594Y-105024264D01*
X119505595Y-105024265D01*
X119603435Y-105122105D01*
X119723264Y-105191288D01*
X119856917Y-105227100D01*
X119856919Y-105227100D01*
X119995281Y-105227100D01*
X119995283Y-105227100D01*
X120128936Y-105191288D01*
X120248765Y-105122105D01*
X120280851Y-105090019D01*
X120342174Y-105056534D01*
X120368532Y-105053700D01*
X121496453Y-105053700D01*
X121496455Y-105053700D01*
X121586006Y-105029705D01*
X121666294Y-104983350D01*
X122752382Y-103897262D01*
X122813705Y-103863777D01*
X122883397Y-103868761D01*
X122939330Y-103910633D01*
X122963747Y-103976097D01*
X122964063Y-103984943D01*
X122964063Y-114489905D01*
X122998444Y-114618217D01*
X123007145Y-114633287D01*
X123007146Y-114633292D01*
X123007147Y-114633292D01*
X123064857Y-114733250D01*
X123064863Y-114733258D01*
X126087347Y-117755742D01*
X126107053Y-117781423D01*
X126180030Y-117907823D01*
X126180032Y-117907826D01*
X126180033Y-117907827D01*
X126277873Y-118005667D01*
X126277874Y-118005668D01*
X126277876Y-118005669D01*
X126404275Y-118078645D01*
X126429956Y-118098351D01*
X127005281Y-118673676D01*
X127038766Y-118734999D01*
X127041600Y-118761357D01*
X127041600Y-122040019D01*
X127075981Y-122168330D01*
X127093966Y-122199480D01*
X127095408Y-122201977D01*
X127095409Y-122201981D01*
X127095410Y-122201981D01*
X127142398Y-122283368D01*
X127142400Y-122283371D01*
X127771981Y-122912952D01*
X127791687Y-122938633D01*
X127824095Y-122994765D01*
X127921935Y-123092605D01*
X127978067Y-123125012D01*
X128003747Y-123144718D01*
X134221330Y-129362301D01*
X134336371Y-129428720D01*
X134336373Y-129428720D01*
X134336374Y-129428721D01*
X134372886Y-129438504D01*
X134409399Y-129448287D01*
X134409401Y-129448288D01*
X134429634Y-129453709D01*
X134464681Y-129463100D01*
X134464682Y-129463100D01*
X134597519Y-129463100D01*
X137445767Y-129463100D01*
X137512806Y-129482785D01*
X137533448Y-129499419D01*
X138630480Y-130596450D01*
X138650186Y-130622131D01*
X138682595Y-130678265D01*
X138780435Y-130776105D01*
X138836567Y-130808512D01*
X138862247Y-130828218D01*
X139365776Y-131331747D01*
X139690249Y-131656219D01*
X139723734Y-131717542D01*
X139718750Y-131787233D01*
X139676878Y-131843167D01*
X139611414Y-131867584D01*
X139602568Y-131867900D01*
X138152432Y-131867900D01*
X138085393Y-131848215D01*
X138064751Y-131831581D01*
X138032666Y-131799496D01*
X138032661Y-131799492D01*
X137912838Y-131730313D01*
X137912837Y-131730312D01*
X137912836Y-131730312D01*
X137779183Y-131694500D01*
X137640817Y-131694500D01*
X137507164Y-131730312D01*
X137507161Y-131730313D01*
X137387338Y-131799492D01*
X137387333Y-131799496D01*
X137289496Y-131897333D01*
X137289492Y-131897338D01*
X137220313Y-132017161D01*
X137220312Y-132017164D01*
X137184500Y-132150817D01*
X137184500Y-132289183D01*
X137197162Y-132336436D01*
X137220312Y-132422835D01*
X137220313Y-132422838D01*
X137289492Y-132542661D01*
X137289494Y-132542664D01*
X137289495Y-132542665D01*
X137387335Y-132640505D01*
X137387336Y-132640506D01*
X137387338Y-132640507D01*
X137447249Y-132675096D01*
X137507164Y-132709688D01*
X137640817Y-132745500D01*
X137640819Y-132745500D01*
X137779181Y-132745500D01*
X137779183Y-132745500D01*
X137912836Y-132709688D01*
X138032665Y-132640505D01*
X138064751Y-132608419D01*
X138126074Y-132574934D01*
X138152432Y-132572100D01*
X140008295Y-132572100D01*
X140075334Y-132591785D01*
X140095976Y-132608419D01*
X140643747Y-133156192D01*
X140643751Y-133156195D01*
X140643752Y-133156196D01*
X140690107Y-133182958D01*
X140724042Y-133202551D01*
X140813592Y-133226546D01*
X140813594Y-133226546D01*
X156823612Y-133226546D01*
X156823614Y-133226546D01*
X156913165Y-133202551D01*
X156993453Y-133156196D01*
X157627632Y-132522019D01*
X157688955Y-132488534D01*
X157715313Y-132485700D01*
X158980668Y-132485700D01*
X159047707Y-132505385D01*
X159068349Y-132522019D01*
X159100435Y-132554105D01*
X159220264Y-132623288D01*
X159353917Y-132659100D01*
X159353919Y-132659100D01*
X159492281Y-132659100D01*
X159492283Y-132659100D01*
X159625936Y-132623288D01*
X159745765Y-132554105D01*
X159843605Y-132456265D01*
X159912788Y-132336436D01*
X159948600Y-132202783D01*
X159948600Y-132064417D01*
X159912788Y-131930764D01*
X159843605Y-131810935D01*
X159745765Y-131713095D01*
X159745764Y-131713094D01*
X159745761Y-131713092D01*
X159625938Y-131643913D01*
X159625937Y-131643912D01*
X159625936Y-131643912D01*
X159492283Y-131608100D01*
X159353917Y-131608100D01*
X159220264Y-131643912D01*
X159220261Y-131643913D01*
X159100438Y-131713092D01*
X159100433Y-131713096D01*
X159068349Y-131745181D01*
X159007026Y-131778666D01*
X158980668Y-131781500D01*
X158121032Y-131781500D01*
X158053993Y-131761815D01*
X158008238Y-131709011D01*
X157998294Y-131639853D01*
X158027319Y-131576297D01*
X158033351Y-131569819D01*
X158345263Y-131257907D01*
X158711454Y-130891715D01*
X158737133Y-130872012D01*
X158738997Y-130870936D01*
X158793265Y-130839605D01*
X158891105Y-130741765D01*
X158923512Y-130685632D01*
X158943215Y-130659954D01*
X160738752Y-128864419D01*
X160800075Y-128830934D01*
X160826433Y-128828100D01*
X162942218Y-128828100D01*
X162974311Y-128832325D01*
X163036917Y-128849100D01*
X163036919Y-128849100D01*
X163175281Y-128849100D01*
X163175283Y-128849100D01*
X163308936Y-128813288D01*
X163428765Y-128744105D01*
X163526605Y-128646265D01*
X163559012Y-128590132D01*
X163578715Y-128564454D01*
X164267420Y-127875749D01*
X166550600Y-127875749D01*
X166550600Y-128131450D01*
X166576557Y-128328607D01*
X166583974Y-128384940D01*
X166650150Y-128631912D01*
X166650153Y-128631922D01*
X166747994Y-128868131D01*
X166747999Y-128868142D01*
X166875834Y-129089557D01*
X166875845Y-129089573D01*
X167031488Y-129292411D01*
X167031494Y-129292418D01*
X167212281Y-129473205D01*
X167212288Y-129473211D01*
X167268095Y-129516033D01*
X167415135Y-129628861D01*
X167415142Y-129628865D01*
X167636557Y-129756700D01*
X167636562Y-129756702D01*
X167636565Y-129756704D01*
X167872787Y-129854550D01*
X168119760Y-129920726D01*
X168373257Y-129954100D01*
X168373264Y-129954100D01*
X168628936Y-129954100D01*
X168628943Y-129954100D01*
X168882440Y-129920726D01*
X169129413Y-129854550D01*
X169365635Y-129756704D01*
X169587065Y-129628861D01*
X169789913Y-129473210D01*
X169970710Y-129292413D01*
X170126361Y-129089565D01*
X170254204Y-128868135D01*
X170352050Y-128631913D01*
X170418226Y-128384940D01*
X170451600Y-128131443D01*
X170451600Y-127875757D01*
X170418226Y-127622260D01*
X170352050Y-127375287D01*
X170254204Y-127139065D01*
X170254202Y-127139062D01*
X170254200Y-127139057D01*
X170126365Y-126917642D01*
X170126361Y-126917635D01*
X169970710Y-126714787D01*
X169970705Y-126714781D01*
X169789918Y-126533994D01*
X169789911Y-126533988D01*
X169587073Y-126378345D01*
X169587071Y-126378343D01*
X169587065Y-126378339D01*
X169587060Y-126378336D01*
X169587057Y-126378334D01*
X169365642Y-126250499D01*
X169365631Y-126250494D01*
X169129422Y-126152653D01*
X169129415Y-126152651D01*
X169129413Y-126152650D01*
X168882440Y-126086474D01*
X168826107Y-126079057D01*
X168628950Y-126053100D01*
X168628943Y-126053100D01*
X168373257Y-126053100D01*
X168373249Y-126053100D01*
X168147926Y-126082765D01*
X168119760Y-126086474D01*
X167872787Y-126152650D01*
X167872777Y-126152653D01*
X167636568Y-126250494D01*
X167636557Y-126250499D01*
X167415142Y-126378334D01*
X167415126Y-126378345D01*
X167212288Y-126533988D01*
X167212281Y-126533994D01*
X167031494Y-126714781D01*
X167031488Y-126714788D01*
X166875845Y-126917626D01*
X166875834Y-126917642D01*
X166747999Y-127139057D01*
X166747994Y-127139068D01*
X166650153Y-127375277D01*
X166650150Y-127375287D01*
X166583974Y-127622260D01*
X166580265Y-127650426D01*
X166550600Y-127875749D01*
X164267420Y-127875749D01*
X168998454Y-123144715D01*
X169024133Y-123125012D01*
X169024135Y-123125011D01*
X169080265Y-123092605D01*
X169178105Y-122994765D01*
X169210512Y-122938632D01*
X169230215Y-122912954D01*
X171129800Y-121013370D01*
X171196219Y-120898330D01*
X171203082Y-120872717D01*
X171203571Y-120870894D01*
X171213463Y-120833971D01*
X171230600Y-120770019D01*
X171230600Y-117788933D01*
X171239245Y-117759489D01*
X171245768Y-117729507D01*
X171249522Y-117724491D01*
X171250285Y-117721894D01*
X171266914Y-117701255D01*
X171368206Y-117599963D01*
X171393883Y-117580261D01*
X171450015Y-117547855D01*
X171547855Y-117450015D01*
X171580262Y-117393882D01*
X171599965Y-117368204D01*
X174867352Y-114100819D01*
X174928675Y-114067334D01*
X174955033Y-114064500D01*
X175626416Y-114064500D01*
X175626419Y-114064500D01*
X175754730Y-114030119D01*
X175812322Y-113996868D01*
X175869770Y-113963701D01*
X177225801Y-112607670D01*
X177276814Y-112519312D01*
X177292219Y-112492630D01*
X177326600Y-112364319D01*
X177326600Y-109217671D01*
X177695599Y-109217671D01*
X177720597Y-109343338D01*
X177720599Y-109343344D01*
X177769633Y-109461724D01*
X177769638Y-109461733D01*
X177840823Y-109568268D01*
X177840826Y-109568272D01*
X177931427Y-109658873D01*
X177931431Y-109658876D01*
X178037966Y-109730061D01*
X178037972Y-109730064D01*
X178037973Y-109730065D01*
X178156356Y-109779101D01*
X178156360Y-109779101D01*
X178156361Y-109779102D01*
X178282028Y-109804100D01*
X178282031Y-109804100D01*
X178410171Y-109804100D01*
X178494715Y-109787282D01*
X178535844Y-109779101D01*
X178654227Y-109730065D01*
X178760769Y-109658876D01*
X178851376Y-109568269D01*
X178922565Y-109461727D01*
X178971601Y-109343344D01*
X178979782Y-109302215D01*
X178996600Y-109217671D01*
X178996600Y-109089528D01*
X178971602Y-108963861D01*
X178971601Y-108963860D01*
X178971601Y-108963856D01*
X178922565Y-108845473D01*
X178922564Y-108845472D01*
X178922561Y-108845466D01*
X178851376Y-108738931D01*
X178851373Y-108738927D01*
X178760772Y-108648326D01*
X178760768Y-108648323D01*
X178654233Y-108577138D01*
X178654224Y-108577133D01*
X178535844Y-108528099D01*
X178535838Y-108528097D01*
X178410171Y-108503100D01*
X178410169Y-108503100D01*
X178282031Y-108503100D01*
X178282029Y-108503100D01*
X178156361Y-108528097D01*
X178156355Y-108528099D01*
X178037975Y-108577133D01*
X178037966Y-108577138D01*
X177931431Y-108648323D01*
X177931427Y-108648326D01*
X177840826Y-108738927D01*
X177840823Y-108738931D01*
X177769638Y-108845466D01*
X177769633Y-108845475D01*
X177720599Y-108963855D01*
X177720597Y-108963861D01*
X177695600Y-109089528D01*
X177695600Y-109089531D01*
X177695600Y-109104925D01*
X177695600Y-109217669D01*
X177695600Y-109217671D01*
X177695599Y-109217671D01*
X177326600Y-109217671D01*
X177326600Y-108318181D01*
X177308421Y-108250337D01*
X177292220Y-108189871D01*
X177291687Y-108188948D01*
X177289330Y-108180299D01*
X177289864Y-108152904D01*
X177286938Y-108125667D01*
X177290536Y-108118479D01*
X177290693Y-108110443D01*
X177305952Y-108087688D01*
X177318217Y-108063190D01*
X177325130Y-108059088D01*
X177329607Y-108052413D01*
X177354745Y-108041519D01*
X177378308Y-108027542D01*
X177388387Y-108026942D01*
X177393717Y-108024633D01*
X177402639Y-108026094D01*
X177425162Y-108024754D01*
X177430809Y-108025497D01*
X177430817Y-108025500D01*
X177430825Y-108025500D01*
X177569181Y-108025500D01*
X177569183Y-108025500D01*
X177702836Y-107989688D01*
X177822665Y-107920505D01*
X177920505Y-107822665D01*
X177989688Y-107702836D01*
X178024979Y-107571127D01*
X178061343Y-107511468D01*
X178124190Y-107480939D01*
X178168944Y-107481604D01*
X178203728Y-107488524D01*
X178282029Y-107504100D01*
X178282031Y-107504100D01*
X178410171Y-107504100D01*
X178494715Y-107487282D01*
X178535844Y-107479101D01*
X178654227Y-107430065D01*
X178760769Y-107358876D01*
X178851376Y-107268269D01*
X178922565Y-107161727D01*
X178971601Y-107043344D01*
X178979782Y-107002215D01*
X178996600Y-106917671D01*
X178996600Y-106789528D01*
X178971602Y-106663861D01*
X178971601Y-106663860D01*
X178971601Y-106663856D01*
X178922565Y-106545473D01*
X178922564Y-106545472D01*
X178922561Y-106545466D01*
X178851376Y-106438931D01*
X178851373Y-106438927D01*
X178760772Y-106348326D01*
X178760768Y-106348323D01*
X178654229Y-106277136D01*
X178654224Y-106277133D01*
X178535844Y-106228099D01*
X178535838Y-106228097D01*
X178410171Y-106203100D01*
X178410169Y-106203100D01*
X178282031Y-106203100D01*
X178282029Y-106203100D01*
X178156361Y-106228097D01*
X178156355Y-106228099D01*
X178037975Y-106277133D01*
X178037971Y-106277136D01*
X177931431Y-106348323D01*
X177931427Y-106348326D01*
X177840826Y-106438927D01*
X177840823Y-106438931D01*
X177769638Y-106545466D01*
X177769633Y-106545475D01*
X177720599Y-106663855D01*
X177720597Y-106663861D01*
X177695600Y-106789528D01*
X177695600Y-106850500D01*
X177693049Y-106859185D01*
X177694338Y-106868147D01*
X177683359Y-106892187D01*
X177675915Y-106917539D01*
X177669074Y-106923466D01*
X177665313Y-106931703D01*
X177643078Y-106945992D01*
X177623111Y-106963294D01*
X177612596Y-106965581D01*
X177606535Y-106969477D01*
X177571600Y-106974500D01*
X177523806Y-106974500D01*
X177456767Y-106954815D01*
X177436125Y-106938181D01*
X177388419Y-106890475D01*
X177354934Y-106829152D01*
X177352100Y-106802794D01*
X177352100Y-104071147D01*
X177352100Y-104071145D01*
X177328105Y-103981595D01*
X177328105Y-103981594D01*
X177281750Y-103901306D01*
X173527519Y-100147075D01*
X173494034Y-100085752D01*
X173491200Y-100059394D01*
X173491200Y-97662747D01*
X173491200Y-97662745D01*
X173479171Y-97617852D01*
X173479796Y-97591578D01*
X173476615Y-97565483D01*
X173480015Y-97558442D01*
X173448454Y-97537188D01*
X173436501Y-97520014D01*
X173420852Y-97492908D01*
X173420848Y-97492903D01*
X170987519Y-95059574D01*
X170954034Y-94998251D01*
X170951200Y-94971893D01*
X170951200Y-93606247D01*
X170951199Y-93606243D01*
X170930443Y-93528776D01*
X170927206Y-93516698D01*
X170927205Y-93516694D01*
X170880850Y-93436406D01*
X167272360Y-89827916D01*
X167238875Y-89766593D01*
X167243859Y-89696901D01*
X167285731Y-89640968D01*
X167351195Y-89616551D01*
X167419468Y-89631403D01*
X167422028Y-89632841D01*
X167446440Y-89646935D01*
X167636557Y-89756700D01*
X167636562Y-89756702D01*
X167636565Y-89756704D01*
X167872787Y-89854550D01*
X168119760Y-89920726D01*
X168373257Y-89954100D01*
X168373264Y-89954100D01*
X168628936Y-89954100D01*
X168628943Y-89954100D01*
X168882440Y-89920726D01*
X169129413Y-89854550D01*
X169365635Y-89756704D01*
X169587065Y-89628861D01*
X169789913Y-89473210D01*
X169970710Y-89292413D01*
X170126361Y-89089565D01*
X170254204Y-88868135D01*
X170352050Y-88631913D01*
X170418226Y-88384940D01*
X170451600Y-88131443D01*
X170451600Y-87875757D01*
X170418226Y-87622260D01*
X170352050Y-87375287D01*
X170254204Y-87139065D01*
X170254202Y-87139062D01*
X170254200Y-87139057D01*
X170126365Y-86917642D01*
X170126361Y-86917635D01*
X169970710Y-86714787D01*
X169970705Y-86714781D01*
X169789918Y-86533994D01*
X169789911Y-86533988D01*
X169587073Y-86378345D01*
X169587071Y-86378343D01*
X169587065Y-86378339D01*
X169587060Y-86378336D01*
X169587057Y-86378334D01*
X169365642Y-86250499D01*
X169365631Y-86250494D01*
X169129422Y-86152653D01*
X169129415Y-86152651D01*
X169129413Y-86152650D01*
X168882440Y-86086474D01*
X168813563Y-86077406D01*
X168628950Y-86053100D01*
X168628943Y-86053100D01*
X168373257Y-86053100D01*
X168373249Y-86053100D01*
X168147926Y-86082765D01*
X168119760Y-86086474D01*
X167907809Y-86143266D01*
X167872787Y-86152650D01*
X167872777Y-86152653D01*
X167636568Y-86250494D01*
X167636557Y-86250499D01*
X167415142Y-86378334D01*
X167415126Y-86378345D01*
X167212288Y-86533988D01*
X167212281Y-86533994D01*
X167031494Y-86714781D01*
X167031488Y-86714788D01*
X166875845Y-86917626D01*
X166875834Y-86917642D01*
X166747999Y-87139057D01*
X166747994Y-87139068D01*
X166650153Y-87375277D01*
X166650151Y-87375283D01*
X166650150Y-87375287D01*
X166583974Y-87622260D01*
X166581155Y-87643674D01*
X166550600Y-87875749D01*
X166550600Y-88131450D01*
X166566132Y-88249419D01*
X166583974Y-88384940D01*
X166646521Y-88618370D01*
X166650150Y-88631912D01*
X166650153Y-88631922D01*
X166747994Y-88868131D01*
X166747999Y-88868142D01*
X166871851Y-89082658D01*
X166888324Y-89150558D01*
X166865472Y-89216585D01*
X166810550Y-89259776D01*
X166740997Y-89266417D01*
X166678894Y-89234401D01*
X166676783Y-89232339D01*
X162014795Y-84570351D01*
X161982694Y-84538250D01*
X161902406Y-84491895D01*
X161849208Y-84477640D01*
X161849205Y-84477639D01*
X161812856Y-84467900D01*
X161812855Y-84467900D01*
X160517207Y-84467900D01*
X160450168Y-84448215D01*
X160429526Y-84431581D01*
X159785109Y-83787164D01*
X159112456Y-83114512D01*
X159078972Y-83053190D01*
X159083956Y-82983498D01*
X159125828Y-82927565D01*
X159191292Y-82903148D01*
X159248172Y-82912513D01*
X159520180Y-83026804D01*
X159524217Y-83028586D01*
X159709927Y-83114513D01*
X160401824Y-83434651D01*
X160405748Y-83436551D01*
X161268405Y-83873609D01*
X161272268Y-83875653D01*
X161956449Y-84253459D01*
X161956844Y-84253679D01*
X162150921Y-84362341D01*
X162150972Y-84362393D01*
X162154104Y-84364187D01*
X162952910Y-84843142D01*
X162954754Y-84844270D01*
X162987687Y-84864821D01*
X162987688Y-84864821D01*
X163002455Y-84874036D01*
X163002458Y-84874037D01*
X163118704Y-84946575D01*
X163118707Y-84946576D01*
X163118711Y-84946579D01*
X163423373Y-85099599D01*
X163465990Y-85121004D01*
X163827896Y-85262625D01*
X164201331Y-85370229D01*
X164583105Y-85442898D01*
X164583108Y-85442898D01*
X164583112Y-85442899D01*
X164583118Y-85442900D01*
X164969944Y-85480009D01*
X164969950Y-85480009D01*
X164969958Y-85480010D01*
X165115693Y-85480474D01*
X165358570Y-85481248D01*
X165358570Y-85481247D01*
X165358585Y-85481248D01*
X165745666Y-85446602D01*
X166127896Y-85376368D01*
X166502009Y-85271145D01*
X166864810Y-85131832D01*
X167003249Y-85063405D01*
X167003252Y-85063405D01*
X167036177Y-85047129D01*
X167041935Y-85044468D01*
X167347163Y-84912810D01*
X167359183Y-84908348D01*
X167673320Y-84809961D01*
X167685748Y-84806765D01*
X168008377Y-84741426D01*
X168021073Y-84739534D01*
X168348744Y-84707945D01*
X168361548Y-84707378D01*
X168690700Y-84709879D01*
X168703530Y-84710642D01*
X169030662Y-84747204D01*
X169043337Y-84749291D01*
X169364928Y-84819522D01*
X169377311Y-84822907D01*
X169689902Y-84926052D01*
X169701865Y-84930700D01*
X170002106Y-85065654D01*
X170013522Y-85071514D01*
X170298181Y-85236824D01*
X170308938Y-85243841D01*
X170574942Y-85437723D01*
X170584913Y-85445814D01*
X170638859Y-85494436D01*
X170829418Y-85666191D01*
X170838507Y-85675280D01*
X171058881Y-85919780D01*
X171066978Y-85929759D01*
X171181203Y-86086474D01*
X171260855Y-86195756D01*
X171267878Y-86206522D01*
X171433181Y-86491168D01*
X171439049Y-86502599D01*
X171534424Y-86714787D01*
X171573995Y-86802823D01*
X171578650Y-86814805D01*
X171681789Y-87127379D01*
X171685179Y-87139778D01*
X171755407Y-87461357D01*
X171757495Y-87474040D01*
X171794057Y-87801167D01*
X171794820Y-87813997D01*
X171797322Y-88143131D01*
X171796754Y-88155974D01*
X171765166Y-88483619D01*
X171763271Y-88496332D01*
X171697938Y-88818935D01*
X171694737Y-88831384D01*
X171596357Y-89145494D01*
X171591885Y-89157544D01*
X171460241Y-89462743D01*
X171457543Y-89468576D01*
X171441297Y-89501442D01*
X171441296Y-89501447D01*
X171441296Y-89501448D01*
X171372870Y-89639884D01*
X171372865Y-89639896D01*
X171233558Y-90002683D01*
X171233555Y-90002692D01*
X171128334Y-90376797D01*
X171058100Y-90759029D01*
X171058096Y-90759057D01*
X171023453Y-91146109D01*
X171023452Y-91146130D01*
X171024690Y-91534733D01*
X171024691Y-91534756D01*
X171061800Y-91921581D01*
X171061802Y-91921591D01*
X171134470Y-92303366D01*
X171134472Y-92303376D01*
X171185900Y-92481850D01*
X171242076Y-92676804D01*
X171383697Y-93038710D01*
X171558125Y-93385995D01*
X171639878Y-93517009D01*
X171639879Y-93517013D01*
X171655718Y-93542395D01*
X171656450Y-93543568D01*
X171660449Y-93549977D01*
X171661534Y-93551749D01*
X172131710Y-94334106D01*
X172133793Y-94337708D01*
X172576951Y-95134482D01*
X172578912Y-95138151D01*
X172995097Y-95949352D01*
X172996934Y-95953085D01*
X173385679Y-96777805D01*
X173387389Y-96781597D01*
X173657763Y-97408938D01*
X173666220Y-97478294D01*
X173663591Y-97483738D01*
X173672577Y-97491906D01*
X173694381Y-97506590D01*
X173701486Y-97518186D01*
X173704827Y-97521223D01*
X173712818Y-97536680D01*
X173722198Y-97558442D01*
X173748243Y-97618875D01*
X173749824Y-97622721D01*
X174082385Y-98471623D01*
X174083838Y-98475522D01*
X174241345Y-98921032D01*
X174375443Y-99300331D01*
X174388098Y-99336124D01*
X174388745Y-99338004D01*
X174447846Y-99514732D01*
X174447847Y-99514735D01*
X174447848Y-99514737D01*
X174597921Y-99857981D01*
X174777956Y-100186517D01*
X174986498Y-100497695D01*
X174986507Y-100497709D01*
X175221930Y-100789103D01*
X175221935Y-100789109D01*
X175403961Y-100977328D01*
X175482367Y-101058402D01*
X175482371Y-101058405D01*
X175765714Y-101303428D01*
X175765726Y-101303438D01*
X175765731Y-101303442D01*
X176069782Y-101522289D01*
X176392105Y-101713206D01*
X176730141Y-101874676D01*
X176730159Y-101874683D01*
X176730167Y-101874686D01*
X177081190Y-102005411D01*
X177081202Y-102005414D01*
X177081208Y-102005417D01*
X177293871Y-102063672D01*
X177442511Y-102104390D01*
X177442513Y-102104390D01*
X177442519Y-102104392D01*
X177811204Y-102170816D01*
X178184339Y-102204160D01*
X178371650Y-102204100D01*
X178411532Y-102204100D01*
X178461218Y-102204100D01*
X178497033Y-102204100D01*
X178505143Y-102204365D01*
X178727890Y-102218964D01*
X178743948Y-102221079D01*
X178958881Y-102263831D01*
X178974534Y-102268026D01*
X179182041Y-102338465D01*
X179197025Y-102344671D01*
X179393564Y-102441594D01*
X179407610Y-102449704D01*
X179589805Y-102571442D01*
X179602674Y-102581316D01*
X179767428Y-102725802D01*
X179778897Y-102737271D01*
X179923383Y-102902025D01*
X179933257Y-102914894D01*
X180054995Y-103097089D01*
X180063105Y-103111135D01*
X180160028Y-103307674D01*
X180166235Y-103322660D01*
X180236671Y-103530158D01*
X180240869Y-103545825D01*
X180283618Y-103760740D01*
X180285736Y-103776821D01*
X180300335Y-103999556D01*
X180300600Y-104007666D01*
X180300600Y-111999533D01*
X180300335Y-112007643D01*
X180285736Y-112230378D01*
X180283618Y-112246459D01*
X180240869Y-112461374D01*
X180236671Y-112477041D01*
X180166235Y-112684539D01*
X180160028Y-112699525D01*
X180063105Y-112896064D01*
X180054995Y-112910110D01*
X179933257Y-113092305D01*
X179923383Y-113105174D01*
X179778897Y-113269928D01*
X179767428Y-113281397D01*
X179602674Y-113425883D01*
X179589805Y-113435757D01*
X179407610Y-113557495D01*
X179393564Y-113565605D01*
X179197025Y-113662528D01*
X179182039Y-113668735D01*
X178974541Y-113739171D01*
X178958874Y-113743369D01*
X178743959Y-113786118D01*
X178727878Y-113788236D01*
X178505143Y-113802835D01*
X178497033Y-113803100D01*
X178371650Y-113803100D01*
X178184338Y-113803039D01*
X177811209Y-113836383D01*
X177811194Y-113836385D01*
X177442527Y-113902806D01*
X177442511Y-113902809D01*
X177081209Y-114001782D01*
X177081190Y-114001788D01*
X176730167Y-114132513D01*
X176730131Y-114132528D01*
X176392111Y-114293991D01*
X176392104Y-114293994D01*
X176069784Y-114484909D01*
X175765735Y-114703754D01*
X175765714Y-114703771D01*
X175482371Y-114948794D01*
X175482367Y-114948797D01*
X175221930Y-115218096D01*
X174986507Y-115509490D01*
X174986498Y-115509504D01*
X174777956Y-115820682D01*
X174597921Y-116149218D01*
X174447844Y-116492470D01*
X174447843Y-116492475D01*
X174388787Y-116669070D01*
X174388098Y-116671075D01*
X174083838Y-117531677D01*
X174082385Y-117535576D01*
X173749824Y-118384478D01*
X173748242Y-118388325D01*
X173387389Y-119225602D01*
X173385679Y-119229394D01*
X172996934Y-120054114D01*
X172995097Y-120057847D01*
X172578912Y-120869048D01*
X172576951Y-120872717D01*
X172133793Y-121669491D01*
X172131710Y-121673093D01*
X171661534Y-122455450D01*
X171660451Y-122457219D01*
X171643617Y-122484197D01*
X171643616Y-122484197D01*
X171643616Y-122484198D01*
X171639879Y-122490187D01*
X171639878Y-122490188D01*
X171612419Y-122534192D01*
X171558127Y-122621200D01*
X171558120Y-122621211D01*
X171383697Y-122968486D01*
X171242076Y-123330392D01*
X171242072Y-123330405D01*
X171134474Y-123703818D01*
X171134471Y-123703831D01*
X171061800Y-124085612D01*
X171061799Y-124085618D01*
X171024690Y-124472444D01*
X171024689Y-124472467D01*
X171023451Y-124861070D01*
X171023452Y-124861091D01*
X171058095Y-125248143D01*
X171058099Y-125248171D01*
X171128333Y-125630403D01*
X171233555Y-126004511D01*
X171233556Y-126004514D01*
X171372864Y-126367301D01*
X171372866Y-126367305D01*
X171372868Y-126367310D01*
X171436927Y-126496913D01*
X171439408Y-126501933D01*
X171439407Y-126501933D01*
X171439409Y-126501936D01*
X171441294Y-126505749D01*
X171441295Y-126505752D01*
X171447816Y-126518944D01*
X171457550Y-126538637D01*
X171460247Y-126544471D01*
X171591883Y-126849648D01*
X171596356Y-126861699D01*
X171694735Y-127175810D01*
X171697936Y-127188258D01*
X171763271Y-127510868D01*
X171765166Y-127523582D01*
X171796753Y-127851225D01*
X171797321Y-127864066D01*
X171794820Y-128193199D01*
X171794057Y-128206030D01*
X171757495Y-128533158D01*
X171755407Y-128545841D01*
X171685179Y-128867420D01*
X171681789Y-128879819D01*
X171578650Y-129192393D01*
X171573995Y-129204375D01*
X171439050Y-129504597D01*
X171433180Y-129516032D01*
X171267878Y-129800676D01*
X171260855Y-129811442D01*
X171066980Y-130077437D01*
X171058881Y-130087418D01*
X170838508Y-130331918D01*
X170829419Y-130341007D01*
X170584919Y-130561381D01*
X170574938Y-130569480D01*
X170308943Y-130763355D01*
X170298177Y-130770378D01*
X170013533Y-130935680D01*
X170002098Y-130941550D01*
X169701876Y-131076495D01*
X169689894Y-131081150D01*
X169377320Y-131184289D01*
X169364921Y-131187679D01*
X169043342Y-131257907D01*
X169030659Y-131259995D01*
X168703532Y-131296557D01*
X168690702Y-131297320D01*
X168361568Y-131299822D01*
X168348727Y-131299254D01*
X168262368Y-131290928D01*
X168021080Y-131267666D01*
X168008367Y-131265771D01*
X167685764Y-131200438D01*
X167673315Y-131197237D01*
X167359205Y-131098857D01*
X167347155Y-131094385D01*
X167041956Y-130962741D01*
X167036125Y-130960044D01*
X167036122Y-130960043D01*
X166999444Y-130941913D01*
X166999434Y-130941909D01*
X166993368Y-130938911D01*
X166886714Y-130886195D01*
X166864797Y-130875362D01*
X166502016Y-130736058D01*
X166502007Y-130736055D01*
X166127901Y-130630834D01*
X166127903Y-130630834D01*
X165765823Y-130564303D01*
X165745665Y-130560599D01*
X165745659Y-130560598D01*
X165745642Y-130560596D01*
X165358590Y-130525953D01*
X165358569Y-130525952D01*
X164969966Y-130527190D01*
X164969943Y-130527191D01*
X164583118Y-130564300D01*
X164583108Y-130564302D01*
X164201333Y-130636970D01*
X164201323Y-130636972D01*
X163827899Y-130744575D01*
X163827892Y-130744577D01*
X163465995Y-130886195D01*
X163465990Y-130886197D01*
X163293111Y-130973027D01*
X163118698Y-131060628D01*
X162995941Y-131137229D01*
X162995939Y-131137230D01*
X162987690Y-131142378D01*
X162987686Y-131142379D01*
X162963427Y-131157517D01*
X162957706Y-131161087D01*
X162954842Y-131162874D01*
X162952877Y-131164075D01*
X162084611Y-131683730D01*
X162080610Y-131686024D01*
X161194673Y-132172454D01*
X161190590Y-132174598D01*
X160287171Y-132627751D01*
X160283011Y-132629742D01*
X159363339Y-133049000D01*
X159359108Y-133050834D01*
X158424518Y-133435588D01*
X158420222Y-133437264D01*
X157471972Y-133787000D01*
X157467616Y-133788516D01*
X156506972Y-134102763D01*
X156502562Y-134104115D01*
X155530932Y-134382412D01*
X155526476Y-134383599D01*
X154545150Y-134625579D01*
X154540653Y-134626599D01*
X153551043Y-134831912D01*
X153546511Y-134832765D01*
X152549929Y-135001142D01*
X152545368Y-135001826D01*
X151543190Y-135133030D01*
X151538607Y-135133543D01*
X150532284Y-135227387D01*
X150527684Y-135227730D01*
X149518560Y-135284088D01*
X149513952Y-135284260D01*
X148503405Y-135303056D01*
X148498793Y-135303056D01*
X147488246Y-135284260D01*
X147483638Y-135284088D01*
X146474514Y-135227730D01*
X146469914Y-135227387D01*
X145463591Y-135133543D01*
X145459008Y-135133030D01*
X144456830Y-135001826D01*
X144452269Y-135001142D01*
X143455687Y-134832765D01*
X143451155Y-134831912D01*
X142461545Y-134626599D01*
X142457048Y-134625579D01*
X141475722Y-134383599D01*
X141471266Y-134382412D01*
X140499636Y-134104115D01*
X140495226Y-134102763D01*
X139534582Y-133788516D01*
X139530226Y-133787000D01*
X138581976Y-133437264D01*
X138577680Y-133435588D01*
X137643090Y-133050834D01*
X137638859Y-133049000D01*
X136719187Y-132629742D01*
X136715027Y-132627751D01*
X135811608Y-132174598D01*
X135807525Y-132172454D01*
X135241990Y-131861943D01*
X134921579Y-131686018D01*
X134917587Y-131683730D01*
X134049299Y-131164062D01*
X134047423Y-131162915D01*
X134014513Y-131142379D01*
X134014511Y-131142378D01*
X134006259Y-131137229D01*
X133883499Y-131060627D01*
X133883488Y-131060620D01*
X133536213Y-130886197D01*
X133174307Y-130744576D01*
X133174294Y-130744572D01*
X132800881Y-130636974D01*
X132800873Y-130636972D01*
X132800869Y-130636971D01*
X132692011Y-130616250D01*
X132419087Y-130564300D01*
X132419081Y-130564299D01*
X132032255Y-130527190D01*
X132032232Y-130527189D01*
X131643629Y-130525951D01*
X131643608Y-130525952D01*
X131256556Y-130560595D01*
X131256536Y-130560597D01*
X131256534Y-130560598D01*
X131256530Y-130560598D01*
X131256528Y-130560599D01*
X130874296Y-130630833D01*
X130500188Y-130736055D01*
X130500185Y-130736056D01*
X130137394Y-130875366D01*
X129998943Y-130943797D01*
X129966061Y-130960050D01*
X129960228Y-130962747D01*
X129655051Y-131094383D01*
X129643000Y-131098856D01*
X129328889Y-131197235D01*
X129316441Y-131200436D01*
X128993831Y-131265771D01*
X128981117Y-131267666D01*
X128653474Y-131299253D01*
X128640633Y-131299821D01*
X128311500Y-131297320D01*
X128298669Y-131296557D01*
X127971541Y-131259995D01*
X127958858Y-131257907D01*
X127637279Y-131187679D01*
X127624880Y-131184289D01*
X127312306Y-131081150D01*
X127300324Y-131076495D01*
X127005097Y-130943795D01*
X127000100Y-130941549D01*
X126988667Y-130935680D01*
X126974693Y-130927565D01*
X126704023Y-130770378D01*
X126693257Y-130763355D01*
X126511438Y-130630833D01*
X126427260Y-130569478D01*
X126417281Y-130561381D01*
X126416414Y-130560600D01*
X126295031Y-130451194D01*
X126172781Y-130341008D01*
X126163692Y-130331919D01*
X125957544Y-130103202D01*
X125943314Y-130087414D01*
X125935219Y-130077438D01*
X125935218Y-130077437D01*
X125741341Y-129811439D01*
X125734321Y-129800677D01*
X125569014Y-129516023D01*
X125563154Y-129504607D01*
X125428200Y-129204366D01*
X125423552Y-129192403D01*
X125320407Y-128879812D01*
X125317020Y-128867421D01*
X125316364Y-128864419D01*
X125246791Y-128545838D01*
X125244704Y-128533159D01*
X125237523Y-128468913D01*
X125208142Y-128206030D01*
X125207379Y-128193202D01*
X125206910Y-128131450D01*
X125204966Y-127875749D01*
X126550600Y-127875749D01*
X126550600Y-128131450D01*
X126576557Y-128328607D01*
X126583974Y-128384940D01*
X126650150Y-128631912D01*
X126650153Y-128631922D01*
X126747994Y-128868131D01*
X126747999Y-128868142D01*
X126875834Y-129089557D01*
X126875845Y-129089573D01*
X127031488Y-129292411D01*
X127031494Y-129292418D01*
X127212281Y-129473205D01*
X127212288Y-129473211D01*
X127268095Y-129516033D01*
X127415135Y-129628861D01*
X127415142Y-129628865D01*
X127636557Y-129756700D01*
X127636562Y-129756702D01*
X127636565Y-129756704D01*
X127872787Y-129854550D01*
X128119760Y-129920726D01*
X128373257Y-129954100D01*
X128373264Y-129954100D01*
X128628936Y-129954100D01*
X128628943Y-129954100D01*
X128882440Y-129920726D01*
X129129413Y-129854550D01*
X129365635Y-129756704D01*
X129587065Y-129628861D01*
X129789913Y-129473210D01*
X129970710Y-129292413D01*
X130126361Y-129089565D01*
X130254204Y-128868135D01*
X130352050Y-128631913D01*
X130418226Y-128384940D01*
X130451600Y-128131443D01*
X130451600Y-127875757D01*
X130418226Y-127622260D01*
X130352050Y-127375287D01*
X130254204Y-127139065D01*
X130254202Y-127139062D01*
X130254200Y-127139057D01*
X130126365Y-126917642D01*
X130126361Y-126917635D01*
X129970710Y-126714787D01*
X129970705Y-126714781D01*
X129789918Y-126533994D01*
X129789911Y-126533988D01*
X129587073Y-126378345D01*
X129587071Y-126378343D01*
X129587065Y-126378339D01*
X129587060Y-126378336D01*
X129587057Y-126378334D01*
X129365642Y-126250499D01*
X129365631Y-126250494D01*
X129129422Y-126152653D01*
X129129415Y-126152651D01*
X129129413Y-126152650D01*
X128882440Y-126086474D01*
X128826107Y-126079057D01*
X128628950Y-126053100D01*
X128628943Y-126053100D01*
X128373257Y-126053100D01*
X128373249Y-126053100D01*
X128147926Y-126082765D01*
X128119760Y-126086474D01*
X127872787Y-126152650D01*
X127872777Y-126152653D01*
X127636568Y-126250494D01*
X127636557Y-126250499D01*
X127415142Y-126378334D01*
X127415126Y-126378345D01*
X127212288Y-126533988D01*
X127212281Y-126533994D01*
X127031494Y-126714781D01*
X127031488Y-126714788D01*
X126875845Y-126917626D01*
X126875834Y-126917642D01*
X126747999Y-127139057D01*
X126747994Y-127139068D01*
X126650153Y-127375277D01*
X126650150Y-127375287D01*
X126583974Y-127622260D01*
X126580265Y-127650426D01*
X126550600Y-127875749D01*
X125204966Y-127875749D01*
X125204877Y-127864047D01*
X125205444Y-127851246D01*
X125237034Y-127523566D01*
X125238925Y-127510883D01*
X125304263Y-127188254D01*
X125307462Y-127175815D01*
X125318972Y-127139068D01*
X125405844Y-126861699D01*
X125410314Y-126849655D01*
X125410317Y-126849648D01*
X125541972Y-126544423D01*
X125544649Y-126538637D01*
X125560904Y-126505753D01*
X125560904Y-126505750D01*
X125629332Y-126367309D01*
X125768644Y-126004508D01*
X125873867Y-125630395D01*
X125944101Y-125248165D01*
X125978747Y-124861084D01*
X125977509Y-124472457D01*
X125962627Y-124317324D01*
X125940399Y-124085618D01*
X125940397Y-124085608D01*
X125940397Y-124085605D01*
X125867729Y-123703830D01*
X125760124Y-123330396D01*
X125618503Y-122968490D01*
X125444075Y-122621205D01*
X125371536Y-122504957D01*
X125362321Y-122490188D01*
X125362321Y-122490187D01*
X125348821Y-122468554D01*
X125341748Y-122457218D01*
X125340665Y-122455450D01*
X124870489Y-121673093D01*
X124868406Y-121669491D01*
X124503478Y-121013370D01*
X124425238Y-120872699D01*
X124423287Y-120869048D01*
X124372480Y-120770019D01*
X124007096Y-120057836D01*
X124005265Y-120054114D01*
X123823870Y-119669286D01*
X123616512Y-119229377D01*
X123614810Y-119225602D01*
X123589416Y-119166682D01*
X123272017Y-118430229D01*
X123253957Y-118388325D01*
X123252375Y-118384478D01*
X122919814Y-117535576D01*
X122918361Y-117531677D01*
X122832738Y-117289492D01*
X122614069Y-116670983D01*
X122613466Y-116669230D01*
X122554354Y-116492468D01*
X122404279Y-116149220D01*
X122224249Y-115820692D01*
X122224246Y-115820687D01*
X122224243Y-115820682D01*
X122015701Y-115509504D01*
X122015692Y-115509490D01*
X121780269Y-115218096D01*
X121780265Y-115218091D01*
X121519835Y-114948800D01*
X121467278Y-114903351D01*
X121236485Y-114703771D01*
X121236464Y-114703754D01*
X120932415Y-114484909D01*
X120610095Y-114293994D01*
X120354727Y-114172012D01*
X120272068Y-114132528D01*
X120272063Y-114132525D01*
X120272059Y-114132524D01*
X120272053Y-114132521D01*
X120272032Y-114132513D01*
X119921009Y-114001788D01*
X119920990Y-114001782D01*
X119559688Y-113902809D01*
X119559672Y-113902806D01*
X119191005Y-113836385D01*
X119190990Y-113836383D01*
X118817860Y-113803039D01*
X118630550Y-113803100D01*
X118505167Y-113803100D01*
X118497057Y-113802835D01*
X118274321Y-113788236D01*
X118258240Y-113786118D01*
X118043325Y-113743369D01*
X118027658Y-113739171D01*
X117820160Y-113668735D01*
X117805174Y-113662528D01*
X117608635Y-113565605D01*
X117594589Y-113557495D01*
X117412394Y-113435757D01*
X117399525Y-113425883D01*
X117234771Y-113281397D01*
X117223302Y-113269928D01*
X117078816Y-113105174D01*
X117068942Y-113092305D01*
X116947204Y-112910110D01*
X116939094Y-112896064D01*
X116842171Y-112699525D01*
X116835964Y-112684539D01*
X116827448Y-112659452D01*
X116765526Y-112477034D01*
X116761330Y-112461374D01*
X116718579Y-112246448D01*
X116716464Y-112230390D01*
X116701865Y-112007643D01*
X116701600Y-111999533D01*
X116701600Y-109217671D01*
X118005599Y-109217671D01*
X118030597Y-109343338D01*
X118030599Y-109343344D01*
X118079633Y-109461724D01*
X118079638Y-109461733D01*
X118150823Y-109568268D01*
X118150826Y-109568272D01*
X118241427Y-109658873D01*
X118241431Y-109658876D01*
X118347966Y-109730061D01*
X118347972Y-109730064D01*
X118347973Y-109730065D01*
X118466356Y-109779101D01*
X118466360Y-109779101D01*
X118466361Y-109779102D01*
X118592028Y-109804100D01*
X118592031Y-109804100D01*
X118720171Y-109804100D01*
X118804715Y-109787282D01*
X118845844Y-109779101D01*
X118964227Y-109730065D01*
X119070769Y-109658876D01*
X119161376Y-109568269D01*
X119232565Y-109461727D01*
X119281601Y-109343344D01*
X119289782Y-109302215D01*
X119306600Y-109217671D01*
X119306600Y-109089528D01*
X119281602Y-108963861D01*
X119281601Y-108963860D01*
X119281601Y-108963856D01*
X119232565Y-108845473D01*
X119232564Y-108845472D01*
X119232561Y-108845466D01*
X119161376Y-108738931D01*
X119161373Y-108738927D01*
X119070772Y-108648326D01*
X119070768Y-108648323D01*
X118964233Y-108577138D01*
X118964224Y-108577133D01*
X118845844Y-108528099D01*
X118845838Y-108528097D01*
X118720171Y-108503100D01*
X118720169Y-108503100D01*
X118592031Y-108503100D01*
X118592029Y-108503100D01*
X118466361Y-108528097D01*
X118466355Y-108528099D01*
X118347975Y-108577133D01*
X118347966Y-108577138D01*
X118241431Y-108648323D01*
X118241427Y-108648326D01*
X118150826Y-108738927D01*
X118150823Y-108738931D01*
X118079638Y-108845466D01*
X118079633Y-108845475D01*
X118030599Y-108963855D01*
X118030597Y-108963861D01*
X118005600Y-109089528D01*
X118005600Y-109089531D01*
X118005600Y-109104925D01*
X118005600Y-109217669D01*
X118005600Y-109217671D01*
X118005599Y-109217671D01*
X116701600Y-109217671D01*
X116701600Y-106917671D01*
X118005599Y-106917671D01*
X118030597Y-107043338D01*
X118030599Y-107043344D01*
X118079633Y-107161724D01*
X118079638Y-107161733D01*
X118150823Y-107268268D01*
X118150826Y-107268272D01*
X118241427Y-107358873D01*
X118241431Y-107358876D01*
X118347966Y-107430061D01*
X118347972Y-107430064D01*
X118347973Y-107430065D01*
X118466356Y-107479101D01*
X118466360Y-107479101D01*
X118466361Y-107479102D01*
X118592028Y-107504100D01*
X118592031Y-107504100D01*
X118720171Y-107504100D01*
X118804715Y-107487282D01*
X118845844Y-107479101D01*
X118964227Y-107430065D01*
X119070769Y-107358876D01*
X119161376Y-107268269D01*
X119232565Y-107161727D01*
X119281601Y-107043344D01*
X119289782Y-107002215D01*
X119306600Y-106917671D01*
X119306600Y-106789528D01*
X119281602Y-106663861D01*
X119281601Y-106663860D01*
X119281601Y-106663856D01*
X119232565Y-106545473D01*
X119232564Y-106545472D01*
X119232561Y-106545466D01*
X119161376Y-106438931D01*
X119161373Y-106438927D01*
X119070772Y-106348326D01*
X119070768Y-106348323D01*
X118964229Y-106277136D01*
X118964224Y-106277133D01*
X118845844Y-106228099D01*
X118845838Y-106228097D01*
X118720171Y-106203100D01*
X118720169Y-106203100D01*
X118592031Y-106203100D01*
X118592029Y-106203100D01*
X118466361Y-106228097D01*
X118466355Y-106228099D01*
X118347975Y-106277133D01*
X118347971Y-106277136D01*
X118241431Y-106348323D01*
X118241427Y-106348326D01*
X118150826Y-106438927D01*
X118150823Y-106438931D01*
X118079638Y-106545466D01*
X118079633Y-106545475D01*
X118030599Y-106663855D01*
X118030597Y-106663861D01*
X118005600Y-106789528D01*
X118005600Y-106789531D01*
X118005600Y-106804925D01*
X118005600Y-106917669D01*
X118005600Y-106917671D01*
X118005599Y-106917671D01*
X116701600Y-106917671D01*
X116701600Y-104007666D01*
X116701865Y-103999556D01*
X116703042Y-103981594D01*
X116716464Y-103776807D01*
X116718579Y-103760753D01*
X116761332Y-103545815D01*
X116765525Y-103530168D01*
X116835967Y-103322652D01*
X116842168Y-103307681D01*
X116939096Y-103111130D01*
X116947200Y-103097094D01*
X117068945Y-102914889D01*
X117078811Y-102902030D01*
X117223307Y-102737265D01*
X117234765Y-102725807D01*
X117399530Y-102581311D01*
X117412389Y-102571445D01*
X117594594Y-102449700D01*
X117608630Y-102441596D01*
X117805181Y-102344668D01*
X117820152Y-102338467D01*
X118027668Y-102268025D01*
X118043315Y-102263832D01*
X118258253Y-102221079D01*
X118274309Y-102218964D01*
X118479158Y-102205538D01*
X118497058Y-102204365D01*
X118505167Y-102204100D01*
X118540982Y-102204100D01*
X118590668Y-102204100D01*
X118630550Y-102204100D01*
X118817861Y-102204160D01*
X119190996Y-102170816D01*
X119559681Y-102104392D01*
X119920992Y-102005417D01*
X119921003Y-102005412D01*
X119921009Y-102005411D01*
X120272032Y-101874686D01*
X120272030Y-101874686D01*
X120272059Y-101874676D01*
X120610095Y-101713206D01*
X120932418Y-101522289D01*
X121236469Y-101303442D01*
X121519835Y-101058400D01*
X121780265Y-100789109D01*
X122015693Y-100497708D01*
X122224249Y-100186508D01*
X122404279Y-99857980D01*
X122554354Y-99514732D01*
X122613478Y-99337933D01*
X122614056Y-99336252D01*
X122918366Y-98475506D01*
X122919814Y-98471623D01*
X122929180Y-98447717D01*
X123252378Y-97622712D01*
X123253957Y-97618874D01*
X123280002Y-97558442D01*
X123614828Y-96781556D01*
X123616502Y-96777844D01*
X124005282Y-95953050D01*
X124007084Y-95949386D01*
X124423309Y-95138108D01*
X124425225Y-95134525D01*
X124868419Y-94337684D01*
X124870475Y-94334129D01*
X125340692Y-93551703D01*
X125341749Y-93549979D01*
X125362321Y-93517013D01*
X125362321Y-93517011D01*
X125444075Y-93385996D01*
X125618504Y-93038710D01*
X125760125Y-92676804D01*
X125867729Y-92303369D01*
X125940398Y-91921595D01*
X125940399Y-91921587D01*
X125940400Y-91921581D01*
X125977509Y-91534755D01*
X125977510Y-91534732D01*
X125978748Y-91146129D01*
X125978747Y-91146128D01*
X125978748Y-91146115D01*
X125944102Y-90759034D01*
X125873868Y-90376804D01*
X125768645Y-90002691D01*
X125756831Y-89971926D01*
X125711760Y-89854550D01*
X125629332Y-89639890D01*
X125560905Y-89501450D01*
X125560905Y-89501448D01*
X125544640Y-89468544D01*
X125541961Y-89462749D01*
X125410312Y-89157542D01*
X125405846Y-89145510D01*
X125307462Y-88831383D01*
X125304263Y-88818941D01*
X125302105Y-88808287D01*
X125238927Y-88496325D01*
X125237033Y-88483623D01*
X125205445Y-88155956D01*
X125204878Y-88143151D01*
X125206910Y-87875749D01*
X126550600Y-87875749D01*
X126550600Y-88131450D01*
X126566132Y-88249419D01*
X126583974Y-88384940D01*
X126646521Y-88618370D01*
X126650150Y-88631912D01*
X126650153Y-88631922D01*
X126747994Y-88868131D01*
X126747999Y-88868142D01*
X126875834Y-89089557D01*
X126875845Y-89089573D01*
X127031488Y-89292411D01*
X127031494Y-89292418D01*
X127212281Y-89473205D01*
X127212288Y-89473211D01*
X127300063Y-89540563D01*
X127415135Y-89628861D01*
X127415142Y-89628865D01*
X127636557Y-89756700D01*
X127636562Y-89756702D01*
X127636565Y-89756704D01*
X127872787Y-89854550D01*
X128119760Y-89920726D01*
X128373257Y-89954100D01*
X128373264Y-89954100D01*
X128628936Y-89954100D01*
X128628943Y-89954100D01*
X128882440Y-89920726D01*
X129129413Y-89854550D01*
X129365635Y-89756704D01*
X129587065Y-89628861D01*
X129789913Y-89473210D01*
X129970710Y-89292413D01*
X130126361Y-89089565D01*
X130254204Y-88868135D01*
X130352050Y-88631913D01*
X130418226Y-88384940D01*
X130451600Y-88131443D01*
X130451600Y-87875757D01*
X130418226Y-87622260D01*
X130352050Y-87375287D01*
X130254204Y-87139065D01*
X130254202Y-87139062D01*
X130254200Y-87139057D01*
X130126365Y-86917642D01*
X130126361Y-86917635D01*
X129970710Y-86714787D01*
X129970705Y-86714781D01*
X129789918Y-86533994D01*
X129789911Y-86533988D01*
X129587073Y-86378345D01*
X129587071Y-86378343D01*
X129587065Y-86378339D01*
X129587060Y-86378336D01*
X129587057Y-86378334D01*
X129365642Y-86250499D01*
X129365631Y-86250494D01*
X129129422Y-86152653D01*
X129129415Y-86152651D01*
X129129413Y-86152650D01*
X128882440Y-86086474D01*
X128813563Y-86077406D01*
X128628950Y-86053100D01*
X128628943Y-86053100D01*
X128373257Y-86053100D01*
X128373249Y-86053100D01*
X128147926Y-86082765D01*
X128119760Y-86086474D01*
X127907809Y-86143266D01*
X127872787Y-86152650D01*
X127872777Y-86152653D01*
X127636568Y-86250494D01*
X127636557Y-86250499D01*
X127415142Y-86378334D01*
X127415126Y-86378345D01*
X127212288Y-86533988D01*
X127212281Y-86533994D01*
X127031494Y-86714781D01*
X127031488Y-86714788D01*
X126875845Y-86917626D01*
X126875834Y-86917642D01*
X126747999Y-87139057D01*
X126747994Y-87139068D01*
X126650153Y-87375277D01*
X126650151Y-87375283D01*
X126650150Y-87375287D01*
X126583974Y-87622260D01*
X126581155Y-87643674D01*
X126550600Y-87875749D01*
X125206910Y-87875749D01*
X125207379Y-87813997D01*
X125208142Y-87801169D01*
X125232025Y-87587481D01*
X125244705Y-87474034D01*
X125246792Y-87461358D01*
X125317023Y-87139766D01*
X125320406Y-87127393D01*
X125423555Y-86814790D01*
X125428197Y-86802840D01*
X125563157Y-86502585D01*
X125569009Y-86491184D01*
X125734329Y-86206509D01*
X125741335Y-86195770D01*
X125935230Y-85929747D01*
X125943306Y-85919795D01*
X126163698Y-85675273D01*
X126172773Y-85666198D01*
X126417294Y-85445806D01*
X126427246Y-85437730D01*
X126693269Y-85243835D01*
X126704008Y-85236829D01*
X126988683Y-85071509D01*
X127000084Y-85065657D01*
X127300339Y-84930697D01*
X127312289Y-84926055D01*
X127624892Y-84822906D01*
X127637265Y-84819523D01*
X127958864Y-84749290D01*
X127971533Y-84747205D01*
X128298668Y-84710641D01*
X128311495Y-84709879D01*
X128640649Y-84707377D01*
X128653454Y-84707944D01*
X128981130Y-84739534D01*
X128993819Y-84741426D01*
X129316440Y-84806762D01*
X129328882Y-84809961D01*
X129355803Y-84818393D01*
X129642994Y-84908342D01*
X129655045Y-84912814D01*
X129960261Y-85044466D01*
X129966074Y-85047154D01*
X129998947Y-85063404D01*
X129998949Y-85063404D01*
X130137391Y-85131832D01*
X130137399Y-85131835D01*
X130137403Y-85131837D01*
X130500183Y-85271141D01*
X130500192Y-85271144D01*
X130874298Y-85376365D01*
X130874296Y-85376365D01*
X130874301Y-85376366D01*
X130874305Y-85376367D01*
X131256535Y-85446601D01*
X131256556Y-85446602D01*
X131256557Y-85446603D01*
X131286109Y-85449248D01*
X131643616Y-85481247D01*
X131643629Y-85481246D01*
X131643630Y-85481247D01*
X131870315Y-85480524D01*
X132032243Y-85480009D01*
X132032251Y-85480008D01*
X132032256Y-85480008D01*
X132419081Y-85442899D01*
X132419087Y-85442897D01*
X132419095Y-85442897D01*
X132800870Y-85370229D01*
X133174304Y-85262624D01*
X133536210Y-85121003D01*
X133883495Y-84946575D01*
X134014509Y-84864821D01*
X134014513Y-84864821D01*
X134047515Y-84844226D01*
X134049237Y-84843173D01*
X134879609Y-84345291D01*
X134883349Y-84343137D01*
X135729954Y-83875640D01*
X135733771Y-83873621D01*
X136596473Y-83436540D01*
X136600352Y-83434661D01*
X137477994Y-83028580D01*
X137482007Y-83026809D01*
X138373590Y-82652188D01*
X138377601Y-82650587D01*
X139281884Y-82307948D01*
X139286033Y-82306460D01*
X140201969Y-81996198D01*
X140206079Y-81994887D01*
X141133552Y-81717086D01*
X141135603Y-81716492D01*
X141172975Y-81706020D01*
X141172988Y-81706009D01*
X141322135Y-81664191D01*
X141577668Y-81566278D01*
X141685934Y-81524795D01*
X142035271Y-81352327D01*
X142035271Y-81352326D01*
X142035275Y-81352325D01*
X142367151Y-81148265D01*
X142678718Y-80914366D01*
X142967299Y-80652634D01*
X143230419Y-80365318D01*
X143465818Y-80054882D01*
X143671475Y-79723993D01*
X143845626Y-79375490D01*
X143986775Y-79012366D01*
X144093711Y-78637736D01*
X144165515Y-78254817D01*
X144201572Y-77866896D01*
X144201591Y-77725592D01*
X144201600Y-77725515D01*
X144201600Y-76507666D01*
X144201865Y-76499556D01*
X144207562Y-76412632D01*
X144216464Y-76276807D01*
X144218579Y-76260753D01*
X144261332Y-76045815D01*
X144265525Y-76030168D01*
X144335967Y-75822652D01*
X144342168Y-75807681D01*
X144439096Y-75611130D01*
X144447200Y-75597094D01*
X144568945Y-75414889D01*
X144578811Y-75402030D01*
X144723307Y-75237265D01*
X144734765Y-75225807D01*
X144899530Y-75081311D01*
X144912389Y-75071445D01*
X145094594Y-74949700D01*
X145108630Y-74941596D01*
X145305181Y-74844668D01*
X145320152Y-74838467D01*
X145527668Y-74768025D01*
X145543315Y-74763832D01*
X145758253Y-74721079D01*
X145774309Y-74718964D01*
X145979158Y-74705538D01*
X145997058Y-74704365D01*
X146005167Y-74704100D01*
X146040982Y-74704100D01*
X150961218Y-74704100D01*
X150997033Y-74704100D01*
X151005143Y-74704365D01*
G37*
%TD.AperFunction*%
%TA.AperFunction,Conductor*%
G36*
X143934734Y-82926199D02*
G01*
X143990667Y-82968071D01*
X144015084Y-83033535D01*
X144015400Y-83042381D01*
X144015400Y-87555993D01*
X143995715Y-87623032D01*
X143979081Y-87643674D01*
X143738952Y-87883803D01*
X143738946Y-87883812D01*
X143692597Y-87964088D01*
X143692596Y-87964089D01*
X143692595Y-87964094D01*
X143680608Y-88008830D01*
X143680608Y-88008831D01*
X143680607Y-88008830D01*
X143668600Y-88053643D01*
X143668600Y-88053645D01*
X143668600Y-88618370D01*
X143668600Y-88711080D01*
X143690073Y-88791220D01*
X143692596Y-88800633D01*
X143692597Y-88800636D01*
X143717692Y-88844100D01*
X143738950Y-88880919D01*
X143738952Y-88880921D01*
X143979081Y-89121050D01*
X143993784Y-89147977D01*
X144010377Y-89173796D01*
X144011268Y-89179996D01*
X144012566Y-89182373D01*
X144015400Y-89208731D01*
X144015400Y-89417825D01*
X143995715Y-89484864D01*
X143942911Y-89530619D01*
X143873753Y-89540563D01*
X143829401Y-89525213D01*
X143750936Y-89479912D01*
X143725927Y-89473211D01*
X143617283Y-89444100D01*
X143478917Y-89444100D01*
X143345264Y-89479912D01*
X143311704Y-89499287D01*
X143249706Y-89515900D01*
X135360369Y-89515900D01*
X135244978Y-89546819D01*
X135244976Y-89546819D01*
X135244976Y-89546820D01*
X135141522Y-89606550D01*
X135141519Y-89606552D01*
X128326050Y-96422020D01*
X128326046Y-96422025D01*
X128307667Y-96453861D01*
X128307666Y-96453863D01*
X128266319Y-96525478D01*
X128235400Y-96640869D01*
X128235400Y-96640871D01*
X128235400Y-99001308D01*
X128215715Y-99068347D01*
X128199081Y-99088989D01*
X125531281Y-101756788D01*
X125475697Y-101788881D01*
X125438265Y-101798911D01*
X125438261Y-101798913D01*
X125318438Y-101868092D01*
X125318433Y-101868096D01*
X125220596Y-101965933D01*
X125220592Y-101965938D01*
X125151413Y-102085761D01*
X125151412Y-102085764D01*
X125115600Y-102219417D01*
X125115600Y-102357783D01*
X125151412Y-102491436D01*
X125170787Y-102524995D01*
X125187400Y-102586994D01*
X125187400Y-111261204D01*
X125170788Y-111323202D01*
X125151414Y-111356759D01*
X125151412Y-111356764D01*
X125115600Y-111490417D01*
X125115600Y-111628783D01*
X125151412Y-111762436D01*
X125170787Y-111795995D01*
X125187400Y-111857994D01*
X125187400Y-113420204D01*
X125170788Y-113482202D01*
X125151414Y-113515759D01*
X125151412Y-113515764D01*
X125115600Y-113649417D01*
X125115600Y-113787783D01*
X125143040Y-113890189D01*
X125151412Y-113921435D01*
X125151413Y-113921438D01*
X125220592Y-114041261D01*
X125220594Y-114041264D01*
X125220595Y-114041265D01*
X125318435Y-114139105D01*
X125438264Y-114208288D01*
X125571917Y-114244100D01*
X125571919Y-114244100D01*
X125710281Y-114244100D01*
X125710283Y-114244100D01*
X125843936Y-114208288D01*
X125963765Y-114139105D01*
X126061605Y-114041265D01*
X126130788Y-113921436D01*
X126166600Y-113787783D01*
X126166600Y-113649417D01*
X126130788Y-113515764D01*
X126128190Y-113511265D01*
X126111412Y-113482202D01*
X126094800Y-113420204D01*
X126094800Y-111857994D01*
X126111412Y-111795995D01*
X126130788Y-111762436D01*
X126166600Y-111628783D01*
X126166600Y-111490417D01*
X126130788Y-111356764D01*
X126128190Y-111352265D01*
X126111412Y-111323202D01*
X126094800Y-111261204D01*
X126094800Y-102586994D01*
X126096426Y-102578818D01*
X126095510Y-102573740D01*
X126100446Y-102558609D01*
X126104239Y-102539542D01*
X126107349Y-102532033D01*
X126130788Y-102491436D01*
X126142920Y-102446154D01*
X126146031Y-102438645D01*
X126158918Y-102422651D01*
X126172909Y-102398418D01*
X129052151Y-99519178D01*
X129102672Y-99431672D01*
X129111881Y-99415722D01*
X129142800Y-99300331D01*
X129142800Y-96939890D01*
X129162485Y-96872851D01*
X129179119Y-96852209D01*
X135571709Y-90459619D01*
X135633032Y-90426134D01*
X135659390Y-90423300D01*
X143249706Y-90423300D01*
X143311704Y-90439912D01*
X143345264Y-90459288D01*
X143478917Y-90495100D01*
X143478919Y-90495100D01*
X143617281Y-90495100D01*
X143617283Y-90495100D01*
X143750936Y-90459288D01*
X143829400Y-90413987D01*
X143897300Y-90397514D01*
X143963327Y-90420367D01*
X144006518Y-90475288D01*
X144015400Y-90521374D01*
X144015400Y-90820970D01*
X144015400Y-90913680D01*
X144035400Y-90988323D01*
X144039396Y-91003233D01*
X144039397Y-91003236D01*
X144083673Y-91079922D01*
X144085750Y-91083519D01*
X144085752Y-91083521D01*
X144937681Y-91935450D01*
X144971166Y-91996773D01*
X144974000Y-92023131D01*
X144974000Y-92287500D01*
X144954315Y-92354539D01*
X144901511Y-92400294D01*
X144850000Y-92411500D01*
X137659745Y-92411500D01*
X137570194Y-92435495D01*
X137560774Y-92440934D01*
X137560773Y-92440935D01*
X137489906Y-92481849D01*
X137489903Y-92481851D01*
X133324975Y-96646781D01*
X133263652Y-96680266D01*
X133237294Y-96683100D01*
X133191917Y-96683100D01*
X133058264Y-96718912D01*
X133058261Y-96718913D01*
X132938438Y-96788092D01*
X132938433Y-96788096D01*
X132840596Y-96885933D01*
X132840592Y-96885938D01*
X132771413Y-97005761D01*
X132771412Y-97005764D01*
X132735600Y-97139417D01*
X132735600Y-97184793D01*
X132715915Y-97251832D01*
X132699281Y-97272474D01*
X131709352Y-98262403D01*
X131709350Y-98262406D01*
X131662994Y-98342695D01*
X131662994Y-98342698D01*
X131639000Y-98432245D01*
X131639000Y-117990245D01*
X131639000Y-118082955D01*
X131651741Y-118130507D01*
X131662996Y-118172508D01*
X131662997Y-118172511D01*
X131707273Y-118249197D01*
X131709350Y-118252794D01*
X136981906Y-123525350D01*
X137022050Y-123548527D01*
X137062188Y-123571702D01*
X137062189Y-123571702D01*
X137062194Y-123571705D01*
X137151745Y-123595700D01*
X137244455Y-123595700D01*
X146153668Y-123595700D01*
X146220707Y-123615385D01*
X146241349Y-123632019D01*
X146273435Y-123664105D01*
X146393264Y-123733288D01*
X146526917Y-123769100D01*
X146526919Y-123769100D01*
X146665281Y-123769100D01*
X146665283Y-123769100D01*
X146798936Y-123733288D01*
X146918765Y-123664105D01*
X147016605Y-123566265D01*
X147085788Y-123446436D01*
X147121600Y-123312783D01*
X147121600Y-123174417D01*
X147085788Y-123040764D01*
X147044061Y-122968490D01*
X147016607Y-122920938D01*
X147016603Y-122920933D01*
X146918766Y-122823096D01*
X146918761Y-122823092D01*
X146798938Y-122753913D01*
X146798937Y-122753912D01*
X146798936Y-122753912D01*
X146665283Y-122718100D01*
X146526917Y-122718100D01*
X146393264Y-122753912D01*
X146393261Y-122753913D01*
X146273438Y-122823092D01*
X146273433Y-122823096D01*
X146241349Y-122855181D01*
X146180026Y-122888666D01*
X146153668Y-122891500D01*
X137395306Y-122891500D01*
X137328267Y-122871815D01*
X137307625Y-122855181D01*
X132379519Y-117927075D01*
X132346034Y-117865752D01*
X132343200Y-117839394D01*
X132343200Y-110865027D01*
X135100934Y-110865027D01*
X135110295Y-111419184D01*
X135110295Y-111419187D01*
X135157048Y-111971454D01*
X135157049Y-111971465D01*
X135240975Y-112519308D01*
X135361698Y-113060254D01*
X135361700Y-113060263D01*
X135518665Y-113591810D01*
X135518667Y-113591817D01*
X135711151Y-114111536D01*
X135711152Y-114111540D01*
X135711157Y-114111551D01*
X135938298Y-114617115D01*
X136199052Y-115106192D01*
X136492229Y-115576549D01*
X136816485Y-116026035D01*
X136816489Y-116026040D01*
X136816492Y-116026045D01*
X136930906Y-116163968D01*
X137170356Y-116452617D01*
X137208239Y-116492470D01*
X137552214Y-116854331D01*
X137960300Y-117229332D01*
X137960306Y-117229337D01*
X137960319Y-117229349D01*
X138392811Y-117575960D01*
X138847716Y-117892583D01*
X139190610Y-118098351D01*
X139322959Y-118177773D01*
X139816367Y-118430228D01*
X139875037Y-118455405D01*
X140325699Y-118648799D01*
X140848621Y-118832485D01*
X141382751Y-118980450D01*
X141925652Y-119092019D01*
X141925661Y-119092020D01*
X141925665Y-119092021D01*
X142033549Y-119106687D01*
X142474846Y-119166682D01*
X142853548Y-119192306D01*
X143027809Y-119204098D01*
X143027823Y-119204098D01*
X143027827Y-119204099D01*
X143250626Y-119204099D01*
X143250634Y-119204100D01*
X143265068Y-119204100D01*
X153974372Y-119204100D01*
X153974373Y-119204100D01*
X153974377Y-119204099D01*
X153974390Y-119204099D01*
X154094551Y-119195968D01*
X154527354Y-119166683D01*
X155031692Y-119098118D01*
X155076534Y-119092022D01*
X155076535Y-119092021D01*
X155076548Y-119092020D01*
X155619449Y-118980451D01*
X156153579Y-118832486D01*
X156676501Y-118648799D01*
X157185830Y-118430229D01*
X157679241Y-118177773D01*
X158154484Y-117892583D01*
X158609389Y-117575960D01*
X159041881Y-117229349D01*
X159449986Y-116854331D01*
X159831844Y-116452618D01*
X160185710Y-116026042D01*
X160509971Y-115576550D01*
X160803148Y-115106192D01*
X161063901Y-114617115D01*
X161291043Y-114111551D01*
X161428958Y-113739171D01*
X161483532Y-113591818D01*
X161483534Y-113591811D01*
X161483536Y-113591806D01*
X161631036Y-113092305D01*
X161640498Y-113060263D01*
X161640500Y-113060254D01*
X161707900Y-112758247D01*
X161761224Y-112519312D01*
X161845152Y-111971458D01*
X161891904Y-111419187D01*
X161901265Y-110865020D01*
X161873193Y-110311485D01*
X161807816Y-109761109D01*
X161705433Y-109216401D01*
X161566510Y-108679848D01*
X161446290Y-108318181D01*
X161391686Y-108153912D01*
X161391676Y-108153883D01*
X161181751Y-107640965D01*
X161181745Y-107640950D01*
X160937658Y-107143346D01*
X160933365Y-107135911D01*
X160799097Y-106903350D01*
X160799096Y-106903349D01*
X160798476Y-106902275D01*
X160779156Y-106868811D01*
X160779155Y-106868810D01*
X155582997Y-97868811D01*
X155582996Y-97868810D01*
X155578933Y-97861772D01*
X155578933Y-97861771D01*
X155578931Y-97861769D01*
X155464391Y-97663378D01*
X155464378Y-97663357D01*
X155464377Y-97663355D01*
X155155482Y-97203167D01*
X155002681Y-97005764D01*
X154816233Y-96764893D01*
X154816225Y-96764883D01*
X154448160Y-96350509D01*
X154448153Y-96350502D01*
X154052946Y-95961915D01*
X153632408Y-95600895D01*
X153188457Y-95269089D01*
X152938585Y-95107419D01*
X152723116Y-94968008D01*
X152723099Y-94967998D01*
X152238516Y-94699033D01*
X151736875Y-94463393D01*
X151736861Y-94463387D01*
X151736859Y-94463386D01*
X151736844Y-94463380D01*
X151220444Y-94262144D01*
X151220436Y-94262142D01*
X150691630Y-94096227D01*
X150691579Y-94096213D01*
X150152806Y-93966384D01*
X150152782Y-93966379D01*
X149606444Y-93873213D01*
X149055026Y-93817139D01*
X149055012Y-93817138D01*
X148501107Y-93798421D01*
X148501091Y-93798421D01*
X147947186Y-93817138D01*
X147947172Y-93817139D01*
X147395757Y-93873213D01*
X147395751Y-93873213D01*
X146849415Y-93966380D01*
X146849391Y-93966385D01*
X146310619Y-94096214D01*
X146310568Y-94096228D01*
X145781761Y-94262143D01*
X145781753Y-94262145D01*
X145265353Y-94463381D01*
X145265322Y-94463394D01*
X144763699Y-94699025D01*
X144763689Y-94699031D01*
X144279084Y-94968009D01*
X144279062Y-94968022D01*
X143813739Y-95269090D01*
X143813733Y-95269094D01*
X143369793Y-95600893D01*
X143369792Y-95600894D01*
X142949266Y-95961903D01*
X142949254Y-95961914D01*
X142554039Y-96350510D01*
X142185973Y-96764884D01*
X142185965Y-96764894D01*
X141846723Y-97203159D01*
X141537820Y-97663358D01*
X141537815Y-97663366D01*
X141399261Y-97903349D01*
X141399261Y-97903351D01*
X141393817Y-97912782D01*
X141393585Y-97913183D01*
X141393584Y-97913184D01*
X136214885Y-106882940D01*
X136214881Y-106882948D01*
X136210537Y-106890475D01*
X136203104Y-106903349D01*
X136203103Y-106903350D01*
X136064551Y-107143328D01*
X136064543Y-107143344D01*
X136064542Y-107143346D01*
X135831772Y-107617880D01*
X135820448Y-107640965D01*
X135610523Y-108153883D01*
X135610513Y-108153912D01*
X135435690Y-108679846D01*
X135296767Y-109216399D01*
X135194384Y-109761106D01*
X135194383Y-109761113D01*
X135129008Y-110311475D01*
X135129006Y-110311499D01*
X135100935Y-110865020D01*
X135100934Y-110865027D01*
X132343200Y-110865027D01*
X132343200Y-98675806D01*
X132362885Y-98608767D01*
X132379519Y-98588125D01*
X133197226Y-97770419D01*
X133258549Y-97736934D01*
X133284907Y-97734100D01*
X133330281Y-97734100D01*
X133330283Y-97734100D01*
X133463936Y-97698288D01*
X133583765Y-97629105D01*
X133681605Y-97531265D01*
X133750788Y-97411436D01*
X133786600Y-97277783D01*
X133786600Y-97232406D01*
X133806285Y-97165367D01*
X133822919Y-97144725D01*
X137815626Y-93152019D01*
X137876949Y-93118534D01*
X137903307Y-93115700D01*
X144883668Y-93115700D01*
X144950707Y-93135385D01*
X144971349Y-93152019D01*
X145003435Y-93184105D01*
X145123264Y-93253288D01*
X145256917Y-93289100D01*
X145256919Y-93289100D01*
X145395281Y-93289100D01*
X145395283Y-93289100D01*
X145528936Y-93253288D01*
X145648765Y-93184105D01*
X145680851Y-93152019D01*
X145742174Y-93118534D01*
X145768532Y-93115700D01*
X150340994Y-93115700D01*
X150408033Y-93135385D01*
X150428675Y-93152019D01*
X150851006Y-93574350D01*
X150891150Y-93597527D01*
X150931288Y-93620702D01*
X150931289Y-93620702D01*
X150931294Y-93620705D01*
X151020845Y-93644700D01*
X157722894Y-93644700D01*
X157789933Y-93664385D01*
X157810575Y-93681019D01*
X161274281Y-97144725D01*
X161307766Y-97206048D01*
X161310600Y-97232406D01*
X161310600Y-97277783D01*
X161329137Y-97346962D01*
X161346412Y-97411435D01*
X161346413Y-97411438D01*
X161415592Y-97531261D01*
X161415594Y-97531264D01*
X161415595Y-97531265D01*
X161513435Y-97629105D01*
X161513436Y-97629106D01*
X161513438Y-97629107D01*
X161567413Y-97660269D01*
X161633264Y-97698288D01*
X161766917Y-97734100D01*
X161766919Y-97734100D01*
X161905281Y-97734100D01*
X161905283Y-97734100D01*
X162038936Y-97698288D01*
X162158765Y-97629105D01*
X162256605Y-97531265D01*
X162325788Y-97411436D01*
X162361600Y-97277783D01*
X162361600Y-97139417D01*
X162325788Y-97005764D01*
X162256605Y-96885935D01*
X162158765Y-96788095D01*
X162158764Y-96788094D01*
X162158761Y-96788092D01*
X162038938Y-96718913D01*
X162038937Y-96718912D01*
X162038936Y-96718912D01*
X161905283Y-96683100D01*
X161905282Y-96683100D01*
X161859907Y-96683100D01*
X161792868Y-96663415D01*
X161772226Y-96646781D01*
X158136296Y-93010852D01*
X158136294Y-93010850D01*
X158132697Y-93008773D01*
X158056011Y-92964497D01*
X158056008Y-92964496D01*
X158056007Y-92964495D01*
X158056006Y-92964495D01*
X157966455Y-92940500D01*
X157966454Y-92940500D01*
X152325600Y-92940500D01*
X152258561Y-92920815D01*
X152212806Y-92868011D01*
X152201600Y-92816500D01*
X152201600Y-92673419D01*
X152201600Y-92673417D01*
X152165788Y-92539764D01*
X152165787Y-92539763D01*
X152164563Y-92535193D01*
X152166226Y-92465343D01*
X152205389Y-92407481D01*
X152269617Y-92379977D01*
X152284338Y-92379100D01*
X158146767Y-92379100D01*
X158213806Y-92398785D01*
X158234448Y-92415419D01*
X168348481Y-102529452D01*
X168368187Y-102555133D01*
X168400595Y-102611265D01*
X168498435Y-102709105D01*
X168618264Y-102778288D01*
X168751917Y-102814100D01*
X168751919Y-102814100D01*
X168890280Y-102814100D01*
X168890283Y-102814100D01*
X169023936Y-102778288D01*
X169023939Y-102778286D01*
X169030206Y-102776607D01*
X169100056Y-102778270D01*
X169157919Y-102817432D01*
X169185423Y-102881661D01*
X169186300Y-102896382D01*
X169186300Y-104728817D01*
X169166615Y-104795856D01*
X169113811Y-104841611D01*
X169044653Y-104851555D01*
X169030207Y-104848592D01*
X168956369Y-104828807D01*
X168890283Y-104811100D01*
X168751917Y-104811100D01*
X168618264Y-104846912D01*
X168618261Y-104846913D01*
X168498438Y-104916092D01*
X168498433Y-104916096D01*
X168466349Y-104948181D01*
X168405026Y-104981666D01*
X168378668Y-104984500D01*
X166859306Y-104984500D01*
X166792267Y-104964815D01*
X166771625Y-104948181D01*
X157187181Y-95363737D01*
X157153696Y-95302414D01*
X157154850Y-95254012D01*
X157153539Y-95253840D01*
X157154600Y-95245782D01*
X157154600Y-95107419D01*
X157154600Y-95107417D01*
X157118788Y-94973764D01*
X157049605Y-94853935D01*
X156951765Y-94756095D01*
X156951764Y-94756094D01*
X156951761Y-94756092D01*
X156831938Y-94686913D01*
X156831937Y-94686912D01*
X156831936Y-94686912D01*
X156698283Y-94651100D01*
X156559917Y-94651100D01*
X156426264Y-94686912D01*
X156426261Y-94686913D01*
X156306438Y-94756092D01*
X156306433Y-94756096D01*
X156208596Y-94853933D01*
X156208592Y-94853938D01*
X156139413Y-94973761D01*
X156139412Y-94973762D01*
X156111061Y-95079572D01*
X156074696Y-95139232D01*
X156011848Y-95169761D01*
X155942473Y-95161466D01*
X155888595Y-95116981D01*
X155871513Y-95079575D01*
X155848788Y-94994764D01*
X155779605Y-94874935D01*
X155681765Y-94777095D01*
X155681764Y-94777094D01*
X155681761Y-94777092D01*
X155561938Y-94707913D01*
X155561937Y-94707912D01*
X155561936Y-94707912D01*
X155428283Y-94672100D01*
X155289917Y-94672100D01*
X155156264Y-94707912D01*
X155156261Y-94707913D01*
X155036438Y-94777092D01*
X155036433Y-94777096D01*
X154938596Y-94874933D01*
X154938592Y-94874938D01*
X154869413Y-94994761D01*
X154869412Y-94994764D01*
X154833600Y-95128417D01*
X154833600Y-95266783D01*
X154846015Y-95313114D01*
X154869412Y-95400435D01*
X154869413Y-95400438D01*
X154938592Y-95520261D01*
X154938594Y-95520264D01*
X154938595Y-95520265D01*
X155036435Y-95618105D01*
X155036436Y-95618106D01*
X155036438Y-95618107D01*
X155096349Y-95652696D01*
X155156264Y-95687288D01*
X155289917Y-95723100D01*
X155335294Y-95723100D01*
X155402333Y-95742785D01*
X155422975Y-95759419D01*
X166273681Y-106610125D01*
X166307166Y-106671448D01*
X166310000Y-106697806D01*
X166310000Y-108069168D01*
X166290315Y-108136207D01*
X166273681Y-108156849D01*
X166241596Y-108188933D01*
X166241592Y-108188938D01*
X166172413Y-108308761D01*
X166172412Y-108308764D01*
X166136600Y-108442417D01*
X166136600Y-108580783D01*
X166154698Y-108648324D01*
X166172412Y-108714435D01*
X166172413Y-108714438D01*
X166241592Y-108834261D01*
X166241594Y-108834264D01*
X166241595Y-108834265D01*
X166339435Y-108932105D01*
X166459264Y-109001288D01*
X166592917Y-109037100D01*
X166592919Y-109037100D01*
X166731281Y-109037100D01*
X166731283Y-109037100D01*
X166864936Y-109001288D01*
X166984765Y-108932105D01*
X167082605Y-108834265D01*
X167151788Y-108714436D01*
X167187600Y-108580783D01*
X167187600Y-108442417D01*
X167151788Y-108308764D01*
X167117196Y-108248849D01*
X167082607Y-108188938D01*
X167082603Y-108188933D01*
X167050519Y-108156849D01*
X167017034Y-108095526D01*
X167014200Y-108069168D01*
X167014200Y-106454247D01*
X167014200Y-106454245D01*
X166990205Y-106364695D01*
X166990205Y-106364694D01*
X166943850Y-106284406D01*
X166559825Y-105900381D01*
X166526340Y-105839058D01*
X166531324Y-105769366D01*
X166573196Y-105713433D01*
X166638660Y-105689016D01*
X166647506Y-105688700D01*
X168378668Y-105688700D01*
X168445707Y-105708385D01*
X168466349Y-105725019D01*
X168498435Y-105757105D01*
X168498436Y-105757106D01*
X168498438Y-105757107D01*
X168558349Y-105791696D01*
X168618264Y-105826288D01*
X168751917Y-105862100D01*
X168751919Y-105862100D01*
X168890280Y-105862100D01*
X168890283Y-105862100D01*
X169023936Y-105826288D01*
X169023939Y-105826286D01*
X169030206Y-105824607D01*
X169100056Y-105826270D01*
X169157919Y-105865432D01*
X169185423Y-105929661D01*
X169186300Y-105944382D01*
X169186300Y-109009231D01*
X169217219Y-109124622D01*
X169239081Y-109162489D01*
X169276949Y-109228078D01*
X172141050Y-112092178D01*
X172225522Y-112176650D01*
X172328978Y-112236381D01*
X172444369Y-112267300D01*
X175315393Y-112267300D01*
X175336638Y-112273538D01*
X175358726Y-112275118D01*
X175369509Y-112283190D01*
X175382432Y-112286985D01*
X175396930Y-112303716D01*
X175414660Y-112316989D01*
X175419367Y-112329611D01*
X175428187Y-112339789D01*
X175431338Y-112361705D01*
X175439077Y-112382454D01*
X175436214Y-112395614D01*
X175438131Y-112408947D01*
X175428931Y-112429090D01*
X175424225Y-112450727D01*
X175410956Y-112468452D01*
X175409106Y-112472503D01*
X175403074Y-112478981D01*
X175230475Y-112651581D01*
X175169152Y-112685066D01*
X175142794Y-112687900D01*
X174333645Y-112687900D01*
X174279915Y-112702297D01*
X174244093Y-112711895D01*
X174244092Y-112711896D01*
X174225122Y-112722848D01*
X174210160Y-112731487D01*
X174198571Y-112738177D01*
X174163808Y-112758247D01*
X174163803Y-112758251D01*
X169773875Y-117148181D01*
X169712552Y-117181666D01*
X169686194Y-117184500D01*
X169640817Y-117184500D01*
X169507164Y-117220312D01*
X169507161Y-117220313D01*
X169387338Y-117289492D01*
X169387333Y-117289496D01*
X169289496Y-117387333D01*
X169289492Y-117387338D01*
X169220313Y-117507161D01*
X169220312Y-117507164D01*
X169184500Y-117640817D01*
X169184500Y-117779183D01*
X169214886Y-117892583D01*
X169220312Y-117912835D01*
X169220313Y-117912838D01*
X169289492Y-118032661D01*
X169289494Y-118032664D01*
X169289495Y-118032665D01*
X169387335Y-118130505D01*
X169507164Y-118199688D01*
X169640817Y-118235500D01*
X169640819Y-118235500D01*
X169779181Y-118235500D01*
X169779183Y-118235500D01*
X169912836Y-118199688D01*
X170032665Y-118130505D01*
X170032666Y-118130503D01*
X170035600Y-118128810D01*
X170103500Y-118112337D01*
X170169527Y-118135189D01*
X170212718Y-118190111D01*
X170221600Y-118236197D01*
X170221600Y-120443266D01*
X170201915Y-120510305D01*
X170185281Y-120530947D01*
X168516747Y-122199480D01*
X168491068Y-122219185D01*
X168434938Y-122251592D01*
X168434932Y-122251597D01*
X168337097Y-122349432D01*
X168337092Y-122349438D01*
X168304685Y-122405568D01*
X168284980Y-122431247D01*
X162933448Y-127782781D01*
X162872125Y-127816266D01*
X162845767Y-127819100D01*
X160499679Y-127819100D01*
X160465300Y-127828311D01*
X160465301Y-127828312D01*
X160371371Y-127853480D01*
X160371368Y-127853481D01*
X160256333Y-127919897D01*
X160256327Y-127919901D01*
X158229747Y-129946480D01*
X158204068Y-129966185D01*
X158147938Y-129998592D01*
X158147936Y-129998594D01*
X158050094Y-130096435D01*
X158050093Y-130096437D01*
X158017686Y-130152566D01*
X157997981Y-130178245D01*
X156350604Y-131825624D01*
X156289281Y-131859109D01*
X156262923Y-131861943D01*
X148743354Y-131861943D01*
X148711261Y-131857718D01*
X148703936Y-131855755D01*
X148570283Y-131819943D01*
X148431917Y-131819943D01*
X148298264Y-131855755D01*
X148298263Y-131855755D01*
X148290939Y-131857718D01*
X148258846Y-131861943D01*
X141374277Y-131861943D01*
X141307238Y-131842258D01*
X141286596Y-131825624D01*
X139575717Y-130114745D01*
X139556011Y-130089064D01*
X139523605Y-130032935D01*
X139425765Y-129935095D01*
X139369631Y-129902686D01*
X139343950Y-129882980D01*
X138178718Y-128717747D01*
X138159011Y-128692065D01*
X138126605Y-128635935D01*
X138028765Y-128538095D01*
X138028764Y-128538094D01*
X138028761Y-128538092D01*
X137908938Y-128468913D01*
X137908937Y-128468912D01*
X137908936Y-128468912D01*
X137775283Y-128433100D01*
X137636917Y-128433100D01*
X137574311Y-128449875D01*
X137542218Y-128454100D01*
X134791433Y-128454100D01*
X134724394Y-128434415D01*
X134703752Y-128417781D01*
X128717218Y-122431247D01*
X128697511Y-122405565D01*
X128665105Y-122349435D01*
X128567265Y-122251595D01*
X128511133Y-122219187D01*
X128485452Y-122199481D01*
X128086919Y-121800948D01*
X128053434Y-121739625D01*
X128050600Y-121713267D01*
X128050600Y-119779178D01*
X128070285Y-119712139D01*
X128123089Y-119666384D01*
X128192247Y-119656440D01*
X128224204Y-119667502D01*
X128224754Y-119666177D01*
X128232257Y-119669284D01*
X128232264Y-119669288D01*
X128365917Y-119705100D01*
X128365919Y-119705100D01*
X128504281Y-119705100D01*
X128504283Y-119705100D01*
X128637936Y-119669288D01*
X128757765Y-119600105D01*
X128855605Y-119502265D01*
X128924788Y-119382436D01*
X128960600Y-119248783D01*
X128960600Y-119110417D01*
X128924788Y-118976764D01*
X128855605Y-118856935D01*
X128823519Y-118824849D01*
X128790034Y-118763526D01*
X128787200Y-118737168D01*
X128787200Y-118625246D01*
X128787200Y-118625244D01*
X128763205Y-118535694D01*
X128743151Y-118500960D01*
X128716850Y-118455404D01*
X124364982Y-114103536D01*
X124331497Y-114042213D01*
X124328663Y-114015855D01*
X124328663Y-102276418D01*
X124348348Y-102209379D01*
X124364982Y-102188737D01*
X125868286Y-100685433D01*
X127421450Y-99132269D01*
X127467805Y-99051981D01*
X127491800Y-98962430D01*
X127491800Y-98869720D01*
X127491800Y-98418814D01*
X127511485Y-98351775D01*
X127553799Y-98311427D01*
X127635765Y-98264105D01*
X127733605Y-98166265D01*
X127802788Y-98046436D01*
X127838600Y-97912783D01*
X127838600Y-97774417D01*
X127802788Y-97640764D01*
X127738475Y-97529370D01*
X127733607Y-97520938D01*
X127733603Y-97520933D01*
X127635766Y-97423096D01*
X127635761Y-97423092D01*
X127515938Y-97353913D01*
X127515937Y-97353912D01*
X127515936Y-97353912D01*
X127382283Y-97318100D01*
X127260200Y-97318100D01*
X127193161Y-97298415D01*
X127147406Y-97245611D01*
X127136200Y-97194100D01*
X127136200Y-95843332D01*
X127155885Y-95776293D01*
X127172514Y-95755656D01*
X128993454Y-93934715D01*
X129019133Y-93915012D01*
X129075265Y-93882605D01*
X129173105Y-93784765D01*
X129205512Y-93728632D01*
X129225215Y-93702954D01*
X134136952Y-88791216D01*
X134162631Y-88771513D01*
X134188822Y-88756392D01*
X134218765Y-88739105D01*
X134316605Y-88641265D01*
X134349012Y-88585132D01*
X134368715Y-88559454D01*
X135465751Y-87462419D01*
X135527074Y-87428934D01*
X135553432Y-87426100D01*
X136883516Y-87426100D01*
X136883519Y-87426100D01*
X137011830Y-87391719D01*
X137065149Y-87360935D01*
X137126870Y-87325301D01*
X138090752Y-86361419D01*
X138152075Y-86327934D01*
X138178433Y-86325100D01*
X139447218Y-86325100D01*
X139479311Y-86329325D01*
X139541917Y-86346100D01*
X139541919Y-86346100D01*
X139680281Y-86346100D01*
X139680283Y-86346100D01*
X139813936Y-86310288D01*
X139933765Y-86241105D01*
X140031605Y-86143265D01*
X140100788Y-86023436D01*
X140132518Y-85905016D01*
X140168880Y-85845360D01*
X140231727Y-85814830D01*
X140275321Y-85816908D01*
X140275436Y-85816039D01*
X140283490Y-85817099D01*
X140283492Y-85817100D01*
X140283494Y-85817100D01*
X140421856Y-85817100D01*
X140421858Y-85817100D01*
X140555511Y-85781288D01*
X140675340Y-85712105D01*
X140773180Y-85614265D01*
X140842363Y-85494436D01*
X140878175Y-85360783D01*
X140878175Y-85222417D01*
X140869540Y-85190190D01*
X140871203Y-85120344D01*
X140910365Y-85062482D01*
X140974593Y-85034977D01*
X140989315Y-85034100D01*
X141624828Y-85034100D01*
X141624830Y-85034100D01*
X141714381Y-85010105D01*
X141794669Y-84963750D01*
X143803719Y-82954700D01*
X143865042Y-82921215D01*
X143934734Y-82926199D01*
G37*
%TD.AperFunction*%
%TA.AperFunction,Conductor*%
G36*
X156562806Y-84397785D02*
G01*
X156583448Y-84414419D01*
X157912730Y-85743701D01*
X157960598Y-85771337D01*
X158027770Y-85810119D01*
X158156081Y-85844500D01*
X158156082Y-85844500D01*
X158288919Y-85844500D01*
X161137167Y-85844500D01*
X161204206Y-85864185D01*
X161224848Y-85880819D01*
X163268481Y-87924452D01*
X163288187Y-87950133D01*
X163320595Y-88006265D01*
X163418435Y-88104105D01*
X163474567Y-88136512D01*
X163500247Y-88156218D01*
X169550281Y-94206252D01*
X169583766Y-94267575D01*
X169586600Y-94293933D01*
X169586600Y-95564100D01*
X169584049Y-95572785D01*
X169585338Y-95581747D01*
X169574359Y-95605787D01*
X169566915Y-95631139D01*
X169560074Y-95637066D01*
X169556313Y-95645303D01*
X169534078Y-95659592D01*
X169514111Y-95676894D01*
X169503596Y-95679181D01*
X169497535Y-95683077D01*
X169462600Y-95688100D01*
X169238982Y-95688100D01*
X169206889Y-95683875D01*
X169180835Y-95676894D01*
X169144283Y-95667100D01*
X169005917Y-95667100D01*
X168872264Y-95702912D01*
X168872261Y-95702913D01*
X168752438Y-95772092D01*
X168752433Y-95772096D01*
X168654596Y-95869933D01*
X168654592Y-95869938D01*
X168585413Y-95989761D01*
X168585412Y-95989764D01*
X168549600Y-96123417D01*
X168549600Y-96261783D01*
X168573373Y-96350503D01*
X168585412Y-96395435D01*
X168585413Y-96395438D01*
X168654592Y-96515261D01*
X168654594Y-96515264D01*
X168654595Y-96515265D01*
X168752435Y-96613105D01*
X168872264Y-96682288D01*
X169005917Y-96718100D01*
X169005919Y-96718100D01*
X169144281Y-96718100D01*
X169144283Y-96718100D01*
X169206889Y-96701325D01*
X169238982Y-96697100D01*
X169830767Y-96697100D01*
X169897806Y-96716785D01*
X169918448Y-96733419D01*
X171256603Y-98071574D01*
X171288696Y-98127159D01*
X171294422Y-98148527D01*
X171294425Y-98148535D01*
X171363604Y-98268358D01*
X171363608Y-98268363D01*
X171455281Y-98360036D01*
X171488766Y-98421359D01*
X171491600Y-98447717D01*
X171491600Y-106569718D01*
X171487374Y-106601811D01*
X171470600Y-106664417D01*
X171470600Y-106802783D01*
X171501384Y-106917669D01*
X171506412Y-106936435D01*
X171506413Y-106936438D01*
X171575592Y-107056261D01*
X171575594Y-107056264D01*
X171575595Y-107056265D01*
X171673435Y-107154105D01*
X171673436Y-107154106D01*
X171673438Y-107154107D01*
X171686647Y-107161733D01*
X171793264Y-107223288D01*
X171926917Y-107259100D01*
X171926919Y-107259100D01*
X172065281Y-107259100D01*
X172065283Y-107259100D01*
X172127889Y-107242325D01*
X172159982Y-107238100D01*
X174910767Y-107238100D01*
X174977806Y-107257785D01*
X174998448Y-107274419D01*
X176281281Y-108557252D01*
X176314766Y-108618575D01*
X176317600Y-108644933D01*
X176317600Y-110763900D01*
X176297915Y-110830939D01*
X176245111Y-110876694D01*
X176193600Y-110887900D01*
X172937206Y-110887900D01*
X172870167Y-110868215D01*
X172849525Y-110851581D01*
X170733519Y-108735575D01*
X170700034Y-108674252D01*
X170697200Y-108647894D01*
X170697200Y-98921032D01*
X170716885Y-98853993D01*
X170733519Y-98833351D01*
X170765605Y-98801265D01*
X170834788Y-98681436D01*
X170870600Y-98547783D01*
X170870600Y-98409417D01*
X170834788Y-98275764D01*
X170765605Y-98155935D01*
X170667765Y-98058095D01*
X170667764Y-98058094D01*
X170667761Y-98058092D01*
X170547938Y-97988913D01*
X170547937Y-97988912D01*
X170547936Y-97988912D01*
X170414283Y-97953100D01*
X170275917Y-97953100D01*
X170142264Y-97988912D01*
X170142261Y-97988913D01*
X170022438Y-98058092D01*
X170022433Y-98058096D01*
X169924596Y-98155933D01*
X169924592Y-98155938D01*
X169855413Y-98275761D01*
X169855412Y-98275764D01*
X169819600Y-98409417D01*
X169819600Y-98547783D01*
X169853904Y-98675806D01*
X169855412Y-98681435D01*
X169855413Y-98681438D01*
X169924592Y-98801261D01*
X169924596Y-98801266D01*
X169956681Y-98833351D01*
X169971384Y-98860278D01*
X169987977Y-98886097D01*
X169988868Y-98892297D01*
X169990166Y-98894674D01*
X169993000Y-98921032D01*
X169993000Y-99122259D01*
X169973315Y-99189298D01*
X169920511Y-99235053D01*
X169851353Y-99244997D01*
X169787797Y-99215972D01*
X169781319Y-99209940D01*
X156240930Y-85669551D01*
X156240929Y-85669550D01*
X156240928Y-85669549D01*
X156196990Y-85644181D01*
X156175340Y-85631681D01*
X156175339Y-85631681D01*
X156137472Y-85609819D01*
X156022081Y-85578900D01*
X156022079Y-85578900D01*
X153493932Y-85578900D01*
X153426893Y-85559215D01*
X153381138Y-85506411D01*
X153371194Y-85437253D01*
X153400219Y-85373697D01*
X153406251Y-85367219D01*
X153826892Y-84946579D01*
X154359052Y-84414419D01*
X154420375Y-84380934D01*
X154446733Y-84378100D01*
X156495767Y-84378100D01*
X156562806Y-84397785D01*
G37*
%TD.AperFunction*%
%TA.AperFunction,Conductor*%
G36*
X152798303Y-81100175D02*
G01*
X152804781Y-81106207D01*
X154855993Y-83157419D01*
X154889478Y-83218742D01*
X154884494Y-83288434D01*
X154842622Y-83344367D01*
X154777158Y-83368784D01*
X154768312Y-83369100D01*
X154119979Y-83369100D01*
X154085600Y-83378311D01*
X154085601Y-83378312D01*
X153991671Y-83403480D01*
X153991668Y-83403481D01*
X153876633Y-83469897D01*
X153876627Y-83469901D01*
X150002400Y-87344128D01*
X150002396Y-87344133D01*
X149992696Y-87360936D01*
X149984411Y-87375287D01*
X149935981Y-87459170D01*
X149901600Y-87587481D01*
X149901600Y-87587483D01*
X149901600Y-88154718D01*
X149897374Y-88186811D01*
X149880600Y-88249417D01*
X149880600Y-88387783D01*
X149909686Y-88496332D01*
X149916412Y-88521435D01*
X149916413Y-88521438D01*
X149985592Y-88641261D01*
X149985594Y-88641264D01*
X149985595Y-88641265D01*
X150083435Y-88739105D01*
X150203264Y-88808288D01*
X150336917Y-88844100D01*
X150336919Y-88844100D01*
X150475281Y-88844100D01*
X150475283Y-88844100D01*
X150608936Y-88808288D01*
X150728765Y-88739105D01*
X150826605Y-88641265D01*
X150895788Y-88521436D01*
X150931600Y-88387783D01*
X150931600Y-88249417D01*
X150914825Y-88186811D01*
X150910600Y-88154718D01*
X150910600Y-87914232D01*
X150930285Y-87847193D01*
X150946914Y-87826556D01*
X152452535Y-86320934D01*
X152513856Y-86287451D01*
X152583548Y-86292435D01*
X152639481Y-86334307D01*
X152647599Y-86346613D01*
X152652592Y-86355261D01*
X152652594Y-86355264D01*
X152652595Y-86355265D01*
X152750435Y-86453105D01*
X152870264Y-86522288D01*
X153003917Y-86558100D01*
X153003919Y-86558100D01*
X153142281Y-86558100D01*
X153142283Y-86558100D01*
X153275936Y-86522288D01*
X153309495Y-86502912D01*
X153371494Y-86486300D01*
X155723059Y-86486300D01*
X155790098Y-86505985D01*
X155810740Y-86522619D01*
X169149981Y-99861859D01*
X169183466Y-99923182D01*
X169186300Y-99949540D01*
X169186300Y-101640967D01*
X169166615Y-101708006D01*
X169113811Y-101753761D01*
X169044653Y-101763705D01*
X168981097Y-101734680D01*
X168974619Y-101728648D01*
X158716872Y-91470901D01*
X158716870Y-91470899D01*
X158691420Y-91456205D01*
X158643938Y-91428791D01*
X158643937Y-91428791D01*
X158601830Y-91404481D01*
X158601831Y-91404481D01*
X158569752Y-91395885D01*
X158473519Y-91370100D01*
X158473516Y-91370100D01*
X146871383Y-91370100D01*
X146804344Y-91350415D01*
X146783702Y-91333781D01*
X145771919Y-90321998D01*
X145738434Y-90260675D01*
X145735600Y-90234317D01*
X145735600Y-84283932D01*
X145755285Y-84216893D01*
X145771915Y-84196255D01*
X146263875Y-83704294D01*
X146325196Y-83670811D01*
X146375747Y-83670360D01*
X146410132Y-83677200D01*
X146410133Y-83677200D01*
X146592068Y-83677200D01*
X146592069Y-83677199D01*
X146770504Y-83641707D01*
X146938589Y-83572084D01*
X147089861Y-83471007D01*
X147218507Y-83342361D01*
X147319584Y-83191089D01*
X147386539Y-83029444D01*
X147430380Y-82975041D01*
X147496674Y-82952976D01*
X147564373Y-82970255D01*
X147611984Y-83021392D01*
X147615661Y-83029445D01*
X147682612Y-83191082D01*
X147682619Y-83191095D01*
X147783692Y-83342360D01*
X147783695Y-83342364D01*
X147912335Y-83471004D01*
X147912339Y-83471007D01*
X148063604Y-83572080D01*
X148063617Y-83572087D01*
X148203300Y-83629945D01*
X148231696Y-83641707D01*
X148338664Y-83662984D01*
X148410128Y-83677199D01*
X148410132Y-83677200D01*
X148410133Y-83677200D01*
X148592068Y-83677200D01*
X148592069Y-83677199D01*
X148770504Y-83641707D01*
X148780862Y-83637416D01*
X148850326Y-83629945D01*
X148912807Y-83661217D01*
X148948463Y-83721304D01*
X148945972Y-83791129D01*
X148915997Y-83839657D01*
X147533552Y-85222103D01*
X147533550Y-85222106D01*
X147487194Y-85302395D01*
X147487194Y-85302398D01*
X147463200Y-85391945D01*
X147463200Y-88717594D01*
X147443515Y-88784633D01*
X147426881Y-88805275D01*
X146695352Y-89536803D01*
X146695346Y-89536812D01*
X146648997Y-89617088D01*
X146648996Y-89617089D01*
X146629186Y-89691023D01*
X146625000Y-89706645D01*
X146625000Y-89945568D01*
X146605315Y-90012607D01*
X146588681Y-90033249D01*
X146556596Y-90065333D01*
X146556592Y-90065338D01*
X146487413Y-90185161D01*
X146487412Y-90185164D01*
X146451600Y-90318817D01*
X146451600Y-90457183D01*
X146452164Y-90459286D01*
X146487412Y-90590835D01*
X146487413Y-90590838D01*
X146556592Y-90710661D01*
X146556594Y-90710664D01*
X146556595Y-90710665D01*
X146654435Y-90808505D01*
X146774264Y-90877688D01*
X146907917Y-90913500D01*
X146907919Y-90913500D01*
X147046281Y-90913500D01*
X147046283Y-90913500D01*
X147179936Y-90877688D01*
X147299765Y-90808505D01*
X147299772Y-90808497D01*
X147301536Y-90807145D01*
X147303306Y-90806460D01*
X147306804Y-90804441D01*
X147307118Y-90804986D01*
X147366702Y-90781945D01*
X147435149Y-90795977D01*
X147452522Y-90807142D01*
X147454295Y-90808502D01*
X147454298Y-90808505D01*
X147574127Y-90877688D01*
X147707780Y-90913500D01*
X147707782Y-90913500D01*
X147846144Y-90913500D01*
X147846146Y-90913500D01*
X147979799Y-90877688D01*
X148077031Y-90821550D01*
X148144931Y-90805078D01*
X148201031Y-90821551D01*
X148298264Y-90877688D01*
X148431917Y-90913500D01*
X148431919Y-90913500D01*
X148570281Y-90913500D01*
X148570283Y-90913500D01*
X148703936Y-90877688D01*
X148820100Y-90810621D01*
X148888000Y-90794148D01*
X148944100Y-90810621D01*
X149060264Y-90877688D01*
X149193917Y-90913500D01*
X149193919Y-90913500D01*
X149332281Y-90913500D01*
X149332283Y-90913500D01*
X149465936Y-90877688D01*
X149585765Y-90808505D01*
X149683605Y-90710665D01*
X149752788Y-90590836D01*
X149788600Y-90457183D01*
X149788600Y-90318817D01*
X149752788Y-90185164D01*
X149683605Y-90065335D01*
X149651519Y-90033249D01*
X149618034Y-89971926D01*
X149615200Y-89945568D01*
X149615200Y-89288247D01*
X149615200Y-89288245D01*
X149591205Y-89198695D01*
X149553262Y-89132976D01*
X149544850Y-89118405D01*
X149544848Y-89118403D01*
X149544847Y-89118401D01*
X149270519Y-88844073D01*
X149237034Y-88782750D01*
X149234200Y-88756392D01*
X149234200Y-86077406D01*
X149253885Y-86010367D01*
X149270519Y-85989725D01*
X150124325Y-85135919D01*
X150185648Y-85102434D01*
X150212006Y-85099600D01*
X151373371Y-85099600D01*
X151373373Y-85099600D01*
X151462924Y-85075605D01*
X151543212Y-85029250D01*
X152522750Y-84049714D01*
X152569105Y-83969425D01*
X152593100Y-83879874D01*
X152593100Y-83787164D01*
X152593100Y-81193888D01*
X152612785Y-81126849D01*
X152665589Y-81081094D01*
X152734747Y-81071150D01*
X152798303Y-81100175D01*
G37*
%TD.AperFunction*%
%TD*%
M02*
