%TF.GenerationSoftware,KiCad,Pcbnew,10.0.3*%
%TF.CreationDate,2026-06-14T02:41:54+03:00*%
%TF.ProjectId,mcu_adapter,6d63755f-6164-4617-9074-65722e6b6963,rev?*%
%TF.SameCoordinates,Original*%
%TF.FileFunction,Copper,L1,Top*%
%TF.FilePolarity,Positive*%
%FSLAX46Y46*%
G04 Gerber Fmt 4.6, Leading zero omitted, Abs format (unit mm)*
G04 Created by KiCad (PCBNEW 10.0.3) date 2026-06-14 02:41:54*
%MOMM*%
%LPD*%
G01*
G04 APERTURE LIST*
%TA.AperFunction,ComponentPad*%
%ADD10C,1.700000*%
%TD*%
%TA.AperFunction,ComponentPad*%
%ADD11R,1.700000X1.700000*%
%TD*%
%TA.AperFunction,ComponentPad*%
%ADD12C,1.346200*%
%TD*%
%TA.AperFunction,ViaPad*%
%ADD13C,0.550000*%
%TD*%
%TA.AperFunction,Conductor*%
%ADD14C,0.203200*%
%TD*%
%TA.AperFunction,Conductor*%
%ADD15C,0.406400*%
%TD*%
%TA.AperFunction,Conductor*%
%ADD16C,0.508000*%
%TD*%
G04 APERTURE END LIST*
D10*
%TO.P,U1,14*%
%TO.N,5V*%
X156121100Y-97320100D03*
%TO.P,U1,13*%
%TO.N,GND*%
X156121100Y-99860100D03*
%TO.P,U1,12*%
%TO.N,3V3*%
X156121100Y-102400100D03*
%TO.P,U1,11*%
%TO.N,D10*%
X156121100Y-104940100D03*
%TO.P,U1,10*%
%TO.N,D9*%
X156121100Y-107480100D03*
%TO.P,U1,9*%
%TO.N,D8*%
X156121100Y-110020100D03*
%TO.P,U1,8*%
%TO.N,N/C*%
X156121100Y-112560100D03*
%TO.P,U1,7*%
X140881100Y-112560100D03*
%TO.P,U1,6*%
%TO.N,SCL*%
X140881100Y-110020100D03*
%TO.P,U1,5*%
%TO.N,SDA*%
X140881100Y-107480100D03*
%TO.P,U1,4*%
%TO.N,D3*%
X140881100Y-104940100D03*
%TO.P,U1,3*%
%TO.N,D2*%
X140881100Y-102400100D03*
%TO.P,U1,2*%
%TO.N,D1*%
X140881100Y-99860100D03*
D11*
%TO.P,U1,1*%
%TO.N,D0*%
X140881100Y-97320100D03*
%TD*%
D12*
%TO.P,U$1,6*%
%TO.N,D0*%
X146501100Y-99100100D03*
%TO.P,U$1,5*%
%TO.N,D1*%
X146501100Y-101100100D03*
%TO.P,U$1,4*%
%TO.N,D2*%
X148501100Y-99100100D03*
%TO.P,U$1,3*%
%TO.N,D3*%
X148501100Y-101100100D03*
%TO.P,U$1,2*%
%TO.N,SDA*%
X150501100Y-99100100D03*
%TO.P,U$1,1*%
%TO.N,SCL*%
X150501100Y-101100100D03*
%TD*%
%TO.P,U$2,6*%
%TO.N,D8*%
X146501100Y-103350100D03*
%TO.P,U$2,5*%
%TO.N,D9*%
X146501100Y-105350100D03*
%TO.P,U$2,4*%
%TO.N,D10*%
X148501100Y-103350100D03*
%TO.P,U$2,3*%
%TO.N,3V3*%
X148501100Y-105350100D03*
%TO.P,U$2,2*%
%TO.N,GND*%
X150501100Y-103350100D03*
%TO.P,U$2,1*%
%TO.N,5V*%
X150501100Y-105350100D03*
%TD*%
D13*
%TO.N,GND*%
X158026100Y-104305100D03*
X158026100Y-99860100D03*
X138976100Y-104305100D03*
X138976100Y-99860100D03*
X154216100Y-114465100D03*
X152311100Y-114465100D03*
X150406100Y-114465100D03*
X148501100Y-114465100D03*
X146596100Y-114465100D03*
X144691100Y-114465100D03*
X142786100Y-114465100D03*
X154216100Y-96050100D03*
X152311100Y-96050100D03*
X150406100Y-96050100D03*
X148501100Y-96050100D03*
X146596100Y-96050100D03*
X144691100Y-96050100D03*
X142786100Y-96050100D03*
%TD*%
%TO.N,D8*%
D14*
X145224500Y-104626700D02*
X146501100Y-103350100D01*
X145224500Y-108013500D02*
X145224500Y-104626700D01*
X147231100Y-110020100D02*
X145224500Y-108013500D01*
X156121100Y-110020100D02*
X147231100Y-110020100D01*
%TO.N,D9*%
X146501100Y-105400900D02*
X146501100Y-105350100D01*
X149215300Y-108115100D02*
X146501100Y-105400900D01*
X153479500Y-108115100D02*
X149215300Y-108115100D01*
X154114500Y-107480100D02*
X153479500Y-108115100D01*
X156121100Y-107480100D02*
X154114500Y-107480100D01*
%TO.N,3V3*%
D15*
X149996100Y-106845100D02*
X148501100Y-105350100D01*
X152311100Y-106845100D02*
X149996100Y-106845100D01*
X154216100Y-104940100D02*
X152311100Y-106845100D01*
X154216100Y-103670100D02*
X154216100Y-104940100D01*
X155486100Y-102400100D02*
X154216100Y-103670100D01*
X156121100Y-102400100D02*
X155486100Y-102400100D01*
%TO.N,5V*%
D16*
X150530100Y-105321100D02*
X150501100Y-105350100D01*
X151803100Y-105321100D02*
X150530100Y-105321100D01*
X152946100Y-104178100D02*
X151803100Y-105321100D01*
X152946100Y-99225100D02*
X152946100Y-104178100D01*
X154851100Y-97320100D02*
X152946100Y-99225100D01*
X156121100Y-97320100D02*
X154851100Y-97320100D01*
%TO.N,D3*%
D14*
X147647119Y-102281200D02*
X143540000Y-102281200D01*
X143540000Y-102281200D02*
X140881100Y-104940100D01*
X148501100Y-101427219D02*
X147647119Y-102281200D01*
X148501100Y-101100100D02*
X148501100Y-101427219D01*
%TO.N,D1*%
X145261100Y-99860100D02*
X146501100Y-101100100D01*
X140881100Y-99860100D02*
X145261100Y-99860100D01*
%TO.N,D0*%
X144721100Y-97320100D02*
X146501100Y-99100100D01*
X140881100Y-97320100D02*
X144721100Y-97320100D01*
%TD*%
%TA.AperFunction,Conductor*%
%TO.N,GND*%
G36*
X156406305Y-94602879D02*
G01*
X156666249Y-94619916D01*
X156671059Y-94620549D01*
X156925360Y-94671134D01*
X156930025Y-94672384D01*
X157175549Y-94755728D01*
X157180030Y-94757583D01*
X157412570Y-94872260D01*
X157416763Y-94874680D01*
X157632360Y-95018736D01*
X157636198Y-95021682D01*
X157831140Y-95192642D01*
X157834557Y-95196059D01*
X157949671Y-95327321D01*
X158005512Y-95390995D01*
X158008464Y-95394842D01*
X158152516Y-95610431D01*
X158154942Y-95614634D01*
X158269615Y-95847168D01*
X158271472Y-95851652D01*
X158354812Y-96097163D01*
X158356068Y-96101850D01*
X158406649Y-96356139D01*
X158407283Y-96360950D01*
X158424321Y-96620893D01*
X158424400Y-96623320D01*
X158424400Y-97075179D01*
X158424400Y-97100100D01*
X158424400Y-97236214D01*
X158449066Y-97423570D01*
X158459933Y-97506111D01*
X158459934Y-97506117D01*
X158530388Y-97769062D01*
X158634569Y-98020577D01*
X158770678Y-98256323D01*
X158770690Y-98256341D01*
X158936397Y-98472294D01*
X158936400Y-98472297D01*
X158936404Y-98472302D01*
X159128898Y-98664796D01*
X159128902Y-98664799D01*
X159128905Y-98664802D01*
X159344858Y-98830509D01*
X159344867Y-98830515D01*
X159344871Y-98830518D01*
X159344874Y-98830520D01*
X159344876Y-98830521D01*
X159580622Y-98966630D01*
X159580624Y-98966631D01*
X159580628Y-98966633D01*
X159832134Y-99070810D01*
X159832135Y-99070810D01*
X159832137Y-99070811D01*
X159892363Y-99086948D01*
X160095087Y-99141267D01*
X160364986Y-99176800D01*
X160476179Y-99176800D01*
X160500053Y-99176800D01*
X160502132Y-99176857D01*
X160826331Y-99195064D01*
X160830458Y-99195529D01*
X161149554Y-99249746D01*
X161153584Y-99250666D01*
X161464611Y-99340271D01*
X161468519Y-99341639D01*
X161767556Y-99465504D01*
X161771287Y-99467301D01*
X161972644Y-99578587D01*
X162054567Y-99623864D01*
X162058090Y-99626078D01*
X162322047Y-99813365D01*
X162325300Y-99815959D01*
X162566631Y-100031627D01*
X162569572Y-100034568D01*
X162785240Y-100275899D01*
X162787834Y-100279152D01*
X162975121Y-100543109D01*
X162977335Y-100546632D01*
X163133894Y-100829904D01*
X163135699Y-100833652D01*
X163259557Y-101132671D01*
X163260931Y-101136598D01*
X163350530Y-101447602D01*
X163351456Y-101451659D01*
X163405669Y-101770738D01*
X163406135Y-101774872D01*
X163424283Y-102098020D01*
X163424283Y-102102180D01*
X163406135Y-102425327D01*
X163405669Y-102429461D01*
X163351456Y-102748540D01*
X163350530Y-102752597D01*
X163260931Y-103063601D01*
X163259557Y-103067528D01*
X163135699Y-103366547D01*
X163133894Y-103370295D01*
X162977335Y-103653567D01*
X162975121Y-103657090D01*
X162787834Y-103921047D01*
X162785240Y-103924300D01*
X162569572Y-104165631D01*
X162566631Y-104168572D01*
X162325300Y-104384240D01*
X162322047Y-104386834D01*
X162058090Y-104574121D01*
X162054567Y-104576335D01*
X161771295Y-104732894D01*
X161767547Y-104734699D01*
X161468528Y-104858557D01*
X161464601Y-104859931D01*
X161153597Y-104949530D01*
X161149540Y-104950456D01*
X160830461Y-105004669D01*
X160826327Y-105005135D01*
X160527519Y-105021915D01*
X160527245Y-105021929D01*
X160520494Y-105022257D01*
X160519282Y-105021529D01*
X160498674Y-105023321D01*
X160497958Y-105023356D01*
X160497872Y-105023325D01*
X160496152Y-105023400D01*
X160476179Y-105023400D01*
X160472312Y-105024656D01*
X160464067Y-105026330D01*
X160357341Y-105035612D01*
X160357325Y-105035615D01*
X160087956Y-105092346D01*
X159827394Y-105181133D01*
X159579429Y-105300681D01*
X159579422Y-105300685D01*
X159347675Y-105449251D01*
X159135527Y-105624664D01*
X159135521Y-105624669D01*
X158946062Y-105824380D01*
X158946060Y-105824383D01*
X158782062Y-106045464D01*
X158645894Y-106284724D01*
X158539565Y-106538637D01*
X158464618Y-106803511D01*
X158422143Y-107075501D01*
X158412762Y-107350617D01*
X158412762Y-107350626D01*
X158424260Y-107482822D01*
X158424400Y-107486037D01*
X158424400Y-113479879D01*
X158424321Y-113482306D01*
X158408104Y-113729718D01*
X158407470Y-113734529D01*
X158359339Y-113976503D01*
X158358083Y-113981190D01*
X158278780Y-114214809D01*
X158276923Y-114219293D01*
X158167804Y-114440565D01*
X158165378Y-114444768D01*
X158028305Y-114649913D01*
X158025350Y-114653763D01*
X157862682Y-114839251D01*
X157859251Y-114842682D01*
X157673763Y-115005350D01*
X157669913Y-115008305D01*
X157464768Y-115145378D01*
X157460565Y-115147804D01*
X157239293Y-115256923D01*
X157234809Y-115258780D01*
X157001190Y-115338083D01*
X156996503Y-115339339D01*
X156754529Y-115387470D01*
X156749718Y-115388104D01*
X156515301Y-115403469D01*
X156502304Y-115404321D01*
X156499879Y-115404400D01*
X140502321Y-115404400D01*
X140499895Y-115404321D01*
X140485820Y-115403398D01*
X140252481Y-115388104D01*
X140247670Y-115387470D01*
X140005696Y-115339339D01*
X140001009Y-115338083D01*
X139767390Y-115258780D01*
X139762906Y-115256923D01*
X139541634Y-115147804D01*
X139537431Y-115145378D01*
X139332283Y-115008302D01*
X139328440Y-115005353D01*
X139142941Y-114842675D01*
X139139524Y-114839258D01*
X138976844Y-114653757D01*
X138973898Y-114649919D01*
X138836818Y-114444763D01*
X138834395Y-114440565D01*
X138725276Y-114219293D01*
X138723419Y-114214809D01*
X138701442Y-114150066D01*
X138644113Y-113981179D01*
X138642863Y-113976514D01*
X138594728Y-113734528D01*
X138594095Y-113729717D01*
X138577879Y-113482305D01*
X138577800Y-113479879D01*
X138577800Y-112456629D01*
X139830600Y-112456629D01*
X139830600Y-112663570D01*
X139870968Y-112866514D01*
X139870969Y-112866516D01*
X139870970Y-112866520D01*
X139950159Y-113057698D01*
X140065123Y-113229755D01*
X140211445Y-113376077D01*
X140383502Y-113491041D01*
X140574680Y-113570230D01*
X140574684Y-113570230D01*
X140574685Y-113570231D01*
X140777629Y-113610599D01*
X140777631Y-113610599D01*
X140777635Y-113610600D01*
X140777638Y-113610600D01*
X140984562Y-113610600D01*
X140984565Y-113610600D01*
X141187520Y-113570230D01*
X141378698Y-113491041D01*
X141550755Y-113376077D01*
X141697077Y-113229755D01*
X141812041Y-113057698D01*
X141891230Y-112866520D01*
X141931600Y-112663565D01*
X141931600Y-112456635D01*
X141931599Y-112456629D01*
X155070600Y-112456629D01*
X155070600Y-112663570D01*
X155110968Y-112866514D01*
X155110969Y-112866516D01*
X155110970Y-112866520D01*
X155190159Y-113057698D01*
X155305123Y-113229755D01*
X155451445Y-113376077D01*
X155623502Y-113491041D01*
X155814680Y-113570230D01*
X155814684Y-113570230D01*
X155814685Y-113570231D01*
X156017629Y-113610599D01*
X156017631Y-113610599D01*
X156017635Y-113610600D01*
X156017638Y-113610600D01*
X156224562Y-113610600D01*
X156224565Y-113610600D01*
X156427520Y-113570230D01*
X156618698Y-113491041D01*
X156790755Y-113376077D01*
X156937077Y-113229755D01*
X157052041Y-113057698D01*
X157131230Y-112866520D01*
X157171600Y-112663565D01*
X157171600Y-112456635D01*
X157131230Y-112253680D01*
X157052041Y-112062502D01*
X156937077Y-111890445D01*
X156790755Y-111744123D01*
X156618698Y-111629159D01*
X156427520Y-111549970D01*
X156427516Y-111549969D01*
X156427514Y-111549968D01*
X156224570Y-111509600D01*
X156224565Y-111509600D01*
X156017635Y-111509600D01*
X156017629Y-111509600D01*
X155814685Y-111549968D01*
X155814683Y-111549969D01*
X155814681Y-111549969D01*
X155814680Y-111549970D01*
X155623502Y-111629159D01*
X155451445Y-111744123D01*
X155305123Y-111890445D01*
X155190159Y-112062502D01*
X155110969Y-112253683D01*
X155110968Y-112253685D01*
X155070600Y-112456629D01*
X141931599Y-112456629D01*
X141891230Y-112253680D01*
X141812041Y-112062502D01*
X141697077Y-111890445D01*
X141550755Y-111744123D01*
X141378698Y-111629159D01*
X141187520Y-111549970D01*
X141187516Y-111549969D01*
X141187514Y-111549968D01*
X140984570Y-111509600D01*
X140984565Y-111509600D01*
X140777635Y-111509600D01*
X140777629Y-111509600D01*
X140574685Y-111549968D01*
X140574683Y-111549969D01*
X140574681Y-111549969D01*
X140574680Y-111549970D01*
X140383502Y-111629159D01*
X140211445Y-111744123D01*
X140065123Y-111890445D01*
X139950159Y-112062502D01*
X139870969Y-112253683D01*
X139870968Y-112253685D01*
X139830600Y-112456629D01*
X138577800Y-112456629D01*
X138577800Y-109916629D01*
X139830600Y-109916629D01*
X139830600Y-110123570D01*
X139870968Y-110326514D01*
X139870969Y-110326516D01*
X139870970Y-110326520D01*
X139950159Y-110517698D01*
X140065123Y-110689755D01*
X140211445Y-110836077D01*
X140383502Y-110951041D01*
X140574680Y-111030230D01*
X140574684Y-111030230D01*
X140574685Y-111030231D01*
X140777629Y-111070599D01*
X140777631Y-111070599D01*
X140777635Y-111070600D01*
X140777638Y-111070600D01*
X140984562Y-111070600D01*
X140984565Y-111070600D01*
X141187520Y-111030230D01*
X141378698Y-110951041D01*
X141550755Y-110836077D01*
X141697077Y-110689755D01*
X141812041Y-110517698D01*
X141891230Y-110326520D01*
X141931600Y-110123565D01*
X141931600Y-109916635D01*
X141891230Y-109713680D01*
X141812041Y-109522502D01*
X141697077Y-109350445D01*
X141550755Y-109204123D01*
X141378698Y-109089159D01*
X141187520Y-109009970D01*
X141187516Y-109009969D01*
X141187514Y-109009968D01*
X140984570Y-108969600D01*
X140984565Y-108969600D01*
X140777635Y-108969600D01*
X140777629Y-108969600D01*
X140574685Y-109009968D01*
X140574683Y-109009969D01*
X140574681Y-109009969D01*
X140574680Y-109009970D01*
X140383502Y-109089159D01*
X140211445Y-109204123D01*
X140065123Y-109350445D01*
X139950159Y-109522502D01*
X139873682Y-109707134D01*
X139870969Y-109713683D01*
X139870968Y-109713685D01*
X139830600Y-109916629D01*
X138577800Y-109916629D01*
X138577800Y-107486037D01*
X138577940Y-107482822D01*
X138587176Y-107376629D01*
X139830600Y-107376629D01*
X139830600Y-107583570D01*
X139870968Y-107786514D01*
X139870969Y-107786516D01*
X139870970Y-107786520D01*
X139950159Y-107977698D01*
X140065123Y-108149755D01*
X140211445Y-108296077D01*
X140383502Y-108411041D01*
X140574680Y-108490230D01*
X140574684Y-108490230D01*
X140574685Y-108490231D01*
X140777629Y-108530599D01*
X140777631Y-108530599D01*
X140777635Y-108530600D01*
X140777638Y-108530600D01*
X140984562Y-108530600D01*
X140984565Y-108530600D01*
X141187520Y-108490230D01*
X141378698Y-108411041D01*
X141550755Y-108296077D01*
X141697077Y-108149755D01*
X141812041Y-107977698D01*
X141891230Y-107786520D01*
X141931600Y-107583565D01*
X141931600Y-107376635D01*
X141891230Y-107173680D01*
X141812041Y-106982502D01*
X141697077Y-106810445D01*
X141550755Y-106664123D01*
X141378698Y-106549159D01*
X141187520Y-106469970D01*
X141187516Y-106469969D01*
X141187514Y-106469968D01*
X140984570Y-106429600D01*
X140984565Y-106429600D01*
X140777635Y-106429600D01*
X140777629Y-106429600D01*
X140574685Y-106469968D01*
X140574683Y-106469969D01*
X140574681Y-106469969D01*
X140574680Y-106469970D01*
X140383502Y-106549159D01*
X140211445Y-106664123D01*
X140065123Y-106810445D01*
X139950159Y-106982502D01*
X139873265Y-107168141D01*
X139870969Y-107173683D01*
X139870968Y-107173685D01*
X139830600Y-107376629D01*
X138587176Y-107376629D01*
X138587612Y-107371618D01*
X138587613Y-107371598D01*
X138588016Y-107366955D01*
X138589437Y-107350622D01*
X138580056Y-107075501D01*
X138537582Y-106803517D01*
X138537581Y-106803516D01*
X138537581Y-106803511D01*
X138494550Y-106651433D01*
X138462634Y-106538635D01*
X138356303Y-106284719D01*
X138220142Y-106045471D01*
X138056136Y-105824379D01*
X137866678Y-105624669D01*
X137866672Y-105624664D01*
X137654524Y-105449251D01*
X137422777Y-105300685D01*
X137422770Y-105300681D01*
X137174805Y-105181133D01*
X136914243Y-105092346D01*
X136644868Y-105035614D01*
X136644865Y-105035613D01*
X136538131Y-105026329D01*
X136538131Y-105026330D01*
X136528956Y-105025532D01*
X136526021Y-105023400D01*
X136504433Y-105023400D01*
X136502833Y-105023260D01*
X136484144Y-105021635D01*
X136482918Y-105021529D01*
X136482917Y-105021529D01*
X136481065Y-105021368D01*
X136474681Y-105021916D01*
X136175872Y-105005135D01*
X136171738Y-105004669D01*
X135852659Y-104950456D01*
X135848602Y-104949530D01*
X135802662Y-104936295D01*
X135623462Y-104884668D01*
X135537598Y-104859931D01*
X135533671Y-104858557D01*
X135375915Y-104793212D01*
X135234651Y-104734698D01*
X135230904Y-104732894D01*
X134947632Y-104576335D01*
X134944109Y-104574121D01*
X134680152Y-104386834D01*
X134676899Y-104384240D01*
X134435568Y-104168572D01*
X134432627Y-104165631D01*
X134216959Y-103924300D01*
X134214365Y-103921047D01*
X134027078Y-103657090D01*
X134024864Y-103653567D01*
X133997976Y-103604916D01*
X133868301Y-103370287D01*
X133866504Y-103366556D01*
X133742639Y-103067519D01*
X133741271Y-103063611D01*
X133651666Y-102752584D01*
X133650746Y-102748554D01*
X133596529Y-102429458D01*
X133596064Y-102425327D01*
X133588837Y-102296635D01*
X133577916Y-102102165D01*
X133577916Y-102098034D01*
X133584703Y-101977173D01*
X134625600Y-101977173D01*
X134625600Y-102223027D01*
X134657691Y-102466775D01*
X134657692Y-102466781D01*
X134721320Y-102704249D01*
X134815405Y-102931391D01*
X134938336Y-103144313D01*
X134938341Y-103144320D01*
X135087992Y-103339348D01*
X135087995Y-103339351D01*
X135087999Y-103339356D01*
X135261844Y-103513201D01*
X135261848Y-103513204D01*
X135261851Y-103513207D01*
X135456879Y-103662858D01*
X135456886Y-103662863D01*
X135456889Y-103662864D01*
X135456892Y-103662867D01*
X135669808Y-103785794D01*
X135896947Y-103879878D01*
X135896948Y-103879878D01*
X135896950Y-103879879D01*
X135933230Y-103889600D01*
X136134423Y-103943509D01*
X136378173Y-103975600D01*
X136378178Y-103975600D01*
X136624022Y-103975600D01*
X136624027Y-103975600D01*
X136867777Y-103943509D01*
X137105253Y-103879878D01*
X137332392Y-103785794D01*
X137545308Y-103662867D01*
X137555054Y-103655389D01*
X137740348Y-103513207D01*
X137740347Y-103513207D01*
X137740356Y-103513201D01*
X137914201Y-103339356D01*
X138063867Y-103144308D01*
X138186794Y-102931392D01*
X138280878Y-102704253D01*
X138344509Y-102466777D01*
X138366910Y-102296629D01*
X139830600Y-102296629D01*
X139830600Y-102503570D01*
X139870968Y-102706514D01*
X139870969Y-102706516D01*
X139870970Y-102706520D01*
X139950159Y-102897698D01*
X140065123Y-103069755D01*
X140211445Y-103216077D01*
X140383502Y-103331041D01*
X140574680Y-103410230D01*
X140574684Y-103410230D01*
X140574685Y-103410231D01*
X140777629Y-103450599D01*
X140777631Y-103450599D01*
X140777635Y-103450600D01*
X140777638Y-103450600D01*
X140984562Y-103450600D01*
X140984565Y-103450600D01*
X141187520Y-103410230D01*
X141378698Y-103331041D01*
X141550755Y-103216077D01*
X141697077Y-103069755D01*
X141812041Y-102897698D01*
X141891230Y-102706520D01*
X141931600Y-102503565D01*
X141931600Y-102296635D01*
X141891230Y-102093680D01*
X141812041Y-101902502D01*
X141697077Y-101730445D01*
X141550755Y-101584123D01*
X141378698Y-101469159D01*
X141187520Y-101389970D01*
X141187516Y-101389969D01*
X141187514Y-101389968D01*
X140984570Y-101349600D01*
X140984565Y-101349600D01*
X140777635Y-101349600D01*
X140777629Y-101349600D01*
X140574685Y-101389968D01*
X140574683Y-101389969D01*
X140574681Y-101389969D01*
X140574680Y-101389970D01*
X140383502Y-101469159D01*
X140211445Y-101584123D01*
X140065123Y-101730445D01*
X139950159Y-101902502D01*
X139909904Y-101999687D01*
X139870969Y-102093683D01*
X139870968Y-102093685D01*
X139830600Y-102296629D01*
X138366910Y-102296629D01*
X138376600Y-102223027D01*
X138376600Y-101977173D01*
X138344509Y-101733423D01*
X138280878Y-101495947D01*
X138186794Y-101268808D01*
X138063867Y-101055892D01*
X138063864Y-101055889D01*
X138063863Y-101055886D01*
X138063858Y-101055879D01*
X137914207Y-100860851D01*
X137914204Y-100860848D01*
X137914201Y-100860844D01*
X137740356Y-100686999D01*
X137740351Y-100686995D01*
X137740348Y-100686992D01*
X137545320Y-100537341D01*
X137545313Y-100537336D01*
X137532182Y-100529755D01*
X137500316Y-100511357D01*
X137332391Y-100414405D01*
X137105249Y-100320320D01*
X136867781Y-100256692D01*
X136867780Y-100256691D01*
X136867777Y-100256691D01*
X136624027Y-100224600D01*
X136378173Y-100224600D01*
X136134423Y-100256691D01*
X136134421Y-100256691D01*
X136134418Y-100256692D01*
X135896950Y-100320320D01*
X135669808Y-100414405D01*
X135456886Y-100537336D01*
X135456879Y-100537341D01*
X135261851Y-100686992D01*
X135087992Y-100860851D01*
X134938341Y-101055879D01*
X134938336Y-101055886D01*
X134815405Y-101268808D01*
X134721320Y-101495950D01*
X134658489Y-101730445D01*
X134657691Y-101733423D01*
X134625600Y-101977173D01*
X133584703Y-101977173D01*
X133596064Y-101774866D01*
X133596530Y-101770738D01*
X133603376Y-101730445D01*
X133650746Y-101451641D01*
X133651664Y-101447619D01*
X133741273Y-101136582D01*
X133742636Y-101132685D01*
X133866507Y-100833636D01*
X133868297Y-100829919D01*
X134024868Y-100546624D01*
X134027073Y-100543116D01*
X134214372Y-100279143D01*
X134216951Y-100275907D01*
X134432628Y-100034566D01*
X134435568Y-100031627D01*
X134511523Y-99963749D01*
X134676907Y-99815951D01*
X134680143Y-99813372D01*
X134760115Y-99756629D01*
X139830600Y-99756629D01*
X139830600Y-99963570D01*
X139870968Y-100166514D01*
X139870969Y-100166516D01*
X139870970Y-100166520D01*
X139950159Y-100357698D01*
X140065123Y-100529755D01*
X140211445Y-100676077D01*
X140383502Y-100791041D01*
X140574680Y-100870230D01*
X140574684Y-100870230D01*
X140574685Y-100870231D01*
X140777629Y-100910599D01*
X140777631Y-100910599D01*
X140777635Y-100910600D01*
X140777638Y-100910600D01*
X140984562Y-100910600D01*
X140984565Y-100910600D01*
X141187520Y-100870230D01*
X141378698Y-100791041D01*
X141550755Y-100676077D01*
X141697077Y-100529755D01*
X141812041Y-100357698D01*
X141883533Y-100185101D01*
X141903612Y-100165024D01*
X141917809Y-100162200D01*
X145120598Y-100162200D01*
X145146832Y-100173066D01*
X145689812Y-100716046D01*
X145700678Y-100742280D01*
X145697854Y-100756477D01*
X145661072Y-100845279D01*
X145661070Y-100845285D01*
X145627500Y-101014052D01*
X145627500Y-101186147D01*
X145661070Y-101354914D01*
X145661071Y-101354916D01*
X145661072Y-101354920D01*
X145726926Y-101513905D01*
X145822531Y-101656988D01*
X145944212Y-101778669D01*
X146087295Y-101874274D01*
X146168053Y-101907725D01*
X146188130Y-101927803D01*
X146188130Y-101956198D01*
X146168051Y-101976276D01*
X146153854Y-101979100D01*
X143500228Y-101979100D01*
X143488614Y-101982212D01*
X143423398Y-101999685D01*
X143423394Y-101999686D01*
X143423394Y-101999687D01*
X143404937Y-102010343D01*
X143354508Y-102039458D01*
X141400545Y-103993419D01*
X141374311Y-104004285D01*
X141360113Y-104001461D01*
X141187520Y-103929970D01*
X141187516Y-103929969D01*
X141187514Y-103929968D01*
X140984570Y-103889600D01*
X140984565Y-103889600D01*
X140777635Y-103889600D01*
X140777629Y-103889600D01*
X140574685Y-103929968D01*
X140574683Y-103929969D01*
X140574681Y-103929969D01*
X140574680Y-103929970D01*
X140383502Y-104009159D01*
X140211445Y-104124123D01*
X140065123Y-104270445D01*
X139950159Y-104442502D01*
X139890336Y-104586928D01*
X139870969Y-104633683D01*
X139870968Y-104633685D01*
X139830600Y-104836629D01*
X139830600Y-105043570D01*
X139870968Y-105246514D01*
X139870969Y-105246516D01*
X139870970Y-105246520D01*
X139950159Y-105437698D01*
X140065123Y-105609755D01*
X140211445Y-105756077D01*
X140383502Y-105871041D01*
X140574680Y-105950230D01*
X140574684Y-105950230D01*
X140574685Y-105950231D01*
X140777629Y-105990599D01*
X140777631Y-105990599D01*
X140777635Y-105990600D01*
X140777638Y-105990600D01*
X140984562Y-105990600D01*
X140984565Y-105990600D01*
X141187520Y-105950230D01*
X141378698Y-105871041D01*
X141550755Y-105756077D01*
X141697077Y-105609755D01*
X141812041Y-105437698D01*
X141891230Y-105246520D01*
X141931600Y-105043565D01*
X141931600Y-104836635D01*
X141891230Y-104633680D01*
X141819738Y-104461084D01*
X141819738Y-104432688D01*
X141827777Y-104420655D01*
X143654268Y-102594166D01*
X143680502Y-102583300D01*
X145953956Y-102583300D01*
X145980190Y-102594166D01*
X145991056Y-102620400D01*
X145980190Y-102646634D01*
X145974568Y-102651247D01*
X145944215Y-102671528D01*
X145944212Y-102671531D01*
X145822531Y-102793212D01*
X145726926Y-102936295D01*
X145661300Y-103094731D01*
X145661071Y-103095283D01*
X145661070Y-103095285D01*
X145627500Y-103264052D01*
X145627500Y-103436147D01*
X145661070Y-103604914D01*
X145661072Y-103604920D01*
X145697854Y-103693721D01*
X145697854Y-103722116D01*
X145689812Y-103734152D01*
X144982756Y-104441210D01*
X144942988Y-104510089D01*
X144942988Y-104510091D01*
X144942987Y-104510093D01*
X144942987Y-104510094D01*
X144925239Y-104576335D01*
X144922400Y-104586929D01*
X144922400Y-108053271D01*
X144942985Y-108130104D01*
X144942986Y-108130105D01*
X144982756Y-108198989D01*
X144982758Y-108198991D01*
X144982760Y-108198994D01*
X147045606Y-110261840D01*
X147045608Y-110261841D01*
X147045610Y-110261843D01*
X147083126Y-110283502D01*
X147114493Y-110301613D01*
X147114494Y-110301613D01*
X147114495Y-110301614D01*
X147191328Y-110322200D01*
X155084391Y-110322200D01*
X155110625Y-110333066D01*
X155118666Y-110345101D01*
X155190159Y-110517698D01*
X155305123Y-110689755D01*
X155451445Y-110836077D01*
X155623502Y-110951041D01*
X155814680Y-111030230D01*
X155814684Y-111030230D01*
X155814685Y-111030231D01*
X156017629Y-111070599D01*
X156017631Y-111070599D01*
X156017635Y-111070600D01*
X156017638Y-111070600D01*
X156224562Y-111070600D01*
X156224565Y-111070600D01*
X156427520Y-111030230D01*
X156618698Y-110951041D01*
X156790755Y-110836077D01*
X156937077Y-110689755D01*
X157052041Y-110517698D01*
X157131230Y-110326520D01*
X157171600Y-110123565D01*
X157171600Y-109916635D01*
X157131230Y-109713680D01*
X157052041Y-109522502D01*
X156937077Y-109350445D01*
X156790755Y-109204123D01*
X156618698Y-109089159D01*
X156427520Y-109009970D01*
X156427516Y-109009969D01*
X156427514Y-109009968D01*
X156224570Y-108969600D01*
X156224565Y-108969600D01*
X156017635Y-108969600D01*
X156017629Y-108969600D01*
X155814685Y-109009968D01*
X155814683Y-109009969D01*
X155814681Y-109009969D01*
X155814680Y-109009970D01*
X155623502Y-109089159D01*
X155451445Y-109204123D01*
X155305123Y-109350445D01*
X155190159Y-109522502D01*
X155118667Y-109695098D01*
X155098588Y-109715176D01*
X155084391Y-109718000D01*
X147371602Y-109718000D01*
X147345368Y-109707134D01*
X145537466Y-107899232D01*
X145526600Y-107872998D01*
X145526600Y-105264052D01*
X145627500Y-105264052D01*
X145627500Y-105436147D01*
X145661070Y-105604914D01*
X145661071Y-105604916D01*
X145661072Y-105604920D01*
X145726926Y-105763905D01*
X145822531Y-105906988D01*
X145944212Y-106028669D01*
X146087295Y-106124274D01*
X146246280Y-106190128D01*
X146246284Y-106190128D01*
X146246285Y-106190129D01*
X146415052Y-106223699D01*
X146415054Y-106223699D01*
X146415058Y-106223700D01*
X146415061Y-106223700D01*
X146587139Y-106223700D01*
X146587142Y-106223700D01*
X146755920Y-106190128D01*
X146808802Y-106168223D01*
X146837194Y-106168223D01*
X146849231Y-106176265D01*
X148973560Y-108300594D01*
X148973559Y-108300594D01*
X149029805Y-108356839D01*
X149029806Y-108356840D01*
X149098694Y-108396613D01*
X149175528Y-108417200D01*
X149175529Y-108417200D01*
X153519272Y-108417200D01*
X153596104Y-108396614D01*
X153596104Y-108396613D01*
X153596107Y-108396613D01*
X153664994Y-108356840D01*
X154228768Y-107793066D01*
X154255002Y-107782200D01*
X155084391Y-107782200D01*
X155110625Y-107793066D01*
X155118666Y-107805101D01*
X155190159Y-107977698D01*
X155305123Y-108149755D01*
X155451445Y-108296077D01*
X155623502Y-108411041D01*
X155814680Y-108490230D01*
X155814684Y-108490230D01*
X155814685Y-108490231D01*
X156017629Y-108530599D01*
X156017631Y-108530599D01*
X156017635Y-108530600D01*
X156017638Y-108530600D01*
X156224562Y-108530600D01*
X156224565Y-108530600D01*
X156427520Y-108490230D01*
X156618698Y-108411041D01*
X156790755Y-108296077D01*
X156937077Y-108149755D01*
X157052041Y-107977698D01*
X157131230Y-107786520D01*
X157171600Y-107583565D01*
X157171600Y-107376635D01*
X157131230Y-107173680D01*
X157052041Y-106982502D01*
X156937077Y-106810445D01*
X156790755Y-106664123D01*
X156618698Y-106549159D01*
X156427520Y-106469970D01*
X156427516Y-106469969D01*
X156427514Y-106469968D01*
X156224570Y-106429600D01*
X156224565Y-106429600D01*
X156017635Y-106429600D01*
X156017629Y-106429600D01*
X155814685Y-106469968D01*
X155814683Y-106469969D01*
X155814681Y-106469969D01*
X155814680Y-106469970D01*
X155648909Y-106538635D01*
X155623502Y-106549159D01*
X155451445Y-106664123D01*
X155305123Y-106810445D01*
X155190159Y-106982502D01*
X155118667Y-107155098D01*
X155098588Y-107175176D01*
X155084391Y-107178000D01*
X154074728Y-107178000D01*
X153997895Y-107198585D01*
X153997894Y-107198586D01*
X153929010Y-107238356D01*
X153365232Y-107802134D01*
X153338998Y-107813000D01*
X149355802Y-107813000D01*
X149329568Y-107802134D01*
X147297507Y-105770073D01*
X147286641Y-105743839D01*
X147289463Y-105729646D01*
X147341128Y-105604920D01*
X147374700Y-105436142D01*
X147374700Y-105264058D01*
X147374699Y-105264052D01*
X147627500Y-105264052D01*
X147627500Y-105436147D01*
X147661070Y-105604914D01*
X147661071Y-105604916D01*
X147661072Y-105604920D01*
X147726926Y-105763905D01*
X147822531Y-105906988D01*
X147944212Y-106028669D01*
X148087295Y-106124274D01*
X148246280Y-106190128D01*
X148246284Y-106190128D01*
X148246285Y-106190129D01*
X148415052Y-106223699D01*
X148415054Y-106223699D01*
X148415058Y-106223700D01*
X148415061Y-106223700D01*
X148587139Y-106223700D01*
X148587142Y-106223700D01*
X148748391Y-106191625D01*
X148776237Y-106197164D01*
X148781860Y-106201778D01*
X149673057Y-107092975D01*
X149673059Y-107092978D01*
X149748222Y-107168141D01*
X149840277Y-107221289D01*
X149861975Y-107227102D01*
X149942952Y-107248801D01*
X149942954Y-107248801D01*
X150051515Y-107248801D01*
X150051531Y-107248800D01*
X152255669Y-107248800D01*
X152255685Y-107248801D01*
X152257952Y-107248801D01*
X152364246Y-107248801D01*
X152364248Y-107248801D01*
X152445224Y-107227102D01*
X152466923Y-107221289D01*
X152558978Y-107168141D01*
X152634141Y-107092978D01*
X152634142Y-107092975D01*
X154463975Y-105263142D01*
X154463978Y-105263141D01*
X154539141Y-105187978D01*
X154592289Y-105095923D01*
X154599500Y-105069009D01*
X154619801Y-104993248D01*
X154619801Y-104886952D01*
X154619801Y-104884686D01*
X154619800Y-104884668D01*
X154619800Y-104836629D01*
X155070600Y-104836629D01*
X155070600Y-105043570D01*
X155110968Y-105246514D01*
X155110969Y-105246516D01*
X155110970Y-105246520D01*
X155190159Y-105437698D01*
X155305123Y-105609755D01*
X155451445Y-105756077D01*
X155623502Y-105871041D01*
X155814680Y-105950230D01*
X155814684Y-105950230D01*
X155814685Y-105950231D01*
X156017629Y-105990599D01*
X156017631Y-105990599D01*
X156017635Y-105990600D01*
X156017638Y-105990600D01*
X156224562Y-105990600D01*
X156224565Y-105990600D01*
X156427520Y-105950230D01*
X156618698Y-105871041D01*
X156790755Y-105756077D01*
X156937077Y-105609755D01*
X157052041Y-105437698D01*
X157131230Y-105246520D01*
X157171600Y-105043565D01*
X157171600Y-104836635D01*
X157131230Y-104633680D01*
X157052041Y-104442502D01*
X156937077Y-104270445D01*
X156790755Y-104124123D01*
X156618698Y-104009159D01*
X156427520Y-103929970D01*
X156427516Y-103929969D01*
X156427514Y-103929968D01*
X156224570Y-103889600D01*
X156224565Y-103889600D01*
X156017635Y-103889600D01*
X156017629Y-103889600D01*
X155814685Y-103929968D01*
X155814683Y-103929969D01*
X155814681Y-103929969D01*
X155814680Y-103929970D01*
X155623502Y-104009159D01*
X155451445Y-104124123D01*
X155305123Y-104270445D01*
X155190159Y-104442502D01*
X155130336Y-104586928D01*
X155110969Y-104633683D01*
X155110968Y-104633685D01*
X155070600Y-104836629D01*
X154619800Y-104836629D01*
X154619800Y-103852686D01*
X154630666Y-103826452D01*
X154945252Y-103511866D01*
X155320010Y-103137107D01*
X155346243Y-103126242D01*
X155372475Y-103137107D01*
X155451445Y-103216077D01*
X155623502Y-103331041D01*
X155814680Y-103410230D01*
X155814684Y-103410230D01*
X155814685Y-103410231D01*
X156017629Y-103450599D01*
X156017631Y-103450599D01*
X156017635Y-103450600D01*
X156017638Y-103450600D01*
X156224562Y-103450600D01*
X156224565Y-103450600D01*
X156427520Y-103410230D01*
X156618698Y-103331041D01*
X156790755Y-103216077D01*
X156937077Y-103069755D01*
X157052041Y-102897698D01*
X157131230Y-102706520D01*
X157171600Y-102503565D01*
X157171600Y-102296635D01*
X157131230Y-102093680D01*
X157082971Y-101977173D01*
X158625600Y-101977173D01*
X158625600Y-102223027D01*
X158657691Y-102466775D01*
X158657692Y-102466781D01*
X158721320Y-102704249D01*
X158815405Y-102931391D01*
X158938336Y-103144313D01*
X158938341Y-103144320D01*
X159087992Y-103339348D01*
X159087995Y-103339351D01*
X159087999Y-103339356D01*
X159261844Y-103513201D01*
X159261848Y-103513204D01*
X159261851Y-103513207D01*
X159456879Y-103662858D01*
X159456886Y-103662863D01*
X159456889Y-103662864D01*
X159456892Y-103662867D01*
X159669808Y-103785794D01*
X159896947Y-103879878D01*
X159896948Y-103879878D01*
X159896950Y-103879879D01*
X159933230Y-103889600D01*
X160134423Y-103943509D01*
X160378173Y-103975600D01*
X160378178Y-103975600D01*
X160624022Y-103975600D01*
X160624027Y-103975600D01*
X160867777Y-103943509D01*
X161105253Y-103879878D01*
X161332392Y-103785794D01*
X161545308Y-103662867D01*
X161555054Y-103655389D01*
X161740348Y-103513207D01*
X161740347Y-103513207D01*
X161740356Y-103513201D01*
X161914201Y-103339356D01*
X162063867Y-103144308D01*
X162186794Y-102931392D01*
X162280878Y-102704253D01*
X162344509Y-102466777D01*
X162376600Y-102223027D01*
X162376600Y-101977173D01*
X162344509Y-101733423D01*
X162280878Y-101495947D01*
X162186794Y-101268808D01*
X162063867Y-101055892D01*
X162063864Y-101055889D01*
X162063863Y-101055886D01*
X162063858Y-101055879D01*
X161914207Y-100860851D01*
X161914204Y-100860848D01*
X161914201Y-100860844D01*
X161740356Y-100686999D01*
X161740351Y-100686995D01*
X161740348Y-100686992D01*
X161545320Y-100537341D01*
X161545313Y-100537336D01*
X161532182Y-100529755D01*
X161500316Y-100511357D01*
X161332391Y-100414405D01*
X161105249Y-100320320D01*
X160867781Y-100256692D01*
X160867780Y-100256691D01*
X160867777Y-100256691D01*
X160624027Y-100224600D01*
X160378173Y-100224600D01*
X160134423Y-100256691D01*
X160134421Y-100256691D01*
X160134418Y-100256692D01*
X159896950Y-100320320D01*
X159669808Y-100414405D01*
X159456886Y-100537336D01*
X159456879Y-100537341D01*
X159261851Y-100686992D01*
X159087992Y-100860851D01*
X158938341Y-101055879D01*
X158938336Y-101055886D01*
X158815405Y-101268808D01*
X158721320Y-101495950D01*
X158658489Y-101730445D01*
X158657691Y-101733423D01*
X158625600Y-101977173D01*
X157082971Y-101977173D01*
X157052041Y-101902502D01*
X156937077Y-101730445D01*
X156790755Y-101584123D01*
X156618698Y-101469159D01*
X156427520Y-101389970D01*
X156427516Y-101389969D01*
X156427514Y-101389968D01*
X156224570Y-101349600D01*
X156224565Y-101349600D01*
X156017635Y-101349600D01*
X156017629Y-101349600D01*
X155814685Y-101389968D01*
X155814683Y-101389969D01*
X155814681Y-101389969D01*
X155814680Y-101389970D01*
X155623502Y-101469159D01*
X155451445Y-101584123D01*
X155305123Y-101730445D01*
X155190159Y-101902502D01*
X155110968Y-102093685D01*
X155085694Y-102220743D01*
X155075541Y-102239739D01*
X153968224Y-103347057D01*
X153968222Y-103347059D01*
X153968221Y-103347058D01*
X153893059Y-103422221D01*
X153839912Y-103514275D01*
X153839911Y-103514278D01*
X153812399Y-103616952D01*
X153812399Y-103726232D01*
X153812400Y-103726245D01*
X153812400Y-104757514D01*
X153801534Y-104783748D01*
X152154748Y-106430534D01*
X152128514Y-106441400D01*
X150178686Y-106441400D01*
X150152452Y-106430534D01*
X149352778Y-105630860D01*
X149341912Y-105604626D01*
X149342623Y-105597400D01*
X149374700Y-105436142D01*
X149374700Y-105264058D01*
X149374699Y-105264052D01*
X149627500Y-105264052D01*
X149627500Y-105436147D01*
X149661070Y-105604914D01*
X149661071Y-105604916D01*
X149661072Y-105604920D01*
X149726926Y-105763905D01*
X149822531Y-105906988D01*
X149944212Y-106028669D01*
X150087295Y-106124274D01*
X150246280Y-106190128D01*
X150246284Y-106190128D01*
X150246285Y-106190129D01*
X150415052Y-106223699D01*
X150415054Y-106223699D01*
X150415058Y-106223700D01*
X150415061Y-106223700D01*
X150587139Y-106223700D01*
X150587142Y-106223700D01*
X150755920Y-106190128D01*
X150914905Y-106124274D01*
X151057988Y-106028669D01*
X151179669Y-105906988D01*
X151256443Y-105792086D01*
X151280052Y-105776313D01*
X151287290Y-105775600D01*
X151740981Y-105775600D01*
X151740997Y-105775601D01*
X151743264Y-105775601D01*
X151862935Y-105775601D01*
X151862936Y-105775601D01*
X151954102Y-105751172D01*
X151978531Y-105744627D01*
X152082170Y-105684791D01*
X152166791Y-105600170D01*
X152166792Y-105600167D01*
X153225167Y-104541792D01*
X153225170Y-104541791D01*
X153309791Y-104457170D01*
X153369627Y-104353531D01*
X153390665Y-104275016D01*
X153400601Y-104237936D01*
X153400601Y-104118264D01*
X153400601Y-104115998D01*
X153400600Y-104115980D01*
X153400600Y-99756442D01*
X155068700Y-99756442D01*
X155068700Y-99758899D01*
X155068701Y-99758900D01*
X155630579Y-99758900D01*
X155621100Y-99794274D01*
X155621100Y-99925926D01*
X155630579Y-99961300D01*
X155068701Y-99961300D01*
X155068700Y-99961301D01*
X155068700Y-99963757D01*
X155109141Y-100167068D01*
X155109142Y-100167070D01*
X155188475Y-100358597D01*
X155303648Y-100530965D01*
X155450234Y-100677551D01*
X155622602Y-100792724D01*
X155814129Y-100872057D01*
X155814131Y-100872058D01*
X156017442Y-100912499D01*
X156017451Y-100912500D01*
X156019899Y-100912500D01*
X156019900Y-100912499D01*
X156019900Y-100350621D01*
X156055274Y-100360100D01*
X156186926Y-100360100D01*
X156222300Y-100350621D01*
X156222300Y-100912499D01*
X156222301Y-100912500D01*
X156224749Y-100912500D01*
X156224757Y-100912499D01*
X156428068Y-100872058D01*
X156428070Y-100872057D01*
X156619597Y-100792724D01*
X156791965Y-100677551D01*
X156938551Y-100530965D01*
X157053724Y-100358597D01*
X157133057Y-100167070D01*
X157133058Y-100167068D01*
X157173499Y-99963757D01*
X157173500Y-99963749D01*
X157173500Y-99961301D01*
X157173499Y-99961300D01*
X156611621Y-99961300D01*
X156621100Y-99925926D01*
X156621100Y-99794274D01*
X156611621Y-99758900D01*
X157173499Y-99758900D01*
X157173500Y-99758899D01*
X157173500Y-99756450D01*
X157173499Y-99756442D01*
X157133058Y-99553131D01*
X157133057Y-99553129D01*
X157053724Y-99361602D01*
X156938551Y-99189234D01*
X156791965Y-99042648D01*
X156619597Y-98927475D01*
X156428070Y-98848142D01*
X156428068Y-98848141D01*
X156224757Y-98807700D01*
X156222301Y-98807700D01*
X156222300Y-98807701D01*
X156222300Y-99369578D01*
X156186926Y-99360100D01*
X156055274Y-99360100D01*
X156019900Y-99369578D01*
X156019900Y-98807701D01*
X156019899Y-98807700D01*
X156017442Y-98807700D01*
X155814131Y-98848141D01*
X155814129Y-98848142D01*
X155622602Y-98927475D01*
X155450234Y-99042648D01*
X155303648Y-99189234D01*
X155188475Y-99361602D01*
X155109142Y-99553129D01*
X155109141Y-99553131D01*
X155068700Y-99756442D01*
X153400600Y-99756442D01*
X153400600Y-99428728D01*
X153411466Y-99402494D01*
X155028494Y-97785466D01*
X155054728Y-97774600D01*
X155147518Y-97774600D01*
X155173752Y-97785466D01*
X155181792Y-97797499D01*
X155190159Y-97817698D01*
X155305123Y-97989755D01*
X155451445Y-98136077D01*
X155623502Y-98251041D01*
X155814680Y-98330230D01*
X155814684Y-98330230D01*
X155814685Y-98330231D01*
X156017629Y-98370599D01*
X156017631Y-98370599D01*
X156017635Y-98370600D01*
X156017638Y-98370600D01*
X156224562Y-98370600D01*
X156224565Y-98370600D01*
X156427520Y-98330230D01*
X156618698Y-98251041D01*
X156790755Y-98136077D01*
X156937077Y-97989755D01*
X157052041Y-97817698D01*
X157131230Y-97626520D01*
X157171600Y-97423565D01*
X157171600Y-97216635D01*
X157131230Y-97013680D01*
X157052041Y-96822502D01*
X156937077Y-96650445D01*
X156790755Y-96504123D01*
X156618698Y-96389159D01*
X156427520Y-96309970D01*
X156427516Y-96309969D01*
X156427514Y-96309968D01*
X156224570Y-96269600D01*
X156224565Y-96269600D01*
X156017635Y-96269600D01*
X156017629Y-96269600D01*
X155814685Y-96309968D01*
X155814683Y-96309969D01*
X155814681Y-96309969D01*
X155814680Y-96309970D01*
X155691604Y-96360950D01*
X155623502Y-96389159D01*
X155451445Y-96504123D01*
X155305123Y-96650445D01*
X155190158Y-96822503D01*
X155185889Y-96832809D01*
X155181793Y-96842698D01*
X155161716Y-96862776D01*
X155147518Y-96865600D01*
X154913219Y-96865600D01*
X154913203Y-96865599D01*
X154910936Y-96865599D01*
X154791264Y-96865599D01*
X154745680Y-96877813D01*
X154700096Y-96890027D01*
X154700095Y-96890026D01*
X154675672Y-96896571D01*
X154572032Y-96956407D01*
X152582407Y-98946032D01*
X152522574Y-99049667D01*
X152522573Y-99049670D01*
X152491599Y-99165264D01*
X152491599Y-99287920D01*
X152491600Y-99287933D01*
X152491600Y-103974472D01*
X152480734Y-104000706D01*
X151625706Y-104855734D01*
X151599472Y-104866600D01*
X151248536Y-104866600D01*
X151222302Y-104855734D01*
X151217689Y-104850112D01*
X151179671Y-104793215D01*
X151179669Y-104793212D01*
X151057988Y-104671531D01*
X150914905Y-104575926D01*
X150755920Y-104510072D01*
X150755916Y-104510071D01*
X150755914Y-104510070D01*
X150587147Y-104476500D01*
X150587142Y-104476500D01*
X150415058Y-104476500D01*
X150415052Y-104476500D01*
X150246285Y-104510070D01*
X150246283Y-104510071D01*
X150246281Y-104510071D01*
X150246280Y-104510072D01*
X150087295Y-104575926D01*
X149944212Y-104671531D01*
X149822531Y-104793212D01*
X149726926Y-104936295D01*
X149662288Y-105092346D01*
X149661071Y-105095283D01*
X149661070Y-105095285D01*
X149627500Y-105264052D01*
X149374699Y-105264052D01*
X149371211Y-105246520D01*
X149341129Y-105095285D01*
X149341128Y-105095284D01*
X149341128Y-105095280D01*
X149275274Y-104936295D01*
X149179669Y-104793212D01*
X149057988Y-104671531D01*
X148914905Y-104575926D01*
X148755920Y-104510072D01*
X148755916Y-104510071D01*
X148755914Y-104510070D01*
X148587147Y-104476500D01*
X148587142Y-104476500D01*
X148415058Y-104476500D01*
X148415052Y-104476500D01*
X148246285Y-104510070D01*
X148246283Y-104510071D01*
X148246281Y-104510071D01*
X148246280Y-104510072D01*
X148087295Y-104575926D01*
X147944212Y-104671531D01*
X147822531Y-104793212D01*
X147726926Y-104936295D01*
X147662288Y-105092346D01*
X147661071Y-105095283D01*
X147661070Y-105095285D01*
X147627500Y-105264052D01*
X147374699Y-105264052D01*
X147371211Y-105246520D01*
X147341129Y-105095285D01*
X147341128Y-105095284D01*
X147341128Y-105095280D01*
X147275274Y-104936295D01*
X147179669Y-104793212D01*
X147057988Y-104671531D01*
X146914905Y-104575926D01*
X146755920Y-104510072D01*
X146755916Y-104510071D01*
X146755914Y-104510070D01*
X146587147Y-104476500D01*
X146587142Y-104476500D01*
X146415058Y-104476500D01*
X146415052Y-104476500D01*
X146246285Y-104510070D01*
X146246283Y-104510071D01*
X146246281Y-104510071D01*
X146246280Y-104510072D01*
X146087295Y-104575926D01*
X145944212Y-104671531D01*
X145822531Y-104793212D01*
X145726926Y-104936295D01*
X145662288Y-105092346D01*
X145661071Y-105095283D01*
X145661070Y-105095285D01*
X145627500Y-105264052D01*
X145526600Y-105264052D01*
X145526600Y-104767201D01*
X145537465Y-104740968D01*
X146117047Y-104161385D01*
X146143280Y-104150520D01*
X146157474Y-104153343D01*
X146246280Y-104190128D01*
X146246284Y-104190128D01*
X146246285Y-104190129D01*
X146415052Y-104223699D01*
X146415054Y-104223699D01*
X146415058Y-104223700D01*
X146415061Y-104223700D01*
X146587139Y-104223700D01*
X146587142Y-104223700D01*
X146755920Y-104190128D01*
X146914905Y-104124274D01*
X147057988Y-104028669D01*
X147179669Y-103906988D01*
X147275274Y-103763905D01*
X147341128Y-103604920D01*
X147374700Y-103436142D01*
X147374700Y-103264058D01*
X147374699Y-103264052D01*
X147627500Y-103264052D01*
X147627500Y-103436147D01*
X147661070Y-103604914D01*
X147661071Y-103604916D01*
X147661072Y-103604920D01*
X147726926Y-103763905D01*
X147822531Y-103906988D01*
X147944212Y-104028669D01*
X148087295Y-104124274D01*
X148246280Y-104190128D01*
X148246284Y-104190128D01*
X148246285Y-104190129D01*
X148415052Y-104223699D01*
X148415054Y-104223699D01*
X148415058Y-104223700D01*
X148415061Y-104223700D01*
X148587139Y-104223700D01*
X148587142Y-104223700D01*
X148755920Y-104190128D01*
X148914905Y-104124274D01*
X149057988Y-104028669D01*
X149179669Y-103906988D01*
X149275274Y-103763905D01*
X149341128Y-103604920D01*
X149374700Y-103436142D01*
X149374700Y-103264058D01*
X149371685Y-103248899D01*
X149628578Y-103248899D01*
X149628578Y-103248900D01*
X150094332Y-103248900D01*
X150082000Y-103294924D01*
X150082000Y-103405276D01*
X150094332Y-103451300D01*
X149628578Y-103451300D01*
X149659243Y-103605468D01*
X149659244Y-103605470D01*
X149725242Y-103764804D01*
X149821055Y-103908198D01*
X149943001Y-104030144D01*
X150086395Y-104125957D01*
X150245729Y-104191955D01*
X150245731Y-104191956D01*
X150399899Y-104222621D01*
X150399900Y-104222621D01*
X150399900Y-103756867D01*
X150445924Y-103769200D01*
X150556276Y-103769200D01*
X150602300Y-103756867D01*
X150602300Y-104222621D01*
X150756468Y-104191956D01*
X150756470Y-104191955D01*
X150915804Y-104125957D01*
X151059198Y-104030144D01*
X151181144Y-103908198D01*
X151276957Y-103764804D01*
X151342955Y-103605470D01*
X151342956Y-103605468D01*
X151373621Y-103451300D01*
X150907868Y-103451300D01*
X150920200Y-103405276D01*
X150920200Y-103294924D01*
X150907868Y-103248900D01*
X151373622Y-103248900D01*
X151373621Y-103248899D01*
X151342956Y-103094731D01*
X151342955Y-103094729D01*
X151276957Y-102935395D01*
X151181144Y-102792001D01*
X151059198Y-102670055D01*
X150915804Y-102574242D01*
X150756468Y-102508243D01*
X150602300Y-102477577D01*
X150602300Y-102943332D01*
X150556276Y-102931000D01*
X150445924Y-102931000D01*
X150399900Y-102943332D01*
X150399900Y-102477577D01*
X150399899Y-102477577D01*
X150245731Y-102508243D01*
X150086395Y-102574242D01*
X149943001Y-102670055D01*
X149821055Y-102792001D01*
X149725242Y-102935395D01*
X149659244Y-103094729D01*
X149659243Y-103094731D01*
X149628578Y-103248899D01*
X149371685Y-103248899D01*
X149341128Y-103095280D01*
X149275274Y-102936295D01*
X149179669Y-102793212D01*
X149057988Y-102671531D01*
X148914905Y-102575926D01*
X148755920Y-102510072D01*
X148755916Y-102510071D01*
X148755914Y-102510070D01*
X148587147Y-102476500D01*
X148587142Y-102476500D01*
X148415058Y-102476500D01*
X148415052Y-102476500D01*
X148246285Y-102510070D01*
X148246283Y-102510071D01*
X148246281Y-102510071D01*
X148246280Y-102510072D01*
X148087295Y-102575926D01*
X147944212Y-102671531D01*
X147822531Y-102793212D01*
X147726926Y-102936295D01*
X147661300Y-103094731D01*
X147661071Y-103095283D01*
X147661070Y-103095285D01*
X147627500Y-103264052D01*
X147374699Y-103264052D01*
X147341128Y-103095280D01*
X147275274Y-102936295D01*
X147179669Y-102793212D01*
X147057988Y-102671531D01*
X147057984Y-102671528D01*
X147027632Y-102651247D01*
X147011857Y-102627637D01*
X147017397Y-102599788D01*
X147041007Y-102584013D01*
X147048244Y-102583300D01*
X147686891Y-102583300D01*
X147763723Y-102562714D01*
X147763723Y-102562713D01*
X147763726Y-102562713D01*
X147832613Y-102522940D01*
X148373340Y-101982211D01*
X148399573Y-101971346D01*
X148406815Y-101972060D01*
X148415051Y-101973699D01*
X148415056Y-101973699D01*
X148415058Y-101973700D01*
X148415059Y-101973700D01*
X148587139Y-101973700D01*
X148587142Y-101973700D01*
X148755920Y-101940128D01*
X148914905Y-101874274D01*
X149057988Y-101778669D01*
X149179669Y-101656988D01*
X149275274Y-101513905D01*
X149341128Y-101354920D01*
X149374700Y-101186142D01*
X149374700Y-101014058D01*
X149374699Y-101014052D01*
X149627500Y-101014052D01*
X149627500Y-101186147D01*
X149661070Y-101354914D01*
X149661071Y-101354916D01*
X149661072Y-101354920D01*
X149726926Y-101513905D01*
X149822531Y-101656988D01*
X149944212Y-101778669D01*
X150087295Y-101874274D01*
X150246280Y-101940128D01*
X150246284Y-101940128D01*
X150246285Y-101940129D01*
X150415052Y-101973699D01*
X150415054Y-101973699D01*
X150415058Y-101973700D01*
X150415061Y-101973700D01*
X150587139Y-101973700D01*
X150587142Y-101973700D01*
X150755920Y-101940128D01*
X150914905Y-101874274D01*
X151057988Y-101778669D01*
X151179669Y-101656988D01*
X151275274Y-101513905D01*
X151341128Y-101354920D01*
X151374700Y-101186142D01*
X151374700Y-101014058D01*
X151346454Y-100872058D01*
X151341129Y-100845285D01*
X151341128Y-100845284D01*
X151341128Y-100845280D01*
X151275274Y-100686295D01*
X151179669Y-100543212D01*
X151057988Y-100421531D01*
X150914905Y-100325926D01*
X150755920Y-100260072D01*
X150755916Y-100260071D01*
X150755914Y-100260070D01*
X150587147Y-100226500D01*
X150587142Y-100226500D01*
X150415058Y-100226500D01*
X150415052Y-100226500D01*
X150246285Y-100260070D01*
X150246283Y-100260071D01*
X150246281Y-100260071D01*
X150246280Y-100260072D01*
X150087295Y-100325926D01*
X149944212Y-100421531D01*
X149822531Y-100543212D01*
X149726926Y-100686295D01*
X149661073Y-100845279D01*
X149661071Y-100845283D01*
X149661070Y-100845285D01*
X149627500Y-101014052D01*
X149374699Y-101014052D01*
X149346454Y-100872058D01*
X149341129Y-100845285D01*
X149341128Y-100845284D01*
X149341128Y-100845280D01*
X149275274Y-100686295D01*
X149179669Y-100543212D01*
X149057988Y-100421531D01*
X148914905Y-100325926D01*
X148755920Y-100260072D01*
X148755916Y-100260071D01*
X148755914Y-100260070D01*
X148587147Y-100226500D01*
X148587142Y-100226500D01*
X148415058Y-100226500D01*
X148415052Y-100226500D01*
X148246285Y-100260070D01*
X148246283Y-100260071D01*
X148246281Y-100260071D01*
X148246280Y-100260072D01*
X148087295Y-100325926D01*
X147944212Y-100421531D01*
X147822531Y-100543212D01*
X147726926Y-100686295D01*
X147661073Y-100845279D01*
X147661071Y-100845283D01*
X147661070Y-100845285D01*
X147627500Y-101014052D01*
X147627500Y-101186147D01*
X147661070Y-101354914D01*
X147661071Y-101354916D01*
X147661072Y-101354920D01*
X147726926Y-101513905D01*
X147814253Y-101644599D01*
X147819792Y-101672449D01*
X147809639Y-101691445D01*
X147532851Y-101968234D01*
X147506617Y-101979100D01*
X146848346Y-101979100D01*
X146822112Y-101968234D01*
X146811246Y-101942000D01*
X146822112Y-101915766D01*
X146834144Y-101907726D01*
X146914905Y-101874274D01*
X147057988Y-101778669D01*
X147179669Y-101656988D01*
X147275274Y-101513905D01*
X147341128Y-101354920D01*
X147374700Y-101186142D01*
X147374700Y-101014058D01*
X147346454Y-100872058D01*
X147341129Y-100845285D01*
X147341128Y-100845284D01*
X147341128Y-100845280D01*
X147275274Y-100686295D01*
X147179669Y-100543212D01*
X147057988Y-100421531D01*
X146914905Y-100325926D01*
X146755920Y-100260072D01*
X146755916Y-100260071D01*
X146755914Y-100260070D01*
X146587147Y-100226500D01*
X146587142Y-100226500D01*
X146415058Y-100226500D01*
X146415052Y-100226500D01*
X146246285Y-100260070D01*
X146246279Y-100260072D01*
X146157477Y-100296854D01*
X146129082Y-100296854D01*
X146117046Y-100288812D01*
X145789534Y-99961300D01*
X145446594Y-99618360D01*
X145446591Y-99618358D01*
X145446589Y-99618356D01*
X145377705Y-99578586D01*
X145377704Y-99578585D01*
X145300872Y-99558000D01*
X141917809Y-99558000D01*
X141891575Y-99547134D01*
X141883533Y-99535098D01*
X141812041Y-99362502D01*
X141697077Y-99190445D01*
X141550755Y-99044123D01*
X141378698Y-98929159D01*
X141187520Y-98849970D01*
X141187516Y-98849969D01*
X141187514Y-98849968D01*
X140984570Y-98809600D01*
X140984565Y-98809600D01*
X140777635Y-98809600D01*
X140777629Y-98809600D01*
X140574685Y-98849968D01*
X140574683Y-98849969D01*
X140574681Y-98849969D01*
X140574680Y-98849970D01*
X140383502Y-98929159D01*
X140211445Y-99044123D01*
X140065123Y-99190445D01*
X139950159Y-99362502D01*
X139871198Y-99553131D01*
X139870969Y-99553683D01*
X139870968Y-99553685D01*
X139830600Y-99756629D01*
X134760115Y-99756629D01*
X134944116Y-99626073D01*
X134947624Y-99623868D01*
X135230919Y-99467297D01*
X135234636Y-99465507D01*
X135533685Y-99341636D01*
X135537582Y-99340273D01*
X135848619Y-99250664D01*
X135852641Y-99249746D01*
X136171743Y-99195529D01*
X136175866Y-99195064D01*
X136500067Y-99176857D01*
X136502147Y-99176800D01*
X136637209Y-99176800D01*
X136637214Y-99176800D01*
X136907113Y-99141267D01*
X137170066Y-99070810D01*
X137421572Y-98966633D01*
X137657329Y-98830518D01*
X137873302Y-98664796D01*
X138065796Y-98472302D01*
X138143835Y-98370600D01*
X138231509Y-98256341D01*
X138231510Y-98256338D01*
X138231518Y-98256329D01*
X138367633Y-98020572D01*
X138471810Y-97769066D01*
X138542267Y-97506113D01*
X138577800Y-97236214D01*
X138577800Y-97100100D01*
X138577800Y-97075179D01*
X138577800Y-96450346D01*
X139830600Y-96450346D01*
X139830600Y-98189853D01*
X139842232Y-98248327D01*
X139842233Y-98248331D01*
X139886548Y-98314652D01*
X139952869Y-98358967D01*
X139997029Y-98367751D01*
X140011346Y-98370599D01*
X140011348Y-98370599D01*
X140011352Y-98370600D01*
X140011355Y-98370600D01*
X141750845Y-98370600D01*
X141750848Y-98370600D01*
X141809331Y-98358967D01*
X141875652Y-98314652D01*
X141919967Y-98248331D01*
X141931600Y-98189848D01*
X141931600Y-97659300D01*
X141942466Y-97633066D01*
X141968700Y-97622200D01*
X144580598Y-97622200D01*
X144606832Y-97633066D01*
X145689812Y-98716046D01*
X145700678Y-98742280D01*
X145697854Y-98756477D01*
X145661072Y-98845279D01*
X145661070Y-98845285D01*
X145627500Y-99014052D01*
X145627500Y-99186147D01*
X145661070Y-99354914D01*
X145661071Y-99354916D01*
X145661072Y-99354920D01*
X145726926Y-99513905D01*
X145822531Y-99656988D01*
X145944212Y-99778669D01*
X146087295Y-99874274D01*
X146246280Y-99940128D01*
X146246284Y-99940128D01*
X146246285Y-99940129D01*
X146415052Y-99973699D01*
X146415054Y-99973699D01*
X146415058Y-99973700D01*
X146415061Y-99973700D01*
X146587139Y-99973700D01*
X146587142Y-99973700D01*
X146755920Y-99940128D01*
X146914905Y-99874274D01*
X147057988Y-99778669D01*
X147179669Y-99656988D01*
X147275274Y-99513905D01*
X147341128Y-99354920D01*
X147374700Y-99186142D01*
X147374700Y-99014058D01*
X147374699Y-99014052D01*
X147627500Y-99014052D01*
X147627500Y-99186147D01*
X147661070Y-99354914D01*
X147661071Y-99354916D01*
X147661072Y-99354920D01*
X147726926Y-99513905D01*
X147822531Y-99656988D01*
X147944212Y-99778669D01*
X148087295Y-99874274D01*
X148246280Y-99940128D01*
X148246284Y-99940128D01*
X148246285Y-99940129D01*
X148415052Y-99973699D01*
X148415054Y-99973699D01*
X148415058Y-99973700D01*
X148415061Y-99973700D01*
X148587139Y-99973700D01*
X148587142Y-99973700D01*
X148755920Y-99940128D01*
X148914905Y-99874274D01*
X149057988Y-99778669D01*
X149179669Y-99656988D01*
X149275274Y-99513905D01*
X149341128Y-99354920D01*
X149374700Y-99186142D01*
X149374700Y-99014058D01*
X149374699Y-99014052D01*
X149627500Y-99014052D01*
X149627500Y-99186147D01*
X149661070Y-99354914D01*
X149661071Y-99354916D01*
X149661072Y-99354920D01*
X149726926Y-99513905D01*
X149822531Y-99656988D01*
X149944212Y-99778669D01*
X150087295Y-99874274D01*
X150246280Y-99940128D01*
X150246284Y-99940128D01*
X150246285Y-99940129D01*
X150415052Y-99973699D01*
X150415054Y-99973699D01*
X150415058Y-99973700D01*
X150415061Y-99973700D01*
X150587139Y-99973700D01*
X150587142Y-99973700D01*
X150755920Y-99940128D01*
X150914905Y-99874274D01*
X151057988Y-99778669D01*
X151179669Y-99656988D01*
X151275274Y-99513905D01*
X151341128Y-99354920D01*
X151374700Y-99186142D01*
X151374700Y-99014058D01*
X151373285Y-99006946D01*
X151341129Y-98845285D01*
X151341128Y-98845284D01*
X151341128Y-98845280D01*
X151275274Y-98686295D01*
X151179669Y-98543212D01*
X151057988Y-98421531D01*
X150914905Y-98325926D01*
X150755920Y-98260072D01*
X150755916Y-98260071D01*
X150755914Y-98260070D01*
X150587147Y-98226500D01*
X150587142Y-98226500D01*
X150415058Y-98226500D01*
X150415052Y-98226500D01*
X150246285Y-98260070D01*
X150246283Y-98260071D01*
X150246281Y-98260071D01*
X150246280Y-98260072D01*
X150087295Y-98325926D01*
X149944212Y-98421531D01*
X149822531Y-98543212D01*
X149726926Y-98686295D01*
X149661073Y-98845279D01*
X149661071Y-98845283D01*
X149661070Y-98845285D01*
X149627500Y-99014052D01*
X149374699Y-99014052D01*
X149373285Y-99006946D01*
X149341129Y-98845285D01*
X149341128Y-98845284D01*
X149341128Y-98845280D01*
X149275274Y-98686295D01*
X149179669Y-98543212D01*
X149057988Y-98421531D01*
X148914905Y-98325926D01*
X148755920Y-98260072D01*
X148755916Y-98260071D01*
X148755914Y-98260070D01*
X148587147Y-98226500D01*
X148587142Y-98226500D01*
X148415058Y-98226500D01*
X148415052Y-98226500D01*
X148246285Y-98260070D01*
X148246283Y-98260071D01*
X148246281Y-98260071D01*
X148246280Y-98260072D01*
X148087295Y-98325926D01*
X147944212Y-98421531D01*
X147822531Y-98543212D01*
X147726926Y-98686295D01*
X147661073Y-98845279D01*
X147661071Y-98845283D01*
X147661070Y-98845285D01*
X147627500Y-99014052D01*
X147374699Y-99014052D01*
X147373285Y-99006946D01*
X147341129Y-98845285D01*
X147341128Y-98845284D01*
X147341128Y-98845280D01*
X147275274Y-98686295D01*
X147179669Y-98543212D01*
X147057988Y-98421531D01*
X146914905Y-98325926D01*
X146755920Y-98260072D01*
X146755916Y-98260071D01*
X146755914Y-98260070D01*
X146587147Y-98226500D01*
X146587142Y-98226500D01*
X146415058Y-98226500D01*
X146415052Y-98226500D01*
X146246285Y-98260070D01*
X146246279Y-98260072D01*
X146157477Y-98296854D01*
X146129082Y-98296854D01*
X146117046Y-98288812D01*
X145597296Y-97769062D01*
X144906594Y-97078360D01*
X144906591Y-97078358D01*
X144906589Y-97078356D01*
X144837705Y-97038586D01*
X144837704Y-97038585D01*
X144760872Y-97018000D01*
X141968700Y-97018000D01*
X141942466Y-97007134D01*
X141931600Y-96980900D01*
X141931600Y-96450354D01*
X141931599Y-96450346D01*
X141924537Y-96414843D01*
X141919967Y-96391869D01*
X141875652Y-96325548D01*
X141809331Y-96281233D01*
X141809327Y-96281232D01*
X141750853Y-96269600D01*
X141750848Y-96269600D01*
X140011352Y-96269600D01*
X140011346Y-96269600D01*
X139952872Y-96281232D01*
X139952870Y-96281232D01*
X139952869Y-96281233D01*
X139952867Y-96281233D01*
X139952865Y-96281235D01*
X139886550Y-96325546D01*
X139886546Y-96325550D01*
X139842235Y-96391865D01*
X139842232Y-96391872D01*
X139830600Y-96450346D01*
X138577800Y-96450346D01*
X138577800Y-96431320D01*
X138577879Y-96428894D01*
X138593274Y-96194013D01*
X138593908Y-96189201D01*
X138611757Y-96099467D01*
X138639592Y-95959528D01*
X138640840Y-95954871D01*
X138716115Y-95733120D01*
X138717966Y-95728651D01*
X138821543Y-95518616D01*
X138823957Y-95514436D01*
X138954061Y-95319723D01*
X138957000Y-95315893D01*
X139111414Y-95139816D01*
X139114816Y-95136414D01*
X139290893Y-94982000D01*
X139294723Y-94979061D01*
X139489436Y-94848957D01*
X139493616Y-94846543D01*
X139703651Y-94742966D01*
X139708120Y-94741115D01*
X139929871Y-94665840D01*
X139934528Y-94664592D01*
X140164203Y-94618907D01*
X140169010Y-94618274D01*
X140403895Y-94602879D01*
X140406321Y-94602800D01*
X140430021Y-94602800D01*
X156380179Y-94602800D01*
X156403879Y-94602800D01*
X156406305Y-94602879D01*
G37*
%TD.AperFunction*%
%TD*%
M02*
