%TF.GenerationSoftware,KiCad,Pcbnew,10.0.3*%
%TF.CreationDate,2026-06-14T02:41:54+03:00*%
%TF.ProjectId,mcu_adapter,6d63755f-6164-4617-9074-65722e6b6963,rev?*%
%TF.SameCoordinates,Original*%
%TF.FileFunction,Copper,L2,Bot*%
%TF.FilePolarity,Positive*%
%FSLAX46Y46*%
G04 Gerber Fmt 4.6, Leading zero omitted, Abs format (unit mm)*
G04 Created by KiCad (PCBNEW 10.0.3) date 2026-06-14 02:41:54*
%MOMM*%
%LPD*%
G01*
G04 APERTURE LIST*
%TA.AperFunction,ComponentPad*%
%ADD10C,1.700000*%
%TD*%
%TA.AperFunction,ComponentPad*%
%ADD11R,1.700000X1.700000*%
%TD*%
%TA.AperFunction,ComponentPad*%
%ADD12C,1.346200*%
%TD*%
%TA.AperFunction,ViaPad*%
%ADD13C,0.550000*%
%TD*%
%TA.AperFunction,Conductor*%
%ADD14C,0.203200*%
%TD*%
G04 APERTURE END LIST*
D10*
%TO.P,U1,14*%
%TO.N,5V*%
X156121100Y-97320100D03*
%TO.P,U1,13*%
%TO.N,GND*%
X156121100Y-99860100D03*
%TO.P,U1,12*%
%TO.N,3V3*%
X156121100Y-102400100D03*
%TO.P,U1,11*%
%TO.N,D10*%
X156121100Y-104940100D03*
%TO.P,U1,10*%
%TO.N,D9*%
X156121100Y-107480100D03*
%TO.P,U1,9*%
%TO.N,D8*%
X156121100Y-110020100D03*
%TO.P,U1,8*%
%TO.N,N/C*%
X156121100Y-112560100D03*
%TO.P,U1,7*%
X140881100Y-112560100D03*
%TO.P,U1,6*%
%TO.N,SCL*%
X140881100Y-110020100D03*
%TO.P,U1,5*%
%TO.N,SDA*%
X140881100Y-107480100D03*
%TO.P,U1,4*%
%TO.N,D3*%
X140881100Y-104940100D03*
%TO.P,U1,3*%
%TO.N,D2*%
X140881100Y-102400100D03*
%TO.P,U1,2*%
%TO.N,D1*%
X140881100Y-99860100D03*
D11*
%TO.P,U1,1*%
%TO.N,D0*%
X140881100Y-97320100D03*
%TD*%
D12*
%TO.P,U$1,6*%
%TO.N,D0*%
X146501100Y-99100100D03*
%TO.P,U$1,5*%
%TO.N,D1*%
X146501100Y-101100100D03*
%TO.P,U$1,4*%
%TO.N,D2*%
X148501100Y-99100100D03*
%TO.P,U$1,3*%
%TO.N,D3*%
X148501100Y-101100100D03*
%TO.P,U$1,2*%
%TO.N,SDA*%
X150501100Y-99100100D03*
%TO.P,U$1,1*%
%TO.N,SCL*%
X150501100Y-101100100D03*
%TD*%
%TO.P,U$2,6*%
%TO.N,D8*%
X146501100Y-103350100D03*
%TO.P,U$2,5*%
%TO.N,D9*%
X146501100Y-105350100D03*
%TO.P,U$2,4*%
%TO.N,D10*%
X148501100Y-103350100D03*
%TO.P,U$2,3*%
%TO.N,3V3*%
X148501100Y-105350100D03*
%TO.P,U$2,2*%
%TO.N,GND*%
X150501100Y-103350100D03*
%TO.P,U$2,1*%
%TO.N,5V*%
X150501100Y-105350100D03*
%TD*%
D13*
%TO.N,GND*%
X158026100Y-104305100D03*
X158026100Y-99860100D03*
X138976100Y-104305100D03*
X138976100Y-99860100D03*
X154216100Y-114465100D03*
X152311100Y-114465100D03*
X150406100Y-114465100D03*
X148501100Y-114465100D03*
X146596100Y-114465100D03*
X144691100Y-114465100D03*
X142786100Y-114465100D03*
X154216100Y-96050100D03*
X152311100Y-96050100D03*
X150406100Y-96050100D03*
X148501100Y-96050100D03*
X146596100Y-96050100D03*
X144691100Y-96050100D03*
X142786100Y-96050100D03*
%TD*%
%TO.N,D10*%
D14*
X149472400Y-104321400D02*
X151057400Y-104321400D01*
X151057400Y-104321400D02*
X151676100Y-104940100D01*
X151676100Y-104940100D02*
X156121100Y-104940100D01*
X148501100Y-103350100D02*
X149472400Y-104321400D01*
%TO.N,SCL*%
X144411700Y-103314500D02*
X144411700Y-107759500D01*
X142151100Y-110020100D02*
X140881100Y-110020100D01*
X144411700Y-107759500D02*
X142151100Y-110020100D01*
X144411700Y-103314500D02*
X145445000Y-102281200D01*
X149393118Y-102281200D02*
X145445000Y-102281200D01*
X150501100Y-101173219D02*
X149393118Y-102281200D01*
X150501100Y-101100100D02*
X150501100Y-101173219D01*
%TO.N,SDA*%
X145470400Y-100096800D02*
X143090900Y-102476300D01*
X149504400Y-100096800D02*
X145470400Y-100096800D01*
X150501100Y-99100100D02*
X149504400Y-100096800D01*
X143090900Y-102476300D02*
X143090900Y-106540300D01*
X142151100Y-107480100D02*
X140881100Y-107480100D01*
X143090900Y-106540300D02*
X142151100Y-107480100D01*
%TO.N,D2*%
X148501100Y-99098100D02*
X148501100Y-99100100D01*
X147358100Y-97955100D02*
X148501100Y-99098100D01*
X145326100Y-97955100D02*
X147358100Y-97955100D01*
X144183100Y-99098100D02*
X145326100Y-97955100D01*
X140881100Y-102400100D02*
X144183100Y-99098100D01*
%TD*%
%TA.AperFunction,Conductor*%
%TO.N,GND*%
G36*
X156406305Y-94602879D02*
G01*
X156666249Y-94619916D01*
X156671059Y-94620549D01*
X156925360Y-94671134D01*
X156930025Y-94672384D01*
X157175549Y-94755728D01*
X157180030Y-94757583D01*
X157412570Y-94872260D01*
X157416763Y-94874680D01*
X157632360Y-95018736D01*
X157636198Y-95021682D01*
X157831140Y-95192642D01*
X157834557Y-95196059D01*
X157949671Y-95327321D01*
X158005512Y-95390995D01*
X158008464Y-95394842D01*
X158152516Y-95610431D01*
X158154942Y-95614634D01*
X158269615Y-95847168D01*
X158271472Y-95851652D01*
X158354812Y-96097163D01*
X158356068Y-96101850D01*
X158406649Y-96356139D01*
X158407283Y-96360950D01*
X158424321Y-96620893D01*
X158424400Y-96623320D01*
X158424400Y-97075179D01*
X158424400Y-97100100D01*
X158424400Y-97236214D01*
X158449066Y-97423570D01*
X158459933Y-97506111D01*
X158459934Y-97506117D01*
X158530388Y-97769062D01*
X158634569Y-98020577D01*
X158770678Y-98256323D01*
X158770690Y-98256341D01*
X158936397Y-98472294D01*
X158936400Y-98472297D01*
X158936404Y-98472302D01*
X159128898Y-98664796D01*
X159128902Y-98664799D01*
X159128905Y-98664802D01*
X159344858Y-98830509D01*
X159344867Y-98830515D01*
X159344871Y-98830518D01*
X159344874Y-98830520D01*
X159344876Y-98830521D01*
X159580622Y-98966630D01*
X159580624Y-98966631D01*
X159580628Y-98966633D01*
X159832134Y-99070810D01*
X159832135Y-99070810D01*
X159832137Y-99070811D01*
X159892363Y-99086948D01*
X160095087Y-99141267D01*
X160364986Y-99176800D01*
X160476179Y-99176800D01*
X160500053Y-99176800D01*
X160502132Y-99176857D01*
X160826331Y-99195064D01*
X160830458Y-99195529D01*
X161149554Y-99249746D01*
X161153584Y-99250666D01*
X161464611Y-99340271D01*
X161468519Y-99341639D01*
X161767556Y-99465504D01*
X161771287Y-99467301D01*
X162054567Y-99623864D01*
X162058090Y-99626078D01*
X162322047Y-99813365D01*
X162325300Y-99815959D01*
X162566631Y-100031627D01*
X162569572Y-100034568D01*
X162785240Y-100275899D01*
X162787834Y-100279152D01*
X162975121Y-100543109D01*
X162977335Y-100546632D01*
X163133894Y-100829904D01*
X163135699Y-100833652D01*
X163259557Y-101132671D01*
X163260931Y-101136598D01*
X163350530Y-101447602D01*
X163351456Y-101451659D01*
X163405669Y-101770738D01*
X163406135Y-101774872D01*
X163424283Y-102098020D01*
X163424283Y-102102180D01*
X163406135Y-102425327D01*
X163405669Y-102429461D01*
X163351456Y-102748540D01*
X163350530Y-102752597D01*
X163260931Y-103063601D01*
X163259557Y-103067528D01*
X163135699Y-103366547D01*
X163133894Y-103370295D01*
X162977335Y-103653567D01*
X162975121Y-103657090D01*
X162787834Y-103921047D01*
X162785240Y-103924300D01*
X162569572Y-104165631D01*
X162566631Y-104168572D01*
X162325300Y-104384240D01*
X162322047Y-104386834D01*
X162058090Y-104574121D01*
X162054567Y-104576335D01*
X161771295Y-104732894D01*
X161767547Y-104734699D01*
X161468528Y-104858557D01*
X161464601Y-104859931D01*
X161153597Y-104949530D01*
X161149540Y-104950456D01*
X160830461Y-105004669D01*
X160826327Y-105005135D01*
X160527519Y-105021915D01*
X160527245Y-105021929D01*
X160520494Y-105022257D01*
X160519282Y-105021529D01*
X160498674Y-105023321D01*
X160497958Y-105023356D01*
X160497872Y-105023325D01*
X160496152Y-105023400D01*
X160476179Y-105023400D01*
X160472312Y-105024656D01*
X160464067Y-105026330D01*
X160357341Y-105035612D01*
X160357325Y-105035615D01*
X160087956Y-105092346D01*
X159827394Y-105181133D01*
X159579429Y-105300681D01*
X159579422Y-105300685D01*
X159347675Y-105449251D01*
X159135527Y-105624664D01*
X159135521Y-105624669D01*
X158946062Y-105824380D01*
X158946060Y-105824383D01*
X158782062Y-106045464D01*
X158645894Y-106284724D01*
X158539565Y-106538637D01*
X158464618Y-106803511D01*
X158422143Y-107075501D01*
X158412762Y-107350617D01*
X158412762Y-107350626D01*
X158424260Y-107482822D01*
X158424400Y-107486037D01*
X158424400Y-113479879D01*
X158424321Y-113482306D01*
X158408104Y-113729718D01*
X158407470Y-113734529D01*
X158359339Y-113976503D01*
X158358083Y-113981190D01*
X158278780Y-114214809D01*
X158276923Y-114219293D01*
X158167804Y-114440565D01*
X158165378Y-114444768D01*
X158028305Y-114649913D01*
X158025350Y-114653763D01*
X157862682Y-114839251D01*
X157859251Y-114842682D01*
X157673763Y-115005350D01*
X157669913Y-115008305D01*
X157464768Y-115145378D01*
X157460565Y-115147804D01*
X157239293Y-115256923D01*
X157234809Y-115258780D01*
X157001190Y-115338083D01*
X156996503Y-115339339D01*
X156754529Y-115387470D01*
X156749718Y-115388104D01*
X156515301Y-115403469D01*
X156502304Y-115404321D01*
X156499879Y-115404400D01*
X140502321Y-115404400D01*
X140499895Y-115404321D01*
X140485820Y-115403398D01*
X140252481Y-115388104D01*
X140247670Y-115387470D01*
X140005696Y-115339339D01*
X140001009Y-115338083D01*
X139767390Y-115258780D01*
X139762906Y-115256923D01*
X139541634Y-115147804D01*
X139537431Y-115145378D01*
X139332283Y-115008302D01*
X139328440Y-115005353D01*
X139142941Y-114842675D01*
X139139524Y-114839258D01*
X138976844Y-114653757D01*
X138973898Y-114649919D01*
X138836818Y-114444763D01*
X138834395Y-114440565D01*
X138725276Y-114219293D01*
X138723419Y-114214809D01*
X138701442Y-114150066D01*
X138644113Y-113981179D01*
X138642863Y-113976514D01*
X138594728Y-113734528D01*
X138594095Y-113729717D01*
X138577879Y-113482305D01*
X138577800Y-113479879D01*
X138577800Y-112456629D01*
X139830600Y-112456629D01*
X139830600Y-112663570D01*
X139870968Y-112866514D01*
X139870969Y-112866516D01*
X139870970Y-112866520D01*
X139950159Y-113057698D01*
X140065123Y-113229755D01*
X140211445Y-113376077D01*
X140383502Y-113491041D01*
X140574680Y-113570230D01*
X140574684Y-113570230D01*
X140574685Y-113570231D01*
X140777629Y-113610599D01*
X140777631Y-113610599D01*
X140777635Y-113610600D01*
X140777638Y-113610600D01*
X140984562Y-113610600D01*
X140984565Y-113610600D01*
X141187520Y-113570230D01*
X141378698Y-113491041D01*
X141550755Y-113376077D01*
X141697077Y-113229755D01*
X141812041Y-113057698D01*
X141891230Y-112866520D01*
X141931600Y-112663565D01*
X141931600Y-112456635D01*
X141931599Y-112456629D01*
X155070600Y-112456629D01*
X155070600Y-112663570D01*
X155110968Y-112866514D01*
X155110969Y-112866516D01*
X155110970Y-112866520D01*
X155190159Y-113057698D01*
X155305123Y-113229755D01*
X155451445Y-113376077D01*
X155623502Y-113491041D01*
X155814680Y-113570230D01*
X155814684Y-113570230D01*
X155814685Y-113570231D01*
X156017629Y-113610599D01*
X156017631Y-113610599D01*
X156017635Y-113610600D01*
X156017638Y-113610600D01*
X156224562Y-113610600D01*
X156224565Y-113610600D01*
X156427520Y-113570230D01*
X156618698Y-113491041D01*
X156790755Y-113376077D01*
X156937077Y-113229755D01*
X157052041Y-113057698D01*
X157131230Y-112866520D01*
X157171600Y-112663565D01*
X157171600Y-112456635D01*
X157131230Y-112253680D01*
X157052041Y-112062502D01*
X156937077Y-111890445D01*
X156790755Y-111744123D01*
X156618698Y-111629159D01*
X156427520Y-111549970D01*
X156427516Y-111549969D01*
X156427514Y-111549968D01*
X156224570Y-111509600D01*
X156224565Y-111509600D01*
X156017635Y-111509600D01*
X156017629Y-111509600D01*
X155814685Y-111549968D01*
X155814683Y-111549969D01*
X155814681Y-111549969D01*
X155814680Y-111549970D01*
X155623502Y-111629159D01*
X155451445Y-111744123D01*
X155305123Y-111890445D01*
X155190159Y-112062502D01*
X155110969Y-112253683D01*
X155110968Y-112253685D01*
X155070600Y-112456629D01*
X141931599Y-112456629D01*
X141891230Y-112253680D01*
X141812041Y-112062502D01*
X141697077Y-111890445D01*
X141550755Y-111744123D01*
X141378698Y-111629159D01*
X141187520Y-111549970D01*
X141187516Y-111549969D01*
X141187514Y-111549968D01*
X140984570Y-111509600D01*
X140984565Y-111509600D01*
X140777635Y-111509600D01*
X140777629Y-111509600D01*
X140574685Y-111549968D01*
X140574683Y-111549969D01*
X140574681Y-111549969D01*
X140574680Y-111549970D01*
X140383502Y-111629159D01*
X140211445Y-111744123D01*
X140065123Y-111890445D01*
X139950159Y-112062502D01*
X139870969Y-112253683D01*
X139870968Y-112253685D01*
X139830600Y-112456629D01*
X138577800Y-112456629D01*
X138577800Y-107486037D01*
X138577940Y-107482822D01*
X138589437Y-107350626D01*
X138589437Y-107350617D01*
X138580056Y-107075501D01*
X138537581Y-106803511D01*
X138494550Y-106651433D01*
X138462634Y-106538635D01*
X138356303Y-106284719D01*
X138220142Y-106045471D01*
X138056136Y-105824379D01*
X137991339Y-105756076D01*
X137866678Y-105624669D01*
X137866672Y-105624664D01*
X137654524Y-105449251D01*
X137422777Y-105300685D01*
X137422770Y-105300681D01*
X137174805Y-105181133D01*
X136914243Y-105092346D01*
X136644868Y-105035614D01*
X136644865Y-105035613D01*
X136538131Y-105026329D01*
X136538131Y-105026330D01*
X136528956Y-105025532D01*
X136526021Y-105023400D01*
X136504433Y-105023400D01*
X136502833Y-105023260D01*
X136484144Y-105021635D01*
X136482918Y-105021529D01*
X136482917Y-105021529D01*
X136481065Y-105021368D01*
X136474681Y-105021916D01*
X136175872Y-105005135D01*
X136171738Y-105004669D01*
X135852659Y-104950456D01*
X135848602Y-104949530D01*
X135802662Y-104936295D01*
X135537598Y-104859931D01*
X135533671Y-104858557D01*
X135480732Y-104836629D01*
X139830600Y-104836629D01*
X139830600Y-105043570D01*
X139870968Y-105246514D01*
X139870969Y-105246516D01*
X139870970Y-105246520D01*
X139950159Y-105437698D01*
X140065123Y-105609755D01*
X140211445Y-105756077D01*
X140383502Y-105871041D01*
X140574680Y-105950230D01*
X140574684Y-105950230D01*
X140574685Y-105950231D01*
X140777629Y-105990599D01*
X140777631Y-105990599D01*
X140777635Y-105990600D01*
X140777638Y-105990600D01*
X140984562Y-105990600D01*
X140984565Y-105990600D01*
X141187520Y-105950230D01*
X141378698Y-105871041D01*
X141550755Y-105756077D01*
X141697077Y-105609755D01*
X141812041Y-105437698D01*
X141891230Y-105246520D01*
X141931600Y-105043565D01*
X141931600Y-104836635D01*
X141891230Y-104633680D01*
X141812041Y-104442502D01*
X141697077Y-104270445D01*
X141550755Y-104124123D01*
X141378698Y-104009159D01*
X141187520Y-103929970D01*
X141187516Y-103929969D01*
X141187514Y-103929968D01*
X140984570Y-103889600D01*
X140984565Y-103889600D01*
X140777635Y-103889600D01*
X140777629Y-103889600D01*
X140574685Y-103929968D01*
X140574683Y-103929969D01*
X140574681Y-103929969D01*
X140574680Y-103929970D01*
X140383502Y-104009159D01*
X140211445Y-104124123D01*
X140065123Y-104270445D01*
X139950159Y-104442502D01*
X139873682Y-104627134D01*
X139870969Y-104633683D01*
X139870968Y-104633685D01*
X139830600Y-104836629D01*
X135480732Y-104836629D01*
X135234652Y-104734699D01*
X135230904Y-104732894D01*
X134947632Y-104576335D01*
X134944109Y-104574121D01*
X134680152Y-104386834D01*
X134676899Y-104384240D01*
X134435568Y-104168572D01*
X134432627Y-104165631D01*
X134216959Y-103924300D01*
X134214365Y-103921047D01*
X134027078Y-103657090D01*
X134024864Y-103653567D01*
X133997976Y-103604916D01*
X133868301Y-103370287D01*
X133866504Y-103366556D01*
X133742639Y-103067519D01*
X133741271Y-103063611D01*
X133651666Y-102752584D01*
X133650746Y-102748554D01*
X133596529Y-102429458D01*
X133596064Y-102425327D01*
X133588837Y-102296635D01*
X133577916Y-102102165D01*
X133577916Y-102098034D01*
X133584703Y-101977173D01*
X134625600Y-101977173D01*
X134625600Y-102223027D01*
X134653709Y-102436528D01*
X134657691Y-102466775D01*
X134657692Y-102466781D01*
X134721320Y-102704249D01*
X134815405Y-102931391D01*
X134938336Y-103144313D01*
X134938341Y-103144320D01*
X135087992Y-103339348D01*
X135087995Y-103339351D01*
X135087999Y-103339356D01*
X135261844Y-103513201D01*
X135261848Y-103513204D01*
X135261851Y-103513207D01*
X135456879Y-103662858D01*
X135456886Y-103662863D01*
X135456889Y-103662864D01*
X135456892Y-103662867D01*
X135669808Y-103785794D01*
X135896947Y-103879878D01*
X135896948Y-103879878D01*
X135896950Y-103879879D01*
X135933230Y-103889600D01*
X136134423Y-103943509D01*
X136378173Y-103975600D01*
X136378178Y-103975600D01*
X136624022Y-103975600D01*
X136624027Y-103975600D01*
X136867777Y-103943509D01*
X137105253Y-103879878D01*
X137332392Y-103785794D01*
X137545308Y-103662867D01*
X137555054Y-103655389D01*
X137740348Y-103513207D01*
X137740347Y-103513207D01*
X137740356Y-103513201D01*
X137914201Y-103339356D01*
X138063867Y-103144308D01*
X138186794Y-102931392D01*
X138280878Y-102704253D01*
X138344509Y-102466777D01*
X138366910Y-102296629D01*
X139830600Y-102296629D01*
X139830600Y-102503570D01*
X139870968Y-102706514D01*
X139870969Y-102706516D01*
X139870970Y-102706520D01*
X139950159Y-102897698D01*
X140065123Y-103069755D01*
X140211445Y-103216077D01*
X140383502Y-103331041D01*
X140574680Y-103410230D01*
X140574684Y-103410230D01*
X140574685Y-103410231D01*
X140777629Y-103450599D01*
X140777631Y-103450599D01*
X140777635Y-103450600D01*
X140777638Y-103450600D01*
X140984562Y-103450600D01*
X140984565Y-103450600D01*
X141187520Y-103410230D01*
X141378698Y-103331041D01*
X141550755Y-103216077D01*
X141697077Y-103069755D01*
X141812041Y-102897698D01*
X141891230Y-102706520D01*
X141931600Y-102503565D01*
X141931600Y-102296635D01*
X141930441Y-102290810D01*
X141891231Y-102093685D01*
X141891230Y-102093684D01*
X141891230Y-102093680D01*
X141819738Y-101921084D01*
X141819738Y-101892688D01*
X141827777Y-101880655D01*
X144424840Y-99283594D01*
X145440368Y-98268066D01*
X145466602Y-98257200D01*
X146067849Y-98257200D01*
X146094083Y-98268066D01*
X146104949Y-98294300D01*
X146094083Y-98320534D01*
X146088461Y-98325148D01*
X146087299Y-98325924D01*
X146087295Y-98325926D01*
X145944212Y-98421531D01*
X145822531Y-98543212D01*
X145726926Y-98686295D01*
X145661073Y-98845279D01*
X145661071Y-98845283D01*
X145661070Y-98845285D01*
X145627500Y-99014052D01*
X145627500Y-99186147D01*
X145661070Y-99354914D01*
X145661071Y-99354916D01*
X145661072Y-99354920D01*
X145726926Y-99513905D01*
X145822531Y-99656988D01*
X145896910Y-99731367D01*
X145907776Y-99757600D01*
X145896910Y-99783834D01*
X145870676Y-99794700D01*
X145430628Y-99794700D01*
X145353795Y-99815285D01*
X145353794Y-99815286D01*
X145284910Y-99855056D01*
X142849156Y-102290810D01*
X142809388Y-102359689D01*
X142809388Y-102359691D01*
X142809387Y-102359694D01*
X142788800Y-102436529D01*
X142788800Y-106399798D01*
X142777934Y-106426032D01*
X142036832Y-107167134D01*
X142010598Y-107178000D01*
X141917809Y-107178000D01*
X141891575Y-107167134D01*
X141883533Y-107155098D01*
X141812041Y-106982502D01*
X141697077Y-106810445D01*
X141550755Y-106664123D01*
X141378698Y-106549159D01*
X141187520Y-106469970D01*
X141187516Y-106469969D01*
X141187514Y-106469968D01*
X140984570Y-106429600D01*
X140984565Y-106429600D01*
X140777635Y-106429600D01*
X140777629Y-106429600D01*
X140574685Y-106469968D01*
X140574683Y-106469969D01*
X140574681Y-106469969D01*
X140574680Y-106469970D01*
X140383502Y-106549159D01*
X140211445Y-106664123D01*
X140065123Y-106810445D01*
X139950159Y-106982502D01*
X139873682Y-107167134D01*
X139870969Y-107173683D01*
X139870968Y-107173685D01*
X139830600Y-107376629D01*
X139830600Y-107583570D01*
X139870968Y-107786514D01*
X139870969Y-107786516D01*
X139870970Y-107786520D01*
X139950159Y-107977698D01*
X140065123Y-108149755D01*
X140211445Y-108296077D01*
X140383502Y-108411041D01*
X140574680Y-108490230D01*
X140574684Y-108490230D01*
X140574685Y-108490231D01*
X140777629Y-108530599D01*
X140777631Y-108530599D01*
X140777635Y-108530600D01*
X140777638Y-108530600D01*
X140984562Y-108530600D01*
X140984565Y-108530600D01*
X141187520Y-108490230D01*
X141378698Y-108411041D01*
X141550755Y-108296077D01*
X141697077Y-108149755D01*
X141812041Y-107977698D01*
X141883533Y-107805101D01*
X141903612Y-107785024D01*
X141917809Y-107782200D01*
X142190872Y-107782200D01*
X142267704Y-107761614D01*
X142267704Y-107761613D01*
X142267707Y-107761613D01*
X142336594Y-107721840D01*
X143332640Y-106725794D01*
X143372413Y-106656907D01*
X143393000Y-106580072D01*
X143393000Y-106500528D01*
X143393000Y-102616802D01*
X143403866Y-102590568D01*
X145584668Y-100409766D01*
X145610902Y-100398900D01*
X145877276Y-100398900D01*
X145903510Y-100409766D01*
X145914376Y-100436000D01*
X145903510Y-100462232D01*
X145822531Y-100543212D01*
X145726926Y-100686295D01*
X145665889Y-100833652D01*
X145661071Y-100845283D01*
X145661070Y-100845285D01*
X145627500Y-101014052D01*
X145627500Y-101186147D01*
X145661070Y-101354914D01*
X145661071Y-101354916D01*
X145661072Y-101354920D01*
X145726926Y-101513905D01*
X145822531Y-101656988D01*
X145944212Y-101778669D01*
X146087295Y-101874274D01*
X146168053Y-101907725D01*
X146188130Y-101927803D01*
X146188130Y-101956198D01*
X146168051Y-101976276D01*
X146153854Y-101979100D01*
X145405228Y-101979100D01*
X145328395Y-101999685D01*
X145328394Y-101999686D01*
X145259510Y-102039456D01*
X144169956Y-103129010D01*
X144130186Y-103197893D01*
X144112459Y-103264058D01*
X144109600Y-103274728D01*
X144109600Y-107618998D01*
X144098734Y-107645232D01*
X142036832Y-109707134D01*
X142010598Y-109718000D01*
X141917809Y-109718000D01*
X141891575Y-109707134D01*
X141883533Y-109695098D01*
X141812041Y-109522502D01*
X141697077Y-109350445D01*
X141550755Y-109204123D01*
X141378698Y-109089159D01*
X141187520Y-109009970D01*
X141187516Y-109009969D01*
X141187514Y-109009968D01*
X140984570Y-108969600D01*
X140984565Y-108969600D01*
X140777635Y-108969600D01*
X140777629Y-108969600D01*
X140574685Y-109009968D01*
X140574683Y-109009969D01*
X140574681Y-109009969D01*
X140574680Y-109009970D01*
X140383502Y-109089159D01*
X140211445Y-109204123D01*
X140065123Y-109350445D01*
X139950159Y-109522502D01*
X139873682Y-109707134D01*
X139870969Y-109713683D01*
X139870968Y-109713685D01*
X139830600Y-109916629D01*
X139830600Y-110123570D01*
X139870968Y-110326514D01*
X139870969Y-110326516D01*
X139870970Y-110326520D01*
X139950159Y-110517698D01*
X140065123Y-110689755D01*
X140211445Y-110836077D01*
X140383502Y-110951041D01*
X140574680Y-111030230D01*
X140574684Y-111030230D01*
X140574685Y-111030231D01*
X140777629Y-111070599D01*
X140777631Y-111070599D01*
X140777635Y-111070600D01*
X140777638Y-111070600D01*
X140984562Y-111070600D01*
X140984565Y-111070600D01*
X141187520Y-111030230D01*
X141378698Y-110951041D01*
X141550755Y-110836077D01*
X141697077Y-110689755D01*
X141812041Y-110517698D01*
X141883533Y-110345101D01*
X141903612Y-110325024D01*
X141917809Y-110322200D01*
X142190872Y-110322200D01*
X142267704Y-110301614D01*
X142267704Y-110301613D01*
X142267707Y-110301613D01*
X142336594Y-110261840D01*
X142681805Y-109916629D01*
X155070600Y-109916629D01*
X155070600Y-110123570D01*
X155110968Y-110326514D01*
X155110969Y-110326516D01*
X155110970Y-110326520D01*
X155190159Y-110517698D01*
X155305123Y-110689755D01*
X155451445Y-110836077D01*
X155623502Y-110951041D01*
X155814680Y-111030230D01*
X155814684Y-111030230D01*
X155814685Y-111030231D01*
X156017629Y-111070599D01*
X156017631Y-111070599D01*
X156017635Y-111070600D01*
X156017638Y-111070600D01*
X156224562Y-111070600D01*
X156224565Y-111070600D01*
X156427520Y-111030230D01*
X156618698Y-110951041D01*
X156790755Y-110836077D01*
X156937077Y-110689755D01*
X157052041Y-110517698D01*
X157131230Y-110326520D01*
X157171600Y-110123565D01*
X157171600Y-109916635D01*
X157131230Y-109713680D01*
X157052041Y-109522502D01*
X156937077Y-109350445D01*
X156790755Y-109204123D01*
X156618698Y-109089159D01*
X156427520Y-109009970D01*
X156427516Y-109009969D01*
X156427514Y-109009968D01*
X156224570Y-108969600D01*
X156224565Y-108969600D01*
X156017635Y-108969600D01*
X156017629Y-108969600D01*
X155814685Y-109009968D01*
X155814683Y-109009969D01*
X155814681Y-109009969D01*
X155814680Y-109009970D01*
X155623502Y-109089159D01*
X155451445Y-109204123D01*
X155305123Y-109350445D01*
X155190159Y-109522502D01*
X155113682Y-109707134D01*
X155110969Y-109713683D01*
X155110968Y-109713685D01*
X155070600Y-109916629D01*
X142681805Y-109916629D01*
X144653440Y-107944994D01*
X144693213Y-107876107D01*
X144713800Y-107799272D01*
X144713800Y-107719728D01*
X144713800Y-107376629D01*
X155070600Y-107376629D01*
X155070600Y-107583570D01*
X155110968Y-107786514D01*
X155110969Y-107786516D01*
X155110970Y-107786520D01*
X155190159Y-107977698D01*
X155305123Y-108149755D01*
X155451445Y-108296077D01*
X155623502Y-108411041D01*
X155814680Y-108490230D01*
X155814684Y-108490230D01*
X155814685Y-108490231D01*
X156017629Y-108530599D01*
X156017631Y-108530599D01*
X156017635Y-108530600D01*
X156017638Y-108530600D01*
X156224562Y-108530600D01*
X156224565Y-108530600D01*
X156427520Y-108490230D01*
X156618698Y-108411041D01*
X156790755Y-108296077D01*
X156937077Y-108149755D01*
X157052041Y-107977698D01*
X157131230Y-107786520D01*
X157171600Y-107583565D01*
X157171600Y-107376635D01*
X157131230Y-107173680D01*
X157052041Y-106982502D01*
X156937077Y-106810445D01*
X156790755Y-106664123D01*
X156618698Y-106549159D01*
X156427520Y-106469970D01*
X156427516Y-106469969D01*
X156427514Y-106469968D01*
X156224570Y-106429600D01*
X156224565Y-106429600D01*
X156017635Y-106429600D01*
X156017629Y-106429600D01*
X155814685Y-106469968D01*
X155814683Y-106469969D01*
X155814681Y-106469969D01*
X155814680Y-106469970D01*
X155623502Y-106549159D01*
X155451445Y-106664123D01*
X155305123Y-106810445D01*
X155190159Y-106982502D01*
X155113682Y-107167134D01*
X155110969Y-107173683D01*
X155110968Y-107173685D01*
X155070600Y-107376629D01*
X144713800Y-107376629D01*
X144713800Y-105264052D01*
X145627500Y-105264052D01*
X145627500Y-105436147D01*
X145661070Y-105604914D01*
X145661071Y-105604916D01*
X145661072Y-105604920D01*
X145726926Y-105763905D01*
X145822531Y-105906988D01*
X145944212Y-106028669D01*
X146087295Y-106124274D01*
X146246280Y-106190128D01*
X146246284Y-106190128D01*
X146246285Y-106190129D01*
X146415052Y-106223699D01*
X146415054Y-106223699D01*
X146415058Y-106223700D01*
X146415061Y-106223700D01*
X146587139Y-106223700D01*
X146587142Y-106223700D01*
X146755920Y-106190128D01*
X146914905Y-106124274D01*
X147057988Y-106028669D01*
X147179669Y-105906988D01*
X147275274Y-105763905D01*
X147341128Y-105604920D01*
X147374700Y-105436142D01*
X147374700Y-105264058D01*
X147374699Y-105264052D01*
X147627500Y-105264052D01*
X147627500Y-105436147D01*
X147661070Y-105604914D01*
X147661071Y-105604916D01*
X147661072Y-105604920D01*
X147726926Y-105763905D01*
X147822531Y-105906988D01*
X147944212Y-106028669D01*
X148087295Y-106124274D01*
X148246280Y-106190128D01*
X148246284Y-106190128D01*
X148246285Y-106190129D01*
X148415052Y-106223699D01*
X148415054Y-106223699D01*
X148415058Y-106223700D01*
X148415061Y-106223700D01*
X148587139Y-106223700D01*
X148587142Y-106223700D01*
X148755920Y-106190128D01*
X148914905Y-106124274D01*
X149057988Y-106028669D01*
X149179669Y-105906988D01*
X149275274Y-105763905D01*
X149341128Y-105604920D01*
X149374700Y-105436142D01*
X149374700Y-105264058D01*
X149371211Y-105246520D01*
X149341129Y-105095285D01*
X149341128Y-105095284D01*
X149341128Y-105095280D01*
X149275274Y-104936295D01*
X149179669Y-104793212D01*
X149057988Y-104671531D01*
X148914905Y-104575926D01*
X148755920Y-104510072D01*
X148755916Y-104510071D01*
X148755914Y-104510070D01*
X148587147Y-104476500D01*
X148587142Y-104476500D01*
X148415058Y-104476500D01*
X148415052Y-104476500D01*
X148246285Y-104510070D01*
X148246283Y-104510071D01*
X148246281Y-104510071D01*
X148246280Y-104510072D01*
X148087295Y-104575926D01*
X147944212Y-104671531D01*
X147822531Y-104793212D01*
X147726926Y-104936295D01*
X147662288Y-105092346D01*
X147661071Y-105095283D01*
X147661070Y-105095285D01*
X147627500Y-105264052D01*
X147374699Y-105264052D01*
X147371211Y-105246520D01*
X147341129Y-105095285D01*
X147341128Y-105095284D01*
X147341128Y-105095280D01*
X147275274Y-104936295D01*
X147179669Y-104793212D01*
X147057988Y-104671531D01*
X146914905Y-104575926D01*
X146755920Y-104510072D01*
X146755916Y-104510071D01*
X146755914Y-104510070D01*
X146587147Y-104476500D01*
X146587142Y-104476500D01*
X146415058Y-104476500D01*
X146415052Y-104476500D01*
X146246285Y-104510070D01*
X146246283Y-104510071D01*
X146246281Y-104510071D01*
X146246280Y-104510072D01*
X146087295Y-104575926D01*
X145944212Y-104671531D01*
X145822531Y-104793212D01*
X145726926Y-104936295D01*
X145662288Y-105092346D01*
X145661071Y-105095283D01*
X145661070Y-105095285D01*
X145627500Y-105264052D01*
X144713800Y-105264052D01*
X144713800Y-103455002D01*
X144724666Y-103428768D01*
X145559268Y-102594166D01*
X145585502Y-102583300D01*
X145953956Y-102583300D01*
X145980190Y-102594166D01*
X145991056Y-102620400D01*
X145980190Y-102646634D01*
X145974568Y-102651247D01*
X145944215Y-102671528D01*
X145944212Y-102671531D01*
X145822531Y-102793212D01*
X145726926Y-102936295D01*
X145661300Y-103094731D01*
X145661071Y-103095283D01*
X145661070Y-103095285D01*
X145627500Y-103264052D01*
X145627500Y-103436147D01*
X145661070Y-103604914D01*
X145661071Y-103604916D01*
X145661072Y-103604920D01*
X145726926Y-103763905D01*
X145822531Y-103906988D01*
X145944212Y-104028669D01*
X146087295Y-104124274D01*
X146246280Y-104190128D01*
X146246284Y-104190128D01*
X146246285Y-104190129D01*
X146415052Y-104223699D01*
X146415054Y-104223699D01*
X146415058Y-104223700D01*
X146415061Y-104223700D01*
X146587139Y-104223700D01*
X146587142Y-104223700D01*
X146755920Y-104190128D01*
X146914905Y-104124274D01*
X147057988Y-104028669D01*
X147179669Y-103906988D01*
X147275274Y-103763905D01*
X147341128Y-103604920D01*
X147374700Y-103436142D01*
X147374700Y-103264058D01*
X147341128Y-103095280D01*
X147275274Y-102936295D01*
X147179669Y-102793212D01*
X147057988Y-102671531D01*
X147057984Y-102671528D01*
X147027632Y-102651247D01*
X147011857Y-102627637D01*
X147017397Y-102599788D01*
X147041007Y-102584013D01*
X147048244Y-102583300D01*
X147953956Y-102583300D01*
X147980190Y-102594166D01*
X147991056Y-102620400D01*
X147980190Y-102646634D01*
X147974568Y-102651247D01*
X147944215Y-102671528D01*
X147944212Y-102671531D01*
X147822531Y-102793212D01*
X147726926Y-102936295D01*
X147661300Y-103094731D01*
X147661071Y-103095283D01*
X147661070Y-103095285D01*
X147627500Y-103264052D01*
X147627500Y-103436147D01*
X147661070Y-103604914D01*
X147661071Y-103604916D01*
X147661072Y-103604920D01*
X147726926Y-103763905D01*
X147822531Y-103906988D01*
X147944212Y-104028669D01*
X148087295Y-104124274D01*
X148246280Y-104190128D01*
X148246284Y-104190128D01*
X148246285Y-104190129D01*
X148415052Y-104223699D01*
X148415054Y-104223699D01*
X148415058Y-104223700D01*
X148415061Y-104223700D01*
X148587139Y-104223700D01*
X148587142Y-104223700D01*
X148755920Y-104190128D01*
X148844723Y-104153344D01*
X148873115Y-104153344D01*
X148885152Y-104161386D01*
X149286906Y-104563140D01*
X149286908Y-104563141D01*
X149286910Y-104563143D01*
X149324426Y-104584802D01*
X149355793Y-104602913D01*
X149355794Y-104602913D01*
X149355795Y-104602914D01*
X149432628Y-104623500D01*
X149512172Y-104623500D01*
X149902676Y-104623500D01*
X149928910Y-104634366D01*
X149939776Y-104660600D01*
X149928910Y-104686832D01*
X149822531Y-104793212D01*
X149726926Y-104936295D01*
X149662288Y-105092346D01*
X149661071Y-105095283D01*
X149661070Y-105095285D01*
X149627500Y-105264052D01*
X149627500Y-105436147D01*
X149661070Y-105604914D01*
X149661071Y-105604916D01*
X149661072Y-105604920D01*
X149726926Y-105763905D01*
X149822531Y-105906988D01*
X149944212Y-106028669D01*
X150087295Y-106124274D01*
X150246280Y-106190128D01*
X150246284Y-106190128D01*
X150246285Y-106190129D01*
X150415052Y-106223699D01*
X150415054Y-106223699D01*
X150415058Y-106223700D01*
X150415061Y-106223700D01*
X150587139Y-106223700D01*
X150587142Y-106223700D01*
X150755920Y-106190128D01*
X150914905Y-106124274D01*
X151057988Y-106028669D01*
X151179669Y-105906988D01*
X151275274Y-105763905D01*
X151341128Y-105604920D01*
X151374700Y-105436142D01*
X151374700Y-105264058D01*
X151371211Y-105246520D01*
X151358346Y-105181840D01*
X151349365Y-105136691D01*
X151354904Y-105108842D01*
X151378514Y-105093067D01*
X151406364Y-105098606D01*
X151411985Y-105103220D01*
X151490606Y-105181840D01*
X151490609Y-105181843D01*
X151537940Y-105209169D01*
X151559493Y-105221613D01*
X151559494Y-105221613D01*
X151559495Y-105221614D01*
X151636328Y-105242200D01*
X155084391Y-105242200D01*
X155110625Y-105253066D01*
X155118666Y-105265101D01*
X155190159Y-105437698D01*
X155305123Y-105609755D01*
X155451445Y-105756077D01*
X155623502Y-105871041D01*
X155814680Y-105950230D01*
X155814684Y-105950230D01*
X155814685Y-105950231D01*
X156017629Y-105990599D01*
X156017631Y-105990599D01*
X156017635Y-105990600D01*
X156017638Y-105990600D01*
X156224562Y-105990600D01*
X156224565Y-105990600D01*
X156427520Y-105950230D01*
X156618698Y-105871041D01*
X156790755Y-105756077D01*
X156937077Y-105609755D01*
X157052041Y-105437698D01*
X157131230Y-105246520D01*
X157171600Y-105043565D01*
X157171600Y-104836635D01*
X157131230Y-104633680D01*
X157052041Y-104442502D01*
X156937077Y-104270445D01*
X156790755Y-104124123D01*
X156618698Y-104009159D01*
X156427520Y-103929970D01*
X156427516Y-103929969D01*
X156427514Y-103929968D01*
X156224570Y-103889600D01*
X156224565Y-103889600D01*
X156017635Y-103889600D01*
X156017629Y-103889600D01*
X155814685Y-103929968D01*
X155814683Y-103929969D01*
X155814681Y-103929969D01*
X155814680Y-103929970D01*
X155682406Y-103984760D01*
X155623502Y-104009159D01*
X155451445Y-104124123D01*
X155305123Y-104270445D01*
X155190159Y-104442502D01*
X155118667Y-104615098D01*
X155098588Y-104635176D01*
X155084391Y-104638000D01*
X151816602Y-104638000D01*
X151790368Y-104627134D01*
X151547474Y-104384240D01*
X151242894Y-104079660D01*
X151242891Y-104079658D01*
X151242889Y-104079656D01*
X151174005Y-104039886D01*
X151174006Y-104039886D01*
X151137847Y-104030198D01*
X151115320Y-104012912D01*
X151111613Y-103984760D01*
X151121215Y-103968128D01*
X151181144Y-103908198D01*
X151276957Y-103764804D01*
X151342955Y-103605470D01*
X151342956Y-103605468D01*
X151373621Y-103451300D01*
X150907868Y-103451300D01*
X150920200Y-103405276D01*
X150920200Y-103294924D01*
X150907868Y-103248900D01*
X151373622Y-103248900D01*
X151373621Y-103248899D01*
X151342956Y-103094731D01*
X151342955Y-103094729D01*
X151276957Y-102935395D01*
X151181144Y-102792001D01*
X151059198Y-102670055D01*
X150915804Y-102574242D01*
X150756468Y-102508243D01*
X150602300Y-102477577D01*
X150602300Y-102943332D01*
X150556276Y-102931000D01*
X150445924Y-102931000D01*
X150399900Y-102943332D01*
X150399900Y-102477577D01*
X150399899Y-102477577D01*
X150245731Y-102508243D01*
X150086395Y-102574242D01*
X149943001Y-102670055D01*
X149821055Y-102792001D01*
X149725242Y-102935395D01*
X149659244Y-103094729D01*
X149659243Y-103094731D01*
X149628578Y-103248899D01*
X149628578Y-103248900D01*
X150094332Y-103248900D01*
X150082000Y-103294924D01*
X150082000Y-103405276D01*
X150094332Y-103451300D01*
X149628578Y-103451300D01*
X149659243Y-103605468D01*
X149659244Y-103605470D01*
X149725242Y-103764804D01*
X149821055Y-103908198D01*
X149868823Y-103955966D01*
X149879689Y-103982200D01*
X149868823Y-104008434D01*
X149842589Y-104019300D01*
X149612902Y-104019300D01*
X149586668Y-104008434D01*
X149312386Y-103734152D01*
X149301520Y-103707918D01*
X149304342Y-103693725D01*
X149341128Y-103604920D01*
X149374700Y-103436142D01*
X149374700Y-103264058D01*
X149341128Y-103095280D01*
X149275274Y-102936295D01*
X149179669Y-102793212D01*
X149057988Y-102671531D01*
X149057984Y-102671528D01*
X149027632Y-102651247D01*
X149011857Y-102627637D01*
X149017397Y-102599788D01*
X149041007Y-102584013D01*
X149048244Y-102583300D01*
X149432890Y-102583300D01*
X149509722Y-102562714D01*
X149509722Y-102562713D01*
X149509725Y-102562713D01*
X149578612Y-102522940D01*
X149804923Y-102296629D01*
X155070600Y-102296629D01*
X155070600Y-102503570D01*
X155110968Y-102706514D01*
X155110969Y-102706516D01*
X155110970Y-102706520D01*
X155190159Y-102897698D01*
X155305123Y-103069755D01*
X155451445Y-103216077D01*
X155623502Y-103331041D01*
X155814680Y-103410230D01*
X155814684Y-103410230D01*
X155814685Y-103410231D01*
X156017629Y-103450599D01*
X156017631Y-103450599D01*
X156017635Y-103450600D01*
X156017638Y-103450600D01*
X156224562Y-103450600D01*
X156224565Y-103450600D01*
X156427520Y-103410230D01*
X156618698Y-103331041D01*
X156790755Y-103216077D01*
X156937077Y-103069755D01*
X157052041Y-102897698D01*
X157131230Y-102706520D01*
X157171600Y-102503565D01*
X157171600Y-102296635D01*
X157170441Y-102290810D01*
X157131231Y-102093685D01*
X157131230Y-102093684D01*
X157131230Y-102093680D01*
X157082971Y-101977173D01*
X158625600Y-101977173D01*
X158625600Y-102223027D01*
X158653709Y-102436528D01*
X158657691Y-102466775D01*
X158657692Y-102466781D01*
X158721320Y-102704249D01*
X158815405Y-102931391D01*
X158938336Y-103144313D01*
X158938341Y-103144320D01*
X159087992Y-103339348D01*
X159087995Y-103339351D01*
X159087999Y-103339356D01*
X159261844Y-103513201D01*
X159261848Y-103513204D01*
X159261851Y-103513207D01*
X159456879Y-103662858D01*
X159456886Y-103662863D01*
X159456889Y-103662864D01*
X159456892Y-103662867D01*
X159669808Y-103785794D01*
X159896947Y-103879878D01*
X159896948Y-103879878D01*
X159896950Y-103879879D01*
X159933230Y-103889600D01*
X160134423Y-103943509D01*
X160378173Y-103975600D01*
X160378178Y-103975600D01*
X160624022Y-103975600D01*
X160624027Y-103975600D01*
X160867777Y-103943509D01*
X161105253Y-103879878D01*
X161332392Y-103785794D01*
X161545308Y-103662867D01*
X161555054Y-103655389D01*
X161740348Y-103513207D01*
X161740347Y-103513207D01*
X161740356Y-103513201D01*
X161914201Y-103339356D01*
X162063867Y-103144308D01*
X162186794Y-102931392D01*
X162280878Y-102704253D01*
X162344509Y-102466777D01*
X162376600Y-102223027D01*
X162376600Y-101977173D01*
X162344509Y-101733423D01*
X162280878Y-101495947D01*
X162186794Y-101268808D01*
X162063867Y-101055892D01*
X162063864Y-101055889D01*
X162063863Y-101055886D01*
X162063858Y-101055879D01*
X161914207Y-100860851D01*
X161914204Y-100860848D01*
X161914201Y-100860844D01*
X161740356Y-100686999D01*
X161740351Y-100686995D01*
X161740348Y-100686992D01*
X161545320Y-100537341D01*
X161545313Y-100537336D01*
X161532182Y-100529755D01*
X161415233Y-100462234D01*
X161332391Y-100414405D01*
X161105249Y-100320320D01*
X160867781Y-100256692D01*
X160867780Y-100256691D01*
X160867777Y-100256691D01*
X160624027Y-100224600D01*
X160378173Y-100224600D01*
X160134423Y-100256691D01*
X160134421Y-100256691D01*
X160134418Y-100256692D01*
X159896950Y-100320320D01*
X159669808Y-100414405D01*
X159456886Y-100537336D01*
X159456879Y-100537341D01*
X159261851Y-100686992D01*
X159087992Y-100860851D01*
X158938341Y-101055879D01*
X158938336Y-101055886D01*
X158815405Y-101268808D01*
X158721320Y-101495950D01*
X158658489Y-101730445D01*
X158657691Y-101733423D01*
X158625600Y-101977173D01*
X157082971Y-101977173D01*
X157052041Y-101902502D01*
X156937077Y-101730445D01*
X156790755Y-101584123D01*
X156618698Y-101469159D01*
X156427520Y-101389970D01*
X156427516Y-101389969D01*
X156427514Y-101389968D01*
X156224570Y-101349600D01*
X156224565Y-101349600D01*
X156017635Y-101349600D01*
X156017629Y-101349600D01*
X155814685Y-101389968D01*
X155814683Y-101389969D01*
X155814681Y-101389969D01*
X155814680Y-101389970D01*
X155623502Y-101469159D01*
X155451445Y-101584123D01*
X155305123Y-101730445D01*
X155190159Y-101902502D01*
X155133431Y-102039456D01*
X155110969Y-102093683D01*
X155110968Y-102093685D01*
X155070600Y-102296629D01*
X149804923Y-102296629D01*
X150168750Y-101932801D01*
X150194983Y-101921936D01*
X150209176Y-101924759D01*
X150246280Y-101940128D01*
X150246284Y-101940128D01*
X150246285Y-101940129D01*
X150415052Y-101973699D01*
X150415054Y-101973699D01*
X150415058Y-101973700D01*
X150415061Y-101973700D01*
X150587139Y-101973700D01*
X150587142Y-101973700D01*
X150755920Y-101940128D01*
X150914905Y-101874274D01*
X151057988Y-101778669D01*
X151179669Y-101656988D01*
X151275274Y-101513905D01*
X151341128Y-101354920D01*
X151374700Y-101186142D01*
X151374700Y-101014058D01*
X151346454Y-100872058D01*
X151341129Y-100845285D01*
X151341128Y-100845284D01*
X151341128Y-100845280D01*
X151275274Y-100686295D01*
X151179669Y-100543212D01*
X151057988Y-100421531D01*
X150914905Y-100325926D01*
X150755920Y-100260072D01*
X150755916Y-100260071D01*
X150755914Y-100260070D01*
X150587147Y-100226500D01*
X150587142Y-100226500D01*
X150415058Y-100226500D01*
X150415052Y-100226500D01*
X150246285Y-100260070D01*
X150246283Y-100260071D01*
X150246281Y-100260071D01*
X150246280Y-100260072D01*
X150087295Y-100325926D01*
X149944212Y-100421531D01*
X149822531Y-100543212D01*
X149726926Y-100686295D01*
X149665889Y-100833652D01*
X149661071Y-100845283D01*
X149661070Y-100845285D01*
X149627500Y-101014052D01*
X149627500Y-101186147D01*
X149661070Y-101354914D01*
X149661072Y-101354920D01*
X149719270Y-101495423D01*
X149719270Y-101523818D01*
X149711228Y-101535854D01*
X149278850Y-101968234D01*
X149252616Y-101979100D01*
X148848346Y-101979100D01*
X148822112Y-101968234D01*
X148811246Y-101942000D01*
X148822112Y-101915766D01*
X148834144Y-101907726D01*
X148914905Y-101874274D01*
X149057988Y-101778669D01*
X149179669Y-101656988D01*
X149275274Y-101513905D01*
X149341128Y-101354920D01*
X149374700Y-101186142D01*
X149374700Y-101014058D01*
X149346454Y-100872058D01*
X149341129Y-100845285D01*
X149341128Y-100845284D01*
X149341128Y-100845280D01*
X149275274Y-100686295D01*
X149179669Y-100543212D01*
X149098689Y-100462232D01*
X149087824Y-100436000D01*
X149098690Y-100409766D01*
X149124924Y-100398900D01*
X149544172Y-100398900D01*
X149621004Y-100378314D01*
X149621004Y-100378313D01*
X149621007Y-100378313D01*
X149689894Y-100338540D01*
X150117047Y-99911385D01*
X150143280Y-99900520D01*
X150157474Y-99903343D01*
X150246280Y-99940128D01*
X150246284Y-99940128D01*
X150246285Y-99940129D01*
X150415052Y-99973699D01*
X150415054Y-99973699D01*
X150415058Y-99973700D01*
X150415061Y-99973700D01*
X150587139Y-99973700D01*
X150587142Y-99973700D01*
X150755920Y-99940128D01*
X150914905Y-99874274D01*
X151057988Y-99778669D01*
X151080215Y-99756442D01*
X155068700Y-99756442D01*
X155068700Y-99758899D01*
X155068701Y-99758900D01*
X155630579Y-99758900D01*
X155621100Y-99794274D01*
X155621100Y-99925926D01*
X155630579Y-99961300D01*
X155068701Y-99961300D01*
X155068700Y-99961301D01*
X155068700Y-99963757D01*
X155109141Y-100167068D01*
X155109142Y-100167070D01*
X155188475Y-100358597D01*
X155303648Y-100530965D01*
X155450234Y-100677551D01*
X155622602Y-100792724D01*
X155814129Y-100872057D01*
X155814131Y-100872058D01*
X156017442Y-100912499D01*
X156017451Y-100912500D01*
X156019899Y-100912500D01*
X156019900Y-100912499D01*
X156019900Y-100350621D01*
X156055274Y-100360100D01*
X156186926Y-100360100D01*
X156222300Y-100350621D01*
X156222300Y-100912499D01*
X156222301Y-100912500D01*
X156224749Y-100912500D01*
X156224757Y-100912499D01*
X156428068Y-100872058D01*
X156428070Y-100872057D01*
X156619597Y-100792724D01*
X156791965Y-100677551D01*
X156938551Y-100530965D01*
X157053724Y-100358597D01*
X157133057Y-100167070D01*
X157133058Y-100167068D01*
X157173499Y-99963757D01*
X157173500Y-99963749D01*
X157173500Y-99961301D01*
X157173499Y-99961300D01*
X156611621Y-99961300D01*
X156621100Y-99925926D01*
X156621100Y-99794274D01*
X156611621Y-99758900D01*
X157173499Y-99758900D01*
X157173500Y-99758899D01*
X157173500Y-99756450D01*
X157173499Y-99756442D01*
X157133058Y-99553131D01*
X157133057Y-99553129D01*
X157053724Y-99361602D01*
X156938551Y-99189234D01*
X156791965Y-99042648D01*
X156619597Y-98927475D01*
X156428070Y-98848142D01*
X156428068Y-98848141D01*
X156224757Y-98807700D01*
X156222301Y-98807700D01*
X156222300Y-98807701D01*
X156222300Y-99369578D01*
X156186926Y-99360100D01*
X156055274Y-99360100D01*
X156019900Y-99369578D01*
X156019900Y-98807701D01*
X156019899Y-98807700D01*
X156017442Y-98807700D01*
X155814131Y-98848141D01*
X155814129Y-98848142D01*
X155622602Y-98927475D01*
X155450234Y-99042648D01*
X155303648Y-99189234D01*
X155188475Y-99361602D01*
X155109142Y-99553129D01*
X155109141Y-99553131D01*
X155068700Y-99756442D01*
X151080215Y-99756442D01*
X151179669Y-99656988D01*
X151275274Y-99513905D01*
X151341128Y-99354920D01*
X151374700Y-99186142D01*
X151374700Y-99014058D01*
X151373285Y-99006946D01*
X151341129Y-98845285D01*
X151341128Y-98845284D01*
X151341128Y-98845280D01*
X151275274Y-98686295D01*
X151179669Y-98543212D01*
X151057988Y-98421531D01*
X150914905Y-98325926D01*
X150755920Y-98260072D01*
X150755916Y-98260071D01*
X150755914Y-98260070D01*
X150587147Y-98226500D01*
X150587142Y-98226500D01*
X150415058Y-98226500D01*
X150415052Y-98226500D01*
X150246285Y-98260070D01*
X150246283Y-98260071D01*
X150246281Y-98260071D01*
X150246280Y-98260072D01*
X150087295Y-98325926D01*
X149944212Y-98421531D01*
X149822531Y-98543212D01*
X149726926Y-98686295D01*
X149661073Y-98845279D01*
X149661071Y-98845283D01*
X149661070Y-98845285D01*
X149627500Y-99014052D01*
X149627500Y-99186147D01*
X149661070Y-99354914D01*
X149661072Y-99354920D01*
X149697854Y-99443721D01*
X149697854Y-99472116D01*
X149689812Y-99484152D01*
X149390132Y-99783834D01*
X149363898Y-99794700D01*
X149131524Y-99794700D01*
X149105290Y-99783834D01*
X149094424Y-99757600D01*
X149105289Y-99731367D01*
X149179669Y-99656988D01*
X149275274Y-99513905D01*
X149341128Y-99354920D01*
X149374700Y-99186142D01*
X149374700Y-99014058D01*
X149373285Y-99006946D01*
X149341129Y-98845285D01*
X149341128Y-98845284D01*
X149341128Y-98845280D01*
X149275274Y-98686295D01*
X149179669Y-98543212D01*
X149057988Y-98421531D01*
X148914905Y-98325926D01*
X148755920Y-98260072D01*
X148755916Y-98260071D01*
X148755914Y-98260070D01*
X148587147Y-98226500D01*
X148587142Y-98226500D01*
X148415058Y-98226500D01*
X148415052Y-98226500D01*
X148246286Y-98260070D01*
X148246282Y-98260071D01*
X148158891Y-98296268D01*
X148130496Y-98296268D01*
X148118460Y-98288226D01*
X147850806Y-98020572D01*
X147543594Y-97713360D01*
X147543591Y-97713358D01*
X147543589Y-97713356D01*
X147474705Y-97673586D01*
X147474704Y-97673585D01*
X147397872Y-97653000D01*
X145365872Y-97653000D01*
X145286328Y-97653000D01*
X145209495Y-97673585D01*
X145209494Y-97673586D01*
X145140610Y-97713356D01*
X143997606Y-98856360D01*
X141400545Y-101453419D01*
X141374311Y-101464285D01*
X141360113Y-101461461D01*
X141187520Y-101389970D01*
X141187516Y-101389969D01*
X141187514Y-101389968D01*
X140984570Y-101349600D01*
X140984565Y-101349600D01*
X140777635Y-101349600D01*
X140777629Y-101349600D01*
X140574685Y-101389968D01*
X140574683Y-101389969D01*
X140574681Y-101389969D01*
X140574680Y-101389970D01*
X140383502Y-101469159D01*
X140211445Y-101584123D01*
X140065123Y-101730445D01*
X139950159Y-101902502D01*
X139893431Y-102039456D01*
X139870969Y-102093683D01*
X139870968Y-102093685D01*
X139830600Y-102296629D01*
X138366910Y-102296629D01*
X138376600Y-102223027D01*
X138376600Y-101977173D01*
X138344509Y-101733423D01*
X138280878Y-101495947D01*
X138186794Y-101268808D01*
X138063867Y-101055892D01*
X138063864Y-101055889D01*
X138063863Y-101055886D01*
X138063858Y-101055879D01*
X137914207Y-100860851D01*
X137914204Y-100860848D01*
X137914201Y-100860844D01*
X137740356Y-100686999D01*
X137740351Y-100686995D01*
X137740348Y-100686992D01*
X137545320Y-100537341D01*
X137545313Y-100537336D01*
X137532182Y-100529755D01*
X137415233Y-100462234D01*
X137332391Y-100414405D01*
X137105249Y-100320320D01*
X136867781Y-100256692D01*
X136867780Y-100256691D01*
X136867777Y-100256691D01*
X136624027Y-100224600D01*
X136378173Y-100224600D01*
X136134423Y-100256691D01*
X136134421Y-100256691D01*
X136134418Y-100256692D01*
X135896950Y-100320320D01*
X135669808Y-100414405D01*
X135456886Y-100537336D01*
X135456879Y-100537341D01*
X135261851Y-100686992D01*
X135087992Y-100860851D01*
X134938341Y-101055879D01*
X134938336Y-101055886D01*
X134815405Y-101268808D01*
X134721320Y-101495950D01*
X134658489Y-101730445D01*
X134657691Y-101733423D01*
X134625600Y-101977173D01*
X133584703Y-101977173D01*
X133596064Y-101774866D01*
X133596530Y-101770738D01*
X133628237Y-101584123D01*
X133650746Y-101451641D01*
X133651664Y-101447619D01*
X133741273Y-101136582D01*
X133742636Y-101132685D01*
X133866507Y-100833636D01*
X133868297Y-100829919D01*
X134024868Y-100546624D01*
X134027073Y-100543116D01*
X134214372Y-100279143D01*
X134216951Y-100275907D01*
X134432628Y-100034566D01*
X134435568Y-100031627D01*
X134511523Y-99963749D01*
X134676907Y-99815951D01*
X134680143Y-99813372D01*
X134760115Y-99756629D01*
X139830600Y-99756629D01*
X139830600Y-99963570D01*
X139870968Y-100166514D01*
X139870969Y-100166516D01*
X139870970Y-100166520D01*
X139950159Y-100357698D01*
X140065123Y-100529755D01*
X140211445Y-100676077D01*
X140383502Y-100791041D01*
X140574680Y-100870230D01*
X140574684Y-100870230D01*
X140574685Y-100870231D01*
X140777629Y-100910599D01*
X140777631Y-100910599D01*
X140777635Y-100910600D01*
X140777638Y-100910600D01*
X140984562Y-100910600D01*
X140984565Y-100910600D01*
X141187520Y-100870230D01*
X141378698Y-100791041D01*
X141550755Y-100676077D01*
X141697077Y-100529755D01*
X141812041Y-100357698D01*
X141891230Y-100166520D01*
X141931600Y-99963565D01*
X141931600Y-99756635D01*
X141891230Y-99553680D01*
X141812041Y-99362502D01*
X141697077Y-99190445D01*
X141550755Y-99044123D01*
X141378698Y-98929159D01*
X141187520Y-98849970D01*
X141187516Y-98849969D01*
X141187514Y-98849968D01*
X140984570Y-98809600D01*
X140984565Y-98809600D01*
X140777635Y-98809600D01*
X140777629Y-98809600D01*
X140574685Y-98849968D01*
X140574683Y-98849969D01*
X140574681Y-98849969D01*
X140574680Y-98849970D01*
X140383502Y-98929159D01*
X140211445Y-99044123D01*
X140065123Y-99190445D01*
X139950159Y-99362502D01*
X139871198Y-99553131D01*
X139870969Y-99553683D01*
X139870968Y-99553685D01*
X139830600Y-99756629D01*
X134760115Y-99756629D01*
X134944116Y-99626073D01*
X134947624Y-99623868D01*
X135230919Y-99467297D01*
X135234636Y-99465507D01*
X135533685Y-99341636D01*
X135537582Y-99340273D01*
X135848619Y-99250664D01*
X135852641Y-99249746D01*
X136171743Y-99195529D01*
X136175866Y-99195064D01*
X136500067Y-99176857D01*
X136502147Y-99176800D01*
X136637209Y-99176800D01*
X136637214Y-99176800D01*
X136907113Y-99141267D01*
X137170066Y-99070810D01*
X137421572Y-98966633D01*
X137657329Y-98830518D01*
X137873302Y-98664796D01*
X138065796Y-98472302D01*
X138143835Y-98370600D01*
X138231509Y-98256341D01*
X138231510Y-98256338D01*
X138231518Y-98256329D01*
X138367633Y-98020572D01*
X138471810Y-97769066D01*
X138542267Y-97506113D01*
X138577800Y-97236214D01*
X138577800Y-97100100D01*
X138577800Y-97075179D01*
X138577800Y-96450346D01*
X139830600Y-96450346D01*
X139830600Y-98189853D01*
X139842232Y-98248327D01*
X139842233Y-98248331D01*
X139886548Y-98314652D01*
X139952869Y-98358967D01*
X139997029Y-98367751D01*
X140011346Y-98370599D01*
X140011348Y-98370599D01*
X140011352Y-98370600D01*
X140011355Y-98370600D01*
X141750845Y-98370600D01*
X141750848Y-98370600D01*
X141809331Y-98358967D01*
X141875652Y-98314652D01*
X141919967Y-98248331D01*
X141931600Y-98189848D01*
X141931600Y-97216629D01*
X155070600Y-97216629D01*
X155070600Y-97423570D01*
X155110968Y-97626514D01*
X155110969Y-97626516D01*
X155110970Y-97626520D01*
X155190159Y-97817698D01*
X155305123Y-97989755D01*
X155451445Y-98136077D01*
X155623502Y-98251041D01*
X155814680Y-98330230D01*
X155814684Y-98330230D01*
X155814685Y-98330231D01*
X156017629Y-98370599D01*
X156017631Y-98370599D01*
X156017635Y-98370600D01*
X156017638Y-98370600D01*
X156224562Y-98370600D01*
X156224565Y-98370600D01*
X156427520Y-98330230D01*
X156618698Y-98251041D01*
X156790755Y-98136077D01*
X156937077Y-97989755D01*
X157052041Y-97817698D01*
X157131230Y-97626520D01*
X157171600Y-97423565D01*
X157171600Y-97216635D01*
X157131230Y-97013680D01*
X157052041Y-96822502D01*
X156937077Y-96650445D01*
X156790755Y-96504123D01*
X156618698Y-96389159D01*
X156427520Y-96309970D01*
X156427516Y-96309969D01*
X156427514Y-96309968D01*
X156224570Y-96269600D01*
X156224565Y-96269600D01*
X156017635Y-96269600D01*
X156017629Y-96269600D01*
X155814685Y-96309968D01*
X155814683Y-96309969D01*
X155814681Y-96309969D01*
X155814680Y-96309970D01*
X155691604Y-96360950D01*
X155623502Y-96389159D01*
X155451445Y-96504123D01*
X155305123Y-96650445D01*
X155190159Y-96822502D01*
X155110969Y-97013683D01*
X155110968Y-97013685D01*
X155070600Y-97216629D01*
X141931600Y-97216629D01*
X141931600Y-96450352D01*
X141919967Y-96391869D01*
X141875652Y-96325548D01*
X141809331Y-96281233D01*
X141809327Y-96281232D01*
X141750853Y-96269600D01*
X141750848Y-96269600D01*
X140011352Y-96269600D01*
X140011346Y-96269600D01*
X139952872Y-96281232D01*
X139952870Y-96281232D01*
X139952869Y-96281233D01*
X139952867Y-96281233D01*
X139952865Y-96281235D01*
X139886550Y-96325546D01*
X139886546Y-96325550D01*
X139842235Y-96391865D01*
X139842232Y-96391872D01*
X139830600Y-96450346D01*
X138577800Y-96450346D01*
X138577800Y-96431320D01*
X138577879Y-96428894D01*
X138593274Y-96194013D01*
X138593908Y-96189201D01*
X138611757Y-96099467D01*
X138639592Y-95959528D01*
X138640840Y-95954871D01*
X138716115Y-95733120D01*
X138717966Y-95728651D01*
X138821543Y-95518616D01*
X138823957Y-95514436D01*
X138954061Y-95319723D01*
X138957000Y-95315893D01*
X139111414Y-95139816D01*
X139114816Y-95136414D01*
X139290893Y-94982000D01*
X139294723Y-94979061D01*
X139489436Y-94848957D01*
X139493616Y-94846543D01*
X139703651Y-94742966D01*
X139708120Y-94741115D01*
X139929871Y-94665840D01*
X139934528Y-94664592D01*
X140164203Y-94618907D01*
X140169010Y-94618274D01*
X140403895Y-94602879D01*
X140406321Y-94602800D01*
X140430021Y-94602800D01*
X156380179Y-94602800D01*
X156403879Y-94602800D01*
X156406305Y-94602879D01*
G37*
%TD.AperFunction*%
%TD*%
M02*
