%TF.GenerationSoftware,KiCad,Pcbnew,10.0.3*%
%TF.CreationDate,2026-06-14T23:53:48+03:00*%
%TF.ProjectId,mcu_adapter,6d63755f-6164-4617-9074-65722e6b6963,rev?*%
%TF.SameCoordinates,Original*%
%TF.FileFunction,Legend,Bot*%
%TF.FilePolarity,Positive*%
%FSLAX46Y46*%
G04 Gerber Fmt 4.6, Leading zero omitted, Abs format (unit mm)*
G04 Created by KiCad (PCBNEW 10.0.3) date 2026-06-14 23:53:48*
%MOMM*%
%LPD*%
G01*
G04 APERTURE LIST*
%ADD10C,0.304800*%
%ADD11C,0.203200*%
%ADD12C,0.101600*%
%ADD13C,0.076200*%
G04 APERTURE END LIST*
D10*
X144945100Y-106667300D02*
X152057100Y-106667300D01*
X152311100Y-102222300D02*
X144691100Y-102222300D01*
D11*
X148501100Y-107480100D02*
X148810950Y-107784344D01*
D10*
X152311100Y-106413300D02*
X152311100Y-102222300D01*
X144691100Y-98031300D02*
X144691100Y-102222300D01*
X152057100Y-97777300D02*
X144945100Y-97777300D01*
X152311100Y-102222300D02*
X152311100Y-98031300D01*
D11*
X148501100Y-108750100D02*
X148501100Y-107480100D01*
D10*
X144945100Y-106667300D02*
G75*
G02*
X144691100Y-106413300I0J254000D01*
G01*
D11*
X148501100Y-107480100D02*
X148196857Y-107789950D01*
D10*
X152311100Y-106413300D02*
G75*
G02*
X152057100Y-106667300I-254000J0D01*
G01*
X144691100Y-102222300D02*
X144691100Y-106413300D01*
X144691100Y-98031300D02*
G75*
G02*
X144945100Y-97777300I254000J0D01*
G01*
X152057100Y-97777300D02*
G75*
G02*
X152311100Y-98031300I0J-254000D01*
G01*
D12*
X152681212Y-110130930D02*
X152642508Y-110092225D01*
X152642508Y-110092225D02*
X152565098Y-110053520D01*
X152565098Y-110053520D02*
X152371574Y-110053520D01*
X152371574Y-110053520D02*
X152294165Y-110092225D01*
X152294165Y-110092225D02*
X152255460Y-110130930D01*
X152255460Y-110130930D02*
X152216755Y-110208339D01*
X152216755Y-110208339D02*
X152216755Y-110285749D01*
X152216755Y-110285749D02*
X152255460Y-110401863D01*
X152255460Y-110401863D02*
X152719917Y-110866320D01*
X152719917Y-110866320D02*
X152216755Y-110866320D01*
X151868413Y-110866320D02*
X151868413Y-110053520D01*
X151868413Y-110053520D02*
X151597479Y-110634092D01*
X151597479Y-110634092D02*
X151326546Y-110053520D01*
X151326546Y-110053520D02*
X151326546Y-110866320D01*
X150939499Y-110866320D02*
X150939499Y-110053520D01*
X150939499Y-110053520D02*
X150668565Y-110634092D01*
X150668565Y-110634092D02*
X150397632Y-110053520D01*
X150397632Y-110053520D02*
X150397632Y-110866320D01*
X149391309Y-110866320D02*
X149391309Y-110053520D01*
X149391309Y-110440568D02*
X148926852Y-110440568D01*
X148926852Y-110866320D02*
X148926852Y-110053520D01*
X148539804Y-110440568D02*
X148268870Y-110440568D01*
X148152756Y-110866320D02*
X148539804Y-110866320D01*
X148539804Y-110866320D02*
X148539804Y-110053520D01*
X148539804Y-110053520D02*
X148152756Y-110053520D01*
X147843118Y-110634092D02*
X147456071Y-110634092D01*
X147920528Y-110866320D02*
X147649595Y-110053520D01*
X147649595Y-110053520D02*
X147378661Y-110866320D01*
X147107728Y-110866320D02*
X147107728Y-110053520D01*
X147107728Y-110053520D02*
X146914204Y-110053520D01*
X146914204Y-110053520D02*
X146798090Y-110092225D01*
X146798090Y-110092225D02*
X146720680Y-110169635D01*
X146720680Y-110169635D02*
X146681975Y-110247044D01*
X146681975Y-110247044D02*
X146643271Y-110401863D01*
X146643271Y-110401863D02*
X146643271Y-110517977D01*
X146643271Y-110517977D02*
X146681975Y-110672796D01*
X146681975Y-110672796D02*
X146720680Y-110750206D01*
X146720680Y-110750206D02*
X146798090Y-110827616D01*
X146798090Y-110827616D02*
X146914204Y-110866320D01*
X146914204Y-110866320D02*
X147107728Y-110866320D01*
X146294928Y-110440568D02*
X146023994Y-110440568D01*
X145907880Y-110866320D02*
X146294928Y-110866320D01*
X146294928Y-110866320D02*
X146294928Y-110053520D01*
X146294928Y-110053520D02*
X145907880Y-110053520D01*
X145095081Y-110866320D02*
X145366014Y-110479273D01*
X145559538Y-110866320D02*
X145559538Y-110053520D01*
X145559538Y-110053520D02*
X145249900Y-110053520D01*
X145249900Y-110053520D02*
X145172490Y-110092225D01*
X145172490Y-110092225D02*
X145133785Y-110130930D01*
X145133785Y-110130930D02*
X145095081Y-110208339D01*
X145095081Y-110208339D02*
X145095081Y-110324454D01*
X145095081Y-110324454D02*
X145133785Y-110401863D01*
X145133785Y-110401863D02*
X145172490Y-110440568D01*
X145172490Y-110440568D02*
X145249900Y-110479273D01*
X145249900Y-110479273D02*
X145559538Y-110479273D01*
X144785442Y-110827616D02*
X144669328Y-110866320D01*
X144669328Y-110866320D02*
X144475804Y-110866320D01*
X144475804Y-110866320D02*
X144398395Y-110827616D01*
X144398395Y-110827616D02*
X144359690Y-110788911D01*
X144359690Y-110788911D02*
X144320985Y-110711501D01*
X144320985Y-110711501D02*
X144320985Y-110634092D01*
X144320985Y-110634092D02*
X144359690Y-110556682D01*
X144359690Y-110556682D02*
X144398395Y-110517977D01*
X144398395Y-110517977D02*
X144475804Y-110479273D01*
X144475804Y-110479273D02*
X144630623Y-110440568D01*
X144630623Y-110440568D02*
X144708033Y-110401863D01*
X144708033Y-110401863D02*
X144746738Y-110363158D01*
X144746738Y-110363158D02*
X144785442Y-110285749D01*
X144785442Y-110285749D02*
X144785442Y-110208339D01*
X144785442Y-110208339D02*
X144746738Y-110130930D01*
X144746738Y-110130930D02*
X144708033Y-110092225D01*
X144708033Y-110092225D02*
X144630623Y-110053520D01*
X144630623Y-110053520D02*
X144437100Y-110053520D01*
X144437100Y-110053520D02*
X144320985Y-110092225D01*
X152294166Y-111362082D02*
X152139347Y-111362082D01*
X152139347Y-111362082D02*
X152061937Y-111400787D01*
X152061937Y-111400787D02*
X151984528Y-111478197D01*
X151984528Y-111478197D02*
X151945823Y-111633016D01*
X151945823Y-111633016D02*
X151945823Y-111903949D01*
X151945823Y-111903949D02*
X151984528Y-112058768D01*
X151984528Y-112058768D02*
X152061937Y-112136178D01*
X152061937Y-112136178D02*
X152139347Y-112174882D01*
X152139347Y-112174882D02*
X152294166Y-112174882D01*
X152294166Y-112174882D02*
X152371575Y-112136178D01*
X152371575Y-112136178D02*
X152448985Y-112058768D01*
X152448985Y-112058768D02*
X152487689Y-111903949D01*
X152487689Y-111903949D02*
X152487689Y-111633016D01*
X152487689Y-111633016D02*
X152448985Y-111478197D01*
X152448985Y-111478197D02*
X152371575Y-111400787D01*
X152371575Y-111400787D02*
X152294166Y-111362082D01*
X151597480Y-112174882D02*
X151597480Y-111362082D01*
X151597480Y-111362082D02*
X151133023Y-112174882D01*
X151133023Y-112174882D02*
X151133023Y-111362082D01*
X150242813Y-111362082D02*
X149778356Y-111362082D01*
X150010584Y-112174882D02*
X150010584Y-111362082D01*
X149507423Y-112174882D02*
X149507423Y-111362082D01*
X149507423Y-111749130D02*
X149042966Y-111749130D01*
X149042966Y-112174882D02*
X149042966Y-111362082D01*
X148655918Y-112174882D02*
X148655918Y-111362082D01*
X148307574Y-112136178D02*
X148191460Y-112174882D01*
X148191460Y-112174882D02*
X147997936Y-112174882D01*
X147997936Y-112174882D02*
X147920527Y-112136178D01*
X147920527Y-112136178D02*
X147881822Y-112097473D01*
X147881822Y-112097473D02*
X147843117Y-112020063D01*
X147843117Y-112020063D02*
X147843117Y-111942654D01*
X147843117Y-111942654D02*
X147881822Y-111865244D01*
X147881822Y-111865244D02*
X147920527Y-111826539D01*
X147920527Y-111826539D02*
X147997936Y-111787835D01*
X147997936Y-111787835D02*
X148152755Y-111749130D01*
X148152755Y-111749130D02*
X148230165Y-111710425D01*
X148230165Y-111710425D02*
X148268870Y-111671720D01*
X148268870Y-111671720D02*
X148307574Y-111594311D01*
X148307574Y-111594311D02*
X148307574Y-111516901D01*
X148307574Y-111516901D02*
X148268870Y-111439492D01*
X148268870Y-111439492D02*
X148230165Y-111400787D01*
X148230165Y-111400787D02*
X148152755Y-111362082D01*
X148152755Y-111362082D02*
X147959232Y-111362082D01*
X147959232Y-111362082D02*
X147843117Y-111400787D01*
X146914203Y-112136178D02*
X146798089Y-112174882D01*
X146798089Y-112174882D02*
X146604565Y-112174882D01*
X146604565Y-112174882D02*
X146527156Y-112136178D01*
X146527156Y-112136178D02*
X146488451Y-112097473D01*
X146488451Y-112097473D02*
X146449746Y-112020063D01*
X146449746Y-112020063D02*
X146449746Y-111942654D01*
X146449746Y-111942654D02*
X146488451Y-111865244D01*
X146488451Y-111865244D02*
X146527156Y-111826539D01*
X146527156Y-111826539D02*
X146604565Y-111787835D01*
X146604565Y-111787835D02*
X146759384Y-111749130D01*
X146759384Y-111749130D02*
X146836794Y-111710425D01*
X146836794Y-111710425D02*
X146875499Y-111671720D01*
X146875499Y-111671720D02*
X146914203Y-111594311D01*
X146914203Y-111594311D02*
X146914203Y-111516901D01*
X146914203Y-111516901D02*
X146875499Y-111439492D01*
X146875499Y-111439492D02*
X146836794Y-111400787D01*
X146836794Y-111400787D02*
X146759384Y-111362082D01*
X146759384Y-111362082D02*
X146565861Y-111362082D01*
X146565861Y-111362082D02*
X146449746Y-111400787D01*
X146101404Y-112174882D02*
X146101404Y-111362082D01*
X145714356Y-112174882D02*
X145714356Y-111362082D01*
X145714356Y-111362082D02*
X145520832Y-111362082D01*
X145520832Y-111362082D02*
X145404718Y-111400787D01*
X145404718Y-111400787D02*
X145327308Y-111478197D01*
X145327308Y-111478197D02*
X145288603Y-111555606D01*
X145288603Y-111555606D02*
X145249899Y-111710425D01*
X145249899Y-111710425D02*
X145249899Y-111826539D01*
X145249899Y-111826539D02*
X145288603Y-111981358D01*
X145288603Y-111981358D02*
X145327308Y-112058768D01*
X145327308Y-112058768D02*
X145404718Y-112136178D01*
X145404718Y-112136178D02*
X145520832Y-112174882D01*
X145520832Y-112174882D02*
X145714356Y-112174882D01*
X144901556Y-111749130D02*
X144630622Y-111749130D01*
X144514508Y-112174882D02*
X144901556Y-112174882D01*
X144901556Y-112174882D02*
X144901556Y-111362082D01*
X144901556Y-111362082D02*
X144514508Y-111362082D01*
%TO.C,U$1*%
D13*
X144894300Y-97979200D02*
X152107900Y-97979200D01*
X144894300Y-102221000D02*
X144894300Y-97979200D01*
X152107900Y-97979200D02*
X152107900Y-102221000D01*
X152107900Y-102221000D02*
X144894300Y-102221000D01*
%TO.C,U$2*%
X144894300Y-102229200D02*
X152107900Y-102229200D01*
X144894300Y-106471000D02*
X144894300Y-102229200D01*
X152107900Y-102229200D02*
X152107900Y-106471000D01*
X152107900Y-106471000D02*
X144894300Y-106471000D01*
%TD*%
M02*
