%TF.GenerationSoftware,KiCad,Pcbnew,10.0.3*%
%TF.CreationDate,2026-06-14T23:53:48+03:00*%
%TF.ProjectId,mcu_adapter,6d63755f-6164-4617-9074-65722e6b6963,rev?*%
%TF.SameCoordinates,Original*%
%TF.FileFunction,Copper,L2,Bot*%
%TF.FilePolarity,Positive*%
%FSLAX46Y46*%
G04 Gerber Fmt 4.6, Leading zero omitted, Abs format (unit mm)*
G04 Created by KiCad (PCBNEW 10.0.3) date 2026-06-14 23:53:48*
%MOMM*%
%LPD*%
G01*
G04 APERTURE LIST*
%TA.AperFunction,ComponentPad*%
%ADD10R,1.700000X1.700000*%
%TD*%
%TA.AperFunction,ComponentPad*%
%ADD11C,1.700000*%
%TD*%
%TA.AperFunction,ComponentPad*%
%ADD12C,1.346200*%
%TD*%
%TA.AperFunction,ViaPad*%
%ADD13C,0.550000*%
%TD*%
%TA.AperFunction,Conductor*%
%ADD14C,0.203200*%
%TD*%
G04 APERTURE END LIST*
D10*
%TO.P,U1,1*%
%TO.N,D0*%
X140881100Y-97320100D03*
D11*
%TO.P,U1,2*%
%TO.N,D1*%
X140881100Y-99860100D03*
%TO.P,U1,3*%
%TO.N,D2*%
X140881100Y-102400100D03*
%TO.P,U1,4*%
%TO.N,D3*%
X140881100Y-104940100D03*
%TO.P,U1,5*%
%TO.N,SDA*%
X140881100Y-107480100D03*
%TO.P,U1,6*%
%TO.N,SCL*%
X140881100Y-110020100D03*
%TO.P,U1,7*%
%TO.N,N/C*%
X140881100Y-112560100D03*
%TO.P,U1,8*%
X156121100Y-112560100D03*
%TO.P,U1,9*%
%TO.N,D8*%
X156121100Y-110020100D03*
%TO.P,U1,10*%
%TO.N,D9*%
X156121100Y-107480100D03*
%TO.P,U1,11*%
%TO.N,D10*%
X156121100Y-104940100D03*
%TO.P,U1,12*%
%TO.N,3V3*%
X156121100Y-102400100D03*
%TO.P,U1,13*%
%TO.N,GND*%
X156121100Y-99860100D03*
%TO.P,U1,14*%
%TO.N,5V*%
X156121100Y-97320100D03*
%TD*%
D12*
%TO.P,U$1,1*%
%TO.N,SCL*%
X150501100Y-101100100D03*
%TO.P,U$1,2*%
%TO.N,SDA*%
X150501100Y-99100100D03*
%TO.P,U$1,3*%
%TO.N,D3*%
X148501100Y-101100100D03*
%TO.P,U$1,4*%
%TO.N,D2*%
X148501100Y-99100100D03*
%TO.P,U$1,5*%
%TO.N,D1*%
X146501100Y-101100100D03*
%TO.P,U$1,6*%
%TO.N,D0*%
X146501100Y-99100100D03*
%TD*%
%TO.P,U$2,1*%
%TO.N,5V*%
X150501100Y-105350100D03*
%TO.P,U$2,2*%
%TO.N,GND*%
X150501100Y-103350100D03*
%TO.P,U$2,3*%
%TO.N,3V3*%
X148501100Y-105350100D03*
%TO.P,U$2,4*%
%TO.N,D10*%
X148501100Y-103350100D03*
%TO.P,U$2,5*%
%TO.N,D9*%
X146501100Y-105350100D03*
%TO.P,U$2,6*%
%TO.N,D8*%
X146501100Y-103350100D03*
%TD*%
D13*
%TO.N,GND*%
X158026100Y-99860100D03*
X154216100Y-96050100D03*
X148501100Y-96050100D03*
X150406100Y-114465100D03*
X158026100Y-104305100D03*
X146596100Y-114465100D03*
X144691100Y-96050100D03*
X142786100Y-96050100D03*
X142786100Y-114465100D03*
X154216100Y-114465100D03*
X152311100Y-96050100D03*
X152311100Y-114465100D03*
X146596100Y-96050100D03*
X150406100Y-96050100D03*
X148501100Y-114465100D03*
X138976100Y-104305100D03*
X144691100Y-114465100D03*
X138976100Y-99860100D03*
%TD*%
%TO.N,D2*%
D14*
X140881100Y-102400100D02*
X144183100Y-99098100D01*
X145326100Y-97955100D02*
X147358100Y-97955100D01*
X144183100Y-99098100D02*
X145326100Y-97955100D01*
X147358100Y-97955100D02*
X148501100Y-99098100D01*
X148501100Y-99098100D02*
X148501100Y-99100100D01*
%TO.N,SDA*%
X143090900Y-102476300D02*
X143090900Y-106540300D01*
X150501100Y-99100100D02*
X149504400Y-100096800D01*
X149504400Y-100096800D02*
X145470400Y-100096800D01*
X142151100Y-107480100D02*
X140881100Y-107480100D01*
X143090900Y-106540300D02*
X142151100Y-107480100D01*
X145470400Y-100096800D02*
X143090900Y-102476300D01*
%TO.N,SCL*%
X150501100Y-101100100D02*
X150501100Y-101173219D01*
X144411700Y-103314500D02*
X145445000Y-102281200D01*
X144411700Y-107759500D02*
X142151100Y-110020100D01*
X150501100Y-101173219D02*
X149393118Y-102281200D01*
X144411700Y-103314500D02*
X144411700Y-107759500D01*
X142151100Y-110020100D02*
X140881100Y-110020100D01*
X149393118Y-102281200D02*
X145445000Y-102281200D01*
%TO.N,D10*%
X151676100Y-104940100D02*
X156121100Y-104940100D01*
X151057400Y-104321400D02*
X151676100Y-104940100D01*
X148501100Y-103350100D02*
X149472400Y-104321400D01*
X149472400Y-104321400D02*
X151057400Y-104321400D01*
%TD*%
%TA.AperFunction,Conductor*%
%TO.N,GND*%
G36*
X156409128Y-94826864D02*
G01*
X156631369Y-94841430D01*
X156647425Y-94843545D01*
X156772550Y-94868434D01*
X156861836Y-94886194D01*
X156877503Y-94890392D01*
X157027570Y-94941332D01*
X157084513Y-94960662D01*
X157099490Y-94966865D01*
X157286645Y-95059159D01*
X157295560Y-95063556D01*
X157309608Y-95071666D01*
X157491377Y-95193121D01*
X157504237Y-95202989D01*
X157521646Y-95218256D01*
X157668599Y-95347131D01*
X157680068Y-95358600D01*
X157824207Y-95522958D01*
X157834081Y-95535826D01*
X157955533Y-95717592D01*
X157963643Y-95731639D01*
X158060331Y-95927702D01*
X158066538Y-95942688D01*
X158136807Y-96149696D01*
X158141005Y-96165363D01*
X158183653Y-96379769D01*
X158185770Y-96395850D01*
X158200334Y-96618041D01*
X158200600Y-96626151D01*
X158200600Y-97052505D01*
X158200600Y-97100100D01*
X158200600Y-97239254D01*
X158234146Y-97515535D01*
X158261619Y-97626995D01*
X158300750Y-97785757D01*
X158300751Y-97785762D01*
X158342896Y-97896888D01*
X158399439Y-98045981D01*
X158399441Y-98045985D01*
X158399442Y-98045987D01*
X158399442Y-98045988D01*
X158528774Y-98292408D01*
X158686870Y-98521450D01*
X158686872Y-98521452D01*
X158686874Y-98521455D01*
X158735958Y-98576860D01*
X158871426Y-98729773D01*
X158984980Y-98830372D01*
X159079745Y-98914326D01*
X159308789Y-99072424D01*
X159308791Y-99072425D01*
X159466691Y-99155298D01*
X159555219Y-99201761D01*
X159757695Y-99278549D01*
X159815437Y-99300448D01*
X159815438Y-99300448D01*
X159815443Y-99300450D01*
X160085665Y-99367054D01*
X160299323Y-99392996D01*
X160361943Y-99400600D01*
X160361946Y-99400600D01*
X160453505Y-99400600D01*
X160497496Y-99400600D01*
X160504705Y-99400809D01*
X160807284Y-99418433D01*
X160821604Y-99420106D01*
X161116541Y-99472111D01*
X161130550Y-99475431D01*
X161318198Y-99531610D01*
X161417465Y-99561329D01*
X161431015Y-99566261D01*
X161458862Y-99578273D01*
X161706011Y-99684882D01*
X161718883Y-99691347D01*
X161937398Y-99817507D01*
X161978243Y-99841089D01*
X161990290Y-99849013D01*
X162230512Y-100027851D01*
X162241559Y-100037120D01*
X162459391Y-100242634D01*
X162469286Y-100253122D01*
X162661786Y-100482533D01*
X162670397Y-100494100D01*
X162834966Y-100744315D01*
X162842175Y-100756800D01*
X162879287Y-100830696D01*
X162976583Y-101024430D01*
X162982294Y-101037670D01*
X163084722Y-101319087D01*
X163088858Y-101332902D01*
X163157923Y-101624309D01*
X163160427Y-101638509D01*
X163171521Y-101733420D01*
X163193163Y-101918587D01*
X163195195Y-101935967D01*
X163196033Y-101950363D01*
X163196033Y-102249836D01*
X163195195Y-102264232D01*
X163160427Y-102561690D01*
X163157923Y-102575890D01*
X163088858Y-102867297D01*
X163084722Y-102881112D01*
X162982294Y-103162529D01*
X162976583Y-103175769D01*
X162842177Y-103443396D01*
X162834966Y-103455884D01*
X162670397Y-103706099D01*
X162661786Y-103717666D01*
X162469286Y-103947077D01*
X162459391Y-103957565D01*
X162241559Y-104163079D01*
X162230512Y-104172348D01*
X161990290Y-104351186D01*
X161978243Y-104359110D01*
X161718890Y-104508848D01*
X161706004Y-104515320D01*
X161431015Y-104633938D01*
X161417465Y-104638870D01*
X161130561Y-104724765D01*
X161116529Y-104728090D01*
X160821605Y-104780092D01*
X160807283Y-104781766D01*
X160544035Y-104797099D01*
X160542066Y-104797198D01*
X160527670Y-104797807D01*
X160522480Y-104796606D01*
X160490679Y-104799371D01*
X160487912Y-104799489D01*
X160487513Y-104799389D01*
X160482671Y-104799600D01*
X160453504Y-104799600D01*
X160451244Y-104799957D01*
X160426774Y-104804929D01*
X160324452Y-104813828D01*
X160028594Y-104876139D01*
X160028586Y-104876142D01*
X159742396Y-104973660D01*
X159742383Y-104973666D01*
X159470045Y-105104965D01*
X159470040Y-105104968D01*
X159215496Y-105268147D01*
X159215494Y-105268149D01*
X158982483Y-105460813D01*
X158982479Y-105460817D01*
X158982479Y-105460818D01*
X158939166Y-105506475D01*
X158774387Y-105680169D01*
X158774372Y-105680186D01*
X158594253Y-105922999D01*
X158594244Y-105923013D01*
X158444699Y-106185778D01*
X158444689Y-106185800D01*
X158327911Y-106464665D01*
X158327905Y-106464682D01*
X158245586Y-106755613D01*
X158198935Y-107054341D01*
X158198935Y-107054344D01*
X158198935Y-107054346D01*
X158188632Y-107356526D01*
X158200134Y-107488782D01*
X158200600Y-107499525D01*
X158200600Y-113476672D01*
X158200284Y-113485518D01*
X158183934Y-113714119D01*
X158181416Y-113731631D01*
X158133645Y-113951234D01*
X158128661Y-113968210D01*
X158050118Y-114178791D01*
X158042768Y-114194884D01*
X157935060Y-114392136D01*
X157925495Y-114407019D01*
X157790811Y-114586936D01*
X157779225Y-114600307D01*
X157620307Y-114759225D01*
X157606936Y-114770811D01*
X157427019Y-114905495D01*
X157412136Y-114915060D01*
X157214884Y-115022768D01*
X157198791Y-115030118D01*
X156988210Y-115108661D01*
X156971234Y-115113645D01*
X156751631Y-115161416D01*
X156734119Y-115163934D01*
X156505518Y-115180284D01*
X156496672Y-115180600D01*
X140505528Y-115180600D01*
X140496682Y-115180284D01*
X140268080Y-115163934D01*
X140250568Y-115161416D01*
X140030965Y-115113645D01*
X140013989Y-115108661D01*
X139803408Y-115030118D01*
X139787315Y-115022768D01*
X139590063Y-114915060D01*
X139575180Y-114905495D01*
X139395263Y-114770811D01*
X139381892Y-114759225D01*
X139222974Y-114600307D01*
X139211388Y-114586936D01*
X139076704Y-114407019D01*
X139067139Y-114392136D01*
X138959431Y-114194884D01*
X138952084Y-114178798D01*
X138873535Y-113968202D01*
X138868556Y-113951243D01*
X138820782Y-113731625D01*
X138818265Y-113714119D01*
X138814437Y-113660600D01*
X138801916Y-113485518D01*
X138801600Y-113476672D01*
X138801600Y-112473489D01*
X139780600Y-112473489D01*
X139780600Y-112646711D01*
X139807698Y-112817801D01*
X139861227Y-112982545D01*
X139939868Y-113136888D01*
X140041686Y-113277028D01*
X140164172Y-113399514D01*
X140304312Y-113501332D01*
X140458655Y-113579973D01*
X140623399Y-113633502D01*
X140794489Y-113660600D01*
X140794490Y-113660600D01*
X140967710Y-113660600D01*
X140967711Y-113660600D01*
X141138801Y-113633502D01*
X141303545Y-113579973D01*
X141457888Y-113501332D01*
X141598028Y-113399514D01*
X141720514Y-113277028D01*
X141822332Y-113136888D01*
X141900973Y-112982545D01*
X141954502Y-112817801D01*
X141981600Y-112646711D01*
X141981600Y-112473489D01*
X155020600Y-112473489D01*
X155020600Y-112646711D01*
X155047698Y-112817801D01*
X155101227Y-112982545D01*
X155179868Y-113136888D01*
X155281686Y-113277028D01*
X155404172Y-113399514D01*
X155544312Y-113501332D01*
X155698655Y-113579973D01*
X155863399Y-113633502D01*
X156034489Y-113660600D01*
X156034490Y-113660600D01*
X156207710Y-113660600D01*
X156207711Y-113660600D01*
X156378801Y-113633502D01*
X156543545Y-113579973D01*
X156697888Y-113501332D01*
X156838028Y-113399514D01*
X156960514Y-113277028D01*
X157062332Y-113136888D01*
X157140973Y-112982545D01*
X157194502Y-112817801D01*
X157221600Y-112646711D01*
X157221600Y-112473489D01*
X157194502Y-112302399D01*
X157140973Y-112137655D01*
X157062332Y-111983312D01*
X156960514Y-111843172D01*
X156838028Y-111720686D01*
X156697888Y-111618868D01*
X156543545Y-111540227D01*
X156378801Y-111486698D01*
X156378799Y-111486697D01*
X156378798Y-111486697D01*
X156247371Y-111465881D01*
X156207711Y-111459600D01*
X156034489Y-111459600D01*
X155994828Y-111465881D01*
X155863402Y-111486697D01*
X155698652Y-111540228D01*
X155544311Y-111618868D01*
X155464356Y-111676959D01*
X155404172Y-111720686D01*
X155404170Y-111720688D01*
X155404169Y-111720688D01*
X155281688Y-111843169D01*
X155281688Y-111843170D01*
X155281686Y-111843172D01*
X155237959Y-111903356D01*
X155179868Y-111983311D01*
X155101228Y-112137652D01*
X155047697Y-112302402D01*
X155020600Y-112473489D01*
X141981600Y-112473489D01*
X141954502Y-112302399D01*
X141900973Y-112137655D01*
X141822332Y-111983312D01*
X141720514Y-111843172D01*
X141598028Y-111720686D01*
X141457888Y-111618868D01*
X141303545Y-111540227D01*
X141138801Y-111486698D01*
X141138799Y-111486697D01*
X141138798Y-111486697D01*
X141007371Y-111465881D01*
X140967711Y-111459600D01*
X140794489Y-111459600D01*
X140754828Y-111465881D01*
X140623402Y-111486697D01*
X140458652Y-111540228D01*
X140304311Y-111618868D01*
X140224356Y-111676959D01*
X140164172Y-111720686D01*
X140164170Y-111720688D01*
X140164169Y-111720688D01*
X140041688Y-111843169D01*
X140041688Y-111843170D01*
X140041686Y-111843172D01*
X139997959Y-111903356D01*
X139939868Y-111983311D01*
X139861228Y-112137652D01*
X139807697Y-112302402D01*
X139780600Y-112473489D01*
X138801600Y-112473489D01*
X138801600Y-107499525D01*
X138802066Y-107488782D01*
X138813568Y-107356526D01*
X138803265Y-107054346D01*
X138756613Y-106755611D01*
X138674293Y-106464677D01*
X138557505Y-106185787D01*
X138547716Y-106168587D01*
X138407955Y-105923013D01*
X138407946Y-105922999D01*
X138227827Y-105680186D01*
X138227821Y-105680179D01*
X138227815Y-105680171D01*
X138019721Y-105460818D01*
X138019717Y-105460815D01*
X138019716Y-105460813D01*
X137815793Y-105292200D01*
X137786704Y-105268148D01*
X137786703Y-105268147D01*
X137603533Y-105150723D01*
X137532162Y-105104969D01*
X137481830Y-105080703D01*
X137259816Y-104973666D01*
X137259803Y-104973660D01*
X137237292Y-104965990D01*
X136973613Y-104876142D01*
X136973605Y-104876139D01*
X136866061Y-104853489D01*
X139780600Y-104853489D01*
X139780600Y-105026710D01*
X139800241Y-105150723D01*
X139807698Y-105197801D01*
X139861227Y-105362545D01*
X139939868Y-105516888D01*
X140041686Y-105657028D01*
X140164172Y-105779514D01*
X140304312Y-105881332D01*
X140458655Y-105959973D01*
X140623399Y-106013502D01*
X140794489Y-106040600D01*
X140794490Y-106040600D01*
X140967710Y-106040600D01*
X140967711Y-106040600D01*
X141138801Y-106013502D01*
X141303545Y-105959973D01*
X141457888Y-105881332D01*
X141598028Y-105779514D01*
X141720514Y-105657028D01*
X141822332Y-105516888D01*
X141900973Y-105362545D01*
X141954502Y-105197801D01*
X141981600Y-105026711D01*
X141981600Y-104853489D01*
X141954502Y-104682399D01*
X141900973Y-104517655D01*
X141822332Y-104363312D01*
X141720514Y-104223172D01*
X141598028Y-104100686D01*
X141457888Y-103998868D01*
X141349235Y-103943507D01*
X141303547Y-103920228D01*
X141303546Y-103920227D01*
X141303545Y-103920227D01*
X141138801Y-103866698D01*
X141138799Y-103866697D01*
X141138798Y-103866697D01*
X141007371Y-103845881D01*
X140967711Y-103839600D01*
X140794489Y-103839600D01*
X140754828Y-103845881D01*
X140623402Y-103866697D01*
X140458652Y-103920228D01*
X140304311Y-103998868D01*
X140225366Y-104056226D01*
X140164172Y-104100686D01*
X140164170Y-104100688D01*
X140164169Y-104100688D01*
X140041688Y-104223169D01*
X140041688Y-104223170D01*
X140041686Y-104223172D01*
X140004975Y-104273700D01*
X139939868Y-104363311D01*
X139861228Y-104517652D01*
X139807697Y-104682402D01*
X139780600Y-104853489D01*
X136866061Y-104853489D01*
X136677747Y-104813828D01*
X136575426Y-104804929D01*
X136575426Y-104804928D01*
X136561317Y-104803701D01*
X136548695Y-104799600D01*
X136514147Y-104799600D01*
X136508787Y-104799134D01*
X136508786Y-104799134D01*
X136484284Y-104797003D01*
X136479720Y-104796606D01*
X136479719Y-104796606D01*
X136474084Y-104797003D01*
X136458165Y-104797099D01*
X136194916Y-104781766D01*
X136180594Y-104780092D01*
X135885670Y-104728090D01*
X135871638Y-104724765D01*
X135584734Y-104638870D01*
X135571184Y-104633938D01*
X135296195Y-104515320D01*
X135283309Y-104508848D01*
X135023956Y-104359110D01*
X135011909Y-104351186D01*
X134771687Y-104172348D01*
X134760640Y-104163079D01*
X134542808Y-103957565D01*
X134532913Y-103947077D01*
X134529917Y-103943507D01*
X134340410Y-103717663D01*
X134331802Y-103706099D01*
X134167233Y-103455884D01*
X134160027Y-103443405D01*
X134025614Y-103175764D01*
X134019905Y-103162529D01*
X134003344Y-103117029D01*
X133917475Y-102881107D01*
X133913341Y-102867297D01*
X133888709Y-102763366D01*
X133844274Y-102575882D01*
X133841773Y-102561697D01*
X133807005Y-102264231D01*
X133806167Y-102249836D01*
X133806167Y-101977165D01*
X134625600Y-101977165D01*
X134625600Y-102223034D01*
X134641892Y-102346775D01*
X134657691Y-102466777D01*
X134721322Y-102704252D01*
X134721325Y-102704262D01*
X134807627Y-102912611D01*
X134815406Y-102931392D01*
X134938333Y-103144308D01*
X134938335Y-103144311D01*
X134938336Y-103144312D01*
X135087997Y-103339354D01*
X135088003Y-103339361D01*
X135261838Y-103513196D01*
X135261844Y-103513201D01*
X135456892Y-103662867D01*
X135669808Y-103785794D01*
X135896947Y-103879878D01*
X136134423Y-103943509D01*
X136378173Y-103975600D01*
X136378180Y-103975600D01*
X136624020Y-103975600D01*
X136624027Y-103975600D01*
X136867777Y-103943509D01*
X137105253Y-103879878D01*
X137332392Y-103785794D01*
X137545308Y-103662867D01*
X137740356Y-103513201D01*
X137914201Y-103339356D01*
X138063867Y-103144308D01*
X138186794Y-102931392D01*
X138280878Y-102704253D01*
X138344509Y-102466777D01*
X138364690Y-102313489D01*
X139780600Y-102313489D01*
X139780600Y-102486710D01*
X139807417Y-102656030D01*
X139807698Y-102657801D01*
X139861227Y-102822545D01*
X139939868Y-102976888D01*
X140041686Y-103117028D01*
X140164172Y-103239514D01*
X140304312Y-103341332D01*
X140458655Y-103419973D01*
X140623399Y-103473502D01*
X140794489Y-103500600D01*
X140794490Y-103500600D01*
X140967710Y-103500600D01*
X140967711Y-103500600D01*
X141138801Y-103473502D01*
X141303545Y-103419973D01*
X141457888Y-103341332D01*
X141598028Y-103239514D01*
X141720514Y-103117028D01*
X141822332Y-102976888D01*
X141900973Y-102822545D01*
X141954502Y-102657801D01*
X141981600Y-102486711D01*
X141981600Y-102313489D01*
X141954502Y-102142399D01*
X141900973Y-101977655D01*
X141900970Y-101977649D01*
X141900056Y-101974836D01*
X141898061Y-101904994D01*
X141930304Y-101848838D01*
X144464850Y-99314294D01*
X145435625Y-98343519D01*
X145462552Y-98328815D01*
X145488371Y-98312223D01*
X145494571Y-98311331D01*
X145496948Y-98310034D01*
X145523306Y-98307200D01*
X145689049Y-98307200D01*
X145756088Y-98326885D01*
X145801843Y-98379689D01*
X145811787Y-98448847D01*
X145786619Y-98505968D01*
X145787077Y-98506274D01*
X145785338Y-98508875D01*
X145784904Y-98509862D01*
X145783695Y-98511334D01*
X145682619Y-98662604D01*
X145682612Y-98662617D01*
X145612994Y-98830691D01*
X145612991Y-98830703D01*
X145577500Y-99009128D01*
X145577500Y-99191071D01*
X145612991Y-99369496D01*
X145612994Y-99369508D01*
X145682612Y-99537582D01*
X145682619Y-99537594D01*
X145692117Y-99551809D01*
X145712995Y-99618486D01*
X145694511Y-99685866D01*
X145642532Y-99732557D01*
X145589015Y-99744700D01*
X145424045Y-99744700D01*
X145334493Y-99768695D01*
X145326191Y-99773489D01*
X145326189Y-99773490D01*
X145254209Y-99815047D01*
X145254204Y-99815051D01*
X142809152Y-102260103D01*
X142809150Y-102260106D01*
X142762794Y-102340395D01*
X142762794Y-102340398D01*
X142738800Y-102429945D01*
X142738800Y-106343094D01*
X142719115Y-106410133D01*
X142702481Y-106430775D01*
X142080600Y-107052655D01*
X142019277Y-107086140D01*
X141949585Y-107081156D01*
X141893652Y-107039284D01*
X141882434Y-107021269D01*
X141822331Y-106903311D01*
X141720514Y-106763172D01*
X141598028Y-106640686D01*
X141457888Y-106538868D01*
X141303545Y-106460227D01*
X141138801Y-106406698D01*
X141138799Y-106406697D01*
X141138798Y-106406697D01*
X141007371Y-106385881D01*
X140967711Y-106379600D01*
X140794489Y-106379600D01*
X140754828Y-106385881D01*
X140623402Y-106406697D01*
X140458652Y-106460228D01*
X140304311Y-106538868D01*
X140238542Y-106586653D01*
X140164172Y-106640686D01*
X140164170Y-106640688D01*
X140164169Y-106640688D01*
X140041688Y-106763169D01*
X140041688Y-106763170D01*
X140041686Y-106763172D01*
X139997959Y-106823356D01*
X139939868Y-106903311D01*
X139861228Y-107057652D01*
X139807697Y-107222402D01*
X139786456Y-107356516D01*
X139780600Y-107393489D01*
X139780600Y-107566711D01*
X139807698Y-107737801D01*
X139861227Y-107902545D01*
X139939868Y-108056888D01*
X140041686Y-108197028D01*
X140164172Y-108319514D01*
X140304312Y-108421332D01*
X140458655Y-108499973D01*
X140623399Y-108553502D01*
X140794489Y-108580600D01*
X140794490Y-108580600D01*
X140967710Y-108580600D01*
X140967711Y-108580600D01*
X141138801Y-108553502D01*
X141303545Y-108499973D01*
X141457888Y-108421332D01*
X141598028Y-108319514D01*
X141720514Y-108197028D01*
X141822332Y-108056888D01*
X141900973Y-107902545D01*
X141902318Y-107899906D01*
X141950292Y-107849109D01*
X142012803Y-107832200D01*
X142197453Y-107832200D01*
X142197455Y-107832200D01*
X142287006Y-107808205D01*
X142367294Y-107761850D01*
X143372650Y-106756494D01*
X143419005Y-106676206D01*
X143443000Y-106586655D01*
X143443000Y-106493945D01*
X143443000Y-102673506D01*
X143462685Y-102606467D01*
X143479319Y-102585825D01*
X144440835Y-101624309D01*
X145439863Y-100625280D01*
X145501184Y-100591797D01*
X145570876Y-100596781D01*
X145626809Y-100638653D01*
X145651226Y-100704117D01*
X145642104Y-100760414D01*
X145612993Y-100830696D01*
X145612991Y-100830703D01*
X145577500Y-101009128D01*
X145577500Y-101191071D01*
X145612991Y-101369496D01*
X145612994Y-101369508D01*
X145682612Y-101537582D01*
X145682619Y-101537595D01*
X145783692Y-101688860D01*
X145783695Y-101688864D01*
X145812250Y-101717419D01*
X145845735Y-101778742D01*
X145840751Y-101848434D01*
X145798879Y-101904367D01*
X145733415Y-101928784D01*
X145724569Y-101929100D01*
X145491355Y-101929100D01*
X145398645Y-101929100D01*
X145309094Y-101953095D01*
X145309093Y-101953095D01*
X145309091Y-101953096D01*
X145309088Y-101953097D01*
X145228812Y-101999446D01*
X145228803Y-101999452D01*
X144129952Y-103098303D01*
X144129950Y-103098306D01*
X144083594Y-103178595D01*
X144083594Y-103178598D01*
X144059600Y-103268145D01*
X144059600Y-107562294D01*
X144039915Y-107629333D01*
X144023281Y-107649975D01*
X142080600Y-109592655D01*
X142019277Y-109626140D01*
X141949585Y-109621156D01*
X141893652Y-109579284D01*
X141882434Y-109561269D01*
X141822331Y-109443311D01*
X141720514Y-109303172D01*
X141598028Y-109180686D01*
X141457888Y-109078868D01*
X141303545Y-109000227D01*
X141138801Y-108946698D01*
X141138799Y-108946697D01*
X141138798Y-108946697D01*
X141007371Y-108925881D01*
X140967711Y-108919600D01*
X140794489Y-108919600D01*
X140754828Y-108925881D01*
X140623402Y-108946697D01*
X140458652Y-109000228D01*
X140304311Y-109078868D01*
X140224356Y-109136959D01*
X140164172Y-109180686D01*
X140164170Y-109180688D01*
X140164169Y-109180688D01*
X140041688Y-109303169D01*
X140041688Y-109303170D01*
X140041686Y-109303172D01*
X139997959Y-109363356D01*
X139939868Y-109443311D01*
X139861228Y-109597652D01*
X139807697Y-109762402D01*
X139795259Y-109840936D01*
X139780600Y-109933489D01*
X139780600Y-110106711D01*
X139807698Y-110277801D01*
X139861227Y-110442545D01*
X139939868Y-110596888D01*
X140041686Y-110737028D01*
X140164172Y-110859514D01*
X140304312Y-110961332D01*
X140458655Y-111039973D01*
X140623399Y-111093502D01*
X140794489Y-111120600D01*
X140794490Y-111120600D01*
X140967710Y-111120600D01*
X140967711Y-111120600D01*
X141138801Y-111093502D01*
X141303545Y-111039973D01*
X141457888Y-110961332D01*
X141598028Y-110859514D01*
X141720514Y-110737028D01*
X141822332Y-110596888D01*
X141900973Y-110442545D01*
X141902318Y-110439906D01*
X141950292Y-110389109D01*
X142012803Y-110372200D01*
X142197453Y-110372200D01*
X142197455Y-110372200D01*
X142287006Y-110348205D01*
X142367294Y-110301850D01*
X142735655Y-109933489D01*
X155020600Y-109933489D01*
X155020600Y-110106711D01*
X155047698Y-110277801D01*
X155101227Y-110442545D01*
X155179868Y-110596888D01*
X155281686Y-110737028D01*
X155404172Y-110859514D01*
X155544312Y-110961332D01*
X155698655Y-111039973D01*
X155863399Y-111093502D01*
X156034489Y-111120600D01*
X156034490Y-111120600D01*
X156207710Y-111120600D01*
X156207711Y-111120600D01*
X156378801Y-111093502D01*
X156543545Y-111039973D01*
X156697888Y-110961332D01*
X156838028Y-110859514D01*
X156960514Y-110737028D01*
X157062332Y-110596888D01*
X157140973Y-110442545D01*
X157194502Y-110277801D01*
X157221600Y-110106711D01*
X157221600Y-109933489D01*
X157194502Y-109762399D01*
X157140973Y-109597655D01*
X157062332Y-109443312D01*
X156960514Y-109303172D01*
X156838028Y-109180686D01*
X156697888Y-109078868D01*
X156543545Y-109000227D01*
X156378801Y-108946698D01*
X156378799Y-108946697D01*
X156378798Y-108946697D01*
X156247371Y-108925881D01*
X156207711Y-108919600D01*
X156034489Y-108919600D01*
X155994828Y-108925881D01*
X155863402Y-108946697D01*
X155698652Y-109000228D01*
X155544311Y-109078868D01*
X155464356Y-109136959D01*
X155404172Y-109180686D01*
X155404170Y-109180688D01*
X155404169Y-109180688D01*
X155281688Y-109303169D01*
X155281688Y-109303170D01*
X155281686Y-109303172D01*
X155237959Y-109363356D01*
X155179868Y-109443311D01*
X155101228Y-109597652D01*
X155047697Y-109762402D01*
X155035259Y-109840936D01*
X155020600Y-109933489D01*
X142735655Y-109933489D01*
X144693450Y-107975694D01*
X144703368Y-107958516D01*
X144739805Y-107895405D01*
X144763800Y-107805855D01*
X144763800Y-107393489D01*
X155020600Y-107393489D01*
X155020600Y-107566711D01*
X155047698Y-107737801D01*
X155101227Y-107902545D01*
X155179868Y-108056888D01*
X155281686Y-108197028D01*
X155404172Y-108319514D01*
X155544312Y-108421332D01*
X155698655Y-108499973D01*
X155863399Y-108553502D01*
X156034489Y-108580600D01*
X156034490Y-108580600D01*
X156207710Y-108580600D01*
X156207711Y-108580600D01*
X156378801Y-108553502D01*
X156543545Y-108499973D01*
X156697888Y-108421332D01*
X156838028Y-108319514D01*
X156960514Y-108197028D01*
X157062332Y-108056888D01*
X157140973Y-107902545D01*
X157194502Y-107737801D01*
X157221600Y-107566711D01*
X157221600Y-107393489D01*
X157194502Y-107222399D01*
X157140973Y-107057655D01*
X157062332Y-106903312D01*
X156960514Y-106763172D01*
X156838028Y-106640686D01*
X156697888Y-106538868D01*
X156543545Y-106460227D01*
X156378801Y-106406698D01*
X156378799Y-106406697D01*
X156378798Y-106406697D01*
X156247371Y-106385881D01*
X156207711Y-106379600D01*
X156034489Y-106379600D01*
X155994828Y-106385881D01*
X155863402Y-106406697D01*
X155698652Y-106460228D01*
X155544311Y-106538868D01*
X155478542Y-106586653D01*
X155404172Y-106640686D01*
X155404170Y-106640688D01*
X155404169Y-106640688D01*
X155281688Y-106763169D01*
X155281688Y-106763170D01*
X155281686Y-106763172D01*
X155237959Y-106823356D01*
X155179868Y-106903311D01*
X155101228Y-107057652D01*
X155047697Y-107222402D01*
X155026456Y-107356516D01*
X155020600Y-107393489D01*
X144763800Y-107393489D01*
X144763800Y-103511706D01*
X144783485Y-103444667D01*
X144800119Y-103424025D01*
X145149889Y-103074255D01*
X145539614Y-102684529D01*
X145600935Y-102651046D01*
X145670626Y-102656030D01*
X145726560Y-102697902D01*
X145750977Y-102763366D01*
X145736125Y-102831639D01*
X145730396Y-102841102D01*
X145682618Y-102912606D01*
X145682612Y-102912617D01*
X145612994Y-103080691D01*
X145612991Y-103080703D01*
X145577500Y-103259128D01*
X145577500Y-103441071D01*
X145612991Y-103619496D01*
X145612994Y-103619508D01*
X145682612Y-103787582D01*
X145682619Y-103787595D01*
X145783692Y-103938860D01*
X145783695Y-103938864D01*
X145912335Y-104067504D01*
X145912339Y-104067507D01*
X146063604Y-104168580D01*
X146063613Y-104168585D01*
X146225255Y-104235539D01*
X146279658Y-104279380D01*
X146301723Y-104345674D01*
X146284444Y-104413373D01*
X146233307Y-104460984D01*
X146225255Y-104464661D01*
X146063613Y-104531614D01*
X146063604Y-104531619D01*
X145912339Y-104632692D01*
X145912335Y-104632695D01*
X145783695Y-104761335D01*
X145783692Y-104761339D01*
X145682619Y-104912604D01*
X145682612Y-104912617D01*
X145612994Y-105080691D01*
X145612991Y-105080703D01*
X145577500Y-105259128D01*
X145577500Y-105441071D01*
X145612991Y-105619496D01*
X145612994Y-105619508D01*
X145682612Y-105787582D01*
X145682619Y-105787595D01*
X145783692Y-105938860D01*
X145783695Y-105938864D01*
X145912335Y-106067504D01*
X145912339Y-106067507D01*
X146063604Y-106168580D01*
X146063617Y-106168587D01*
X146231691Y-106238205D01*
X146231696Y-106238207D01*
X146390687Y-106269832D01*
X146410128Y-106273699D01*
X146410132Y-106273700D01*
X146410133Y-106273700D01*
X146592068Y-106273700D01*
X146592069Y-106273699D01*
X146770504Y-106238207D01*
X146938589Y-106168584D01*
X147089861Y-106067507D01*
X147218507Y-105938861D01*
X147319584Y-105787589D01*
X147386539Y-105625944D01*
X147430380Y-105571541D01*
X147496674Y-105549476D01*
X147564373Y-105566755D01*
X147611984Y-105617892D01*
X147615661Y-105625945D01*
X147682612Y-105787582D01*
X147682619Y-105787595D01*
X147783692Y-105938860D01*
X147783695Y-105938864D01*
X147912335Y-106067504D01*
X147912339Y-106067507D01*
X148063604Y-106168580D01*
X148063617Y-106168587D01*
X148231691Y-106238205D01*
X148231696Y-106238207D01*
X148390687Y-106269832D01*
X148410128Y-106273699D01*
X148410132Y-106273700D01*
X148410133Y-106273700D01*
X148592068Y-106273700D01*
X148592069Y-106273699D01*
X148770504Y-106238207D01*
X148938589Y-106168584D01*
X149089861Y-106067507D01*
X149218507Y-105938861D01*
X149319584Y-105787589D01*
X149386539Y-105625944D01*
X149430380Y-105571541D01*
X149496674Y-105549476D01*
X149564373Y-105566755D01*
X149611984Y-105617892D01*
X149615661Y-105625945D01*
X149682612Y-105787582D01*
X149682619Y-105787595D01*
X149783692Y-105938860D01*
X149783695Y-105938864D01*
X149912335Y-106067504D01*
X149912339Y-106067507D01*
X150063604Y-106168580D01*
X150063617Y-106168587D01*
X150231691Y-106238205D01*
X150231696Y-106238207D01*
X150390687Y-106269832D01*
X150410128Y-106273699D01*
X150410132Y-106273700D01*
X150410133Y-106273700D01*
X150592068Y-106273700D01*
X150592069Y-106273699D01*
X150770504Y-106238207D01*
X150938589Y-106168584D01*
X151089861Y-106067507D01*
X151218507Y-105938861D01*
X151319584Y-105787589D01*
X151389207Y-105619504D01*
X151424700Y-105441067D01*
X151424700Y-105398858D01*
X151444385Y-105331819D01*
X151497189Y-105286064D01*
X151566347Y-105276120D01*
X151580786Y-105279081D01*
X151629745Y-105292200D01*
X151722455Y-105292200D01*
X154989397Y-105292200D01*
X155056436Y-105311885D01*
X155099882Y-105359906D01*
X155179866Y-105516886D01*
X155203545Y-105549476D01*
X155281686Y-105657028D01*
X155404172Y-105779514D01*
X155544312Y-105881332D01*
X155698655Y-105959973D01*
X155863399Y-106013502D01*
X156034489Y-106040600D01*
X156034490Y-106040600D01*
X156207710Y-106040600D01*
X156207711Y-106040600D01*
X156378801Y-106013502D01*
X156543545Y-105959973D01*
X156697888Y-105881332D01*
X156838028Y-105779514D01*
X156960514Y-105657028D01*
X157062332Y-105516888D01*
X157140973Y-105362545D01*
X157194502Y-105197801D01*
X157221600Y-105026711D01*
X157221600Y-104853489D01*
X157194502Y-104682399D01*
X157140973Y-104517655D01*
X157062332Y-104363312D01*
X156960514Y-104223172D01*
X156838028Y-104100686D01*
X156697888Y-103998868D01*
X156589235Y-103943507D01*
X156543547Y-103920228D01*
X156543546Y-103920227D01*
X156543545Y-103920227D01*
X156378801Y-103866698D01*
X156378799Y-103866697D01*
X156378798Y-103866697D01*
X156247371Y-103845881D01*
X156207711Y-103839600D01*
X156034489Y-103839600D01*
X155994828Y-103845881D01*
X155863402Y-103866697D01*
X155698652Y-103920228D01*
X155544311Y-103998868D01*
X155465366Y-104056226D01*
X155404172Y-104100686D01*
X155404170Y-104100688D01*
X155404169Y-104100688D01*
X155281688Y-104223169D01*
X155281688Y-104223170D01*
X155281686Y-104223172D01*
X155251096Y-104265274D01*
X155179866Y-104363313D01*
X155099882Y-104520294D01*
X155051908Y-104571091D01*
X154989397Y-104588000D01*
X151873306Y-104588000D01*
X151806267Y-104568315D01*
X151785625Y-104551681D01*
X151450737Y-104216793D01*
X151417252Y-104155470D01*
X151422236Y-104085778D01*
X151438100Y-104056226D01*
X151504424Y-103964938D01*
X151588255Y-103800411D01*
X151645311Y-103624808D01*
X151649225Y-103600100D01*
X150840697Y-103600100D01*
X150891639Y-103511866D01*
X150920200Y-103405276D01*
X150920200Y-103294924D01*
X150891639Y-103188334D01*
X150840697Y-103100100D01*
X151649225Y-103100100D01*
X151645311Y-103075391D01*
X151588255Y-102899788D01*
X151504424Y-102735261D01*
X151395887Y-102585875D01*
X151395887Y-102585874D01*
X151265325Y-102455312D01*
X151115938Y-102346775D01*
X150951411Y-102262944D01*
X150797993Y-102213096D01*
X150740318Y-102173659D01*
X150713119Y-102109300D01*
X150725034Y-102040454D01*
X150772278Y-101988978D01*
X150788859Y-101980604D01*
X150938582Y-101918587D01*
X150938582Y-101918586D01*
X150938589Y-101918584D01*
X151089861Y-101817507D01*
X151218507Y-101688861D01*
X151319584Y-101537589D01*
X151389207Y-101369504D01*
X151424700Y-101191067D01*
X151424700Y-101009133D01*
X151389207Y-100830696D01*
X151377044Y-100801331D01*
X151319587Y-100662617D01*
X151319580Y-100662604D01*
X151218507Y-100511339D01*
X151218504Y-100511335D01*
X151089864Y-100382695D01*
X151089860Y-100382692D01*
X150938595Y-100281619D01*
X150938582Y-100281612D01*
X150776945Y-100214661D01*
X150759704Y-100200768D01*
X150739901Y-100190855D01*
X150733027Y-100179270D01*
X150722541Y-100170820D01*
X150715548Y-100149809D01*
X150704249Y-100130766D01*
X150704729Y-100117306D01*
X150700476Y-100104526D01*
X150705952Y-100083068D01*
X150706743Y-100060940D01*
X150714424Y-100049876D01*
X150717755Y-100036827D01*
X150733961Y-100021738D01*
X150746591Y-100003548D01*
X150765632Y-99992250D01*
X150768892Y-99989216D01*
X150776945Y-99985539D01*
X150842284Y-99958475D01*
X150938582Y-99918587D01*
X150938582Y-99918586D01*
X150938589Y-99918584D01*
X151089861Y-99817507D01*
X151218507Y-99688861D01*
X151271134Y-99610100D01*
X154793869Y-99610100D01*
X155688088Y-99610100D01*
X155655175Y-99667107D01*
X155621100Y-99794274D01*
X155621100Y-99925926D01*
X155655175Y-100053093D01*
X155688088Y-100110100D01*
X154793869Y-100110100D01*
X154804342Y-100176226D01*
X154804342Y-100176229D01*
X154870004Y-100378317D01*
X154966479Y-100567657D01*
X155091372Y-100739559D01*
X155091376Y-100739564D01*
X155241635Y-100889823D01*
X155241640Y-100889827D01*
X155413542Y-101014720D01*
X155602884Y-101111196D01*
X155701811Y-101143339D01*
X155759487Y-101182776D01*
X155786686Y-101247134D01*
X155774772Y-101315981D01*
X155727528Y-101367457D01*
X155701822Y-101379197D01*
X155700622Y-101379587D01*
X155698650Y-101380228D01*
X155544311Y-101458868D01*
X155464356Y-101516959D01*
X155404172Y-101560686D01*
X155404170Y-101560688D01*
X155404169Y-101560688D01*
X155281688Y-101683169D01*
X155281688Y-101683170D01*
X155281686Y-101683172D01*
X155245179Y-101733420D01*
X155179868Y-101823311D01*
X155101228Y-101977652D01*
X155047697Y-102142402D01*
X155020600Y-102313489D01*
X155020600Y-102486710D01*
X155047417Y-102656030D01*
X155047698Y-102657801D01*
X155101227Y-102822545D01*
X155179868Y-102976888D01*
X155281686Y-103117028D01*
X155404172Y-103239514D01*
X155544312Y-103341332D01*
X155698655Y-103419973D01*
X155863399Y-103473502D01*
X156034489Y-103500600D01*
X156034490Y-103500600D01*
X156207710Y-103500600D01*
X156207711Y-103500600D01*
X156378801Y-103473502D01*
X156543545Y-103419973D01*
X156697888Y-103341332D01*
X156838028Y-103239514D01*
X156960514Y-103117028D01*
X157062332Y-102976888D01*
X157140973Y-102822545D01*
X157194502Y-102657801D01*
X157221600Y-102486711D01*
X157221600Y-102313489D01*
X157194502Y-102142399D01*
X157140973Y-101977655D01*
X157140730Y-101977179D01*
X157140723Y-101977165D01*
X158625600Y-101977165D01*
X158625600Y-102223034D01*
X158641892Y-102346775D01*
X158657691Y-102466777D01*
X158721322Y-102704252D01*
X158721325Y-102704262D01*
X158807627Y-102912611D01*
X158815406Y-102931392D01*
X158938333Y-103144308D01*
X158938335Y-103144311D01*
X158938336Y-103144312D01*
X159087997Y-103339354D01*
X159088003Y-103339361D01*
X159261838Y-103513196D01*
X159261844Y-103513201D01*
X159456892Y-103662867D01*
X159669808Y-103785794D01*
X159896947Y-103879878D01*
X160134423Y-103943509D01*
X160378173Y-103975600D01*
X160378180Y-103975600D01*
X160624020Y-103975600D01*
X160624027Y-103975600D01*
X160867777Y-103943509D01*
X161105253Y-103879878D01*
X161332392Y-103785794D01*
X161545308Y-103662867D01*
X161740356Y-103513201D01*
X161914201Y-103339356D01*
X162063867Y-103144308D01*
X162186794Y-102931392D01*
X162280878Y-102704253D01*
X162344509Y-102466777D01*
X162376600Y-102223027D01*
X162376600Y-101977173D01*
X162344509Y-101733423D01*
X162280878Y-101495947D01*
X162186794Y-101268808D01*
X162063867Y-101055892D01*
X161956281Y-100915684D01*
X161914202Y-100860845D01*
X161914196Y-100860838D01*
X161740361Y-100687003D01*
X161740354Y-100686997D01*
X161545312Y-100537336D01*
X161545311Y-100537335D01*
X161545308Y-100537333D01*
X161332392Y-100414406D01*
X161332385Y-100414403D01*
X161105262Y-100320325D01*
X161105255Y-100320323D01*
X161105253Y-100320322D01*
X160867777Y-100256691D01*
X160827039Y-100251327D01*
X160624034Y-100224600D01*
X160624027Y-100224600D01*
X160378173Y-100224600D01*
X160378165Y-100224600D01*
X160146159Y-100255145D01*
X160134423Y-100256691D01*
X159896947Y-100320322D01*
X159896937Y-100320325D01*
X159669814Y-100414403D01*
X159669805Y-100414407D01*
X159456887Y-100537336D01*
X159261845Y-100686997D01*
X159261838Y-100687003D01*
X159088003Y-100860838D01*
X159087997Y-100860845D01*
X158938336Y-101055887D01*
X158815407Y-101268805D01*
X158815403Y-101268814D01*
X158721325Y-101495937D01*
X158721322Y-101495947D01*
X158660244Y-101723897D01*
X158657692Y-101733420D01*
X158657690Y-101733431D01*
X158625600Y-101977165D01*
X157140723Y-101977165D01*
X157115228Y-101927128D01*
X157062332Y-101823312D01*
X156960514Y-101683172D01*
X156838028Y-101560686D01*
X156697888Y-101458868D01*
X156543546Y-101380227D01*
X156540384Y-101379200D01*
X156539336Y-101378483D01*
X156539052Y-101378366D01*
X156539076Y-101378306D01*
X156482709Y-101339761D01*
X156455513Y-101275402D01*
X156467429Y-101206556D01*
X156514674Y-101155081D01*
X156540388Y-101143339D01*
X156639315Y-101111196D01*
X156828657Y-101014720D01*
X157000559Y-100889827D01*
X157000564Y-100889823D01*
X157150823Y-100739564D01*
X157150827Y-100739559D01*
X157275720Y-100567657D01*
X157372195Y-100378317D01*
X157437857Y-100176229D01*
X157437857Y-100176226D01*
X157448331Y-100110100D01*
X156554112Y-100110100D01*
X156587025Y-100053093D01*
X156621100Y-99925926D01*
X156621100Y-99794274D01*
X156587025Y-99667107D01*
X156554112Y-99610100D01*
X157448331Y-99610100D01*
X157437857Y-99543973D01*
X157437857Y-99543970D01*
X157372195Y-99341882D01*
X157275720Y-99152542D01*
X157150827Y-98980640D01*
X157150823Y-98980635D01*
X157000564Y-98830376D01*
X157000559Y-98830372D01*
X156828657Y-98705479D01*
X156639317Y-98609004D01*
X156540387Y-98576860D01*
X156482711Y-98537423D01*
X156455513Y-98473064D01*
X156467428Y-98404218D01*
X156514672Y-98352742D01*
X156540390Y-98340997D01*
X156543545Y-98339973D01*
X156697888Y-98261332D01*
X156838028Y-98159514D01*
X156960514Y-98037028D01*
X157062332Y-97896888D01*
X157140973Y-97742545D01*
X157194502Y-97577801D01*
X157221600Y-97406711D01*
X157221600Y-97233489D01*
X157194502Y-97062399D01*
X157140973Y-96897655D01*
X157062332Y-96743312D01*
X156960514Y-96603172D01*
X156838028Y-96480686D01*
X156697888Y-96378868D01*
X156543545Y-96300227D01*
X156378801Y-96246698D01*
X156378799Y-96246697D01*
X156378798Y-96246697D01*
X156247371Y-96225881D01*
X156207711Y-96219600D01*
X156034489Y-96219600D01*
X155994828Y-96225881D01*
X155863402Y-96246697D01*
X155698652Y-96300228D01*
X155544311Y-96378868D01*
X155473797Y-96430100D01*
X155404172Y-96480686D01*
X155404170Y-96480688D01*
X155404169Y-96480688D01*
X155281688Y-96603169D01*
X155281688Y-96603170D01*
X155281686Y-96603172D01*
X155270883Y-96618041D01*
X155179868Y-96743311D01*
X155101228Y-96897652D01*
X155047697Y-97062402D01*
X155020600Y-97233489D01*
X155020600Y-97406710D01*
X155037835Y-97515532D01*
X155047698Y-97577801D01*
X155101227Y-97742545D01*
X155179868Y-97896888D01*
X155281686Y-98037028D01*
X155404172Y-98159514D01*
X155544312Y-98261332D01*
X155698655Y-98339973D01*
X155701808Y-98340997D01*
X155702852Y-98341711D01*
X155703148Y-98341834D01*
X155703122Y-98341895D01*
X155759483Y-98380430D01*
X155786685Y-98444788D01*
X155774774Y-98513635D01*
X155727533Y-98565113D01*
X155701812Y-98576860D01*
X155602883Y-98609004D01*
X155413542Y-98705479D01*
X155241640Y-98830372D01*
X155241635Y-98830376D01*
X155091376Y-98980635D01*
X155091372Y-98980640D01*
X154966479Y-99152542D01*
X154870004Y-99341882D01*
X154804342Y-99543970D01*
X154804342Y-99543973D01*
X154793869Y-99610100D01*
X151271134Y-99610100D01*
X151319584Y-99537589D01*
X151389207Y-99369504D01*
X151424700Y-99191067D01*
X151424700Y-99009133D01*
X151389207Y-98830696D01*
X151389205Y-98830691D01*
X151319587Y-98662617D01*
X151319580Y-98662604D01*
X151218507Y-98511339D01*
X151218504Y-98511335D01*
X151089864Y-98382695D01*
X151089860Y-98382692D01*
X150938595Y-98281619D01*
X150938582Y-98281612D01*
X150770508Y-98211994D01*
X150770496Y-98211991D01*
X150592071Y-98176500D01*
X150592067Y-98176500D01*
X150410133Y-98176500D01*
X150410128Y-98176500D01*
X150231703Y-98211991D01*
X150231691Y-98211994D01*
X150063617Y-98281612D01*
X150063604Y-98281619D01*
X149912339Y-98382692D01*
X149912335Y-98382695D01*
X149783695Y-98511335D01*
X149783692Y-98511339D01*
X149682619Y-98662604D01*
X149682614Y-98662613D01*
X149615661Y-98824255D01*
X149571820Y-98878658D01*
X149505526Y-98900723D01*
X149437827Y-98883444D01*
X149390216Y-98832307D01*
X149386539Y-98824255D01*
X149319585Y-98662613D01*
X149319580Y-98662604D01*
X149218507Y-98511339D01*
X149218504Y-98511335D01*
X149089864Y-98382695D01*
X149089860Y-98382692D01*
X148938595Y-98281619D01*
X148938582Y-98281612D01*
X148770508Y-98211994D01*
X148770496Y-98211991D01*
X148592071Y-98176500D01*
X148592067Y-98176500D01*
X148410133Y-98176500D01*
X148410128Y-98176500D01*
X148231702Y-98211991D01*
X148231691Y-98211994D01*
X148224261Y-98215072D01*
X148154791Y-98222537D01*
X148092313Y-98191258D01*
X148089133Y-98188189D01*
X147574296Y-97673352D01*
X147574294Y-97673350D01*
X147570697Y-97671273D01*
X147494011Y-97626997D01*
X147494008Y-97626996D01*
X147494007Y-97626995D01*
X147494006Y-97626995D01*
X147404455Y-97603000D01*
X145372455Y-97603000D01*
X145279745Y-97603000D01*
X145190194Y-97626995D01*
X145190193Y-97626995D01*
X145190191Y-97626996D01*
X145190188Y-97626997D01*
X145109912Y-97673346D01*
X145109903Y-97673352D01*
X143966906Y-98816350D01*
X141432362Y-101350892D01*
X141371039Y-101384377D01*
X141306363Y-101381142D01*
X141138798Y-101326697D01*
X140993780Y-101303729D01*
X140967711Y-101299600D01*
X140794489Y-101299600D01*
X140768420Y-101303729D01*
X140623402Y-101326697D01*
X140623399Y-101326698D01*
X140464023Y-101378483D01*
X140458652Y-101380228D01*
X140304311Y-101458868D01*
X140224356Y-101516959D01*
X140164172Y-101560686D01*
X140164170Y-101560688D01*
X140164169Y-101560688D01*
X140041688Y-101683169D01*
X140041688Y-101683170D01*
X140041686Y-101683172D01*
X140005179Y-101733420D01*
X139939868Y-101823311D01*
X139861228Y-101977652D01*
X139807697Y-102142402D01*
X139780600Y-102313489D01*
X138364690Y-102313489D01*
X138376600Y-102223027D01*
X138376600Y-101977173D01*
X138344509Y-101733423D01*
X138280878Y-101495947D01*
X138186794Y-101268808D01*
X138063867Y-101055892D01*
X137956281Y-100915684D01*
X137914202Y-100860845D01*
X137914196Y-100860838D01*
X137740361Y-100687003D01*
X137740354Y-100686997D01*
X137545312Y-100537336D01*
X137545311Y-100537335D01*
X137545308Y-100537333D01*
X137332392Y-100414406D01*
X137332385Y-100414403D01*
X137105262Y-100320325D01*
X137105255Y-100320323D01*
X137105253Y-100320322D01*
X136867777Y-100256691D01*
X136827039Y-100251327D01*
X136624034Y-100224600D01*
X136624027Y-100224600D01*
X136378173Y-100224600D01*
X136378165Y-100224600D01*
X136146159Y-100255145D01*
X136134423Y-100256691D01*
X135896947Y-100320322D01*
X135896937Y-100320325D01*
X135669814Y-100414403D01*
X135669805Y-100414407D01*
X135456887Y-100537336D01*
X135261845Y-100686997D01*
X135261838Y-100687003D01*
X135088003Y-100860838D01*
X135087997Y-100860845D01*
X134938336Y-101055887D01*
X134815407Y-101268805D01*
X134815403Y-101268814D01*
X134721325Y-101495937D01*
X134721322Y-101495947D01*
X134660244Y-101723897D01*
X134657692Y-101733420D01*
X134657690Y-101733431D01*
X134625600Y-101977165D01*
X133806167Y-101977165D01*
X133806167Y-101950363D01*
X133807005Y-101935968D01*
X133808038Y-101927128D01*
X133841773Y-101638499D01*
X133844274Y-101624320D01*
X133913343Y-101332892D01*
X133917474Y-101319097D01*
X134019909Y-101037659D01*
X134025611Y-101024441D01*
X134160031Y-100756786D01*
X134167233Y-100744315D01*
X134204931Y-100686999D01*
X134331802Y-100494099D01*
X134340404Y-100482544D01*
X134532921Y-100253113D01*
X134542799Y-100242643D01*
X134760648Y-100037113D01*
X134771687Y-100027851D01*
X135011909Y-99849013D01*
X135023947Y-99841094D01*
X135141042Y-99773489D01*
X139780600Y-99773489D01*
X139780600Y-99946710D01*
X139807619Y-100117306D01*
X139807698Y-100117801D01*
X139861227Y-100282545D01*
X139939868Y-100436888D01*
X140041686Y-100577028D01*
X140164172Y-100699514D01*
X140304312Y-100801332D01*
X140458655Y-100879973D01*
X140623399Y-100933502D01*
X140794489Y-100960600D01*
X140794490Y-100960600D01*
X140967710Y-100960600D01*
X140967711Y-100960600D01*
X141138801Y-100933502D01*
X141303545Y-100879973D01*
X141457888Y-100801332D01*
X141598028Y-100699514D01*
X141720514Y-100577028D01*
X141822332Y-100436888D01*
X141900973Y-100282545D01*
X141954502Y-100117801D01*
X141981600Y-99946711D01*
X141981600Y-99773489D01*
X141954502Y-99602399D01*
X141900973Y-99437655D01*
X141822332Y-99283312D01*
X141720514Y-99143172D01*
X141598028Y-99020686D01*
X141457888Y-98918868D01*
X141303545Y-98840227D01*
X141138801Y-98786698D01*
X141138799Y-98786697D01*
X141138798Y-98786697D01*
X141007371Y-98765881D01*
X140967711Y-98759600D01*
X140794489Y-98759600D01*
X140754828Y-98765881D01*
X140623402Y-98786697D01*
X140458652Y-98840228D01*
X140304311Y-98918868D01*
X140224356Y-98976959D01*
X140164172Y-99020686D01*
X140164170Y-99020688D01*
X140164169Y-99020688D01*
X140041688Y-99143169D01*
X140041688Y-99143170D01*
X140041686Y-99143172D01*
X140006885Y-99191071D01*
X139939868Y-99283311D01*
X139861228Y-99437652D01*
X139807697Y-99602402D01*
X139780600Y-99773489D01*
X135141042Y-99773489D01*
X135283323Y-99691343D01*
X135296188Y-99684882D01*
X135571186Y-99566259D01*
X135584731Y-99561329D01*
X135871652Y-99475430D01*
X135885654Y-99472112D01*
X136180597Y-99420106D01*
X136194913Y-99418433D01*
X136497494Y-99400809D01*
X136504704Y-99400600D01*
X136640257Y-99400600D01*
X136698477Y-99393530D01*
X136916535Y-99367054D01*
X137186757Y-99300450D01*
X137446981Y-99201761D01*
X137693411Y-99072424D01*
X137922455Y-98914326D01*
X138130773Y-98729773D01*
X138315326Y-98521455D01*
X138473424Y-98292411D01*
X138602761Y-98045981D01*
X138701450Y-97785757D01*
X138768054Y-97515535D01*
X138801600Y-97239254D01*
X138801600Y-97100100D01*
X138801600Y-97052505D01*
X138801600Y-96445421D01*
X139780600Y-96445421D01*
X139780600Y-98194778D01*
X139795132Y-98267835D01*
X139795133Y-98267839D01*
X139811552Y-98292411D01*
X139850499Y-98350701D01*
X139930594Y-98404218D01*
X139933360Y-98406066D01*
X139933364Y-98406067D01*
X140006421Y-98420599D01*
X140006424Y-98420600D01*
X140006426Y-98420600D01*
X141755776Y-98420600D01*
X141755777Y-98420599D01*
X141828840Y-98406066D01*
X141911701Y-98350701D01*
X141967066Y-98267840D01*
X141981600Y-98194774D01*
X141981600Y-96445426D01*
X141981600Y-96445423D01*
X141981599Y-96445421D01*
X141967067Y-96372364D01*
X141967066Y-96372360D01*
X141911701Y-96289499D01*
X141828840Y-96234134D01*
X141828839Y-96234133D01*
X141828835Y-96234132D01*
X141755777Y-96219600D01*
X141755774Y-96219600D01*
X140006426Y-96219600D01*
X140006423Y-96219600D01*
X139933364Y-96234132D01*
X139933360Y-96234133D01*
X139850499Y-96289499D01*
X139795133Y-96372360D01*
X139795132Y-96372364D01*
X139780600Y-96445421D01*
X138801600Y-96445421D01*
X138801600Y-96434527D01*
X138801916Y-96425681D01*
X138817288Y-96210735D01*
X138819804Y-96193238D01*
X138864669Y-95987001D01*
X138869648Y-95970043D01*
X138943409Y-95772280D01*
X138950750Y-95756207D01*
X139051904Y-95570957D01*
X139061460Y-95556089D01*
X139187946Y-95387123D01*
X139199520Y-95373766D01*
X139348766Y-95224520D01*
X139362123Y-95212946D01*
X139531089Y-95086460D01*
X139545957Y-95076904D01*
X139731207Y-94975750D01*
X139747280Y-94968409D01*
X139945043Y-94894648D01*
X139962001Y-94889669D01*
X140168238Y-94844804D01*
X140185735Y-94842288D01*
X140400682Y-94826916D01*
X140409528Y-94826600D01*
X140452695Y-94826600D01*
X156357506Y-94826600D01*
X156401048Y-94826600D01*
X156409128Y-94826864D01*
G37*
%TD.AperFunction*%
%TD*%
M02*
