M48
; DRILL file KiCad 10.0.3 date 2026-06-14T23:54:00
; FORMAT={-:-/ absolute / metric / decimal}
; #@! TF.CreationDate,2026-06-14T23:54:00+03:00
; #@! TF.GenerationSoftware,Kicad,Pcbnew,10.0.3
; #@! TF.FileFunction,Plated,1,2,PTH
FMAT,2
METRIC
; #@! TA.AperFunction,Plated,PTH,ViaDrill
T1C0.350
; #@! TA.AperFunction,Plated,PTH,ComponentDrill
T2C0.838
; #@! TA.AperFunction,Plated,PTH,ComponentDrill
T3C1.000
%
G90
G05
T1
X138.976Y-99.86
X138.976Y-104.305
X142.786Y-96.05
X142.786Y-114.465
X144.691Y-96.05
X144.691Y-114.465
X146.596Y-96.05
X146.596Y-114.465
X148.501Y-96.05
X148.501Y-114.465
X150.406Y-96.05
X150.406Y-114.465
X152.311Y-96.05
X152.311Y-114.465
X154.216Y-96.05
X154.216Y-114.465
X158.026Y-99.86
X158.026Y-104.305
T2
X146.501Y-99.1
X146.501Y-101.1
X146.501Y-103.35
X146.501Y-105.35
X148.501Y-99.1
X148.501Y-101.1
X148.501Y-103.35
X148.501Y-105.35
X150.501Y-99.1
X150.501Y-101.1
X150.501Y-103.35
X150.501Y-105.35
T3
X140.881Y-97.32
X140.881Y-99.86
X140.881Y-102.4
X140.881Y-104.94
X140.881Y-107.48
X140.881Y-110.02
X140.881Y-112.56
X156.121Y-97.32
X156.121Y-99.86
X156.121Y-102.4
X156.121Y-104.94
X156.121Y-107.48
X156.121Y-110.02
X156.121Y-112.56
M30
