%TF.GenerationSoftware,KiCad,Pcbnew,10.0.3*%
%TF.CreationDate,2026-06-14T23:55:12+03:00*%
%TF.ProjectId,sensor_board,73656e73-6f72-45f6-926f-6172642e6b69,rev?*%
%TF.SameCoordinates,Original*%
%TF.FileFunction,Paste,Top*%
%TF.FilePolarity,Positive*%
%FSLAX46Y46*%
G04 Gerber Fmt 4.6, Leading zero omitted, Abs format (unit mm)*
G04 Created by KiCad (PCBNEW 10.0.3) date 2026-06-14 23:55:12*
%MOMM*%
%LPD*%
G01*
G04 APERTURE LIST*
G04 Aperture macros list*
%AMRoundRect*
0 Rectangle with rounded corners*
0 $1 Rounding radius*
0 $2 $3 $4 $5 $6 $7 $8 $9 X,Y pos of 4 corners*
0 Add a 4 corners polygon primitive as box body*
4,1,4,$2,$3,$4,$5,$6,$7,$8,$9,$2,$3,0*
0 Add four circle primitives for the rounded corners*
1,1,$1+$1,$2,$3*
1,1,$1+$1,$4,$5*
1,1,$1+$1,$6,$7*
1,1,$1+$1,$8,$9*
0 Add four rect primitives between the rounded corners*
20,1,$1+$1,$2,$3,$4,$5,0*
20,1,$1+$1,$4,$5,$6,$7,0*
20,1,$1+$1,$6,$7,$8,$9,0*
20,1,$1+$1,$8,$9,$2,$3,0*%
%AMRotRect*
0 Rectangle, with rotation*
0 The origin of the aperture is its center*
0 $1 length*
0 $2 width*
0 $3 Rotation angle, in degrees counterclockwise*
0 Add horizontal line*
21,1,$1,$2,0,0,$3*%
G04 Aperture macros list end*
%ADD10C,0.000000*%
%ADD11RoundRect,0.147500X-0.147500X0.457500X-0.147500X-0.457500X0.147500X-0.457500X0.147500X0.457500X0*%
%ADD12RoundRect,0.066250X0.198750X-0.418750X0.198750X0.418750X-0.198750X0.418750X-0.198750X-0.418750X0*%
%ADD13RoundRect,0.066250X-0.198750X0.418750X-0.198750X-0.418750X0.198750X-0.418750X0.198750X0.418750X0*%
%ADD14RotRect,0.420000X1.300000X158.000000*%
%ADD15RoundRect,0.068750X-0.206250X0.561250X-0.206250X-0.561250X0.206250X-0.561250X0.206250X0.561250X0*%
%ADD16RotRect,0.420000X1.300000X23.000000*%
%ADD17R,1.164600X1.465300*%
%ADD18R,0.500000X0.750000*%
%ADD19RotRect,1.164600X1.465300X213.000000*%
%ADD20R,1.200000X0.900000*%
%ADD21RotRect,0.420000X1.300000X67.000000*%
%ADD22RotRect,0.420000X1.300000X248.000000*%
%ADD23RotRect,1.164600X1.465300X33.000000*%
%ADD24R,1.420200X1.031200*%
%ADD25R,1.465300X1.164600*%
%ADD26RotRect,0.420000X1.300000X112.000000*%
%ADD27RotRect,0.420000X1.300000X293.000000*%
%ADD28RotRect,0.420000X1.300000X202.000000*%
%ADD29R,1.815300X1.164600*%
%ADD30RotRect,1.164600X1.465300X327.000000*%
%ADD31RoundRect,0.068750X0.206250X-0.561250X0.206250X0.561250X-0.206250X0.561250X-0.206250X-0.561250X0*%
%ADD32RotRect,1.164600X1.465300X147.000000*%
%ADD33RotRect,1.164600X1.465300X303.000000*%
%ADD34RotRect,1.164600X1.465300X57.000000*%
%ADD35RotRect,1.164600X1.465300X237.000000*%
%ADD36RotRect,0.420000X1.300000X338.000000*%
%ADD37RotRect,1.164600X1.465300X123.000000*%
%ADD38R,1.164600X1.815300*%
G04 APERTURE END LIST*
D10*
%TO.C,S2*%
G36*
X117961100Y-111398599D02*
G01*
X117961101Y-111398600D01*
X118861100Y-111398600D01*
X118861100Y-112208600D01*
X117351100Y-112208600D01*
X117351100Y-110698600D01*
X117961100Y-110698600D01*
X117961100Y-111398599D01*
G37*
G36*
X118861100Y-104608600D02*
G01*
X117961101Y-104608600D01*
X117961100Y-104608601D01*
X117961100Y-105308600D01*
X117351100Y-105308600D01*
X117351100Y-103798600D01*
X118861100Y-103798600D01*
X118861100Y-104608600D01*
G37*
%TO.C,S1*%
G36*
X179651100Y-112208600D02*
G01*
X178141100Y-112208600D01*
X178141100Y-111398600D01*
X179041099Y-111398600D01*
X179041100Y-111398599D01*
X179041100Y-110698600D01*
X179651100Y-110698600D01*
X179651100Y-112208600D01*
G37*
G36*
X179651100Y-105308600D02*
G01*
X179041100Y-105308600D01*
X179041100Y-104608601D01*
X179041099Y-104608600D01*
X178141100Y-104608600D01*
X178141100Y-103798600D01*
X179651100Y-103798600D01*
X179651100Y-105308600D01*
G37*
%TD*%
D11*
%TO.C,U5*%
X149070100Y-85285600D03*
X148120100Y-85285600D03*
X147170100Y-85285600D03*
X147170100Y-87795600D03*
X149070100Y-87795600D03*
%TD*%
D12*
%TO.C,RN1*%
X146920100Y-91225600D03*
X147720100Y-91225600D03*
X148520100Y-91225600D03*
X149320100Y-91225600D03*
D13*
X149320100Y-89475600D03*
X148520100Y-89475600D03*
X147720100Y-89475600D03*
X146920100Y-89475600D03*
%TD*%
D14*
%TO.C,D8*%
X156930475Y-84031439D03*
X157718581Y-84349855D03*
X158506686Y-84668270D03*
X159294794Y-84986686D03*
%TD*%
D15*
%TO.C,U1*%
X124051100Y-109231600D03*
X123101100Y-109231600D03*
X122151100Y-109231600D03*
X122151100Y-111601600D03*
X124051100Y-111601600D03*
%TD*%
%TO.C,U3*%
X174851100Y-109231600D03*
X173901100Y-109231600D03*
X172951100Y-109231600D03*
X172951100Y-111601600D03*
X174851100Y-111601600D03*
%TD*%
D16*
%TO.C,D5*%
X159296759Y-131206324D03*
X158514330Y-131538445D03*
X157731901Y-131870567D03*
X156949472Y-132202688D03*
%TD*%
D17*
%TO.C,C5*%
X173025700Y-113718600D03*
X174776500Y-113718600D03*
%TD*%
D18*
%TO.C,MAG2*%
X133253000Y-101073600D03*
X134203000Y-101073600D03*
X135153000Y-101073600D03*
X135153000Y-98423600D03*
X134203000Y-98423600D03*
X133253000Y-98423600D03*
%TD*%
D19*
%TO.C,C10*%
X170537503Y-93692992D03*
X169069159Y-94646546D03*
%TD*%
D20*
%TO.C,S2*%
X119956100Y-105903600D03*
X119956100Y-110103600D03*
%TD*%
D21*
%TO.C,D6*%
X172437160Y-116715000D03*
X172105039Y-117497429D03*
X171772917Y-118279858D03*
X171440796Y-119062287D03*
%TD*%
D22*
%TO.C,D2*%
X124265914Y-99521906D03*
X124584330Y-98733800D03*
X124902745Y-97945695D03*
X125221161Y-97157587D03*
%TD*%
D23*
%TO.C,C12*%
X126464697Y-122314208D03*
X127933041Y-121360654D03*
%TD*%
D24*
%TO.C,R2*%
X144945100Y-91270100D03*
X144945100Y-89431100D03*
%TD*%
D25*
%TO.C,C7*%
X151676100Y-125389000D03*
X151676100Y-123638200D03*
%TD*%
D26*
%TO.C,D7*%
X171465696Y-97157590D03*
X171784112Y-97945698D03*
X172102527Y-98733803D03*
X172420943Y-99521909D03*
%TD*%
D27*
%TO.C,D3*%
X125246054Y-119062287D03*
X124913933Y-118279858D03*
X124581811Y-117497429D03*
X124249690Y-116715000D03*
%TD*%
D28*
%TO.C,D1*%
X137392062Y-84986683D03*
X138180170Y-84668267D03*
X138968275Y-84349852D03*
X139756381Y-84031436D03*
%TD*%
D18*
%TO.C,MAG3*%
X161849200Y-101073600D03*
X162799200Y-101073600D03*
X163749200Y-101073600D03*
X163749200Y-98423600D03*
X162799200Y-98423600D03*
X161849200Y-98423600D03*
%TD*%
D17*
%TO.C,C3*%
X122225700Y-102288600D03*
X123976500Y-102288600D03*
%TD*%
D29*
%TO.C,C1*%
X153073100Y-81890200D03*
X153073100Y-84841000D03*
%TD*%
D17*
%TO.C,C4*%
X122225700Y-113718600D03*
X123976500Y-113718600D03*
%TD*%
D20*
%TO.C,S1*%
X177046100Y-110103600D03*
X177046100Y-105903600D03*
%TD*%
D30*
%TO.C,C16*%
X126475391Y-93670545D03*
X127943735Y-94624099D03*
%TD*%
D25*
%TO.C,C8*%
X137325100Y-100624000D03*
X137325100Y-98873200D03*
%TD*%
D24*
%TO.C,R1*%
X151295100Y-91270100D03*
X151295100Y-89431100D03*
%TD*%
D31*
%TO.C,U2*%
X122151100Y-106775600D03*
X123101100Y-106775600D03*
X124051100Y-106775600D03*
X124051100Y-104405600D03*
X122151100Y-104405600D03*
%TD*%
D29*
%TO.C,C2*%
X143802100Y-81890200D03*
X143802100Y-84841000D03*
%TD*%
D18*
%TO.C,MAG1*%
X147551100Y-125838600D03*
X148501100Y-125838600D03*
X149451100Y-125838600D03*
X149451100Y-123188600D03*
X148501100Y-123188600D03*
X147551100Y-123188600D03*
%TD*%
D32*
%TO.C,C14*%
X170548190Y-122291752D03*
X169079846Y-121338198D03*
%TD*%
D25*
%TO.C,C9*%
X159677100Y-100624000D03*
X159677100Y-98873200D03*
%TD*%
D33*
%TO.C,C11*%
X134190492Y-85967197D03*
X135144046Y-87435541D03*
%TD*%
D34*
%TO.C,C17*%
X134201189Y-130017550D03*
X135154743Y-128549206D03*
%TD*%
D31*
%TO.C,U4*%
X172951100Y-106775600D03*
X173901100Y-106775600D03*
X174851100Y-106775600D03*
X174851100Y-104405600D03*
X172951100Y-104405600D03*
%TD*%
D17*
%TO.C,C6*%
X174776500Y-102288600D03*
X173025700Y-102288600D03*
%TD*%
D35*
%TO.C,C15*%
X162822392Y-85944750D03*
X161868838Y-87413094D03*
%TD*%
D36*
%TO.C,D4*%
X139756378Y-132186468D03*
X138968272Y-131868052D03*
X138180167Y-131549637D03*
X137392059Y-131231221D03*
%TD*%
D37*
%TO.C,C13*%
X162811708Y-130040003D03*
X161858154Y-128571659D03*
%TD*%
D38*
%TO.C,C18*%
X147025700Y-133403600D03*
X149976500Y-133403600D03*
%TD*%
M02*
