M48
; DRILL file KiCad 10.0.3 date 2026-06-14T23:55:17
; FORMAT={-:-/ absolute / metric / decimal}
; #@! TF.CreationDate,2026-06-14T23:55:17+03:00
; #@! TF.GenerationSoftware,Kicad,Pcbnew,10.0.3
; #@! TF.FileFunction,Plated,1,2,PTH
FMAT,2
METRIC
; #@! TA.AperFunction,Plated,PTH,ViaDrill
T1C0.300
; #@! TA.AperFunction,Plated,PTH,ViaDrill
T2C0.350
; #@! TA.AperFunction,Plated,PTH,ComponentDrill
T3C0.838
%
G90
G05
T1
X120.56Y-112.15
X125.05Y-95.03
X127.5Y-91.0
X127.5Y-125.0
X129.5Y-103.0
X130.0Y-94.0
X130.0Y-110.5
X131.0Y-96.5
X131.5Y-87.0
X131.5Y-122.0
X131.5Y-129.5
X134.0Y-108.5
X134.22Y-99.76
X134.5Y-115.0
X134.5Y-126.0
X135.0Y-92.0
X135.63Y-130.6
X138.0Y-88.0
X139.0Y-119.5
X140.0Y-91.5
X141.5Y-96.0
X141.66Y-82.6
X142.5Y-127.5
X146.0Y-85.5
X150.42Y-126.69
X150.5Y-86.0
X152.0Y-76.0
X154.5Y-127.5
X156.0Y-89.5
X157.0Y-120.5
X158.61Y-100.62
X160.0Y-87.0
X160.5Y-103.5
X162.5Y-121.0
X162.5Y-125.5
X163.5Y-110.0
X164.5Y-91.0
X165.5Y-129.0
X166.0Y-86.5
X166.0Y-122.0
X168.5Y-113.5
X169.5Y-125.0
X170.0Y-90.5
X171.0Y-107.0
X171.47Y-121.0
X176.49Y-102.63
T2
X119.926Y-104.702
X123.366Y-101.008
X125.641Y-102.289
X125.641Y-111.56
X125.641Y-113.719
X126.276Y-98.86
X126.601Y-117.585
X127.313Y-97.844
X128.245Y-122.672
X128.435Y-119.18
X128.753Y-93.462
X133.261Y-97.209
X133.769Y-104.829
X133.896Y-88.319
X135.928Y-102.67
X137.706Y-128.959
X137.71Y-132.22
X139.103Y-130.356
X139.611Y-85.821
X140.353Y-85.292
X143.548Y-89.97
X144.55Y-88.446
X145.326Y-92.764
X146.596Y-123.244
X146.977Y-90.388
X147.777Y-90.388
X148.501Y-90.388
X148.501Y-132.345
X149.263Y-90.388
X150.406Y-88.319
X151.676Y-92.743
X153.073Y-83.112
X153.073Y-86.033
X154.089Y-83.112
X155.359Y-95.198
X156.629Y-95.177
X158.0Y-83.56
X158.471Y-130.419
X159.423Y-132.134
X161.25Y-84.19
X161.836Y-97.209
X163.106Y-128.324
X163.741Y-87.684
X166.662Y-108.512
X168.758Y-122.672
X168.821Y-102.289
X168.821Y-103.813
X168.821Y-105.337
X169.075Y-96.193
X169.71Y-117.71
X170.345Y-98.479
X171.107Y-103.813
X171.127Y-117.127
X171.784Y-97.946
X171.996Y-106.734
X175.785Y-111.814
X177.5Y-107.5
T3
X146.501Y-76.504
X146.501Y-78.504
X146.501Y-80.754
X146.501Y-82.754
X148.501Y-76.504
X148.501Y-78.504
X148.501Y-80.754
X148.501Y-82.754
X150.501Y-76.504
X150.501Y-78.504
X150.501Y-80.754
X150.501Y-82.754
M30
